<?xml version="1.0" encoding="utf-8"?>
<!-- Generator: Adobe Illustrator 24.2.3, SVG Export Plug-In . SVG Version: 6.00 Build 0)  -->
<svg version="1.1" id="Layer_1" xmlns="http://www.w3.org/2000/svg" xmlns:xlink="http://www.w3.org/1999/xlink" x="0px" y="0px"
	 width="24px" height="24px" viewBox="0 0 24 24" enable-background="new 0 0 24 24" xml:space="preserve">
<path d="M14,1h-4v2h4V1z M17,0h-2v4h2V0z M9,0H7v4h2V0z M11,10h4v2h-2l-2,2v2l2,2h2l2-2h-4v-2h2l2-2v-2l-2-2h-2L11,10z M18,1v2h4
	l2-2H18z M20,19.2L17.2,22H4V5H2v19h16l4-4V5h-2V19.2z M9,8l-2,2v8h2V8z M6,1H0v2h6V1z"/>
</svg>
