<?xml version="1.0" encoding="utf-8"?>
<!-- Generator: Adobe Illustrator 25.2.1, SVG Export Plug-In . SVG Version: 6.00 Build 0)  -->
<svg version="1.1" id="Layer_1" xmlns="http://www.w3.org/2000/svg" xmlns:xlink="http://www.w3.org/1999/xlink" x="0px" y="0px"
	 width="24px" height="24px" viewBox="0 0 24 24" enable-background="new 0 0 24 24" xml:space="preserve">
<path d="M14,8l-2,2v4l2,2h2l2-2v-4l-2-2H14z M16,14h-2v-4h2V14z M6,8h5l0,2l-2,6l-2,0l1.8-6H6V8z M24,12c0,6.6-5.4,12-12,12
	S0,18.6,0,12S5.4,0,12,0c3.8,0,7.2,1.8,9.4,4.6L21,5l-1,1l0,0c-1.8-2.4-4.7-4-8-4C6.5,2,2,6.5,2,12s4.5,10,10,10s10-4.5,10-10
	c0-1.5-0.3-2.9-0.9-4.2l1.5-1.5C23.5,8,24,9.9,24,12z"/>
</svg>
