<?xml version="1.0" encoding="utf-8"?>
<!-- Generator: Adobe Illustrator 25.3.1, SVG Export Plug-In . SVG Version: 6.00 Build 0)  -->
<svg version="1.1" id="Layer_1" xmlns="http://www.w3.org/2000/svg" xmlns:xlink="http://www.w3.org/1999/xlink" x="0px" y="0px"
	 width="24px" height="24px" viewBox="0 0 24 24" enable-background="new 0 0 24 24" xml:space="preserve">
<g>
	<g>
		<path d="M2,18H0v2v2v2h2h2h2v-2v-2v-2H4H2z M4,22H2v-2h2V22z M2,9H0v2v2v2h2h2h2v-2v-2V9H4H2z M4,13H2v-2h2V13z M0,6h6V0H0V6z
			 M18,15h6V9h-6V15z M9,24h6v-6H9V24z M20,18h-2v2v2v2h2h2h2v-2v-2v-2h-2H20z M22,22h-2v-2h2V22z M22,0h-2h-2v2v2v2h2h2h2V4V2V0H22
			z M22,4h-2V2h2V4z M11,0H9v2v2v2h2h2h2V4V2V0h-2H11z M13,4h-2V2h2V4z M11,9H9v2v2v2h2h2h2v-2v-2V9h-2H11z M13,13h-2v-2h2V13z"/>
	</g>
</g>
<g>
</g>
<g>
</g>
<g>
</g>
<g>
</g>
<g>
</g>
<g>
</g>
</svg>
