<?xml version="1.0" encoding="utf-8"?>
<!-- Generator: Adobe Illustrator 24.2.3, SVG Export Plug-In . SVG Version: 6.00 Build 0)  -->
<svg version="1.1" id="Layer_1" xmlns="http://www.w3.org/2000/svg" xmlns:xlink="http://www.w3.org/1999/xlink" x="0px" y="0px"
	 width="24px" height="24px" viewBox="0 0 24 24" enable-background="new 0 0 24 24" xml:space="preserve">
<path d="M2,7L0,9v8h2v-3h2v3h2V9L4,7H2z M4,12H2V9h2V12z M9,7v10h4l2-2v-2l-1-1l1-1V9l-2-2H9z M13,15h-2v-2h2V15z M13,11h-2V9.1h2
	V11z M20,15h4l-2,2h-2l-2-2v-2v-2V9l2-2h2l2,2h-4v1.3V11v2v0.7V15z"/>
</svg>
