<svg enable-background="new 0 0 24 24" height="24" viewBox="0 0 24 24" width="24" xmlns="http://www.w3.org/2000/svg"><path d="m18 12.5c0-3.6-2.9-6.5-6.5-6.5s-6.5 2.9-6.5 6.5 2.9 6.5 6.5 6.5 6.5-2.9 6.5-6.5zm-6 5.3v-2.6c.6 0 1.1.1 1.6.2-.4 1.2-.9 2.1-1.6 2.4zm0-3.6v-1.2h2c0 .5-.1 1-.1 1.4-.6-.1-1.3-.2-1.9-.2zm3-1.2h2c-.1.9-.4 1.6-.8 2.4-.4-.2-.9-.5-1.4-.6.1-.6.2-1.2.2-1.8zm0-1c0-.6-.1-1.2-.2-1.7.5-.2 1-.4 1.4-.6.4.7.7 1.5.8 2.3zm-1 0h-2v-1.2c.6 0 1.3-.1 1.8-.2.1.4.2.9.2 1.4zm-2-2.2v-2.6c.7.3 1.2 1.2 1.6 2.4-.5.1-1 .1-1.6.2zm-1-2.6v2.5c-.6 0-1.1-.1-1.6-.2.4-1.1.9-2 1.6-2.3zm0 3.6v1.2h-2c0-.5.1-1 .1-1.4.6.1 1.3.2 1.9.2zm-3 1.2h-2c.1-.9.3-1.6.8-2.4.4.3.9.5 1.4.6-.1.6-.2 1.2-.2 1.8zm0 1c0 .6.1 1.2.2 1.7-.5.2-1 .4-1.4.6-.4-.7-.7-1.4-.8-2.3zm1 0h2v1.2c-.6 0-1.3.1-1.8.2-.1-.4-.2-.9-.2-1.4zm2 2.3v2.5c-.7-.3-1.2-1.2-1.6-2.3.5-.1 1-.2 1.6-.2zm2.7 2.2c.3-.5.6-1.1.8-1.8.4.1.7.3 1 .5-.4.6-1.1 1-1.8 1.3zm1.9-8.7c-.3.2-.7.3-1.1.5-.2-.7-.5-1.3-.8-1.8.7.3 1.4.7 1.9 1.3zm-6.3-1.3c-.3.5-.6 1.1-.8 1.8-.4-.2-.8-.3-1.1-.5.5-.6 1.2-1 1.9-1.3zm-1.9 8.7c.3-.2.7-.3 1-.5.3.7.6 1.3.9 1.8-.7-.3-1.4-.7-1.9-1.3zm11.6-12.2h2v16l-4 4h-13-2v-2-18h2v18h12.2l2.8-2.8zm5-4-2 2h-22v-2z"/></svg>