<?xml version="1.0" encoding="utf-8"?>
<!-- Generator: Adobe Illustrator 24.2.3, SVG Export Plug-In . SVG Version: 6.00 Build 0)  -->
<svg version="1.1" id="Layer_1" xmlns="http://www.w3.org/2000/svg" xmlns:xlink="http://www.w3.org/1999/xlink" x="0px" y="0px"
	 width="24px" height="24px" viewBox="0 0 24 24" enable-background="new 0 0 24 24" xml:space="preserve">
<path d="M12,0C7,0,3,4,3,9c0,7,9,15,9,15s9-8,9-15C21,4,17,0,12,0z M12,21.3c0,0-7-6.3-7-12.3c0-3.9,3.1-7,7-7s7,3.1,7,7
	C19,15,12,21.3,12,21.3z M12,4C9.2,4,7,6.2,7,9s2.2,5,5,5s5-2.2,5-5S14.8,4,12,4z M12,12c-1.7,0-3-1.3-3-3s1.3-3,3-3s3,1.3,3,3
	S13.7,12,12,12z"/>
</svg>
