<?xml version="1.0" encoding="utf-8"?>
<!-- Generator: Adobe Illustrator 24.2.3, SVG Export Plug-In . SVG Version: 6.00 Build 0)  -->
<svg version="1.1" id="Layer_1" xmlns="http://www.w3.org/2000/svg" xmlns:xlink="http://www.w3.org/1999/xlink" x="0px" y="0px"
	 width="24px" height="24px" viewBox="0 0 24 24" enable-background="new 0 0 24 24" xml:space="preserve">
<path d="M13,10v1h4l1-1H13z M15,13h-3v3h3V13z M16,14v1h1l1-1H16z M20,19.2L17.2,22H4V4H2v20h16l4-4l0,0V4h-2V19.2z M18,18h-5v1h4
	L18,18z M9,12h3V9H9V12z M0,0v2h22l2-2H0z M10,6v1h7l1-1H10z M6,8h3V5H6V8z M9,20h3v-3H9V20z"/>
</svg>
