<?xml version="1.0" encoding="utf-8"?>
<!-- Generator: Adobe Illustrator 24.2.3, SVG Export Plug-In . SVG Version: 6.00 Build 0)  -->
<svg version="1.1" id="Layer_1" xmlns="http://www.w3.org/2000/svg" xmlns:xlink="http://www.w3.org/1999/xlink" x="0px" y="0px"
	 width="24px" height="24px" viewBox="0 0 24 24" enable-background="new 0 0 24 24" xml:space="preserve">
<path d="M24,10.9h-8.3l5.9-3.4l-1-1.7l-5.9,3.4L16.6,6l-1.7-1L13,8.2V0h-2v8.2L8.2,3.4l-1.7,1l2.8,4.8L4.7,6.5l-1,1.7l4.5,2.6H0v2
	h8.3l-6.1,3.5l1,1.7l6.1-3.5l-2.6,4.5l1.7,1l2.6-4.5V24h2v-8.4l3.5,6l1.7-1l-3.5-6l3.8,2.2l1-1.7l-3.8-2.2H24V10.9z M12,13.9
	c-1.1,0-2-0.9-2-2s0.9-2,2-2s2,0.9,2,2S13.1,13.9,12,13.9z"/>
</svg>
