<?xml version="1.0" encoding="utf-8"?>
<!-- Generator: Adobe Illustrator 24.2.3, SVG Export Plug-In . SVG Version: 6.00 Build 0)  -->
<svg version="1.1" id="Layer_1" xmlns="http://www.w3.org/2000/svg" xmlns:xlink="http://www.w3.org/1999/xlink" x="0px" y="0px"
	 width="24px" height="24px" viewBox="0 0 24 24" enable-background="new 0 0 24 24" xml:space="preserve">
<path d="M12,4c2.7,0,5.2,1.1,7.1,3l1.4-1.4C16,0.7,8.4,0.5,3.6,5S-1.5,17.2,3,22l0,0l1.4-1.4C0.8,16.4,1.2,10.1,5.3,6.5
	C7.2,4.9,9.6,4,12,4z M21.6,11.3c0.9,3.2,0.1,6.7-2.1,9.2L21,22c3-3.4,3.8-8.1,2.2-12.3L21.6,11.3z M10.1,18h2.8L24,6.9V4.1L10.1,18
	z"/>
</svg>
