<?xml version="1.0" encoding="utf-8"?>
<!-- Generator: Adobe Illustrator 25.2.1, SVG Export Plug-In . SVG Version: 6.00 Build 0)  -->
<svg version="1.1" id="Layer_1" xmlns="http://www.w3.org/2000/svg" xmlns:xlink="http://www.w3.org/1999/xlink" x="0px" y="0px"
	 viewBox="0 0 512 512" style="enable-background:new 0 0 512 512;" xml:space="preserve">
<style type="text/css">
	.st0{display:none;}
	.st1{display:inline;fill:#4E84C4;}
</style>
<g class="st0">
	<path class="st1" d="M181.3,32v29.9h59.7v89.6h-29.9v29.9h89.6v-29.9h-29.9V61.9h59.7V32H181.3z"/>
	<path class="st1" d="M330.7,480v-29.9h-59.7v-89.6h29.9v-29.9h-89.6v29.9h29.9v89.6h-59.7V480H330.7z"/>
	<path class="st1" d="M480,330.7h-29.9v-59.7h-89.6v29.9h-29.9v-89.6h29.9v29.9h89.6v-59.7H480V330.7z"/>
	<path class="st1" d="M32,330.7h29.9v-59.7h89.6v29.9h29.9v-89.6h-29.9v29.9H61.9v-59.7H32V330.7z"/>
</g>
<path d="M32,0H0v448v32h480v-32V32V0H32z M448,448H32V32h416V448z M352,128h-32V96h32V128z M96,192H64v-32h32V192z M96,128H64V96h32
	V128z M160,128h-32V96h32V128z M224,128h-32V96h32V128z M288,128h-32V96h32V128z M96,256H64v-32h32V256z M416,128h-32V96h32V128z
	 M416,256h-32v-32h32V256z M416,192h-32v-32h32V192z M96,384H64v-32h32V384z M352,384h-32v-32h32V384z M160,384h-32v-32h32V384z
	 M224,384h-32v-32h32V384z M288,384h-32v-32h32V384z M416,384h-32v-32h32V384z M96,320H64v-32h32V320z M416,320h-32v-32h32V320z"/>
</svg>
