<?xml version="1.0" encoding="utf-8"?>
<!-- Generator: Adobe Illustrator 24.2.0, SVG Export Plug-In . SVG Version: 6.00 Build 0)  -->
<svg version="1.1" id="Layer_1" xmlns="http://www.w3.org/2000/svg" xmlns:xlink="http://www.w3.org/1999/xlink" x="0px" y="0px"
	 width="512px" height="512px" viewBox="0 0 512 512" xml:space="preserve">
<path d="M240,128c26.4,0,48-21.6,48-48s-21.6-48-48-48s-48,21.6-48,48S213.6,128,240,128z M240,192c-26.4,0-48,21.6-48,48
	s21.6,48,48,48s48-21.6,48-48S266.4,192,240,192z M240,352c-26.4,0-48,21.6-48,48s21.6,48,48,48s48-21.6,48-48S266.4,352,240,352z"
	/>
</svg>
