<?xml version="1.0" encoding="utf-8"?>
<!-- Generator: Adobe Illustrator 25.2.1, SVG Export Plug-In . SVG Version: 6.00 Build 0)  -->
<svg version="1.1" id="Layer_1" xmlns="http://www.w3.org/2000/svg" xmlns:xlink="http://www.w3.org/1999/xlink" x="0px" y="0px"
	 viewBox="0 0 512 512" style="enable-background:new 0 0 512 512;" xml:space="preserve">
<style type="text/css">
	.st0{display:none;}
	.st1{display:inline;fill:#4E84C4;}
</style>
<g class="st0">
	<path class="st1" d="M181.3,32v29.9h59.7v89.6h-29.9v29.9h89.6v-29.9h-29.9V61.9h59.7V32H181.3z"/>
	<path class="st1" d="M330.7,480v-29.9h-59.7v-89.6h29.9v-29.9h-89.6v29.9h29.9v89.6h-59.7V480H330.7z"/>
	<path class="st1" d="M480,330.7h-29.9v-59.7h-89.6v29.9h-29.9v-89.6h29.9v29.9h89.6v-59.7H480V330.7z"/>
	<path class="st1" d="M32,330.7h29.9v-59.7h89.6v29.9h29.9v-89.6h-29.9v29.9H61.9v-59.7H32V330.7z"/>
</g>
<path d="M128,288.2V256H64v64H0V160h64v64h64v-32h64v96.2H128z M448,160v64h-96v-32.2h-32V224v32v32h32v-32h96v64h32V160H448z
	 M256,352h32.2v-32H256h-32h-32v32h32v96h-64v32h160v-32h-64V352z M224,128h-32.2v32H224h32h32v-32h-32V32h64V0H160v32h64V128z"/>
</svg>
