<?xml version="1.0" encoding="utf-8"?>
<!-- Generator: Adobe Illustrator 20.1.0, SVG Export Plug-In . SVG Version: 6.00 Build 0)  -->
<svg version="1.1" id="Layer_1" xmlns="http://www.w3.org/2000/svg" xmlns:xlink="http://www.w3.org/1999/xlink" x="0px" y="0px"
	 width="512px" height="512px" viewBox="0 0 512 512" xml:space="preserve">
<path d="M448,128H304V96h144V128z M245.335,254.873c7.09,11.573,10.665,25.65,10.665,42.197c0,17.067-4.069,32.379-12.176,45.903
	c-5.178,9.005-11.62,16.58-19.358,22.691c-8.723,7.022-18.988,11.833-30.855,14.467C181.744,382.732,168.89,384,155.02,384H32V96
	h131.927c33.321,0.504,56.901,10.744,70.803,30.705c8.323,12.24,12.515,26.869,12.515,43.936c0,17.588-4.192,31.729-12.607,42.425
	c-4.716,5.982-11.683,11.443-20.868,16.385C227.733,234.815,238.244,243.268,245.335,254.873z M86.435,209.555H152.8
	c11.867,0,21.484-2.406,28.913-7.152c7.367-4.763,11.097-13.215,11.097-25.292c0-13.426-4.901-22.285-14.672-26.609
	c-8.446-2.991-19.204-4.486-32.273-4.486H86.435V209.555z M198.358,293.007c0-15.019-5.795-25.292-17.385-30.917
	c-6.504-3.121-15.597-4.746-27.31-4.876H86.435v76.787h66.303c11.836,0,21.084-1.69,27.68-5.071
	C192.378,322.655,198.358,310.692,198.358,293.007z M479.932,288H330.824c0.813,21.182,7.938,34.778,21.409,43.322
	c8.157,5.287,18.002,7.931,29.503,7.931c12.189,0,22.096-3.224,29.722-9.704c4.157-3.482,7.813-8.318,11.001-14.541h54.693
	c-1.438,12.541-8.095,25.276-19.846,38.204C438.959,373.748,413.269,384,380.266,384c-27.253,0-51.286-8.64-72.132-25.985
	c-20.846-17.28-31.222-45.522-31.222-84.532c0-36.624,9.376-64.672,28.19-84.21C323.917,169.785,348.294,160,378.328,160
	c17.814,0,33.847,3.288,48.129,9.898c14.282,6.593,26.096,17.023,35.378,31.24c8.407,12.573,13.876,27.114,16.346,43.685
	C479.619,254.527,480.214,269.752,479.932,288z M424.365,250.304c-0.969-14.669-5.72-25.759-14.283-33.4
	c-8.532-7.576-19.095-11.348-31.753-11.348c-13.72,0-24.377,3.998-31.94,12.058c-7.563,8.028-12.314,18.957-14.282,32.691H424.365z"
	/>
</svg>
