<?xml version="1.0" encoding="utf-8"?>
<!-- Generator: Adobe Illustrator 20.1.0, SVG Export Plug-In . SVG Version: 6.00 Build 0)  -->
<svg version="1.1" baseProfile="tiny" id="Layer_1" xmlns="http://www.w3.org/2000/svg" xmlns:xlink="http://www.w3.org/1999/xlink"
	 x="0px" y="0px" viewBox="0 0 512 512" xml:space="preserve">
<g>
	<path d="M283.991,283.188c-82.867,28.886-118.131,83.357-126.704,98.739C184.477,403.271,218.752,416,256,416
		c22.487,0,43.886-4.648,63.301-13.021c-3.335-18.398-13.076-65.165-34.239-120.14C284.688,282.946,284.339,283.081,283.991,283.188
		z"/>
	<path d="M448,32H64c-17.664,0-32,14.336-32,32v384c0,17.664,14.336,32,32,32h384c17.664,0,32-14.336,32-32V64
		C480,46.336,465.664,32,448,32z M256,448c-106.039,0-192-85.961-192-192S149.961,64,256,64s192,85.961,192,192S362.039,448,256,448
		z"/>
	<path d="M188.499,110.906c-44.909,20.928-78.484,62.085-89.012,111.762c17.091-0.062,78.649-1.679,147.594-19.998
		C222.799,159.538,196.846,122.56,188.499,110.906z"/>
	<path d="M267.465,257.688c2.116-0.696,4.286-1.339,6.456-1.956c-4.125-9.321-8.598-18.643-13.286-27.831
		c-74.056,22.159-146.115,23.43-164.56,23.371C96.029,252.843,96,254.418,96,256c0,40.782,15.266,77.993,40.385,106.251
		C146.932,345.58,191.037,282.373,267.465,257.688z"/>
	<path d="M362.441,136.554C334.16,111.335,296.874,96,256,96c-12.39,0-24.451,1.41-36.032,4.075
		c8.688,11.895,34.877,48.83,58.773,92.738C329.539,173.773,354.819,146.142,362.441,136.554z"/>
	<path d="M315.759,275.259c19.177,52.695,28.184,96.613,31.068,112.466c35.245-24.349,60.241-62.47,67.203-106.593
		C400.926,277.483,360.743,268.062,315.759,275.259z"/>
	<path d="M291.357,217.188c3.804,7.821,7.473,15.777,10.875,23.759c1.206,2.839,2.384,5.652,3.536,8.464
		c48.012-6.034,95.747,1.765,110.206,4.491c-0.479-37.223-13.665-71.378-35.424-98.33
		C372.212,165.729,344.537,195.483,291.357,217.188z"/>
</g>
</svg>
