<?xml version="1.0" encoding="utf-8"?>
<!-- Generator: Adobe Illustrator 19.2.1, SVG Export Plug-In . SVG Version: 6.00 Build 0)  -->
<svg version="1.1" id="Layer_1" xmlns="http://www.w3.org/2000/svg" xmlns:xlink="http://www.w3.org/1999/xlink" x="0px" y="0px"
	 width="512px" height="512px" viewBox="0 0 512 512" xml:space="preserve">
<path d="M377,182.4l-88.8,88.8l-31.2,29l-33.2-29L135,182.4c-7.7,2-13.8,8.1-15.8,15.8l73,73l-73,73c2,7.7,8.1,13.8,15.8,15.8l73-73
	l49,44.8l47-44.8l73,73c7.7-2,13.8-8.1,15.8-15.8l-73-73l73-73C390.8,190.5,384.7,184.4,377,182.4z M448,32H64
	c-17.7,0-32,14.3-32,32v384c0,17.7,14.3,32,32,32h384c17.7,0,32-14.3,32-32V64C480,46.3,465.7,32,448,32z M416,361.6
	c0,12.4-10,22.4-22.4,22.4H118.4C106,384,96,374,96,361.6V182.4c0-12.4,10-22.4,22.4-22.4h275.2c12.4,0,22.4,10,22.4,22.4V361.6z"/>
</svg>
