<?xml version="1.0" encoding="utf-8"?>
<!-- Generator: Adobe Illustrator 19.2.1, SVG Export Plug-In . SVG Version: 6.00 Build 0)  -->
<svg version="1.1" id="Layer_1" xmlns="http://www.w3.org/2000/svg" xmlns:xlink="http://www.w3.org/1999/xlink" x="0px" y="0px"
	 viewBox="0 0 512 512" enable-background="new 0 0 512 512" xml:space="preserve">
<path d="M212.6,236.1c5.1-5.1,8.2-10.8,9.4-17.1s1.8-11.6,1.8-15.8c0-8.1-1.2-17-3.6-26.6s-6-18.6-10.8-27
	c-4.8-8.4-10.7-15.4-17.7-21c-7-5.6-15.2-8.4-24.4-8.4c-6,0-11.8,1.3-17.5,4.1s-10.3,6.3-13.9,10.8c-3.9,4.8-6.5,10-7.8,15.7
	s-2,11.6-2,17.6c0,7.5,1.1,15.9,3.4,25.2s5.7,18,10.3,26.1c4.6,8.1,10.5,14.9,17.5,20.5c7,5.5,15.3,8.3,24.9,8.3
	c5.7,0,11.3-1.2,16.8-3.6S209,239.7,212.6,236.1z M448,32H64c-17.7,0-32,14.3-32,32v384c0,17.7,14.3,32,32,32h384
	c17.7,0,32-14.3,32-32V64C480,46.3,465.7,32,448,32z M270.9,394.1c-5.1,10.2-12.6,19.3-22.4,27.2s-22.2,14.4-37,19.4
	c-14.8,4.9-31.8,7.4-50.9,7.4c-16.2,0-30.3-1.8-42.4-5.4s-22.2-8.4-30.3-14.4c-8.1-6-14.1-12.8-18-20.4s-5.9-15.6-5.9-24
	c0-8.1,2.5-17.2,7.4-27.6s14-19.4,27.2-27.2c6.8-4.2,14.3-7.6,22.2-10.1s15.8-4.6,23.6-6c7.8-1.5,15.1-2.5,22-3.1s12.9-1.1,18-1.3
	c-3.3-4.2-6.4-8.6-9.2-13.3s-4.3-10.4-4.3-17.3c0-3.9,0.4-7.1,1.3-9.7s1.9-5.2,3.1-7.9c-2.4,0.3-4.8,0.5-7.2,0.7s-4.8,0.2-7.2,0.2
	c-12,0-22.6-2-31.9-6c-9.3-4-17.1-9.3-23.4-15.9c-6.3-6.6-11.1-14.1-14.3-22.7s-4.9-17.2-4.9-25.8c0-10.5,2.4-21,7.2-31.6
	s12-20.1,21.6-28.5c12.8-10.5,26.4-17.2,40.6-20.2c14.2-3,27.5-4.5,39.7-4.5H288l-28.7,15.7h-27.8c2.7,2.1,5.8,4.9,9.4,8.3
	c3.6,3.5,7,7.6,10.3,12.6c3.3,5,6.1,10.7,8.5,17.3s3.6,14.1,3.6,22.5s-1.1,15.7-3.1,22c-2.1,6.3-4.9,11.9-8.5,16.9
	s-7.6,9.4-12.1,13.5c-4.5,4.1-9.2,7.9-13.9,11.5c-3,3-5.9,6.1-8.5,9.4s-4,7.5-4,12.6s1.3,9.1,4,11.9s5.2,5.3,7.6,7.4l16.2,12.6
	c4.8,4.2,9.5,8.4,14.1,12.6c4.6,4.2,8.7,8.7,12.1,13.5c3.5,4.8,6.2,10.1,8.3,16.2s3.2,12.9,3.2,20.7
	C278.6,373.5,276.1,383.8,270.9,394.1L270.9,394.1z M448,192h-64v64h-32v-64h-64v-32h64V96h32v64h64V192z M236.8,351.5
	c-3.9-4.5-9-9.1-15.3-13.9s-13.6-10.2-22-16.2c-1.8-0.3-3.4-0.4-4.7-0.4h-5.6c-0.9,0-3,0.1-6.3,0.2s-7.2,0.4-11.7,0.9
	s-9.3,1.2-14.3,2.3s-10,2.3-14.8,3.8c-2.4,0.9-5.8,2.3-10.1,4.3s-8.6,4.7-12.8,8.3s-7.8,8.1-11,13.5c-3.1,5.4-4.7,12.1-4.7,20.2
	c0,16.2,7.1,29.3,21.3,39.5s33.4,15.3,57.7,15.3c21.5,0,37.9-4.5,49.2-13.7s16.8-20.7,16.8-34.8c0-5.7-1-10.8-2.9-15.5
	S240.7,356,236.8,351.5L236.8,351.5z"/>
</svg>
