<?xml version="1.0" encoding="utf-8"?>
<!-- Generator: Adobe Illustrator 24.2.0, SVG Export Plug-In . SVG Version: 6.00 Build 0)  -->
<svg version="1.1" id="Layer_1" xmlns="http://www.w3.org/2000/svg" xmlns:xlink="http://www.w3.org/1999/xlink" x="0px" y="0px"
	 width="512px" height="512px" viewBox="0 0 512 512" xml:space="preserve">
<path d="M204.3,33c-16.1-1-33.4,1-52,4.9s-36.4,12.8-53.2,26.5c-12.6,11-22,23.4-28.3,37.3s-9.4,27.7-9.4,41.5
	c0,11.4,2.1,22.7,6.5,33.8c4.3,11.1,10.6,21.1,18.8,29.7c8.2,8.6,18.4,15.6,30.6,20.9c12.2,5.3,26.1,7.9,41.8,7.9
	c3.1,0,6.2-0.1,9.4-0.3s6.3-0.5,9.4-0.9c-1.6,3.5-2.9,7-4.1,10.3c-1.2,3.3-1.8,7.6-1.8,12.6c0,9,1.9,16.5,5.6,22.6s7.7,11.9,12,17.4
	c-6.7,0.4-14.5,1-23.5,1.8s-18.6,2.1-28.8,4.1s-20.5,4.6-30.9,7.9s-20.1,7.7-29.1,13.2c-17.2,10.2-29.1,22-35.6,35.6
	C35.2,373.4,32,385.4,32,396c0,11,2.6,21.5,7.7,31.5s12.9,18.9,23.5,26.7C73.8,462,87,468.3,102.9,473s34.4,7,55.6,7
	c25.1,0,47.3-3.2,66.7-9.7s35.6-14.9,48.5-25.3s22.7-22.3,29.4-35.6c6.7-13.3,10-26.9,10-40.6c0-10.2-1.4-19.3-4.2-27.1
	c-2.7-7.9-6.4-14.9-10.8-21.2c-4.5-6.3-9.8-12.2-15.9-17.7s-12.3-11-18.5-16.5l-21.2-16.5c-3.2-2.8-6.5-6-10-9.7s-5.3-8.9-5.3-15.6
	c0-6.7,1.8-12.2,5.3-16.5s7.2-8.4,11.2-12.4c6.2-4.7,12.4-9.7,18.2-15c5.9-5.3,11.2-11.2,15.9-17.6c4.7-6.5,8.4-13.8,11.2-22.1
	c2.7-8.2,4.1-17.9,4.1-28.8s-1.5-20.8-4.7-29.5c-3.1-8.6-6.8-16.2-11.2-22.7c-4.3-6.5-8.8-12-13.5-16.5S251.3,52,251.3,52H288
	l31.7-20L204.3,33L204.3,33z M167.3,50.8c12.2,0,22.8,3.6,32,10.9s17,16.4,23.2,27.5c6.2,11,11,22.8,14.1,35.4s4.7,24.2,4.7,34.8
	c0,5.5-0.8,12.4-2.3,20.7c-1.6,8.3-5.7,15.7-12.4,22.4c-4.7,4.7-10.7,8.7-18,11.8c-7.3,3.2-14.6,4.7-22,4.7
	c-12.5,0-23.4-3.6-32.6-10.9c-9.2-7.3-16.9-16.3-22.9-26.8c-6.1-10.6-10.6-22-13.5-34.2s-4.4-23.2-4.4-33.1c0-7.9,0.9-15.5,2.7-23
	S121,76.6,126,70.3c4.7-5.9,10.8-10.6,18.2-14.1C151.7,52.6,159.4,50.8,167.3,50.8L167.3,50.8L167.3,50.8z M196.1,314h7.3
	c1.8,0,3.8,0.2,6.2,0.6c11,7.8,20.6,14.9,28.8,21.2c8.2,6.2,14.9,12.4,20,18.2c5.1,5.9,8.9,11.8,11.5,18c2.5,6,3.8,12.8,3.8,20.3
	c0,18.4-7.3,33.6-22,45.6c-14.7,11.9-36.2,17.9-64.4,17.9c-31.8,0-57-6.7-75.6-20s-27.9-30.6-27.9-51.7c0-10.6,2.1-19.4,6.2-26.5
	s8.9-12.9,14.4-17.6s11.1-8.3,16.8-10.8c5.7-2.6,10.1-4.4,13.2-5.6c6.3-2,12.7-3.6,19.4-5s12.9-2.4,18.8-3c5.9-0.6,11-1,15.3-1.2
	C192.1,314.2,194.8,314.1,196.1,314L196.1,314L196.1,314z M384,32v64h-64v32h64v64h32v-64h64V96h-64V32H384z"/>
</svg>
