<?xml version="1.0" encoding="utf-8"?>
<!-- Generator: Adobe Illustrator 19.2.1, SVG Export Plug-In . SVG Version: 6.00 Build 0)  -->
<svg version="1.1" id="Layer_1" xmlns="http://www.w3.org/2000/svg" xmlns:xlink="http://www.w3.org/1999/xlink" x="0px" y="0px"
	 viewBox="0 0 512 512" enable-background="new 0 0 512 512" xml:space="preserve">
<path d="M112,32c-26.5,0-48,21.5-48,48s21.5,48,48,48s48-21.5,48-48S138.5,32,112,32z M64,160v288h96V160H64z M192,160v288h96V288
	c0-32,32-32,32-32s32,0,32,32v160h96V290.9c0-66.5-13.6-130.9-96-130.9c-36.2,0-62.9,32-64,44.9V160L192,160z"/>
</svg>
