<?xml version="1.0" encoding="utf-8"?>
<!-- Generator: Adobe Illustrator 19.2.1, SVG Export Plug-In . SVG Version: 6.00 Build 0)  -->
<svg version="1.1" id="Layer_1" xmlns="http://www.w3.org/2000/svg" xmlns:xlink="http://www.w3.org/1999/xlink" x="0px" y="0px"
	 width="512px" height="512px" viewBox="0 0 512 512" xml:space="preserve">
<path d="M448,32H64c-17.6,0-32,14.4-32,32v384c0,17.6,14.4,32,32,32h384c17.6,0,32-14.4,32-32V64C480,46.4,465.6,32,448,32z
	 M160,416H96V192h64V416z M128,160c-17.7,0-32-14.3-32-32s14.3-32,32-32s32,14.3,32,32S145.7,160,128,160z M416,416h-64V288
	c0-17.7-14.3-32-32-32s-32,14.3-32,32v128h-64V192h64v39.7c13.2-18.1,33.4-39.7,56-39.7c39.8,0,72,35.8,72,80V416z"/>
</svg>
