<?xml version="1.0" encoding="utf-8"?>
<!-- Generator: Adobe Illustrator 19.2.1, SVG Export Plug-In . SVG Version: 6.00 Build 0)  -->
<svg version="1.1" id="Layer_1" xmlns="http://www.w3.org/2000/svg" xmlns:xlink="http://www.w3.org/1999/xlink" x="0px" y="0px"
	 viewBox="0 0 512 512" enable-background="new 0 0 512 512" xml:space="preserve">
<path d="M400,64c-44.2,0-80,35.8-80,80s35.8,80,80,80s80-35.8,80-80S444.2,64,400,64z M224,128c-35.4,0-64,28.6-64,64s28.6,64,64,64
	s64-28.6,64-64S259.4,128,224,128z M80,192c-26.5,0-48,21.5-48,48s21.5,48,48,48s48-21.5,48-48S106.5,192,80,192z M400,256
	c-44.2,0-80,36.1-80,80.5V448h160V336.5C480,292,444.2,256,400,256z M224,288c-35.4,0-64,31.5-64,70.3V448h128v-89.7
	C288,319.5,259.4,288,224,288z M79.8,320C53.4,320,32,341.8,32,368.7V448h95.6v-79.3C127.6,341.8,106.2,320,79.8,320L79.8,320z"/>
</svg>
