<?xml version="1.0" encoding="utf-8"?>
<!-- Generator: Adobe Illustrator 20.1.0, SVG Export Plug-In . SVG Version: 6.00 Build 0)  -->
<svg version="1.1" baseProfile="tiny" id="Layer_1" xmlns="http://www.w3.org/2000/svg" xmlns:xlink="http://www.w3.org/1999/xlink"
	 x="0px" y="0px" viewBox="0 0 512 512" xml:space="preserve">
<path d="M448,32H64c-17.664,0-32,14.336-32,32v384c0,17.664,14.336,32,32,32h384c17.664,0,32-14.336,32-32V64
	C480,46.336,465.664,32,448,32z M115.177,447.564C86.92,447.564,64,424.743,64,396.586s22.92-50.978,51.177-50.978
	c28.26,0,51.18,22.821,51.18,50.978S143.437,447.564,115.177,447.564z M243.584,447.921c0-48.12-18.685-93.318-52.614-127.272
	c-33.879-33.907-78.949-52.581-126.91-52.581V194.47c139.732,0,253.414,113.699,253.414,253.452H243.584z M374.11,448
	c0-171.154-139.039-310.402-309.942-310.402V64C275.814,64,448,236.261,448,448H374.11z"/>
</svg>
