<?xml version="1.0" encoding="utf-8"?>
<!-- Generator: Adobe Illustrator 24.2.0, SVG Export Plug-In . SVG Version: 6.00 Build 0)  -->
<svg version="1.1" id="Layer_1" xmlns="http://www.w3.org/2000/svg" xmlns:xlink="http://www.w3.org/1999/xlink" x="0px" y="0px"
	 width="512px" height="512px" viewBox="0 0 512 512" xml:space="preserve">
<path d="M151.4,420c0,32.9-26.7,59.5-59.7,59.5c-33,0-59.7-26.6-59.7-59.5c0-32.9,26.7-59.5,59.7-59.5
	C124.7,360.5,151.4,387.2,151.4,420z M32,184.3v85.9c56,0,108.5,21.8,148.1,61.3c39.6,39.6,61.4,92.3,61.4,148.5h86.2
	C327.6,317,195,184.3,32,184.3z M32,32v85.9c199.4,0,361.6,162.5,361.6,362.1h86.2C479.8,233,278.9,32,32,32z"/>
</svg>
