<?xml version="1.0" encoding="utf-8"?>
<!-- Generator: Adobe Illustrator 19.2.1, SVG Export Plug-In . SVG Version: 6.00 Build 0)  -->
<svg version="1.1" id="Layer_1" xmlns="http://www.w3.org/2000/svg" xmlns:xlink="http://www.w3.org/1999/xlink" x="0px" y="0px"
	 viewBox="0 0 512 512" enable-background="new 0 0 512 512" xml:space="preserve">
<path d="M480,432c0,44.2-35.8,80-80,80s-80-35.8-80-80c0-10.6,2.1-20.7,5.8-30l-158.6-88.1C152.9,327.6,133.4,336,112,336
	c-44.2,0-80-35.8-80-80c0-44.2,35.8-80,80-80c21.4,0,40.9,8.4,55.2,22.1L325.8,110c-3.8-9.3-5.8-19.4-5.8-30c0-44.2,35.8-80,80-80
	s80,35.8,80,80c0,44.2-35.8,80-80,80c-22,0-41.9-8.9-56.4-23.3l-158,87.8c4.1,9.7,6.4,20.3,6.4,31.5s-2.3,21.8-6.4,31.5l158,87.8
	C358.1,360.9,378,352,400,352C444.2,352,480,387.8,480,432z"/>
</svg>
