<?xml version="1.0" encoding="utf-8"?>
<!-- Generator: Adobe Illustrator 24.2.0, SVG Export Plug-In . SVG Version: 6.00 Build 0)  -->
<svg version="1.1" id="Layer_1" xmlns="http://www.w3.org/2000/svg" xmlns:xlink="http://www.w3.org/1999/xlink" x="0px" y="0px"
	 width="512px" height="512px" viewBox="0 0 512 512" xml:space="preserve">
<path d="M288.1,256l26.8,8.4L352,256v64c1.1,18.9,12.8,32,32,32s30.9-13.1,32-32v-64h64v64c0,0,0,96-96,96s-96-96-96-96L288.1,256z
	 M314.9,232.8L288,224v-32c0,0,0-32-32-32s-32,32-32,32v128c0,0,0,96-96,96s-96-96-96-96v-64h64v64l0,0c1.1,18.9,12.8,32,32,32
	c19.1,0,30.9-13.2,32.1-32H160V192c0,0,0-96,96-96s96,96,96,96v32L314.9,232.8z"/>
</svg>
