<?xml version="1.0" encoding="utf-8"?>
<!-- Generator: Adobe Illustrator 24.2.0, SVG Export Plug-In . SVG Version: 6.00 Build 0)  -->
<svg version="1.1" id="Layer_1" xmlns="http://www.w3.org/2000/svg" xmlns:xlink="http://www.w3.org/1999/xlink" x="0px" y="0px"
	 width="512px" height="512px" viewBox="0 0 512 512" xml:space="preserve">
<path d="M448,32H64c-17.7,0-32,14.3-32,32v384c0,17.7,14.3,32,32,32h384c17.7,0,32-14.3,32-32V64C480,46.3,465.7,32,448,32z M144,96
	c26.5,0,48,21.5,48,48s-21.5,48-48,48s-48-21.5-48-48S117.5,96,144,96z M224,416H64v-96c0-48.3,26-96,80.2-96l0,0
	c51.7,0,79.8,52.1,79.8,96V416z M447.6,416H288c0,0,0-192,80-192l0,0l0,0l0,0C448,224,447.6,416,447.6,416z M445.6,175.3
	c-11.1,7.9-24.3,16.7-78,16.7s-66.3-8.8-77.3-16.7c-1.5-1.3-2.4-3.1-2.4-5.1c0-4,3.6-7.2,8.2-7.5c13.6-2.3,23.8-13.8,23.8-25v-1.6
	c0-22.1,21.4-40.1,48-40.1h0.1c0.3,0,0.5,0,0.8,0c26.1,0.4,47.1,18.2,47.1,40.1v1.6c0,11.2,10.2,22.7,23.8,25
	c4.6,0.4,8.2,3.6,8.2,7.5C448,172.2,447.1,174,445.6,175.3z"/>
</svg>
