<?xml version="1.0" encoding="utf-8"?>
<!-- Generator: Adobe Illustrator 19.2.1, SVG Export Plug-In . SVG Version: 6.00 Build 0)  -->
<svg version="1.1" id="Layer_1" xmlns="http://www.w3.org/2000/svg" xmlns:xlink="http://www.w3.org/1999/xlink" x="0px" y="0px"
	 viewBox="0 0 512 512" enable-background="new 0 0 512 512" xml:space="preserve">
<path d="M192.5,32c-2.8,23.1-8.1,42.1-15.7,57.1c-7.6,15-17.7,27.8-30.2,38.5c-12.5,10.7-32.9,18.9-50.5,24.6V224h60.9v148.7
	c0,20.5,2.1,36.1,6.4,46.9s12,21,23.1,30.6c11.1,9.5,25,16.9,40.7,22.1c15.7,5.2,27.8,7.7,48.3,7.7c18,0,34.8-1.8,50.4-5.4
	c15.5-3.6,39.1-10.9,58.2-19.9V384c-22.4,14.8-51.2,23-73.9,23c-12.8,0-24.1-3-34-8.9c-7.5-4.4-14.3-12-17.1-19.3
	c-2.8-7.4-2.4-22.4-2.4-48.4V224h95.8v-96h-95.8V32L192.5,32L192.5,32z"/>
</svg>
