<?xml version="1.0" encoding="utf-8"?>
<!-- Generator: Adobe Illustrator 20.1.0, SVG Export Plug-In . SVG Version: 6.00 Build 0)  -->
<svg version="1.1" baseProfile="tiny" id="Layer_1" xmlns="http://www.w3.org/2000/svg" xmlns:xlink="http://www.w3.org/1999/xlink"
	 x="0px" y="0px" viewBox="0 0 512 512" xml:space="preserve">
<path d="M448,32H64c-17.664,0-32,14.336-32,32v384c0,17.664,14.336,32,32,32h384c17.664,0,32-14.336,32-32V64
	C480,46.336,465.664,32,448,32z M447.814,172.119c-1.714,37.08-27.831,87.809-78.295,152.123
	c-52.206,67.294-96.402,100.901-132.563,100.901c-22.366,0-41.304-20.462-56.786-61.493
	c-10.339-37.625-20.652-75.303-30.991-112.849c-11.491-41.058-23.813-61.573-37.018-61.573c-2.866,0-12.884,5.987-30.107,17.961
	L64,184.066c18.938-16.458,37.581-33.022,55.956-49.519c25.206-21.7,44.143-33.048,56.786-34.232
	c29.813-2.874,48.188,17.389,55.099,60.668c7.393,46.765,12.616,75.835,15.456,87.237c8.598,38.743,18.08,58.087,28.419,58.087
	c8.009,0,20.036-12.506,36.134-37.559c16.071-25.106,24.67-44.184,25.822-57.315c2.277-21.66-6.321-32.423-25.822-32.423
	c-9.188,0-18.67,1.929-28.42,5.974c18.964-61.001,55.099-90.63,108.456-88.914C431.448,97.175,450.091,122.586,447.814,172.119z"/>
</svg>
