<?xml version="1.0" encoding="utf-8"?>
<!-- Generator: Adobe Illustrator 24.2.0, SVG Export Plug-In . SVG Version: 6.00 Build 0)  -->
<svg version="1.1" id="Layer_1" xmlns="http://www.w3.org/2000/svg" xmlns:xlink="http://www.w3.org/1999/xlink" x="0px" y="0px"
	 width="512px" height="512px" viewBox="0 0 512 512" xml:space="preserve">
<path d="M263.9,32.1c-10.1-0.2-19.6,6.8-23.2,18c-0.1,0.4-0.3,1-0.5,1.9c0,0.1-0.1,0.3-0.1,0.4l0,0c-8,25.9-73.6,235.6-73.6,235.6
	h-1.2l-84-239.2C75.6,35.3,61.6,28.7,48.9,34c-13,5.5-19.7,21.5-15.4,36.2c10.1,29,105.8,290.4,105.8,290.4l-6.3,15.6
	c-10.6,32.1-31.6,53.8-63.2,53.8c-3.1,0-13.7-0.7-14.4-0.8c-10.2-0.6-19.7,6.9-22.5,18.4c-3.1,13.1,3.7,26.6,15.3,30.4
	c8.4,1.6,17,2.2,24.7,2.2c58.3,0,86.8-37.7,106-92.8c0,0,101-300.5,105.8-312.9c0.8-2,1.4-3.7,2-5.4l-0.1-0.1
	c0.1-0.4,0.3-0.7,0.4-1.1c4.1-14.5-3-29.9-15.8-34.5C268.7,32.6,266.3,32.1,263.9,32.1L263.9,32.1z M383.5,96
	c-6.3,0.1-13.3,2.5-20.4,9.6c-21.5,21.6-43,86.4-43,86.4s64.6-21.6,86.4-43.5s-0.4-42.8-0.4-42.8S396.4,95.9,383.5,96L383.5,96z
	 M448.1,224c-32,0-96,32-96,32s64,32,96.4,32s31.5-32,31.5-32S480.1,224,448.1,224z M320.1,320c0,0,21.5,64.8,43,86.4s43-0.1,43-0.1
	s22.1-21,0.4-42.8C384.7,341.6,320.1,320,320.1,320z"/>
</svg>
