<?xml version="1.0" encoding="utf-8"?>
<!-- Generator: Adobe Illustrator 20.1.0, SVG Export Plug-In . SVG Version: 6.00 Build 0)  -->
<svg version="1.1" baseProfile="tiny" id="Layer_2" xmlns="http://www.w3.org/2000/svg" xmlns:xlink="http://www.w3.org/1999/xlink"
	 x="0px" y="0px" viewBox="0 0 512 512" xml:space="preserve">
<path d="M448,32H64c-17.664,0-32,14.336-32,32v384c0,17.664,14.336,32,32,32h384c17.664,0,32-14.336,32-32V64
	C480,46.336,465.664,32,448,32z M448,269.749c0,29.454-3.835,58.909-3.835,58.909s-3.752,25.082-15.265,36.128
	c-14.602,14.497-30.97,14.569-38.476,15.417C336.689,383.885,256,384,256,384s-99.838-0.864-130.559-3.656
	c-8.546-1.519-27.734-1.061-42.341-15.558c-11.513-11.045-15.26-36.128-15.26-36.128S64,299.203,64,269.749v-27.614
	c0-29.454,3.84-58.909,3.84-58.909s3.747-25.082,15.26-36.128c14.607-14.497,30.969-14.569,38.476-15.417
	C175.313,128,255.917,128,255.917,128h0.167c0,0,80.606,0,134.341,3.682c7.506,0.849,23.873,0.92,38.476,15.417
	c11.513,11.045,15.265,36.128,15.265,36.128S448,212.681,448,242.136V269.749z M192,176l144,80l-144,80V176z"/>
</svg>
