<?xml version="1.0" encoding="utf-8"?>
<!-- Generator: Adobe Illustrator 17.1.0, SVG Export Plug-In . SVG Version: 6.00 Build 0)  -->
<!DOCTYPE svg PUBLIC "-//W3C//DTD SVG 1.1//EN" "http://www.w3.org/Graphics/SVG/1.1/DTD/svg11.dtd">
<svg version="1.1" id="Layer_1" xmlns="http://www.w3.org/2000/svg" xmlns:xlink="http://www.w3.org/1999/xlink" x="0px" y="0px"
	 width="1024px" height="1024px" viewBox="0 0 1024 1024" enable-background="new 0 0 1024 1024" xml:space="preserve">
<path d="M896,192H128c-35.35,0-64,28.65-64,64v512c0,35.35,28.65,64,64,64h768c35.35,0,64-28.65,64-64V256
	C960,220.65,931.35,192,896,192z M893.822,718.39c-5.889,22.027-23.228,39.366-45.255,45.255L640,555.077l-82.745,82.745
	L512,683.077l-45.255-45.255L384,555.077L175.432,763.645c-22.027-5.889-39.366-23.228-45.255-45.255l208.568-208.568
	L130.178,301.255c5.889-22.027,23.228-39.366,45.255-45.255L384,464.568l45.255,45.255L512,592.568l82.745-82.745L640,464.568
	L848.568,256c22.027,5.889,39.366,23.228,45.255,45.255L685.255,509.822L893.822,718.39z"/>
</svg>
