<?xml version="1.0" encoding="utf-8"?>
<!-- Generator: Adobe Illustrator 19.2.1, SVG Export Plug-In . SVG Version: 6.00 Build 0)  -->
<svg version="1.1" id="Layer_1" xmlns="http://www.w3.org/2000/svg" xmlns:xlink="http://www.w3.org/1999/xlink" x="0px" y="0px"
	 viewBox="0 0 512 512" enable-background="new 0 0 512 512" xml:space="preserve">
<path d="M165.5,346.5c12.4,12.5,12.4,32.9,0,45.3l-22.6,22.6c-12.5,12.4-32.8,12.4-45.3,0c-12.4-12.5-12.4-32.9,0-45.3l22.6-22.6
	C132.7,334.1,153.1,334.1,165.5,346.5z M256,128c17.6,0,32-14.4,32-32V64c0-17.6-14.4-32-32-32c-17.6,0-32,14.4-32,32v32
	C224,113.6,238.4,128,256,128z M391.8,165.5l22.6-22.6c12.4-12.4,12.4-32.8,0-45.3c-12.4-12.4-32.8-12.4-45.3,0l-22.6,22.6
	c-12.4,12.4-12.4,32.8,0,45.3C359,177.9,379.3,177.9,391.8,165.5z M120.2,165.5c12.4,12.4,32.8,12.4,45.3,0
	c12.4-12.4,12.4-32.8,0-45.3l-22.6-22.6c-12.4-12.4-32.8-12.4-45.3,0c-12.4,12.5-12.4,32.8,0,45.3L120.2,165.5z M128,256
	c0-17.6-14.4-32-32-32H64c-17.6,0-32,14.4-32,32c0,17.6,14.4,32,32,32h32C113.6,288,128,273.6,128,256z M391.8,346.5
	c-12.4-12.4-32.8-12.4-45.3,0c-12.4,12.5-12.4,32.8,0,45.3l22.6,22.6c12.4,12.4,32.8,12.4,45.3,0c12.4-12.4,12.4-32.8,0-45.3
	L391.8,346.5z M448,224h-32c-17.6,0-32,14.4-32,32c0,17.6,14.4,32,32,32h32c17.6,0,32-14.4,32-32C480,238.4,465.6,224,448,224z
	 M352,256c0,53-43,96-96,96s-96-43-96-96s43-96,96-96S352,203,352,256z M320,256c0-35.3-28.7-64-64-64v128
	C291.3,320,320,291.3,320,256z M256,384c-17.6,0-32,14.4-32,32v32c0,17.6,14.4,32,32,32c17.6,0,32-14.4,32-32v-32
	C288,398.4,273.6,384,256,384z"/>
</svg>
