<?xml version="1.0" encoding="utf-8"?>
<!-- Generator: Adobe Illustrator 25.4.1, SVG Export Plug-In . SVG Version: 6.00 Build 0)  -->
<svg version="1.1" id="Layer_1" xmlns="http://www.w3.org/2000/svg" xmlns:xlink="http://www.w3.org/1999/xlink" x="0px" y="0px"
	 width="512px" height="512px" viewBox="0 0 512 512" enable-background="new 0 0 512 512" xml:space="preserve">
<path d="M192,384v32c-53,0-96-43-96-96h32C128,355.3,156.7,384,192,384z M352,312c0,92.8-71.6,168-160,168S32,404.8,32,312
	C32,181.3,192,32,192,32S352,181.3,352,312z M320,312c0-46.3-25.3-104.7-73-169c-20-27-40.3-49.8-55-65.4
	c-14.7,15.6-34.9,38.5-55,65.4c-47.8,64.3-73,122.8-73,169c0,75,57.4,136,128,136S320,387,320,312z M448,224h-32v256h32V224z
	 M448,32h-32v64h32V32z M384,128v64h96v-64H384z"/>
</svg>
