<svg xmlns="http://www.w3.org/2000/svg" viewBox="0 0 512 512"><title>eyedropper</title><g id="eyedropper"><path d="M461.1,56.93l-6.18-6.18a64,64,0,0,0-90.52,0l-60.82,60.83-4.27-4.27a16,16,0,0,0-22.62,0l-9.38,9.38a16,16,0,0,0,0,22.62l4.27,4.27L70.78,344.4A64,64,0,0,0,54,374.11L32.5,459.79A16.11,16.11,0,0,0,52,479.34l85.7-21.42a64.06,64.06,0,0,0,29.74-16.83L368.27,240.27l4.42,4.42a16,16,0,0,0,22.62,0l9.38-9.38a16,16,0,0,0,0-22.62l-4.42-4.42,60.83-60.83A64,64,0,0,0,461.1,56.93ZM224,320H160L304,176l32,32Z"/></g></svg>