<?xml version="1.0" encoding="utf-8"?>
<!-- Generator: Adobe Illustrator 24.2.0, SVG Export Plug-In . SVG Version: 6.00 Build 0)  -->
<svg version="1.1" id="Layer_1" xmlns="http://www.w3.org/2000/svg" xmlns:xlink="http://www.w3.org/1999/xlink" x="0px" y="0px"
	 width="512px" height="512px" viewBox="0 0 512 512" xml:space="preserve">
<path d="M384,384v-79.9l-32-32l-80,80l-128-128l-112,112v-240c0,0,0,0,0.1-0.1h383.8c0,0,0,0,0.1,0.1L415.9,320H448V96
	c0-17.6-14.4-32-32-32H32C14.4,64,0,78.4,0,96v320c0,17.6,14.4,32,32,32h0.1H288l0,0v-64H384z M272,160c-26.5,0-48,21.5-48,48
	s21.5,48,48,48s48-21.5,48-48S298.5,160,272,160z M320,448h96v64l96-80l-96-80v64h-96l0,0V448L320,448z"/>
</svg>
