<?xml version="1.0" encoding="utf-8"?>
<!-- Generator: Adobe Illustrator 24.2.0, SVG Export Plug-In . SVG Version: 6.00 Build 0)  -->
<svg version="1.1" id="Layer_1" xmlns="http://www.w3.org/2000/svg" xmlns:xlink="http://www.w3.org/1999/xlink" x="0px" y="0px"
	 width="512px" height="512px" viewBox="0 0 512 512" xml:space="preserve">
<path d="M256,288c0,17.7-14.3,32-32,32s-32-14.3-32-32s14.3-32,32-32S256,270.3,256,288z M352,224v192c0,17.7-14.3,32-32,32H64
	c-17.7,0-32-14.3-32-32V224c0-17.7,14.3-32,32-32h256C337.7,192,352,206.3,352,224z M320.2,224C320.1,223.9,320.1,223.9,320.2,224
	l-256.1-0.1C64,224,64,224,64,224v149.9l74.6-70l85.3,80l53.3-50l42.7,40L320.2,224z M384,128H128c-17.7,0-32,14.3-32,32h288v224
	c17.7,0,32-14.3,32-32V160C416,142.3,401.7,128,384,128z M448,64H192c-17.7,0-32,14.3-32,32h288v224c17.7,0,32-14.3,32-32V96
	C480,78.3,465.7,64,448,64z"/>
</svg>
