<?xml version="1.0" encoding="utf-8"?>
<!-- Generator: Adobe Illustrator 25.2.1, SVG Export Plug-In . SVG Version: 6.00 Build 0)  -->
<svg version="1.1" id="Layer_1" xmlns="http://www.w3.org/2000/svg" xmlns:xlink="http://www.w3.org/1999/xlink" x="0px" y="0px"
	 viewBox="0 0 512 512" style="enable-background:new 0 0 512 512;" xml:space="preserve">
<style type="text/css">
	.st0{display:none;}
	.st1{display:inline;fill:#4E84C4;}
	.st2{fill:none;}
	.st3{fill:#010101;}
</style>
<g class="st0">
	<path class="st1" d="M181.3,32v29.9h59.7v89.6h-29.9v29.9h89.6v-29.9h-29.9V61.9h59.7V32H181.3z"/>
	<path class="st1" d="M330.7,480v-29.9h-59.7v-89.6h29.9v-29.9h-89.6v29.9h29.9v89.6h-59.7V480H330.7z"/>
	<path class="st1" d="M480,330.7h-29.9v-59.7h-89.6v29.9h-29.9v-89.6h29.9v29.9h89.6v-59.7H480V330.7z"/>
	<path class="st1" d="M32,330.7h29.9v-59.7h89.6v29.9h29.9v-89.6h-29.9v29.9H61.9v-59.7H32V330.7z"/>
</g>
<g>
	<polygon class="st2" points="256,169.8 217.6,288 294.4,288 	"/>
	<path class="st3" d="M310,336l26,80h48L280,96h-48L128,416h48l26-80H310z M256,169.8L294.4,288h-76.8L256,169.8z"/>
	<rect x="448" y="32" class="st3" width="32" height="448"/>
	<rect x="32" y="32" class="st3" width="32" height="448"/>
</g>
</svg>
