<?xml version="1.0" encoding="utf-8"?>
<!-- Generator: Adobe Illustrator 19.2.1, SVG Export Plug-In . SVG Version: 6.00 Build 0)  -->
<svg version="1.1" id="Layer_1" xmlns="http://www.w3.org/2000/svg" xmlns:xlink="http://www.w3.org/1999/xlink" x="0px" y="0px"
	 viewBox="0 0 512 512" enable-background="new 0 0 512 512" xml:space="preserve">
<path d="M448,128h-64l-64-64H192l-64,64H64c-17.6,0-32,14.4-32,32v288c0,17.6,14.4,32,32,32h384c17.6,0,32-14.4,32-32V160
	C480,142.4,465.6,128,448,128z M256,416c-61.9,0-112-50.1-112-112s50.1-112,112-112s112,50.1,112,112S317.9,416,256,416z M320,304
	c0,35.3-28.7,64-64,64s-64-28.7-64-64c0-35.3,28.7-64,64-64S320,268.7,320,304z"/>
</svg>
