<svg xmlns="http://www.w3.org/2000/svg" viewBox="0 0 512 512"><defs><style>.cls-1{fill-rule:evenodd;}</style></defs><title>remove-vertical-spacing</title><g id="remove_vertical_spacing" data-name="remove vertical spacing"><path class="cls-1" d="M192,320v96h96v64H64V416h96V320H0V224H160V128H96V32H256v96H192v96H352v96Zm320,22.63L489.37,320,432,377.37,374.63,320,352,342.63,409.37,400,352,457.37,374.63,480,432,422.63,489.37,480,512,457.37,454.63,400Zm0-288L489.37,32,432,89.37,374.63,32,352,54.63,409.37,112,352,169.37,374.63,192,432,134.63,489.37,192,512,169.37,454.63,112Z"/></g></svg>