<?xml version="1.0" encoding="utf-8"?>
<!-- Generator: Adobe Illustrator 24.2.0, SVG Export Plug-In . SVG Version: 6.00 Build 0)  -->
<svg version="1.1" id="Layer_1" xmlns="http://www.w3.org/2000/svg" xmlns:xlink="http://www.w3.org/1999/xlink" x="0px" y="0px"
	 width="512px" height="512px" viewBox="0 0 512 512" xml:space="preserve">
<path d="M480,96v160h-96v-64h-96v160h-96V192H96v96H32V64h64v96h96V0h96v160h96V96H480z M447.5,374.2l-22.6-22.6
	L367.5,409l-57.4-57.4l-22.6,22.6l57.4,57.4L287.5,489l22.6,22.6l57.4-57.4l57.4,57.4l22.6-22.6l-57.4-57.4L447.5,374.2z
	 M191.5,374.2l-22.6-22.6L111.5,409l-57.4-57.4l-22.6,22.6l57.4,57.4L31.5,489l22.6,22.6l57.4-57.4l57.4,57.4l22.6-22.6l-57.4-57.4
	L191.5,374.2z"/>
</svg>
