<?xml version="1.0" encoding="utf-8"?>
<!-- Generator: Adobe Illustrator 24.2.0, SVG Export Plug-In . SVG Version: 6.00 Build 0)  -->
<svg version="1.1" id="Layer_1" xmlns="http://www.w3.org/2000/svg" xmlns:xlink="http://www.w3.org/1999/xlink" x="0px" y="0px"
	 width="512px" height="512px" viewBox="0 0 512 512" xml:space="preserve">
<path d="M192,320v96h96v64H64v-64h96v-96H0v-96h160v-96H96V32h160v96h-64v96h160v96H192z M512,342.6L489.4,320
	L432,377.4L374.6,320L352,342.6l57.4,57.4L352,457.4l22.6,22.6l57.4-57.4l57.4,57.4l22.6-22.6L454.6,400L512,342.6z M512,54.6
	L489.4,32L432,89.4L374.6,32L352,54.6l57.4,57.4L352,169.4l22.6,22.6l57.4-57.4l57.4,57.4l22.6-22.6L454.6,112L512,54.6z"/>
</svg>
