<svg xmlns="http://www.w3.org/2000/svg" viewBox="0 0 512 512"><defs><style>.cls-1{fill-rule:evenodd;}</style></defs><title>remove-horizontal-spacing</title><g id="remove_horizontal_spacing" data-name="remove horizontal spacing"><path class="cls-1" d="M479.53,95.57v160h-96v-64h-96v160h-96v-160h-96v96h-64v-224h64v96h96V-.43h96v160h96v-64Zm-32,278.63L424.9,351.57l-57.37,57.37-57.37-57.37L287.53,374.2l57.37,57.37-57.37,57.37,22.63,22.63,57.37-57.37,57.37,57.37,22.63-22.63-57.37-57.37Zm-256,0L168.9,351.57l-57.37,57.37L54.16,351.57,31.53,374.2,88.9,431.57,31.53,488.94l22.63,22.63,57.37-57.37,57.37,57.37,22.63-22.63-57.37-57.37Z"/></g></svg>