<?xml version="1.0" encoding="utf-8"?>
<!-- Generator: Adobe Illustrator 19.2.1, SVG Export Plug-In . SVG Version: 6.00 Build 0)  -->
<svg version="1.1" id="Layer_1" xmlns="http://www.w3.org/2000/svg" xmlns:xlink="http://www.w3.org/1999/xlink" x="0px" y="0px"
	 width="512px" height="512px" viewBox="0 0 512 512" xml:space="preserve">
<path d="M256,448c8.2,0,16.2-0.6,24-1.8v32.3c-7.9,1-15.9,1.5-24,1.5s-16.1-0.5-24-1.5v-32.3C239.8,447.4,247.8,448,256,448z
	 M140,441c12.7,9.7,26.6,17.8,41.5,24l16.2-28c-15.1-5.9-29.1-14.1-41.5-24.1L140,441z M79,362.5c6.3,14.9,14.4,28.8,24,41.5
	l28-16.2c-10-12.5-18.1-26.4-24.1-41.5L79,362.5z M256,128v64l128-80L256,32v64c-8.1,0-16.1,0.5-24,1.5
	c-17.7,2.2-34.6,6.8-50.5,13.5c-14.9,6.3-28.8,14.4-41.5,24C126,145.6,113.6,158,103,172c-9.7,12.7-17.8,26.6-24,41.5
	c-6.7,15.9-11.3,32.8-13.5,50.5c-1,7.9-1.5,15.9-1.5,24s0.5,16.1,1.5,24h32.3c-1.2-7.8-1.8-15.8-1.8-24s0.6-16.2,1.8-24
	c1.8-11.9,4.9-23.4,9.2-34.3c5.9-15.1,14.1-29.1,24.1-41.5c7.4-9.3,15.8-17.7,25.1-25.1c12.5-10,26.4-18.1,41.5-24.1
	c10.9-4.3,22.4-7.4,34.3-9.2C239.8,128.6,247.8,128,256,128z M446.5,264h-32.3c1.2,7.8,1.8,15.8,1.8,24s-0.6,16.2-1.8,24h32.3
	c1-7.9,1.5-15.9,1.5-24S447.5,271.9,446.5,264z M380.9,387.8l28,16.2c9.7-12.7,17.8-26.6,24-41.5l-28-16.2
	C399.1,361.4,390.9,375.4,380.9,387.8z M314.3,437l16.2,28c14.9-6.3,28.8-14.4,41.5-24l-16.2-28C343.4,422.9,329.4,431.1,314.3,437z
	"/>
</svg>
