<?xml version="1.0" encoding="utf-8"?>
<!-- Generator: Adobe Illustrator 16.0.3, SVG Export Plug-In . SVG Version: 6.00 Build 0)  -->
<svg version="1.1" id="Layer_1" xmlns="http://www.w3.org/2000/svg" xmlns:xlink="http://www.w3.org/1999/xlink" x="0px" y="0px"
	 width="512px" height="512px" viewBox="0 0 512 512" xml:space="preserve">
<path d="M480,32H160v131.204C86.969,178.029,32,242.594,32,320c0,88.365,71.635,160,160,160
	c77.406,0,141.972-54.969,156.797-128H480V32z M192,448c-70.692,0-128-57.308-128-128c0-59.643,40.793-109.758,96-123.967l0,0
	c1.173-0.302,2.354-0.583,3.539-0.852c0.357-0.081,0.717-0.156,1.076-0.234c0.842-0.184,1.687-0.36,2.535-0.527
	c0.409-0.08,0.819-0.159,1.229-0.235c0.849-0.158,1.702-0.307,2.557-0.448c0.369-0.061,0.736-0.125,1.105-0.184
	c2.423-0.379,4.869-0.69,7.335-0.932c0.379-0.037,0.759-0.067,1.139-0.101c0.869-0.077,1.74-0.147,2.614-0.207
	c0.433-0.03,0.865-0.057,1.299-0.083c0.872-0.051,1.747-0.091,2.623-0.125c0.392-0.015,0.782-0.033,1.174-0.045
	c1.254-0.036,2.512-0.06,3.775-0.06c70.692,0,128,57.308,128,128c0,1.264-0.023,2.521-0.06,3.775
	c-0.012,0.393-0.03,0.782-0.045,1.174c-0.033,0.876-0.073,1.751-0.124,2.623c-0.025,0.434-0.053,0.866-0.083,1.299
	c-0.06,0.874-0.13,1.744-0.207,2.613c-0.034,0.38-0.064,0.761-0.102,1.14c-0.241,2.468-0.553,4.914-0.933,7.339
	c-0.057,0.365-0.121,0.728-0.181,1.092c-0.143,0.861-0.292,1.72-0.452,2.575c-0.075,0.403-0.152,0.808-0.231,1.21
	c-0.17,0.86-0.349,1.718-0.535,2.571c-0.075,0.346-0.147,0.692-0.226,1.037c-0.271,1.189-0.553,2.375-0.855,3.552l0,0
	C301.758,407.207,251.643,448,192,448z M448,320h-96c0-88.365-71.635-160-160-160V64h256V320z"/>
</svg>
