<?xml version="1.0" encoding="utf-8"?>
<!-- Generator: Adobe Illustrator 19.2.1, SVG Export Plug-In . SVG Version: 6.00 Build 0)  -->
<svg version="1.1" id="Layer_1" xmlns="http://www.w3.org/2000/svg" xmlns:xlink="http://www.w3.org/1999/xlink" x="0px" y="0px"
	 viewBox="0 0 512 512" enable-background="new 0 0 512 512" xml:space="preserve">
<path d="M388.6,128H256H123.4c-15.1,0-27.4,12.3-27.4,27.4V256v100.6c0,15.1,12.3,27.4,27.4,27.4H256h132.6
	c15.1,0,27.4-12.3,27.4-27.4V256V155.4C416,140.3,403.7,128,388.6,128z M384,320l-48-64l-48,64l-80-96l-80,96V160h256V320z M0,160
	l96,96L0,352V160z M160,480l96-96l96,96H160z M352,32l-96,96l-96-96H352z M512,160v192l-96-96L512,160z M256,224
	c0-17.7,14.3-32,32-32s32,14.3,32,32s-14.3,32-32,32S256,241.7,256,224z"/>
</svg>
