<?xml version="1.0" encoding="utf-8"?>
<!-- Generator: Adobe Illustrator 19.2.1, SVG Export Plug-In . SVG Version: 6.00 Build 0)  -->
<svg version="1.1" id="Layer_1" xmlns="http://www.w3.org/2000/svg" xmlns:xlink="http://www.w3.org/1999/xlink" x="0px" y="0px"
	 viewBox="0 0 512 512" enable-background="new 0 0 512 512" xml:space="preserve">
<path d="M128,128c-17.7,0-32,14.3-32,32v160c0,17.7,14.3,32,32,32h256c32,0,32-32,32-32H160h-32V128z M64,192c-17.7,0-32,14.3-32,32
	v160c0,17.7,14.3,32,32,32h256c32,0,32-32,32-32H96c-17.7,0-32,0-32,0V192z M448,64H192c-17.6,0-32,14.4-32,32v160
	c0,17.6,14.4,32,32,32h256c17.6,0,32-14.4,32-32V96C480,78.4,465.6,64,448,64z M448,255.9C448,256,448,256,448,255.9L192.1,256
	c0,0,0,0-0.1-0.1V96.1c0,0,0,0,0.1-0.1h255.9c0,0,0,0,0.1,0.1V255.9z"/>
</svg>
