<?xml version="1.0" encoding="utf-8"?>
<!-- Generator: Adobe Illustrator 19.2.1, SVG Export Plug-In . SVG Version: 6.00 Build 0)  -->
<svg version="1.1" id="Layer_1" xmlns="http://www.w3.org/2000/svg" xmlns:xlink="http://www.w3.org/1999/xlink" x="0px" y="0px"
	 width="512px" height="512px" viewBox="0 0 512 512" xml:space="preserve">
<path d="M442.2,243.6c3.7-11.2,5.8-23.2,5.8-35.6c0-61.9-50.1-112-112-112c-37.8,0-71.3,18.8-91.6,47.5c-15-9.8-33-15.5-52.3-15.5
	c-52.9,0-95.8,42.9-95.8,95.8c0,1.8,0.1,3.6,0.2,5.5C58.9,242.3,32,278,32,320c0,53,43,96,96,96h256c53,0,96-43,96-96
	C480,288.9,465.2,261.2,442.2,243.6L442.2,243.6z"/>
</svg>
