<?xml version="1.0" encoding="utf-8"?>
<!-- Generator: Adobe Illustrator 19.2.1, SVG Export Plug-In . SVG Version: 6.00 Build 0)  -->
<svg version="1.1" id="Layer_1" xmlns="http://www.w3.org/2000/svg" xmlns:xlink="http://www.w3.org/1999/xlink" x="0px" y="0px"
	 viewBox="0 0 512 512" enable-background="new 0 0 512 512" xml:space="preserve">
<path d="M165.9,128c-26.4,0-49.8,5.6-70.1,16.7s-36,26.8-47.1,47.2C37.6,212.3,32,235.5,32,261.6c0,24.3,5,45.7,14.9,64.3
	s24.3,32.9,43.1,43c18.8,10.1,41.2,15.1,67.2,15.1c26.4,0,46.6-3.7,66.8-11v-66.5c-18.1,9.2-33,13.8-50.8,13.8
	c-19.3,0-34.7-5.7-46.2-17.2c-11.5-11.5-17.3-27.1-17.3-46.9c0-19.9,5.8-35.7,17.3-47.3c11.5-11.6,27.3-17.4,47.2-17.4
	c9.6,0,16,1.2,25.4,3.5s17.5,5.5,24.3,9.7v-68.9C204.3,130.6,187,128,165.9,128L165.9,128z M324.7,128l-13.3,61.9h-29l-9.3,46.1
	h28.6l-10.3,43.2h-25.6L256,325h25.2l-12.5,59h50l12.9-59h43.5l-12.5,59h49.2l13.3-59h26.8l11.5-45.9h-28.2l10.3-43.2h24.2
	l10.3-46.1h-24.4l13.3-61.9h-50.8l-13.3,61.9h-42.7l13.3-61.9L324.7,128L324.7,128z M351.5,236h43.6l-10.3,43.2h-43.5L351.5,236z"/>
</svg>
