<?xml version="1.0" encoding="utf-8"?>
<!-- Generator: Adobe Illustrator 24.2.0, SVG Export Plug-In . SVG Version: 6.00 Build 0)  -->
<svg version="1.1" id="Layer_1" xmlns="http://www.w3.org/2000/svg" xmlns:xlink="http://www.w3.org/1999/xlink" x="0px" y="0px"
	 width="512px" height="512px" viewBox="0 0 512 512" xml:space="preserve">
<path d="M165.9,128c-26.4,0-49.8,5.6-70.1,16.7s-36,26.8-47.1,47.2S32,235.5,32,261.6c0,24.3,5,45.7,14.9,64.3s24.3,32.9,43.1,43
	s41.2,15.1,67.2,15.1c26.4,0,46.6-3.7,65.8-11v-66.5c-17.1,9.2-32,13.8-49.8,13.8c-19.3,0-34.7-5.7-46.2-17.2s-17.3-27.1-17.3-46.9
	c0-19.9,5.8-35.7,17.3-47.3s27.3-17.4,47.2-17.4c9.6,0,16,1.2,25.4,3.5s17.5,5.5,24.4,9.7v-68.9C204.3,130.6,187,128,165.9,128
	L165.9,128z M324.7,128l-13.3,62h-29l-9.3,46h28.6l-10.3,43h-25.6l-9.8,46h25.2l-12.5,59h50l12.9-59h43.5l-12.5,59h49.2l13.3-59
	h26.8l11.5-46h-28.2l10.3-43h24.2l10.3-46h-23.7l13.5-63h-51.7l-13.5,63h-43.5l13.5-63h-50L324.7,128z M351.6,236H395l-10.3,43
	h-43.3L351.6,236z"/>
</svg>
