<?xml version="1.0" encoding="utf-8"?>
<!-- Generator: Adobe Illustrator 24.2.0, SVG Export Plug-In . SVG Version: 6.00 Build 0)  -->
<svg version="1.1" id="Layer_1" xmlns="http://www.w3.org/2000/svg" xmlns:xlink="http://www.w3.org/1999/xlink" x="0px" y="0px"
	 width="512px" height="512px" viewBox="0 0 512 512" xml:space="preserve">
<path d="M64,32c-17.7,0-32,14.3-32,32v384c0,17.7,14.3,32,32,32h384c17.7,0,32-14.3,32-32V64c0-17.7-14.3-32-32-32H64z M221.9,64.1
	c19.3-1.2,35.2,14.7,34,34c-1,15.9-13.9,28.8-29.9,29.9c-19.3,1.2-35.2-14.7-34-34C193.1,78,206,65.1,221.9,64.1z M317.9,64.1
	c19.3-1.2,35.2,14.7,34,34c-1,15.9-13.9,28.8-29.9,29.9c-19.3,1.2-35.2-14.7-34-34C289.1,78,302,65.1,317.9,64.1z M413.9,64.1
	c19.3-1.2,35.2,14.7,34,34c-1,15.9-13.9,28.8-29.9,29.9c-19.3,1.2-35.2-14.7-34-34C385.1,78,398,65.1,413.9,64.1z M64,160h384v288
	H64V160z M183.7,224c-17.3,0-32.7,3.5-46,10.4s-23.6,16.8-30.9,29.5c-7.3,12.8-10.9,27.3-10.9,43.6c0,15.2,3.3,28.6,9.8,40.2
	s15.9,20.6,28.3,26.8c12.4,6.3,27,9.4,44.1,9.4c17.3,0,32.6-2.3,45.9-6.9v-41.5c-11.9,5.8-23.7,8.6-35.4,8.6
	c-12.6,0-22.8-3.6-30.3-10.7s-11.4-16.9-11.4-29.2c0-12.4,3.8-22.3,11.3-29.6s17.9-10.9,31-10.9c6.3,0,12.6,0.7,18.8,2.1
	s11.5,3.5,16,6v-43C210.9,225.6,197.6,224,183.7,224L183.7,224z M297.9,224l-8.3,39h-17.4l-5.7,29H284l-6.1,26H262l-6.1,29h15.4
	l-7.7,37h30.9l7.9-37h26.8l-7.7,37h30.4l8.2-37h16.3l7.2-29h-17.2l6.1-26h15l6.3-29h-14.7l8.3-39h-31.4l-8.3,39h-26.4l8.3-39
	L297.9,224z M314.7,292h26.8l-6.3,27h-26.7L314.7,292z"/>
</svg>
