<?xml version="1.0" encoding="utf-8"?>
<!-- Generator: Adobe Illustrator 24.2.0, SVG Export Plug-In . SVG Version: 6.00 Build 0)  -->
<svg version="1.1" id="Layer_1" xmlns="http://www.w3.org/2000/svg" xmlns:xlink="http://www.w3.org/1999/xlink" x="0px" y="0px"
	 width="512px" height="512px" viewBox="0 0 512 512" xml:space="preserve">
<path d="M192,96l-32,0.1c0,0-64-0.1-64,63.9v48c0,27.8-21.8,31.4-32,32H48c-2.2,0-4.3,0.4-6.2,1.2c-0.5,0.2-1,0.4-1.4,0.7
	s-0.9,0.5-1.3,0.8c-1.3,0.9-2.4,1.9-3.4,3.1c-0.2,0.2-0.3,0.4-0.5,0.6c-0.9,1.2-1.7,2.6-2.2,4.1c-0.2,0.5-0.3,1-0.5,1.5
	c-0.3,1-0.4,2.1-0.5,3.2c0,0.3,0,0.5,0,0.8s0,0.5,0,0.8c0.1,1.1,0.2,2.1,0.5,3.2c0.1,0.5,0.3,1,0.5,1.5c0.5,1.5,1.3,2.8,2.2,4.1
	c0.2,0.2,0.3,0.4,0.5,0.6c1,1.2,2.1,2.2,3.4,3.1c0.4,0.3,0.9,0.5,1.3,0.8s0.9,0.5,1.4,0.7c1.9,0.8,4,1.2,6.2,1.2h16
	c10.2,0.6,32,4.2,32,32v48c0,64,64,63.9,64,63.9l32,0.1V384l-31.8-0.1c0,0-32.2,0.1-32.2-32v-48.5c0,0,0-29-19.6-47.9
	c19.6-18.8,19.6-47.9,19.6-47.9v-47.9c0-31.9,32.2-31.8,32.2-31.8l31.8-0.1V96z M320,95.9V128l31.7,0.1c0,0,32.3-0.1,32.3,31.9v48
	c0,0,0,29.1,19.5,48c-19.5,18.9-19.5,48-19.5,48v48c0,32-32.1,31.9-32.1,31.9l-31.9,0.1V416l32.1-0.1c0,0,63.9,0.1,63.9-63.7V304
	c0-27.8,21.8-31.4,32-32h16c2.2,0,4.3-0.4,6.2-1.2c0.5-0.2,1-0.4,1.4-0.7s0.9-0.5,1.3-0.8c1.3-0.9,2.4-1.9,3.4-3.1
	c0.2-0.2,0.3-0.4,0.5-0.6c0.9-1.2,1.7-2.6,2.2-4.1c0.2-0.5,0.3-1,0.5-1.5c0.3-1,0.4-2.1,0.5-3.2c0-0.3,0-0.5,0-0.8s0-0.5,0-0.8
	c-0.1-1.1-0.2-2.1-0.5-3.2c-0.1-0.5-0.3-1-0.5-1.5c-0.5-1.5-1.3-2.8-2.2-4.1c-0.2-0.2-0.3-0.4-0.5-0.6c-1-1.2-2.1-2.2-3.4-3.1
	c-0.4-0.3-0.9-0.5-1.3-0.8s-0.9-0.5-1.4-0.7c-1.9-0.8-4-1.2-6.2-1.2h-16.1c-10.2-0.6-31.9-4.2-31.9-32v-48c0-64-64.1-63.9-64.1-63.9
	L320,95.9z"/>
</svg>
