<?xml version="1.0" encoding="utf-8"?>
<!-- Generator: Adobe Illustrator 24.1.0, SVG Export Plug-In . SVG Version: 6.00 Build 0)  -->
<svg version="1.1" id="Layer_1" xmlns="http://www.w3.org/2000/svg" xmlns:xlink="http://www.w3.org/1999/xlink" x="0px" y="0px"
	 viewBox="0 0 512 512" style="enable-background:new 0 0 512 512;" xml:space="preserve">
<path d="M32,268l0,0.33c0,0,0-0.01,0-0.01C32,268.21,32,268.11,32,268z M32,268.33l0.12,86.48c0,0.11,0,0.21,0,0.32
	c0.29,18.1,24.9,34.34,63.87,45.56L96,313.92C57.01,302.7,32.3,286.44,32,268.33z M224.01,155.23c105.67,0,191.4-27.41,191.93-61.29
	c0-0.11,0-0.22,0-0.33C415.94,59.59,330,32,224,32S32.06,59.59,32.07,93.61c0,0.11,0,0.22,0,0.33
	C32.6,127.82,118.34,155.23,224.01,155.23z M32,140.32C32,140.32,32,140.33,32,140.32V140V140.32z M416,227.13c0-0.11,0-0.21,0-0.32
	L415.88,140c0,0.11,0,0.21,0,0.32c-0.53,33.88-86.26,61.29-191.93,61.29c-105.66,0-191.4-27.41-191.95-61.28l0.12,86.48
	c0,0.11,0,0.21,0,0.32c0.53,33.88,86.26,61.29,191.93,61.29S415.46,261,416,227.13z M327,320h89l-0.07-52c0,0.11,0,0.21,0,0.32
	C415.59,290.05,380.2,309.12,327,320z M196.26,416.93l19.85,31.05h-27.17l-16.33-27.03c-1.22-2.05-2.39-3.88-3.52-5.49
	c-1.12-1.61-2.26-2.99-3.41-4.14c-1.15-1.15-2.34-2.03-3.59-2.64c-1.25-0.61-2.6-0.92-4.06-0.92h-6.37v40.21H128V342.95h37.5
	c25.49,0,38.23,9.52,38.23,28.56c0,3.66-0.56,7.04-1.68,10.14c-1.12,3.1-2.71,5.9-4.76,8.39s-4.53,4.64-7.43,6.45
	c-2.91,1.81-6.14,3.22-9.7,4.25v0.29c1.56,0.49,3.08,1.28,4.54,2.38c1.46,1.1,2.88,2.38,4.25,3.85c1.37,1.46,2.67,3.04,3.92,4.72
	C194.1,413.67,195.24,415.32,196.26,416.93z M178.83,374.45c0-9.18-5.49-13.77-16.48-13.77h-10.69v29.22h10.25
	c5.08,0,9.16-1.46,12.23-4.39C177.27,382.53,178.83,378.84,178.83,374.45z M249.58,404.77h34.35v-19.19h-34.35v-23.36h36.91v-19.26
	h-60.57v105.03h62.99v-19.19h-39.33V404.77z M365.16,398.76c-2.39-2.49-5.26-4.72-8.61-6.7c-3.34-1.98-7.12-3.85-11.32-5.6
	c-3.08-1.27-5.84-2.5-8.28-3.7c-2.44-1.2-4.52-2.42-6.23-3.66c-1.71-1.24-3.03-2.56-3.96-3.96c-0.93-1.39-1.39-2.97-1.39-4.72
	c0-1.61,0.41-3.06,1.25-4.36c0.83-1.29,2-2.4,3.52-3.33c1.51-0.93,3.37-1.65,5.57-2.16c2.2-0.51,4.64-0.77,7.32-0.77
	c1.95,0,4.02,0.15,6.19,0.44s4.36,0.75,6.56,1.36s4.33,1.38,6.41,2.31c2.07,0.93,3.99,2,5.75,3.22v-21.9
	c-3.56-1.37-7.46-2.38-11.68-3.04c-4.22-0.66-9.07-0.99-14.54-0.99c-5.57,0-10.84,0.6-15.82,1.79s-9.36,3.06-13.15,5.6
	c-3.78,2.54-6.77,5.77-8.97,9.7c-2.2,3.93-3.3,8.63-3.3,14.1c0,6.98,2.01,12.94,6.04,17.87c4.03,4.93,10.14,9.11,18.35,12.52
	c3.22,1.32,6.23,2.61,9.01,3.88c2.78,1.27,5.19,2.59,7.21,3.96c2.03,1.37,3.63,2.86,4.8,4.47s1.76,3.44,1.76,5.49
	c0,1.51-0.37,2.92-1.1,4.21c-0.73,1.29-1.84,2.42-3.33,3.37c-1.49,0.95-3.34,1.7-5.57,2.23c-2.22,0.54-4.82,0.81-7.8,0.81
	c-5.08,0-10.11-0.89-15.09-2.67s-9.59-4.46-13.84-8.02v23.44c3.81,1.95,8.31,3.42,13.51,4.39s10.68,1.46,16.44,1.46
	c5.61,0,10.95-0.54,16-1.61c5.05-1.07,9.49-2.84,13.29-5.31s6.82-5.69,9.05-9.67c2.22-3.98,3.33-8.9,3.33-14.76
	c0-4.25-0.63-7.97-1.9-11.17C369.38,404.1,367.55,401.25,365.16,398.76z M380.1,342.95v19.26h29.81v85.77h23.73v-85.77h29.96v-19.26
	H380.1z"/>
</svg>
