<svg xmlns="http://www.w3.org/2000/svg" viewBox="0 0 512 512"><title>data</title><g id="data"><path d="M448,125.61c0,.11,0,.22,0,.33-.53,33.88-86.29,61.29-192,61.29S64.54,159.82,64,125.94c0-.11,0-.22,0-.33C64,91.59,150,64,256,64S448,91.59,448,125.61ZM447.88,172c0,.11,0,.21,0,.32-.53,33.88-86.26,61.29-191.93,61.29S64.54,206.2,64,172.32V172l.12,86.81c0,.11,0,.21,0,.32.53,33.88,86.26,61.29,191.93,61.29S447.46,293,448,259.13c0-.11,0-.21,0-.32Zm0,128c0,.11,0,.21,0,.32-.53,33.88-86.26,61.29-191.93,61.29S64.54,334.2,64,300.32V300l.12,86.81c0,.11,0,.21,0,.32.53,33.88,86.26,61.29,191.93,61.29S447.46,421,448,387.13c0-.11,0-.21,0-.32Z"/></g></svg>