<svg xmlns="http://www.w3.org/2000/svg" viewBox="0 0 512 512"><title>data</title><g id="data"><path d="M448,61.61c0,.11,0,.22,0,.33-.53,33.88-86.29,61.29-192,61.29S64.54,95.82,64,61.94c0-.11,0-.22,0-.33C64,27.59,150,0,256,0S448,27.59,448,61.61ZM447.88,108c0,.11,0,.21,0,.32-.53,33.88-86.26,61.29-191.93,61.29S64.54,142.2,64,108.32V108l.12,86.81c0,.11,0,.21,0,.32.53,33.88,86.26,61.29,191.93,61.29S447.46,229,448,195.13c0-.11,0-.21,0-.32Zm0,128c0,.11,0,.21,0,.32-.53,33.88-86.26,61.29-191.93,61.29S64.54,270.2,64,236.32V236l.12,86.81c0,.11,0,.21,0,.32.53,33.88,86.26,61.29,191.93,61.29S447.46,357,448,323.13c0-.11,0-.21,0-.32Zm0,128c0,.11,0,.21,0,.32-.53,33.88-86.26,61.29-191.93,61.29S64.54,398.2,64,364.32V364l.12,86.81c0,.11,0,.21,0,.32.53,33.88,86.26,61.29,191.93,61.29S447.46,485,448,451.13c0-.11,0-.21,0-.32Z"/></g></svg>