<svg xmlns="http://www.w3.org/2000/svg" viewBox="0 0 512 512"><title>data-json</title><g id="Layer_43" data-name="Layer 43"><path id="data_JSON" data-name="data JSON" d="M415.94,93.61c0,.11,0,.22,0,.33-.53,33.88-86.26,61.29-191.93,61.29S32.6,127.82,32.07,93.94c0-.11,0-.22,0-.33C32.06,59.59,118,32,224,32S415.94,59.59,415.94,93.61ZM415.88,140c0,.11,0,.21,0,.32-.53,33.88-86.26,61.29-191.93,61.29S32.54,174.2,32,140.32V140l.12,86.81c0,.11,0,.21,0,.32.53,33.88,86.26,61.29,191.93,61.29S415.46,261,416,227.13c0-.11,0-.21,0-.32ZM416,320l-.07-52c0,.11,0,.21,0,.32-.34,21.73-35.73,40.8-88.93,51.68ZM164.69,341.14H141.11v62.4q0,24-16.19,24A21.94,21.94,0,0,1,111.3,423v22.19A40.19,40.19,0,0,0,126.61,448q18.53,0,28.3-11.21t9.78-32.3Zm31.68,105.4A89.54,89.54,0,0,0,212.81,448a77.19,77.19,0,0,0,16-1.61,39.28,39.28,0,0,0,13.29-5.31,27,27,0,0,0,9-9.67q3.34-6,3.34-14.76a30.14,30.14,0,0,0-1.91-11.17,26.22,26.22,0,0,0-5.49-8.53,40.14,40.14,0,0,0-8.61-6.7,90.3,90.3,0,0,0-11.31-5.6c-3.08-1.27-5.84-2.51-8.28-3.7a41.91,41.91,0,0,1-6.22-3.67,15.94,15.94,0,0,1-4-3.95,8.31,8.31,0,0,1-1.39-4.72,7.87,7.87,0,0,1,1.24-4.36,10.65,10.65,0,0,1,3.52-3.33,18.88,18.88,0,0,1,5.57-2.17A32.4,32.4,0,0,1,225,358a46.84,46.84,0,0,1,6.19.43,49.87,49.87,0,0,1,6.55,1.36,44.9,44.9,0,0,1,6.41,2.31,34.3,34.3,0,0,1,5.75,3.22v-21.9a57,57,0,0,0-11.68-3,95,95,0,0,0-14.54-1,67.39,67.39,0,0,0-15.82,1.8,40,40,0,0,0-13.14,5.6,28,28,0,0,0-9,9.7,28.59,28.59,0,0,0-3.29,14.1,27.31,27.31,0,0,0,6,17.87q6,7.41,18.35,12.53,4.83,2,9,3.88a50.2,50.2,0,0,1,7.21,4,18.88,18.88,0,0,1,4.8,4.46,9.13,9.13,0,0,1,1.75,5.5,8.44,8.44,0,0,1-1.09,4.21,9.85,9.85,0,0,1-3.34,3.37,18.38,18.38,0,0,1-5.56,2.23,33.32,33.32,0,0,1-7.8.81,44.32,44.32,0,0,1-15.09-2.68,44.78,44.78,0,0,1-13.84-8v23.44A49.86,49.86,0,0,0,196.37,446.54Zm157.32-13.7q14.4-15.16,14.4-39.92,0-24.09-13.88-38.82t-36.37-14.72q-23.8,0-38.23,15.38t-14.43,40.29q0,23.58,14.21,38.27T316.16,448Q339.3,448,353.69,432.84Zm-17.46-64q6.94,9.07,6.95,25.41,0,15.67-7.17,24.5t-19.41,8.83a23.46,23.46,0,0,1-19.19-9.09q-7.34-9.08-7.33-24.68,0-15.37,7.33-24.72t19.77-9.34Q329.27,359.74,336.23,368.83ZM480,341.14H457.66v58.08a112.15,112.15,0,0,0,.59,14.43H458q-2.42-4.25-5.27-8.57L411,341.14H385.52v105h22.34V388.45q0-11.42-.59-17h.29a95.78,95.78,0,0,0,5.28,8.72l43.28,66H480ZM96,313.92c-39-11.22-63.71-27.48-64-45.6,0-.11,0-.21,0-.32l.12,86.81c0,.11,0,.21,0,.32.29,18.1,24.9,34.34,63.87,45.56Z"/></g></svg>