<svg xmlns="http://www.w3.org/2000/svg" viewBox="0 0 512 512"><title>data-sql</title><g id="Layer_43" data-name="Layer 43"><path id="data_SQL" data-name="data SQL" d="M415.94,93.61c0,.11,0,.22,0,.33-.53,33.88-86.26,61.29-191.93,61.29S32.6,127.82,32.07,93.94c0-.11,0-.22,0-.33C32.06,59.59,118,32,224,32S415.94,59.59,415.94,93.61ZM415.88,140c0,.11,0,.21,0,.32-.53,33.88-86.26,61.29-191.93,61.29S32.54,174.2,32,140.32V140l.12,86.81c0,.11,0,.21,0,.32.53,33.88,86.26,61.29,191.93,61.29S415.46,261,416,227.13c0-.11,0-.21,0-.32ZM416,320l-.07-52c0,.11,0,.21,0,.32-.34,21.73-35.73,40.8-88.93,51.68ZM209.1,448.65a88.69,88.69,0,0,0,16.45,1.47,77.09,77.09,0,0,0,16-1.61,39.4,39.4,0,0,0,13.29-5.31,27.08,27.08,0,0,0,9-9.67q3.33-6,3.33-14.76a30.15,30.15,0,0,0-1.9-11.17,26.14,26.14,0,0,0-5.5-8.53,40,40,0,0,0-8.6-6.7,92.57,92.57,0,0,0-11.32-5.61q-4.6-1.9-8.28-3.7a41.07,41.07,0,0,1-6.22-3.66,15.72,15.72,0,0,1-4-3.95,8.32,8.32,0,0,1-1.4-4.73,7.93,7.93,0,0,1,1.25-4.36,10.82,10.82,0,0,1,3.51-3.33,19,19,0,0,1,5.57-2.16,32.47,32.47,0,0,1,7.33-.77,46.77,46.77,0,0,1,6.18.44,48.43,48.43,0,0,1,6.56,1.36,46.58,46.58,0,0,1,6.41,2.3,35.9,35.9,0,0,1,5.75,3.23v-21.9a57.11,57.11,0,0,0-11.69-3,95,95,0,0,0-14.53-1,67.86,67.86,0,0,0-15.82,1.79,40.28,40.28,0,0,0-13.15,5.61,27.86,27.86,0,0,0-9,9.7,28.43,28.43,0,0,0-3.3,14.1,27.39,27.39,0,0,0,6,17.87q6,7.4,18.35,12.53,4.83,2,9,3.88a50.65,50.65,0,0,1,7.21,3.95,18.92,18.92,0,0,1,4.8,4.47,9.11,9.11,0,0,1,1.76,5.49,8.4,8.4,0,0,1-1.1,4.21,9.64,9.64,0,0,1-3.33,3.37,18.2,18.2,0,0,1-5.57,2.24,33.3,33.3,0,0,1-7.8.8,44.55,44.55,0,0,1-15.09-2.67,45.1,45.1,0,0,1-13.84-8v23.44A49.51,49.51,0,0,0,209.1,448.65Zm172.82-21.24q8.5-13.55,8.5-32.37,0-24.1-13.92-38.75T340.32,341.5q-24,0-38.45,15.38t-14.36,40.28a60.26,60.26,0,0,0,3.41,20.44,50.52,50.52,0,0,0,9.63,16.59,46.13,46.13,0,0,0,15,11.24,48.21,48.21,0,0,0,19.55,4.47q5.64,6.3,10.88,11.79a82.09,82.09,0,0,0,10.77,9.56,50.19,50.19,0,0,0,11.57,6.41A36.3,36.3,0,0,0,381.56,480a65.29,65.29,0,0,0,10.07-.66,59.82,59.82,0,0,0,6.48-1.32V458.1a19.16,19.16,0,0,1-2.42.77c-.88.22-1.79.41-2.74.59s-1.9.29-2.82.36-1.79.11-2.57.11a50.71,50.71,0,0,1-8-.58,29.12,29.12,0,0,1-7.14-2.13,34,34,0,0,1-6.92-4.17,58.85,58.85,0,0,1-7.25-6.74A45.59,45.59,0,0,0,381.92,427.41Zm-23.29-56.32q6.89,9.07,6.89,25.27,0,15.6-7.18,24.53t-19.41,8.79a23.52,23.52,0,0,1-19.26-9.08q-7.26-9.15-7.25-24.68t7.32-24.68q7.39-9.37,19.78-9.38Q351.75,361.86,358.63,371.09ZM480,429.1H441.11V343.26H417.45v105H480Zm-320-103C85.73,317.69,32.43,295,32,268.32c0-.11,0-.21,0-.32l.12,86.81c0,.11,0,.21,0,.32C32.55,381.8,85.8,404.47,160,412.9Z"/></g></svg>