<svg xmlns="http://www.w3.org/2000/svg" viewBox="0 0 512 512"><title>data-web</title><g id="Layer_43" data-name="Layer 43"><path id="data_WEB" data-name="data WEB" d="M415.94,93.61c0,.11,0,.22,0,.33-.53,33.88-86.26,61.29-191.93,61.29S32.6,127.82,32.07,93.94c0-.11,0-.22,0-.33C32.06,59.59,118,32,224,32S415.94,59.59,415.94,93.61ZM415.88,140c0,.11,0,.21,0,.32-.53,33.88-86.26,61.29-191.93,61.29S32.54,174.2,32,140.32V140l.12,86.81c0,.11,0,.21,0,.32.53,33.88,86.26,61.29,191.93,61.29S415.46,261,416,227.13c0-.11,0-.21,0-.32ZM416,320l-.07-52c0,.11,0,.21,0,.32-.34,21.73-35.73,40.8-88.93,51.68ZM264.88,343l-14.5,70.09a74,74,0,0,0-1.54,11.72h-.3a87.78,87.78,0,0,0-1.68-11.28L229.65,343H204.31l-19.05,69.65a57.94,57.94,0,0,0-2.12,12.31h-.44a83.78,83.78,0,0,0-1.39-12L166.51,343H140.66l27.61,105h27.32l17.87-67.38a71.77,71.77,0,0,0,1.91-11.79h.29a55.78,55.78,0,0,0,1.68,11.79L234.77,448H261l27.75-105Zm109.79,85.84H335.34v-24h34.35V385.6H335.34V362.23h36.91V343H311.68V448h63ZM441.47,448q17.88,0,28.2-8.46T480,416.65a23.13,23.13,0,0,0-6.7-16.77q-6.71-6.88-17.91-8.28v-.29a30.22,30.22,0,0,0,14.69-8.86,21.51,21.51,0,0,0,5.75-14.87q0-11.71-9.45-18.16t-27-6.45H401.12V448Zm-7.83-87.6q17.28,0,17.28,11.57a12.11,12.11,0,0,1-4.21,9.78q-4.21,3.56-11.53,3.55h-10.4V360.4Zm4.1,42.48q8.2,0,12.78,3.59a11.88,11.88,0,0,1,4.58,9.89,12.73,12.73,0,0,1-4.65,10.4q-4.67,3.81-12.86,3.81H424.78V402.88ZM96,313.92c-39-11.22-63.71-27.48-64-45.6V268l.12,86.81c0,.11,0,.21,0,.32.29,18.1,24.9,34.34,63.87,45.56Z"/></g></svg>