<?xml version="1.0" encoding="utf-8"?>
<!-- Generator: Adobe Illustrator 24.2.0, SVG Export Plug-In . SVG Version: 6.00 Build 0)  -->
<svg version="1.1" id="Layer_1" xmlns="http://www.w3.org/2000/svg" xmlns:xlink="http://www.w3.org/1999/xlink" x="0px" y="0px"
	 width="512px" height="512px" viewBox="0 0 512 512" xml:space="preserve">
<path id="data_CSV" d="M415.9,93.6c0,0.1,0,0.2,0,0.3c-0.5,33.9-86.3,61.3-191.9,61.3S32.6,127.8,32.1,93.9c0-0.1,0-0.2,0-0.3
	C32.1,59.6,118,32,224,32S415.9,59.6,415.9,93.6z M415.9,140c0,0.1,0,0.2,0,0.3c-0.5,33.9-86.3,61.3-191.9,61.3S32.5,174.2,32,140.3
	V140l0.1,86.8c0,0.1,0,0.2,0,0.3c0.5,33.9,86.3,61.3,191.9,61.3s191.4-27.4,192-61.3c0-0.1,0-0.2,0-0.3L415.9,140z M416,320l-0.1-52
	c0,0.1,0,0.2,0,0.3c-0.3,21.7-35.7,40.8-88.9,51.7H416z M271,420.8c-7.7,4.5-16.4,6.8-25.4,6.7c-9.7,0-17.4-3-23.1-9
	s-8.6-14.1-8.6-24.3c0-10.6,3-19,9.1-25.2c6.1-6.2,14-9.3,23.9-9.3c8.4-0.1,16.7,2,24,6.3v-22.8c-7-2.6-15.7-3.9-25.9-3.9
	c-16.6,0-30,5.2-40.4,15.7c-10.4,10.5-15.6,24.1-15.6,40.9c0,15.8,4.6,28.4,13.8,37.9c9.2,9.5,21.9,14.2,38,14.2
	c12.3,0,22.3-1.9,30-5.6L271,420.8z M307.6,446.5c5.4,1,10.9,1.5,16.4,1.5c5.4,0,10.7-0.5,16-1.6c4.7-0.9,9.2-2.7,13.3-5.3
	c3.8-2.4,6.8-5.8,9-9.7c2.2-4,3.3-8.9,3.3-14.8c0.1-3.8-0.6-7.6-1.9-11.2c-1.3-3.2-3.1-6.1-5.5-8.5c-2.6-2.6-5.5-4.9-8.6-6.7
	c-3.6-2.1-7.4-4-11.3-5.6c-3.1-1.3-5.8-2.5-8.3-3.7c-2.2-1-4.3-2.3-6.2-3.7c-1.5-1.1-2.9-2.4-4-4c-0.9-1.4-1.4-3-1.4-4.7
	c0-1.5,0.4-3.1,1.2-4.4c0.9-1.4,2.1-2.5,3.5-3.3c1.7-1,3.6-1.7,5.6-2.2c2.4-0.5,4.9-0.8,7.3-0.8c2.1,0,4.1,0.2,6.2,0.4
	c2.2,0.3,4.4,0.8,6.5,1.4c2.2,0.6,4.3,1.4,6.4,2.3c2,0.9,3.9,2,5.8,3.2v-21.9c-3.8-1.4-7.7-2.4-11.7-3c-4.8-0.7-9.7-1-14.5-1
	c-5.3,0-10.6,0.6-15.8,1.8c-4.7,1.1-9.1,3-13.1,5.6c-3.7,2.5-6.8,5.8-9,9.7c-2.3,4.3-3.4,9.2-3.3,14.1c-0.2,6.5,2,12.8,6,17.9
	c4,4.9,10.1,9.1,18.3,12.5c3.2,1.3,6.2,2.6,9,3.9c2.5,1.1,4.9,2.5,7.2,4c1.8,1.2,3.5,2.7,4.8,4.5c1.2,1.6,1.8,3.5,1.8,5.5
	c0,1.5-0.4,2.9-1.1,4.2c-0.8,1.4-2,2.5-3.3,3.4c-1.7,1-3.6,1.8-5.6,2.2c-2.6,0.6-5.2,0.8-7.8,0.8c-5.1,0-10.2-0.9-15.1-2.7
	c-5.1-1.8-9.8-4.5-13.9-8v23.4C298.3,444.3,302.8,445.8,307.6,446.5L307.6,446.5z M455.3,341.1l-21.8,72.8
	c-1.1,3.5-1.8,7.1-2.3,10.8h-0.4c-0.3-3.6-1.1-7.1-2.1-10.5l-21.9-73.1h-25.5l35.7,105h26.8l36.2-105H455.3z M160,326.1
	C85.7,317.7,32.4,295,32,268.3V268l0.1,86.8c0,0.1,0,0.2,0,0.3c0.4,26.7,53.7,49.3,127.9,57.8V326.1z"/>
</svg>
