<svg xmlns="http://www.w3.org/2000/svg" viewBox="0 0 512 512"><title>data-csv</title><g id="Layer_43" data-name="Layer 43"><path id="data_CSV" data-name="data CSV" d="M415.94,93.61c0,.11,0,.22,0,.33-.53,33.88-86.26,61.29-191.93,61.29S32.6,127.82,32.07,93.94c0-.11,0-.22,0-.33C32.06,59.59,118,32,224,32S415.94,59.59,415.94,93.61ZM415.88,140c0,.11,0,.21,0,.32-.53,33.88-86.26,61.29-191.93,61.29S32.54,174.2,32,140.32V140l.12,86.81c0,.11,0,.21,0,.32.53,33.88,86.26,61.29,191.93,61.29S415.46,261,416,227.13c0-.11,0-.21,0-.32ZM416,320l-.07-52c0,.11,0,.21,0,.32-.34,21.73-35.73,40.8-88.93,51.68ZM271,420.83a49.27,49.27,0,0,1-25.35,6.74q-14.49,0-23.07-9.05T214,394.24q0-15.89,9.09-25.2t23.87-9.3a46,46,0,0,1,24,6.3V343.26q-10.56-3.87-25.93-3.88-24.83,0-40.4,15.68t-15.56,40.86q0,23.67,13.84,37.87t38,14.21q18.52,0,30-5.57Zm36.59,25.71A89.54,89.54,0,0,0,324,448a77.09,77.09,0,0,0,16-1.61,39.25,39.25,0,0,0,13.3-5.31,27.14,27.14,0,0,0,9-9.67q3.33-6,3.33-14.76a30.15,30.15,0,0,0-1.9-11.17,26.22,26.22,0,0,0-5.49-8.53,40.64,40.64,0,0,0-8.61-6.7,91.16,91.16,0,0,0-11.32-5.6c-3.07-1.27-5.83-2.51-8.27-3.7a41.54,41.54,0,0,1-6.23-3.67,15.72,15.72,0,0,1-3.95-3.95,8.31,8.31,0,0,1-1.39-4.72,7.87,7.87,0,0,1,1.24-4.36,10.56,10.56,0,0,1,3.52-3.33,18.81,18.81,0,0,1,5.56-2.17,32.49,32.49,0,0,1,7.33-.76,47,47,0,0,1,6.19.43,50.21,50.21,0,0,1,6.55,1.36,45.35,45.35,0,0,1,6.41,2.31,35.11,35.11,0,0,1,5.75,3.22v-21.9a57.18,57.18,0,0,0-11.68-3,95.1,95.1,0,0,0-14.54-1,67.33,67.33,0,0,0-15.82,1.8,40.05,40.05,0,0,0-13.15,5.6,28.05,28.05,0,0,0-9,9.7,28.49,28.49,0,0,0-3.3,14.1,27.32,27.32,0,0,0,6.05,17.87q6,7.41,18.34,12.53,4.84,2,9,3.88a50.34,50.34,0,0,1,7.22,4,18.83,18.83,0,0,1,4.79,4.46,9.14,9.14,0,0,1,1.76,5.5,8.45,8.45,0,0,1-1.1,4.21,9.72,9.72,0,0,1-3.33,3.37,18.45,18.45,0,0,1-5.57,2.23,33.27,33.27,0,0,1-7.8.81,44.26,44.26,0,0,1-15.08-2.68,44.83,44.83,0,0,1-13.85-8v23.44A49.93,49.93,0,0,0,307.55,446.54Zm147.69-105.4-21.75,72.8a59.32,59.32,0,0,0-2.27,10.77h-.44a52,52,0,0,0-2.12-10.47l-21.9-73.1H381.27l35.74,105h26.81l36.18-105ZM160,326.11C85.73,317.69,32.43,295,32,268.32V268l.12,86.81c0,.11,0,.21,0,.32C32.55,381.8,85.8,404.47,160,412.9Z"/></g></svg>