<?xml version="1.0" encoding="utf-8"?>
<!-- Generator: Adobe Illustrator 24.2.0, SVG Export Plug-In . SVG Version: 6.00 Build 0)  -->
<svg version="1.1" id="Layer_1" xmlns="http://www.w3.org/2000/svg" xmlns:xlink="http://www.w3.org/1999/xlink" x="0px" y="0px"
	 width="512px" height="512px" viewBox="0 0 512 512" xml:space="preserve">
<path id="data_SQL" d="M415.9,93.6c0,0.1,0,0.2,0,0.3c-0.5,33.9-86.3,61.3-191.9,61.3S32.6,127.8,32.1,93.9c0-0.1,0-0.2,0-0.3
	C32.1,59.6,118,32,224,32S415.9,59.6,415.9,93.6z M415.9,140c0,0.1,0,0.2,0,0.3c-0.5,33.9-86.3,61.3-191.9,61.3S32.5,174.2,32,140.3
	V140l0.1,86.8c0,0.1,0,0.2,0,0.3c0.5,33.9,86.3,61.3,191.9,61.3s191.4-27.4,192-61.3c0-0.1,0-0.2,0-0.3L415.9,140z M416,320l-0.1-52
	c0,0.1,0,0.2,0,0.3c-0.3,21.7-35.7,40.8-88.9,51.7H416z M209.1,448.6c5.4,1,10.9,1.5,16.4,1.5c5.4,0,10.7-0.5,16-1.6
	c4.7-0.9,9.2-2.7,13.3-5.3c3.8-2.4,6.8-5.8,9-9.7c2.2-4,3.3-8.9,3.3-14.8c0.1-3.8-0.6-7.6-1.9-11.2c-1.3-3.2-3.1-6.1-5.5-8.5
	c-2.5-2.6-5.4-4.9-8.6-6.7c-3.6-2.1-7.4-4-11.3-5.6c-3.1-1.3-5.8-2.5-8.3-3.7c-2.2-1-4.3-2.3-6.2-3.7c-1.6-1.1-2.9-2.4-4-4
	c-0.9-1.4-1.4-3-1.4-4.7c0-1.5,0.4-3.1,1.3-4.4c0.9-1.4,2.1-2.5,3.5-3.3c1.7-1,3.6-1.7,5.6-2.2c2.4-0.5,4.9-0.8,7.3-0.8
	c2.1,0,4.1,0.2,6.2,0.4c2.2,0.3,4.4,0.8,6.6,1.4c2.2,0.6,4.3,1.4,6.4,2.3c2,0.9,3.9,2,5.8,3.2v-21.9c-3.8-1.4-7.7-2.4-11.7-3
	c-4.8-0.7-9.7-1-14.5-1c-5.3,0-10.6,0.6-15.8,1.8c-4.7,1.1-9.1,3-13.1,5.6c-3.7,2.5-6.8,5.8-9,9.7c-2.3,4.3-3.4,9.2-3.3,14.1
	c-0.2,6.5,1.9,12.8,6,17.9c4,4.9,10.1,9.1,18.4,12.5c3.2,1.3,6.2,2.6,9,3.9c2.5,1.1,4.9,2.4,7.2,4c1.8,1.2,3.5,2.7,4.8,4.5
	c1.2,1.6,1.8,3.5,1.8,5.5c0,1.5-0.4,2.9-1.1,4.2c-0.8,1.4-2,2.5-3.3,3.4c-1.7,1-3.6,1.8-5.6,2.2c-2.6,0.6-5.2,0.8-7.8,0.8
	c-5.1,0-10.3-0.9-15.1-2.7c-5.1-1.8-9.7-4.5-13.8-8v23.4C199.7,446.4,204.3,447.9,209.1,448.6z M381.9,427.4
	c5.7-9,8.5-19.8,8.5-32.4c0-16.1-4.6-29-13.9-38.8s-21.3-14.7-36.2-14.8c-16,0-28.8,5.1-38.5,15.4s-14.4,23.7-14.4,40.3
	c-0.1,7,1.1,13.9,3.4,20.4c2.1,6.1,5.4,11.7,9.6,16.6c4.2,4.7,9.3,8.6,15,11.2c6.1,2.8,12.8,4.4,19.5,4.5c3.8,4.2,7.4,8.1,10.9,11.8
	c3.3,3.5,6.9,6.7,10.8,9.6c3.6,2.6,7.4,4.8,11.6,6.4c4.2,1.6,8.7,2.4,13.2,2.3c3.4,0,6.7-0.2,10.1-0.7c2.2-0.3,4.3-0.8,6.5-1.3
	v-19.9c-0.8,0.3-1.6,0.6-2.4,0.8c-0.9,0.2-1.8,0.4-2.7,0.6s-1.9,0.3-2.8,0.4s-1.8,0.1-2.6,0.1c-2.7,0-5.4-0.2-8-0.6
	c-2.5-0.4-4.9-1.1-7.1-2.1c-2.5-1.1-4.8-2.5-6.9-4.2c-2.6-2-5-4.3-7.3-6.7C368.1,442.9,376.4,436.2,381.9,427.4z M358.6,371.1
	c4.6,6,6.9,14.5,6.9,25.3c0,10.4-2.4,18.6-7.2,24.5c-4.8,6-11.3,8.9-19.4,8.8c-7.5,0.2-14.7-3.2-19.3-9.1
	c-4.8-6.1-7.3-14.3-7.3-24.7c0-10.4,2.4-18.6,7.3-24.7c4.9-6.2,11.5-9.4,19.8-9.4C347.7,361.9,354,364.9,358.6,371.1z M480,429.1
	h-38.9v-85.8h-23.7v105H480V429.1z M160,326.1C85.7,317.7,32.4,295,32,268.3c0-0.1,0-0.2,0-0.3l0.1,86.8c0,0.1,0,0.2,0,0.3
	c0.4,26.7,53.7,49.3,127.9,57.8V326.1z"/>
</svg>
