<svg xmlns="http://www.w3.org/2000/svg" viewBox="0 0 512 512"><g id="Layer_43" data-name="Layer 43"><path id="data_ODS" data-name="data ODS" d="M415.94,93.61c0,.11,0,.22,0,.33-.53,33.88-86.26,61.29-191.93,61.29S32.6,127.82,32.07,93.94c0-.11,0-.22,0-.33C32.06,59.59,118,32,224,32S415.94,59.59,415.94,93.61ZM415.88,140c0,.11,0,.21,0,.32-.53,33.88-86.26,61.29-191.93,61.29S32.54,174.2,32,140.32V140l.12,86.81c0,.11,0,.21,0,.32.53,33.88,86.26,61.29,191.93,61.29S415.46,261,416,227.13c0-.11,0-.21,0-.32ZM416,320l-.07-52c0,.11,0,.21,0,.32-.34,21.73-35.73,40.8-88.93,51.68ZM160,326.11C85.73,317.69,32.43,295,32,268.32c0-.11,0-.21,0-.32l.12,86.81c0,.11,0,.21,0,.32C32.55,381.8,85.8,404.47,160,412.9Zm73.5,123.55q-22.26,0-36.28-14.49t-14-37.76q0-24.57,14.24-39.74t37.72-15.18q22.18,0,35.88,14.53t13.69,38.3q0,24.42-14.2,39.38T233.5,449.66Zm1-87.08q-12.28,0-19.51,9.22t-7.23,24.39q0,15.39,7.23,24.35a23.15,23.15,0,0,0,18.93,9q12.07,0,19.15-8.71t7.08-24.17q0-16.11-6.86-25.08T234.51,362.58Zm68.9,85.28V344.23h36.71q55.22,0,55.21,50.51,0,24.21-15.06,38.66t-40.15,14.46Zm23.34-84.63v65.69h11.57q15.17,0,23.81-9.1T370.76,395q0-14.82-8.56-23.31t-24-8.49Zm82.49,80.65V420.76a44.75,44.75,0,0,0,13.66,7.91,43.91,43.91,0,0,0,14.89,2.64,33.06,33.06,0,0,0,7.7-.8,18,18,0,0,0,5.49-2.2,9.67,9.67,0,0,0,3.29-3.33,8.29,8.29,0,0,0,1.08-4.15,9,9,0,0,0-1.73-5.42,18.77,18.77,0,0,0-4.74-4.41,49,49,0,0,0-7.12-3.9q-4.11-1.87-8.89-3.83-12.14-5.06-18.1-12.36a27,27,0,0,1-6-17.63,28.05,28.05,0,0,1,3.25-13.91,27.71,27.71,0,0,1,8.85-9.58,39.85,39.85,0,0,1,13-5.53,66.6,66.6,0,0,1,15.61-1.77,93.91,93.91,0,0,1,14.34,1,56.36,56.36,0,0,1,11.53,3v21.6a35.76,35.76,0,0,0-5.68-3.18,44.84,44.84,0,0,0-6.32-2.27,48.64,48.64,0,0,0-6.47-1.34,45.54,45.54,0,0,0-6.1-.43,31.65,31.65,0,0,0-7.23.76,18.18,18.18,0,0,0-5.49,2.13,10.47,10.47,0,0,0-3.47,3.29,7.77,7.77,0,0,0-1.23,4.3,8.27,8.27,0,0,0,1.37,4.66,15.88,15.88,0,0,0,3.91,3.9,40.85,40.85,0,0,0,6.14,3.61q3.61,1.77,8.16,3.65a91.56,91.56,0,0,1,11.17,5.53,39.85,39.85,0,0,1,8.49,6.61,25.82,25.82,0,0,1,5.42,8.42,29.82,29.82,0,0,1,1.88,11q0,8.67-3.29,14.56a26.68,26.68,0,0,1-8.92,9.54,38.57,38.57,0,0,1-13.12,5.24,75.82,75.82,0,0,1-15.79,1.59,88.11,88.11,0,0,1-16.22-1.44A49.18,49.18,0,0,1,409.24,443.88Z"/></g></svg>