<?xml version="1.0" encoding="utf-8"?>
<!-- Generator: Adobe Illustrator 19.2.1, SVG Export Plug-In . SVG Version: 6.00 Build 0)  -->
<svg version="1.1" id="Layer_1" xmlns="http://www.w3.org/2000/svg" xmlns:xlink="http://www.w3.org/1999/xlink" x="0px" y="0px"
	 width="512px" height="512px" viewBox="0 0 512 512" xml:space="preserve">
<path d="M64,32c-17.7,0-32,14.3-32,32v384c0,17.7,14.3,32,32,32h384c17.7,0,32-14.3,32-32V64c0-17.7-14.3-32-32-32L64,32z M224,64
	c17.7,0,32,14.3,32,32s-14.3,32-32,32s-32-14.3-32-32S206.3,64,224,64z M320,64c17.7,0,32,14.3,32,32s-14.3,32-32,32s-32-14.3-32-32
	S302.3,64,320,64z M416,64c17.7,0,32,14.3,32,32s-14.3,32-32,32s-32-14.3-32-32S398.3,64,416,64z M64,160h384v256v32H64
	c0,0,0-14.3,0-32V160z"/>
</svg>
