<?xml version="1.0" encoding="utf-8"?>
<!-- Generator: Adobe Illustrator 24.0.1, SVG Export Plug-In . SVG Version: 6.00 Build 0)  -->
<svg version="1.1" id="Layer_3" xmlns="http://www.w3.org/2000/svg" xmlns:xlink="http://www.w3.org/1999/xlink" x="0px" y="0px"
	 viewBox="0 0 512 512" style="enable-background:new 0 0 512 512;" xml:space="preserve">
<style type="text/css">
	.st0{fill-rule:evenodd;clip-rule:evenodd;}
</style>
<g>
	<g>
		<path class="st0" d="M352,32H96c-17.7,0-32,14.3-32,32v384c0,17.7,14.3,32,32,32h320c17.7,0,32-14.3,32-32V128L352,32z M416,448
			H96V64h224v96h96V448z M304,304.4c0-0.3,0-0.5,0-0.8c0-8.8-7.2-16-16-16h-10.1c23.6-3,41.8-23.2,41.8-47.6c0-26.5-21.5-48-48-48
			s-48,21.5-48,48c0,24.4,18.2,44.6,41.8,47.6h-70.4c16.2-1.6,28.8-15.2,28.8-31.8c0-17.7-14.3-32-32-32s-32,14.3-32,32
			c0,16.6,12.7,30.2,28.8,31.8H176c-8.8,0-16,7.2-16,16v64c0,8.8,7.2,16,16,16h112c8.8,0,16-7.2,16-16c0-2.6-0.6-5.1-1.8-7.3
			l1.8,1.1l44.8,27.1c1.3,0.8,2.7,1.2,4.1,1.2c1.3,0,2.7-0.3,3.9-1c2.5-1.4,4.1-4.1,4.1-7v-95.8c0-2.9-1.5-5.5-4-6.9
			c-2.5-1.4-5.5-1.5-8,0L304,304.4L304,304.4z M193.5,271.7L193.5,271.7c-0.5,0.1-1,0.1-1.5,0.1s-1,0-1.5-0.1l-0.1,0h-0.1
			c-8.2-0.8-14.4-7.7-14.4-15.9c0-8.8,7.2-16,16-16s16,7.2,16,16C208,264,201.8,270.9,193.5,271.7L193.5,271.7z M275.8,271.7
			L275.8,271.7c-0.3,0-0.6,0.1-0.9,0.1c-1,0.1-2.1,0.2-3.1,0.2s-2.1,0-3.1-0.2c-0.3,0-0.6-0.1-0.9-0.1l0,0h0
			c-15.9-2-27.9-15.7-27.9-31.7c0-17.6,14.4-32,32-32s32,14.4,32,32C303.8,256.1,291.8,269.7,275.8,271.7L275.8,271.7z"/>
	</g>
</g>
</svg>
