<?xml version="1.0" encoding="utf-8"?>
<!-- Generator: Adobe Illustrator 24.2.0, SVG Export Plug-In . SVG Version: 6.00 Build 0)  -->
<svg version="1.1" id="Layer_1" xmlns="http://www.w3.org/2000/svg" xmlns:xlink="http://www.w3.org/1999/xlink" x="0px" y="0px"
	 width="512px" height="512px" viewBox="0 0 512 512" xml:space="preserve">
<path d="M218,353.8c-5.5-2.9-12.1-4.5-19-4.5c-21,0-38,14.8-38,33.2s17,33.2,38,33.2s38-14.8,38-33.2V256.6l96-22.6v87.8
	c-5.5-2.9-12.1-4.5-19-4.5c-21,0-38,14.8-38,33.2s17,33.2,38,33.2s38-14.8,38-33.2c0-0.5,0-1.2,0-1.7l0,0V192.2l-134,31.5V353.8
	L218,353.8z M352,32H96c-17.7,0-32,14.3-32,32v384c0,17.7,14.3,32,32,32h320c17.7,0,32-14.3,32-32V128L352,32z M416,448H96V64h224
	v96h96V448z"/>
</svg>
