<?xml version="1.0" encoding="utf-8"?>
<!-- Generator: Adobe Illustrator 19.2.1, SVG Export Plug-In . SVG Version: 6.00 Build 0)  -->
<svg version="1.1" id="Layer_1" xmlns="http://www.w3.org/2000/svg" xmlns:xlink="http://www.w3.org/1999/xlink" x="0px" y="0px"
	 width="512px" height="512px" viewBox="0 0 512 512" xml:space="preserve">
<path d="M352,32H96c-17.7,0-32,14.3-32,32v384c0,17.7,14.3,32,32,32h320c17.7,0,32-14.3,32-32V128L352,32z M416,448H96V64h64v32h32
	v32h-32v32h32v32h-32v32h32v32h-32v32h32v34.7c-18.6,6.6-32,24.4-32,45.3c0,26.5,21.5,48,48,48s48-21.5,48-48
	c0-20.9-13.4-38.7-32-45.3V288v-32h32v-32h-32v-32h32v-32h-32v-32h32V96h-32V64h96v96h96V448z M224,368c0,8.8-7.2,16-16,16
	s-16-7.2-16-16s7.2-16,16-16S224,359.2,224,368z"/>
</svg>
