<?xml version="1.0" encoding="utf-8"?>
<!-- Generator: Adobe Illustrator 24.0.1, SVG Export Plug-In . SVG Version: 6.00 Build 0)  -->
<svg version="1.1" id="Layer_2" xmlns="http://www.w3.org/2000/svg" xmlns:xlink="http://www.w3.org/1999/xlink" x="0px" y="0px"
	 viewBox="0 0 512 512" style="enable-background:new 0 0 512 512;" xml:space="preserve">
<g>
	<g>
		<path d="M352,32H96c-17.7,0-32,14.3-32,32v384c0,17.7,14.3,32,32,32h320c17.7,0,32-14.3,32-32V128L352,32z M416,448H96V64h224v96
			h96V448z M128,229.3v149.3c0,20.6,19.1,37.3,42.7,37.3h170.7c23.6,0,42.7-16.7,42.7-37.3V229.3c0-20.6-19.1-37.3-42.7-37.3H170.7
			C147.1,192,128,208.7,128,229.3z M246.7,378.7h-76V332h76V378.7z M265.3,266.7h76v46.7h-76V266.7z M265.3,332h76v46.7h-76V332z
			 M246.7,313.3h-76v-46.7h76V313.3z"/>
	</g>
</g>
</svg>
