<?xml version="1.0" encoding="utf-8"?>
<!-- Generator: Adobe Illustrator 24.2.0, SVG Export Plug-In . SVG Version: 6.00 Build 0)  -->
<svg version="1.1" id="Layer_1" xmlns="http://www.w3.org/2000/svg" xmlns:xlink="http://www.w3.org/1999/xlink" x="0px" y="0px"
	 width="512px" height="512px" viewBox="0 0 512 512" xml:space="preserve">
<path d="M352,32H96c-17.7,0-32,14.3-32,32v384c0,17.7,14.3,32,32,32h320c17.7,0,32-14.3,32-32V128L352,32z M416,448H96V64h224v96h96
	V448z M128,229.3v149.4c0,20.6,19.1,37.3,42.7,37.3h170.6c23.6,0,42.7-16.7,42.7-37.3V229.3c0-20.6-19.1-37.3-42.7-37.3H170.7
	C147.1,192,128,208.7,128,229.3z M247,379h-76v-47h76V379z M265,267h76v47h-76V267z M265,332h76v47h-76V332z M247,313h-76v-47h76
	V313z"/>
</svg>
