<?xml version="1.0" encoding="utf-8"?>
<!-- Generator: Adobe Illustrator 24.2.0, SVG Export Plug-In . SVG Version: 6.00 Build 0)  -->
<svg version="1.1" id="Layer_1" xmlns="http://www.w3.org/2000/svg" xmlns:xlink="http://www.w3.org/1999/xlink" x="0px" y="0px"
	 width="512px" height="512px" viewBox="0 0 512 512" xml:space="preserve">
<path d="M236,256l-52.6-0.2l-48.6,48.6l0.1,0.1c-4.1,3.9-6.7,9.4-6.7,15.5c0,5.8,2.3,11,6,14.8l0,0l49.1,49.1l46.8-0.2L170.4,324
	c0.2-0.9,0.3-1.8,0.3-2.8L236,256z M341.2,321.5c0.1,0.9,0.2,1.9,0.3,2.8L281.9,384l46.8,0.2l49.1-49.1l0,0c3.7-3.8,6-9.1,6-14.8
	c0-6.1-2.6-11.6-6.7-15.5l0.1-0.1L328.6,256l-52.6,0.2L341.2,321.5z M352,32H96c-17.7,0-32,14.3-32,32v384c0,17.7,14.3,32,32,32h320
	c17.7,0,32-14.3,32-32V128L352,32z M416,448H96V64h224v96h96V448z"/>
</svg>
