<?xml version="1.0" encoding="utf-8"?>
<!-- Generator: Adobe Illustrator 24.0.1, SVG Export Plug-In . SVG Version: 6.00 Build 0)  -->
<svg version="1.1" id="Layer_3" xmlns="http://www.w3.org/2000/svg" xmlns:xlink="http://www.w3.org/1999/xlink" x="0px" y="0px"
	 viewBox="0 0 512 512" style="enable-background:new 0 0 512 512;" xml:space="preserve">
<g>
	<g>
		<path d="M128,214.4c0,9.9,6.1,18.2,14.5,21.2v113.1c0,12.4,9.6,22.4,21.3,22.4h81.5v11.7l-13.9,14.5c-1.9,2-3.1,4.8-3.1,7.9
			c0,6.2,4.8,11.2,10.7,11.2c2.9,0,5.6-1.3,7.5-3.3c0.1-0.1,0.2-0.3,0.4-0.4l9.1-9.5l9.1,9.5c0.1,0.1,0.2,0.3,0.4,0.4
			c1.9,2,4.6,3.3,7.5,3.3c5.9,0,10.7-5,10.7-11.2c0-3.1-1.2-5.9-3.1-7.9l-13.9-14.5v-11.7H347c11.3,0,20.5-9.2,21.3-20.8h0.1V236
			c9-2.6,15.7-11.3,15.7-21.6c0-12.4-9.5-22.4-21.3-22.4H149.3C137.5,192,128,202,128,214.4z M298.7,236.8h42.7v89.5h-42.7V236.8z
			 M234.7,263.3h42.7v63h-42.7V263.3z M170.7,281.5h42.7v44.8h-42.7V281.5z M352,32H96c-17.7,0-32,14.3-32,32v384
			c0,17.7,14.3,32,32,32h320c17.7,0,32-14.3,32-32V128L352,32z M416,448H96V64h224v96h96V448z"/>
	</g>
</g>
</svg>
