<?xml version="1.0" encoding="utf-8"?>
<!-- Generator: Adobe Illustrator 24.0.1, SVG Export Plug-In . SVG Version: 6.00 Build 0)  -->
<svg version="1.1" id="Layer_3" xmlns="http://www.w3.org/2000/svg" xmlns:xlink="http://www.w3.org/1999/xlink" x="0px" y="0px"
	 viewBox="0 0 512 512" style="enable-background:new 0 0 512 512;" xml:space="preserve">
<g>
	<g>
		<path d="M217.6,353.5c-5.6-2.9-12.2-4.5-19.2-4.5c-21.2,0-38.4,15-38.4,33.5c0,18.5,17.2,33.5,38.4,33.5c21.2,0,38.4-15,38.4-33.5
			V256.6l96-22.6v87.5c-5.6-2.9-12.2-4.5-19.2-4.5c-21.2,0-38.4,15-38.4,33.5c0,18.5,17.2,33.5,38.4,33.5c21.2,0,38.4-15,38.4-33.5
			c0-0.5,0-1,0-1.5h0V192l-134.4,31.6V353.5z M352,32H96c-17.7,0-32,14.3-32,32v384c0,17.7,14.3,32,32,32h320c17.7,0,32-14.3,32-32
			V128L352,32z M416,448H96V64h224v96h96V448z"/>
	</g>
</g>
</svg>
