<?xml version="1.0" encoding="utf-8"?>
<!-- Generator: Adobe Illustrator 24.2.0, SVG Export Plug-In . SVG Version: 6.00 Build 0)  -->
<svg version="1.1" id="Layer_1" xmlns="http://www.w3.org/2000/svg" xmlns:xlink="http://www.w3.org/1999/xlink" x="0px" y="0px"
	 width="512px" height="512px" viewBox="0 0 512 512" xml:space="preserve">
<path d="M352,32H96c-17.7,0-32,14.3-32,32v384c0,17.7,14.3,32,32,32h320c17.7,0,32-14.3,32-32V128L352,32z M416,448H96V64h224v96h96
	V448z M304,304.8c0-0.3,0-0.8,0-0.8c0-8.8-7.2-16-16-16h-10.1c24.2-3.1,42.8-24.3,41.8-49.6c-1-24.8-21.2-45-46-46
	c-27.4-1.1-49.9,20.8-49.9,48c0,24.4,18.2,44.6,41.8,47.6h-70.4c17.2-1.7,30.3-16.9,28.7-34.8c-1.4-15.5-14.1-27.9-29.6-28.9
	c-18.7-1.3-34.2,13.5-34.2,31.9c0,16.6,12.7,30.2,28.8,31.8H176c-8.8,0-16,7.2-16,16v64c0,8.8,7.2,16,16,16h111.7
	c8.4,0,15.6-6.3,16.3-14.6c0.2-3.1-0.3-6.1-1.7-8.7l1.8,1.1l44.9,27.1c1.3,0.8,2.7,1.2,4.1,1.2c1.3,0,2.7-0.3,3.9-1
	c2.5-1.4,4.1-4.1,4.1-7v-95.8c0-2.9-1.5-5.5-4-6.9s-5.5-1.5-8,0L304,304.8L304,304.8z M193.5,272L193.5,272c-0.5,0.1-1,0.1-1.5,0.1
	s-1,0-1.5-0.1h-0.1h-0.1c-8.6-0.8-15.1-8.5-14.3-17.2c0.6-7.9,7.2-14.2,15.1-14.6c9.2-0.5,16.8,6.9,16.8,16
	C208,264.3,201.8,271.2,193.5,272L193.5,272z M275.8,271.7L275.8,271.7c-0.3,0-0.6,0.1-0.9,0.1c-1,0.1-2.1,0.2-3.1,0.2
	s-2.1,0-3.1-0.2c-0.3,0-0.6-0.1-0.9-0.1l0,0l0,0c-15.9-2-27.9-15.7-27.9-31.7c0-17.6,14.4-32,32-32s32,14.4,32,32
	C303.8,256.1,291.8,269.7,275.8,271.7L275.8,271.7z"/>
</svg>
