<?xml version="1.0" encoding="utf-8"?>
<!-- Generator: Adobe Illustrator 24.2.0, SVG Export Plug-In . SVG Version: 6.00 Build 0)  -->
<svg version="1.1" id="Layer_1" xmlns="http://www.w3.org/2000/svg" xmlns:xlink="http://www.w3.org/1999/xlink" x="0px" y="0px"
	 width="512px" height="512px" viewBox="0 0 512 512" xml:space="preserve">
<path d="M127.5,214.4c0,9.9,6.1,18.2,14.5,21.2v113.1c0,12.4,9.6,22.4,21.3,22.4H246v11.8l-13.6,14.6c-1.9,2-3,4.8-3,8
	c0,6.3,4.7,11.3,10.5,11.3c2.8,0,5.5-1.3,7.4-3.3c0.1-0.1,0.2-0.3,0.4-0.4l8.9-9.6l8.9,9.6c0.1,0.1,0.2,0.3,0.4,0.4
	c1.9,2,4.5,3.3,7.4,3.3c5.8,0,10.5-5,10.5-11.3c0-3.1-1.2-6-3-8L267,382.8V371h78.8c11.1,0,20.1-9.3,20.9-21h1.3V235.9
	c9-2.6,15.7-11.3,15.7-21.6c0-12.4-9.5-22.4-21.3-22.4H148.8C137,192,127.5,202,127.5,214.4z M299,237h43v89h-43V237z M235,263h43
	v63h-43V263z M171,281h43v45h-43V281z M352,32H96c-17.7,0-32,14.3-32,32v384c0,17.7,14.3,32,32,32h320c17.7,0,32-14.3,32-32V128
	L352,32z M416,448H96V64h224v96h96V448z"/>
</svg>
