<?xml version="1.0" encoding="utf-8"?>
<!-- Generator: Adobe Illustrator 22.1.0, SVG Export Plug-In . SVG Version: 6.00 Build 0)  -->
<svg version="1.1" id="Layer_1" xmlns="http://www.w3.org/2000/svg" xmlns:xlink="http://www.w3.org/1999/xlink" x="0px" y="0px"
	 width="512px" height="512px" viewBox="0 0 512 512" xml:space="preserve">
<path d="M64,128h192v48h-72v208h-48V176H64V128z M380.6,235.6c-35-12.6-50.1-21.6-50.1-40.6c0-14.6,12.9-29.9,43.3-29.9
	c24.6,0,42.9,7.1,52.3,11.8l11.5-36.6c-13.6-6.5-34.4-12.3-62.8-12.3c-56.8,0-92.7,30.6-92.7,71.3c0,35.6,27.6,57.6,70.9,72.1
	c33.1,11.4,46.4,22.4,46.4,41.2c0,20.3-17.1,33.9-47.6,33.9c-24.4,0-47.9-7.4-63.3-15.8l-10.6,37.6c14.3,8.3,43.1,15.8,70.8,15.8
	c67.6,0,99.3-34.6,99.3-74.6C448,273.7,426.1,252.1,380.6,235.6z"/>
</svg>
