<?xml version="1.0" encoding="utf-8"?>
<!-- Generator: Adobe Illustrator 24.2.0, SVG Export Plug-In . SVG Version: 6.00 Build 0)  -->
<svg version="1.1" id="Layer_1" xmlns="http://www.w3.org/2000/svg" xmlns:xlink="http://www.w3.org/1999/xlink" x="0px" y="0px"
	 width="512px" height="512px" viewBox="0 0 512 512" xml:space="preserve">
<path d="M128,160v256h45v-91h21.4c24.2,0,43.5-7.8,57.9-23.4c14.4-15.6,21.6-36.1,21.6-61.3c0-53.4-25.2-80.2-75.5-80.2H128z
	 M173,204h17.5c23.7,0,35.5,12.8,35.5,38.6c0,26.3-11.8,39.4-35.5,39.4H173V204z M337.6,255.7c-8.1,0-15.9,0.9-23.4,2.8
	c-7.5,1.9-14.2,4.7-20,8.6c-5.8,3.9-10.4,9-14,15.2c-3.5,6.2-5.2,13.6-5.2,22.1c0,6.2,0.8,11.7,2.3,16.3c1.5,4.5,3.7,8.6,6.7,12.1
	c2.9,3.5,6.5,6.5,10.8,9.2c4.3,2.7,9.3,5.1,15,7.4c3.5,1.5,7.2,2.8,11,4c3.8,1.2,7.3,2.5,10.5,4c3.2,1.5,5.8,3.2,7.8,5.2
	c2,2,3,4.5,3,7.5c0,4.7-2.2,8.2-6.7,10.4c-4.5,2.3-10.6,3.4-18.5,3.4c-6.4,0-13.3-1.2-20.5-3.4s-14.5-5.8-21.7-10.4v38.3
	c13.4,5.2,27.9,7.7,43.7,7.7c8.5,0,16.8-0.9,24.7-2.8c7.9-1.8,15-4.8,21.1-8.8s10.9-9.2,14.7-15.7s5.5-14.2,5.5-23.3
	c0-6.5-0.9-12-2.7-16.8c-1.8-4.7-4.4-8.7-7.8-12.2c-3.4-3.5-7.4-6.5-12.2-9.1c-4.7-2.6-10-5-15.9-7.1c-3.2-1.2-6.5-2.4-9.8-3.5
	s-6.3-2.4-9-3.9c-2.7-1.5-4.9-3.1-6.5-5.2c-1.6-2.1-2.5-4.4-2.5-7.1c0-2.1,0.5-3.9,1.7-5.6c1.1-1.7,2.6-3,4.6-4c2-1,4.2-1.8,6.7-2.4
	s5.2-0.8,8.1-0.8c6.1,0,12.3,0.9,18.8,2.6c6.4,1.7,12.3,4.4,18,7.8v-36.4c-6.3-2-12.8-3.5-19.3-4.5s-13-1.6-19.3-1.6L337.6,255.7z
	 M352,32H96c-17.7,0-32,14.3-32,32v384c0,17.7,14.3,32,32,32h320c17.7,0,32-14.3,32-32V128L352,32z M416,448H96V64h224v96h96V448z"
	/>
</svg>
