<?xml version="1.0" encoding="utf-8"?>
<!-- Generator: Adobe Illustrator 19.2.1, SVG Export Plug-In . SVG Version: 6.00 Build 0)  -->
<svg version="1.1" id="Layer_1" xmlns="http://www.w3.org/2000/svg" xmlns:xlink="http://www.w3.org/1999/xlink" x="0px" y="0px"
	 viewBox="0 0 512 512" enable-background="new 0 0 512 512" xml:space="preserve">
<path d="M416,32H96c-17.7,0-32,14.3-32,32v384c0,17.7,14.3,32,32,32h320c17.7,0,32-14.3,32-32V64C448,46.3,433.7,32,416,32z
	 M128,448H96v-32h32V448z M128,352H96v-64h32V352z M128,224H96v-64h32V224z M128,96H96V64h32V96z M352,448H160v-96h192V448z
	 M352,320H160V192h192V320z M352,160H160V64h192V160z M416,448h-32v-32h32V448z M416,352h-32v-64h32V352z M416,224h-32v-64h32V224z
	 M416,96h-32V64h32V96z"/>
</svg>
