<?xml version="1.0" encoding="utf-8"?>
<!-- Generator: Adobe Illustrator 20.1.0, SVG Export Plug-In . SVG Version: 6.00 Build 0)  -->
<svg version="1.1" id="Layer_1" xmlns="http://www.w3.org/2000/svg" xmlns:xlink="http://www.w3.org/1999/xlink" x="0px" y="0px"
	 viewBox="0 0 512 512" style="enable-background:new 0 0 512 512;" xml:space="preserve">
<path d="M425.6,160h-246c-17.6,0-37.2,14.4-43.6,32L64,384V96h114.8l32,32H256l-64-64H64c-17.7,0-32,14.3-32,32v288
	c0,17.7,14.3,32,32,32h22.4H224h108.4c17.6,0,37.2-14.4,43.6-32L446,192C452.4,174.4,443.2,160,425.6,160z M346,373.1
	c-2,5.5-10.1,10.9-13.6,10.9H224v0H98.1L166,202.9c2-5.5,10.1-10.9,13.6-10.9h232.3L346,373.1z"/>
</svg>
