<?xml version="1.0" encoding="utf-8"?>
<!-- Generator: Adobe Illustrator 20.1.0, SVG Export Plug-In . SVG Version: 6.00 Build 0)  -->
<svg version="1.1" id="Layer_1" xmlns="http://www.w3.org/2000/svg" xmlns:xlink="http://www.w3.org/1999/xlink" x="0px" y="0px"
	 viewBox="0 0 512 512" style="enable-background:new 0 0 512 512;" xml:space="preserve">
<path d="M96,160h288c17.7,0,32,14.3,32,32v64h-32v-64H96V160L96,160z M448,384h-32v0v-64h-32v64h-64v32v0h64v32v32h32v-32v-32h32h32
	v-32H448z M64,96h114.8l32,32l45.2,0v0l-64-64H64c-17.7,0-32,14.3-32,32v64v32v192c0,17.7,14.3,32,32,32h192v-32l-192,0V96z"/>
</svg>
