<?xml version="1.0" encoding="utf-8"?>
<!-- Generator: Adobe Illustrator 24.2.0, SVG Export Plug-In . SVG Version: 6.00 Build 0)  -->
<svg version="1.1" id="Layer_1" xmlns="http://www.w3.org/2000/svg" xmlns:xlink="http://www.w3.org/1999/xlink" x="0px" y="0px"
	 width="512px" height="512px" viewBox="0 0 512 512" xml:space="preserve">
<path d="M64,96c-17.7,0-32,14.3-32,32v256c0,17.7,14.3,32,32,32h384c17.7,0,32-14.3,32-32V128c0-17.7-14.3-32-32-32H64z M448,384H64
	V128h384V384z M141.8,328.4c-33.3,0-50-23.4-50-70.2c0-24.3,4.5-42.8,13.5-55.5s22.1-19.1,39.2-19.1c32.6,0,48.8,23.8,48.8,71.4
	c0,23.7-4.4,41.9-13.3,54.5C171.1,322.1,158.4,328.4,141.8,328.4z M143.2,207.1c-13.3,0-20,16.8-20,50.3c0,31.6,6.5,47.4,19.6,47.4
	c12.8,0,19.1-16.3,19.1-48.8S155.7,207.1,143.2,207.1L143.2,207.1z M256.8,328.4c-33.3,0-50-23.4-50-70.2c0-24.3,4.5-42.8,13.5-55.5
	s22.1-19.1,39.2-19.1c32.6,0,48.8,23.8,48.8,71.4c0,23.7-4.4,41.9-13.3,54.5C286.2,322.1,273.4,328.4,256.8,328.4z M258.2,207.1
	c-13.3,0-20,16.8-20,50.3c0,31.6,6.5,47.4,19.6,47.4c12.8,0,19.2-16.3,19.2-48.8S270.7,207.2,258.2,207.1L258.2,207.1z M420,326h-88
	v-24h29v-87.2l-30,6.4v-25.4l61-12.3V302h28V326z"/>
</svg>
