<svg xmlns="http://www.w3.org/2000/svg" viewBox="0 0 512 512"><title>parameter-string</title><g id="parameter_string" data-name="parameter string"><path d="M127.25,328.88q19.73,0,29.79-16.79h.39v14.35h29.19V266.68q0-42.68-42.77-42.68a92.85,92.85,0,0,0-20.36,2.54q-11.17,2.53-17.63,5.86v23.24Q122,245,139.85,245t17.77,16.4L130.47,265Q96,269.51,96,298.61q0,13.77,8.35,22T127.25,328.88Zm12.21-47.46,18.16-2.34v6.74q0,9.18-5.47,15.18A18.24,18.24,0,0,1,138,307q-6.24,0-9.91-3.37a11.23,11.23,0,0,1-3.66-8.64Q124.42,283.38,139.46,281.42Zm209.06,33.5q-14.26-14-14.26-36,0-25.49,15.28-40.18T390.41,224q17.68,0,25.59,4.69v26.17a35.18,35.18,0,0,0-21.58-7.23q-13.29,0-21.05,7.77t-7.76,21.43q0,13.29,7.42,20.85t20.41,7.57Q405,305.25,416,298v24.81q-10.46,6-30.18,6.05Q362.78,328.88,348.52,314.92Zm-104,.51h.39q9.47,14.06,27.93,14.06,20.4,0,32.61-15.14t12.21-40.14q0-23-10.45-36.32t-29.78-13.28q-21.11,0-32.52,17.48h-.39V179H213.62V327.05h30.86ZM244,273.24q0-11.13,6.1-18.07a19.63,19.63,0,0,1,15.38-6.93q9.87,0,15.19,7T286,274.61q0,14.94-5.81,23.09t-16.36,8.16a18.14,18.14,0,0,1-14.26-6.35q-5.56-6.35-5.56-16ZM448,96H64a32,32,0,0,0-32,32V384a32,32,0,0,0,32,32H448a32,32,0,0,0,32-32V128A32,32,0,0,0,448,96Zm0,288H64V128H448Z"/></g></svg>