<svg xmlns="http://www.w3.org/2000/svg" viewBox="0 0 512 512"><title>parameter-float</title><g id="parameter_decimal" data-name="parameter decimal"><path d="M64,96a32,32,0,0,0-32,32V384a32,32,0,0,0,32,32H448a32,32,0,0,0,32-32V128a32,32,0,0,0-32-32ZM448,384H64V128H448ZM172,328.41q-50,0-50-70.21,0-36.43,13.53-55.52t39.2-19.09q48.84,0,48.83,71.38,0,35.55-13.33,54.5T172,328.41Zm1.37-121.29q-20,0-20,50.3,0,47.35,19.63,47.36,19.14,0,19.14-48.83T173.37,207.12Zm83.8,121.29a18,18,0,0,1-12.69-4.69,15,15,0,0,1-5.08-11.52,14.5,14.5,0,0,1,5.22-11.52,19.28,19.28,0,0,1,13-4.49q7.9,0,12.94,4.54a15.72,15.72,0,0,1-.1,23.14Q265.37,328.42,257.17,328.41ZM390.36,326H301.78V301.56h29V214.35L301,220.79v-25l60.55-12.2v118h28.81Z"/></g></svg>