<svg xmlns="http://www.w3.org/2000/svg" viewBox="0 0 512 512"><title>parameters-byte-array</title><g id="parameters_byte_array" data-name="parameters byte array"><path d="M64,96a32,32,0,0,0-32,32V384a32,32,0,0,0,32,32H448a32,32,0,0,0,32-32V128a32,32,0,0,0-32-32ZM448,384H64V128H448ZM141.79,328.41q-50,0-50-70.21,0-36.43,13.53-55.52t39.21-19.09q48.83,0,48.82,71.38,0,35.55-13.33,54.5T141.79,328.41Zm1.37-121.29q-20,0-20,50.3,0,47.35,19.63,47.36,19.14,0,19.14-48.83T143.16,207.12ZM256.83,328.41q-50,0-50-70.21,0-36.43,13.53-55.52t39.2-19.09q48.84,0,48.83,71.38,0,35.55-13.33,54.5T256.83,328.41Zm1.37-121.29q-20,0-20,50.3,0,47.35,19.63,47.36Q277,304.78,277,256T258.2,207.12ZM420.21,326H331.63V301.56h29V214.35l-29.79,6.44v-25l60.55-12.2v118h28.81Z"/></g></svg>