<?xml version="1.0" encoding="utf-8"?>
<!-- Generator: Adobe Illustrator 24.2.0, SVG Export Plug-In . SVG Version: 6.00 Build 0)  -->
<svg version="1.1" id="Layer_1" xmlns="http://www.w3.org/2000/svg" xmlns:xlink="http://www.w3.org/1999/xlink" x="0px" y="0px"
	 width="512px" height="512px" viewBox="0 0 512 512" xml:space="preserve">
<path d="M96,32c-17.7,0-32,14.3-32,32v384c0,17.7,14.3,32,32,32h320c17.7,0,32-14.3,32-32V64c0-17.7-14.3-32-32-32H96z M416,448H96
	V64h320V448z M285.3,160c-8.9-25-36.3-38.1-61.4-29.2c-13.7,4.8-24.4,15.6-29.2,29.2H128v32h66.7c8.9,25,36.3,38.1,61.4,29.2
	c13.7-4.8,24.4-15.6,29.2-29.2H384v-32H285.3z M240,192c-8.8,0-16-7.2-16-16s7.2-16,16-16s16,7.2,16,16S248.8,192,240,192z
	 M349.3,288c-8.9-25-36.3-38.1-61.4-29.2c-13.7,4.8-24.4,15.6-29.2,29.2H128v32h130.7c8.9,25,36.3,38.1,61.4,29.2
	c13.7-4.8,24.4-15.6,29.2-29.2H384v-32H349.3z M304,320c-8.8,0-16-7.2-16-16s7.2-16,16-16s16,7.2,16,16S312.8,320,304,320z"/>
</svg>
