<svg xmlns="http://www.w3.org/2000/svg" viewBox="0 0 512 512"><title>parameter-integer</title><g id="parameter_integer" data-name="parameter integer"><path d="M64,96a32,32,0,0,0-32,32V384a32,32,0,0,0,32,32H448a32,32,0,0,0,32-32V128a32,32,0,0,0-32-32ZM448,384H64V128H448ZM185.36,326H96.78V301.56h29V214.35L96,220.79v-25l60.55-12.2v118h28.81Zm59.21-26.17v.58h56.84V326H209.22V302l40.14-38.38q12.11-11.62,17-19.48a30.65,30.65,0,0,0,4.93-16.56q0-19.34-20.8-19.33-18.06,0-34.57,14.35V195.4q18.25-11.81,41.21-11.81,21.48,0,33.55,10.79t12.06,29.15q0,24.51-29.4,50.68Zm82.17,21.58V294.53q14.07,10.25,32.81,10.25,11.82,0,18.41-5.08t6.59-14.16q0-9.37-8.15-14.45T354,266h-12.6V242.38H353q27.35,0,27.35-18.17,0-17.09-21-17.09-14.07,0-27.34,9.09V191q14.75-7.42,34.37-7.42,21.48,0,33.45,9.67a30.77,30.77,0,0,1,12,25.09q0,27.45-27.83,34.38v.49q14.83,1.84,23.44,10.79A30.44,30.44,0,0,1,416,285.93q0,19.63-14.36,31.06T362,328.41Q340.31,328.41,326.74,321.38Z"/></g></svg>