<?xml version="1.0" encoding="utf-8"?>
<!-- Generator: Adobe Illustrator 24.2.0, SVG Export Plug-In . SVG Version: 6.00 Build 0)  -->
<svg version="1.1" id="Layer_1" xmlns="http://www.w3.org/2000/svg" xmlns:xlink="http://www.w3.org/1999/xlink" x="0px" y="0px"
	 width="512px" height="512px" viewBox="0 0 512 512" xml:space="preserve">
<path d="M64,96c-17.7,0-32,14.3-32,32v256c0,17.7,14.3,32,32,32h384c17.7,0,32-14.3,32-32V128c0-17.7-14.3-32-32-32H64z M448,384H64
	V128h384V384z M172,328.4c-33.3,0-50-23.4-50-70.2c0-24.3,4.5-42.8,13.5-55.5s22.1-19.1,39.2-19.1c32.6,0,48.8,23.8,48.8,71.4
	c0,23.7-4.4,41.9-13.3,54.5C201.3,322.1,188.6,328.4,172,328.4z M173.4,207.1c-13.3,0-20,16.8-20,50.3c0,31.6,6.5,47.4,19.6,47.4
	c12.8,0,19.1-16.3,19.1-48.8S185.9,207.1,173.4,207.1z M257.2,328.4c-4.7,0.1-9.2-1.5-12.7-4.7c-3.3-2.9-5.2-7.1-5.1-11.5
	c-0.1-4.4,1.8-8.7,5.2-11.5c3.6-3,8.3-4.6,13-4.5c5.3,0,9.6,1.5,12.9,4.5c6.4,5.9,6.7,15.9,0.8,22.2c-0.3,0.3-0.6,0.6-0.9,0.9
	C267.1,326.9,262.6,328.4,257.2,328.4L257.2,328.4z M390,326h-88v-24h29v-87.2l-30,6.4v-25.5l60-12.1V302h29V326z"/>
</svg>
