<svg xmlns="http://www.w3.org/2000/svg" viewBox="0 0 512 512"><title>subreport</title><g id="subreport"><path d="M448,480a32,32,0,0,1-32,32H128a32,32,0,0,1-32-32V384h32v96H416V96H128v64H96V96a32,32,0,0,1,32-32H416a32,32,0,0,1,32,32ZM64,32.2,320,32,288,0,64,.2a32,32,0,0,0-32,32l.11,128,32,0ZM64,383l-32,0,0,32a32,32,0,0,0,32,32h0ZM32,320.06S64,288,96,288l0,32,64-48.06L95.92,224l0,32C63.94,256,32,288.06,32,320.06Zm320.23,64.37-160,.14,0,32,160-.14ZM256,192a64,64,0,1,0,64,64H256Zm32-32v64h64A64,64,0,0,0,288,160Z"/></g></svg>