<?xml version="1.0" encoding="utf-8"?>
<!-- Generator: Adobe Illustrator 24.2.0, SVG Export Plug-In . SVG Version: 6.00 Build 0)  -->
<svg version="1.1" id="Layer_1" xmlns="http://www.w3.org/2000/svg" xmlns:xlink="http://www.w3.org/1999/xlink" x="0px" y="0px"
	 width="512px" height="512px" viewBox="0 0 512 512" xml:space="preserve">
<path d="M461.1,56.9l-6.2-6.2c-25-25-65.5-25-90.5,0c0,0,0,0,0,0l-60.8,60.8l-4.3-4.3c-6.2-6.2-16.4-6.2-22.6,0l-9.4,9.4
	c-6.2,6.2-6.2,16.4,0,22.6l4.3,4.3L70.8,344.4c-8.2,8.2-14,18.5-16.8,29.7l-21.5,85.7c-2.2,8.6,3.1,17.4,11.7,19.5
	c2.6,0.6,5.2,0.6,7.8,0l85.7-21.4c11.3-2.8,21.5-8.6,29.7-16.8l200.8-200.8l4.4,4.4c6.2,6.2,16.4,6.2,22.6,0l9.4-9.4
	c6.2-6.2,6.2-16.4,0-22.6l-4.4-4.4l60.8-60.8C486,122.5,485.9,82,461.1,56.9z M224,320h-64l144-144l32,32L224,320z"/>
</svg>
