<?xml version="1.0" encoding="utf-8"?>
<!-- Generator: Adobe Illustrator 19.2.1, SVG Export Plug-In . SVG Version: 6.00 Build 0)  -->
<svg version="1.1" id="Layer_1" xmlns="http://www.w3.org/2000/svg" xmlns:xlink="http://www.w3.org/1999/xlink" x="0px" y="0px"
	 width="512px" height="512px" viewBox="0 0 512 512" xml:space="preserve">
<path d="M32,64C14.3,64,0,78.3,0,96v320c0,17.7,14.3,32,32,32h416c17.7,0,32-14.3,32-32V96c0-17.7-14.3-32-32-32H32z M32,96h416v320
	H32V96z M80,128c-8.8,0-16,7.2-16,16v224c0,8.8,7.2,16,16,16s16-7.2,16-16V144C96,135.2,88.8,128,80,128z M144,128
	c-8.8,0-16,7.2-16,16v224c0,8.8,7.2,16,16,16s16-7.2,16-16V144C160,135.2,152.8,128,144,128z M208,128c-8.8,0-16,7.2-16,16v224
	c0,8.8,7.2,16,16,16s16-7.2,16-16V144C224,135.2,216.8,128,208,128z M272,128c-8.8,0-16,7.2-16,16v224c0,8.8,7.2,16,16,16
	s16-7.2,16-16V144C288,135.2,280.8,128,272,128z M336,128c-8.8,0-16,7.2-16,16v224c0,8.8,7.2,16,16,16s16-7.2,16-16V144
	C352,135.2,344.8,128,336,128z M400,128c-8.8,0-16,7.2-16,16v224c0,8.8,7.2,16,16,16s16-7.2,16-16V144C416,135.2,408.8,128,400,128z
	 M400,132c6.6,0,12,5.4,12,12v224c0,6.6-5.4,12-12,12s-12-5.4-12-12V144C388,137.4,393.4,132,400,132z M336,133c6.1,0,11,4.9,11,11
	v224c0,6.1-4.9,11-11,11s-11-4.9-11-11V144C325,137.9,329.9,133,336,133z M272,135c5,0,9,4,9,9v224c0,5-4,9-9,9s-9-4-9-9V144
	C263,139,267,135,272,135z M208,136c4.4,0,8,3.6,8,8v224c0,4.4-3.6,8-8,8s-8-3.6-8-8V144C200,139.6,203.6,136,208,136z M144,140
	c2.2,0,4,1.8,4,4v224c0,2.2-1.8,4-4,4s-4-1.8-4-4V144C140,141.8,141.8,140,144,140z"/>
</svg>
