<?xml version="1.0" encoding="utf-8"?>
<!-- Generator: Adobe Illustrator 20.1.0, SVG Export Plug-In . SVG Version: 6.00 Build 0)  -->
<svg version="1.1" id="Layer_1" xmlns="http://www.w3.org/2000/svg" xmlns:xlink="http://www.w3.org/1999/xlink" x="0px" y="0px"
	 width="512px" height="512px" viewBox="0 0 512 512" xml:space="preserve">
<path d="M256,384v32c-53,0-96-43-96-96h32C192,355.3,220.7,384,256,384z M416,312c0,92.8-71.6,168-160,168S96,404.8,96,312
	C96,181.3,256,32,256,32S416,181.3,416,312z M384,312c0-46.3-25.3-104.7-73-169c-20-27-40.3-49.8-55-65.4
	c-14.7,15.6-34.9,38.5-55,65.4c-47.8,64.3-73,122.8-73,169c0,75,57.4,136,128,136S384,387,384,312z"/>
</svg>
