<?xml version="1.0" encoding="utf-8"?>
<!-- Generator: Adobe Illustrator 24.2.0, SVG Export Plug-In . SVG Version: 6.00 Build 0)  -->
<svg version="1.1" id="Layer_1" xmlns="http://www.w3.org/2000/svg" xmlns:xlink="http://www.w3.org/1999/xlink" x="0px" y="0px"
	 width="512px" height="512px" viewBox="0 0 512 512" xml:space="preserve">
<path d="M224,128h96V96h-96V32h-32v64h-64V32H96v64H32v32h64v256H32v32h64v64h32v-64h64v64h32v-64h256v-32H224V128z M192,384h-64
	V128h64V384z M400,320h-32v-32h32c26.5,0,48-21.5,48-48s-21.5-48-48-48h-32v-32h32c44.2,0,80,35.8,80,80S444.2,320,400,320z
	 M352,160h-32v32h32V160z M320,320h32v-32h-32V320z"/>
</svg>
