<?xml version="1.0" encoding="utf-8"?>
<!-- Generator: Adobe Illustrator 24.2.0, SVG Export Plug-In . SVG Version: 6.00 Build 0)  -->
<svg version="1.1" id="Layer_1" xmlns="http://www.w3.org/2000/svg" xmlns:xlink="http://www.w3.org/1999/xlink" x="0px" y="0px"
	 width="512px" height="512px" viewBox="0 0 512 512" xml:space="preserve">
<path d="M480,128V96h-96V0h-32v96h-96V0h-32v96h-96V0H96v96H0v32h96v96H0v32h96v96H0v32h96v96h32v-96h96v96h32v-96h96v96h32v-96h96
	v-32h-96v-96h96v-32h-96v-96H480z M128,128h96v96h-96V128z M128,352v-96h96v96H128z M352,352h-96v-96h96V352z M352,224h-96v-96h96
	V224z"/>
</svg>
