<?xml version="1.0" encoding="utf-8"?>
<!-- Generator: Adobe Illustrator 19.2.1, SVG Export Plug-In . SVG Version: 6.00 Build 0)  -->
<svg version="1.1" id="Layer_1" xmlns="http://www.w3.org/2000/svg" xmlns:xlink="http://www.w3.org/1999/xlink" x="0px" y="0px"
	 width="512px" height="512px" viewBox="0 0 512 512" xml:space="preserve">
<path d="M0,32v128L128,32H0z M384,32l128,128V32H384z M123.4,128c-15.1,0-27.4,12.3-27.4,27.4v201.2c0,15.1,12.3,27.4,27.4,27.4
	h265.2c15.1,0,27.4-12.3,27.4-27.4V155.4c0-15.1-12.3-27.4-27.4-27.4H123.4z M384,160v160l-48-64l-48,64l-80-96l-80,96V160H384z
	 M288,192c-17.7,0-32,14.3-32,32s14.3,32,32,32s32-14.3,32-32S305.7,192,288,192z M0,352v128h128L0,352z M512,352L384,480h128V352z"
	/>
</svg>
