<?xml version="1.0" encoding="utf-8"?>
<!-- Generator: Adobe Illustrator 19.2.1, SVG Export Plug-In . SVG Version: 6.00 Build 0)  -->
<svg version="1.1" id="Layer_1" xmlns="http://www.w3.org/2000/svg" xmlns:xlink="http://www.w3.org/1999/xlink" x="0px" y="0px"
	 viewBox="0 0 512 512" enable-background="new 0 0 512 512" xml:space="preserve">
<path d="M64,32c-17.7,0-32,14.3-32,32v384c0,17.7,14.3,32,32,32h384c17.7,0,32-14.3,32-32V64c0-17.7-14.3-32-32-32L64,32z
	 M221.9,64.1c19.3-1.2,35.2,14.7,34,34c-1,15.9-13.9,28.8-29.9,29.9c-19.3,1.2-35.2-14.7-34-34C193.1,78,206,65.1,221.9,64.1z
	 M317.9,64.1c19.3-1.2,35.2,14.7,34,34c-1,15.9-13.9,28.8-29.9,29.9c-19.3,1.2-35.2-14.7-34-34C289.1,78,302,65.1,317.9,64.1z
	 M413.9,64.1c19.3-1.2,35.2,14.7,34,34c-1,15.9-13.9,28.8-29.9,29.9c-19.3,1.2-35.2-14.7-34-34C385.1,78,398,65.1,413.9,64.1z
	 M64,160h384v288H64V160z M183.8,224c-17.3,0-32.7,3.5-46,10.4s-23.6,16.8-30.9,29.5C99.6,276.7,96,291.2,96,307.5
	c0,15.2,3.3,28.6,9.8,40.2s15.9,20.6,28.3,26.8c12.4,6.3,27,9.4,44.1,9.4c17.3,0,32.6-2.3,45.9-6.9v-41.5
	c-11.9,5.8-23.7,8.6-35.4,8.6c-12.6,0-22.8-3.6-30.3-10.7S147,316.5,147,304.2c0-12.4,3.8-22.3,11.3-29.6s17.9-10.9,31-10.9
	c6.3,0,12.6,0.7,18.8,2.1s11.5,3.5,16,6v-43C211,225.6,197.7,224,183.8,224L183.8,224z M298.2,224l-8.2,38.7h-17.8l-5.7,28.8h17.6
	l-6.3,27H262l-6,28.7h15.5l-7.7,36.9h30.8l7.9-36.9h26.7l-7.7,36.9h30.3l8.2-36.9h16.5l7.1-28.7h-17.3l6.3-27h14.9l6.3-28.8h-15
	l8.2-38.7h-31.2l-8.2,38.7h-26.2l8.2-38.7L298.2,224z M314.7,291.5h26.8l-6.3,27h-26.7L314.7,291.5z"/>
</svg>
