<?xml version="1.0" encoding="utf-8"?>
<!-- Generator: Adobe Illustrator 19.2.1, SVG Export Plug-In . SVG Version: 6.00 Build 0)  -->
<svg version="1.1" id="Layer_1" xmlns="http://www.w3.org/2000/svg" xmlns:xlink="http://www.w3.org/1999/xlink" x="0px" y="0px"
	 viewBox="0 0 512 512" enable-background="new 0 0 512 512" xml:space="preserve">
<path d="M128,160v256h44.7v-91.1H194c24,0,43.2-7.8,57.5-23.4c14.3-15.6,21.5-36.1,21.5-61.3c0-53.4-25-80.2-75-80.2H128z
	 M172.7,203.5h17.6c23.8,0,35.7,12.9,35.7,38.8c0,26.4-11.9,39.6-35.7,39.6h-17.6L172.7,203.5z M337.1,256c-8.1,0-15.8,0.9-23.3,2.8
	s-14.1,4.7-19.9,8.6c-5.8,3.9-10.4,9-13.9,15.1c-3.5,6.2-5.2,13.5-5.2,22c0,6.2,0.8,11.7,2.3,16.2s3.7,8.6,6.7,12.1
	c2.9,3.5,6.5,6.5,10.8,9.2s9.3,5.1,14.9,7.4c3.5,1.5,7.2,2.8,11,4s7.3,2.5,10.5,4c3.2,1.5,5.8,3.2,7.8,5.2s3,4.5,3,7.5
	c0,4.7-2.2,8.2-6.7,10.4c-4.5,2.3-10.6,3.4-18.4,3.4c-6.4,0-13.2-1.2-20.4-3.4s-14.4-5.8-21.6-10.4v38.1c13.3,5.2,27.8,7.7,43.5,7.7
	c8.5,0,16.7-0.9,24.6-2.8c7.9-1.8,14.9-4.8,21-8.8c6.1-4,10.9-9.2,14.6-15.6c3.7-6.4,5.5-14.1,5.5-23.2c0-6.5-0.9-12-2.7-16.7
	c-1.8-4.7-4.4-8.7-7.8-12.2s-7.4-6.5-12.2-9.1c-4.7-2.6-10-5-15.8-7.1c-3.2-1.2-6.5-2.4-9.8-3.5c-3.3-1.1-6.3-2.4-9-3.9
	s-4.9-3.1-6.5-5.2s-2.5-4.4-2.5-7.1c0-2.1,0.5-3.9,1.7-5.6c1.1-1.7,2.6-3,4.6-4s4.2-1.8,6.7-2.4s5.2-0.8,8.1-0.8
	c6.1,0,12.3,0.9,18.7,2.6c6.4,1.7,12.3,4.4,17.9,7.8V262c-6.3-2-12.7-3.5-19.2-4.5s-12.9-1.6-19.2-1.6L337.1,256z M352,32H96
	c-17.7,0-32,14.3-32,32v384c0,17.7,14.3,32,32,32h320c17.7,0,32-14.3,32-32V128L352,32z M416,448H96V64h224v96h96V448z"/>
</svg>
