<?xml version="1.0" encoding="utf-8"?>
<!-- Generator: Adobe Illustrator 19.2.1, SVG Export Plug-In . SVG Version: 6.00 Build 0)  -->
<svg version="1.1" id="Layer_1" xmlns="http://www.w3.org/2000/svg" xmlns:xlink="http://www.w3.org/1999/xlink" x="0px" y="0px"
	 viewBox="0 0 512 512" enable-background="new 0 0 512 512" xml:space="preserve">
<path d="M178.9,224c-10,0-18.9,2.1-26.7,6.2c-7.7,4.2-13.7,10.1-17.9,17.7c-4.2,7.6-6.3,16.3-6.3,26.1c0,9.1,1.9,17.1,5.7,24.1
	s9.2,12.3,16.4,16.1c7.2,3.8,15.7,5.7,25.6,5.7c10,0,18.9-1.4,26.6-4.1v-24.9c-6.9,3.5-13.8,5.2-20.5,5.2c-7.3,0-13.2-2.1-17.6-6.4
	c-4.4-4.3-6.6-10.1-6.6-17.6c0-7.5,2.2-13.4,6.6-17.7s10.4-6.5,18-6.5c3.7,0,7.3,0.4,10.9,1.3s6.7,2.1,9.2,3.6V227
	C194.7,225,187,224.1,178.9,224L178.9,224z M252.7,224c-11.5,0-20.6,2.7-27.5,8.1c-6.8,5.4-10.2,12.5-10.2,21.5
	c0,12.8,7.5,22.1,22.4,27.8c4.6,1.7,7.8,3.1,9.5,4.1c1.7,1,3,2,3.8,3.2c0.8,1.2,1.2,2.5,1.2,4c0,2.1-0.8,3.7-2.5,4.8
	c-1.7,1.1-4.1,1.7-7.1,1.7c-4.1,0-8.4-0.9-13.2-2.6c-4.7-1.8-9-4-12.9-6.9v25.4c8.1,3.3,17,4.9,26.7,4.9c8.4,0,15.5-1.1,21.5-3.4
	c6-2.2,10.6-5.7,13.9-10.2c3.3-4.6,5-9.9,5-16.1c0-6.3-2-11.8-6-16.4c-4-4.6-10.8-8.9-20.4-12.8c-4.9-2-8.1-3.7-9.6-5
	c-1.5-1.3-2.3-2.9-2.3-4.8c0-2,1-3.6,2.8-4.8c1.9-1.2,4.4-1.8,7.5-1.8c7.6,0,15.2,2.1,23,6.4v-23.6c-4-1.1-7.1-1.8-9.3-2.2
	c-2.2-0.4-4.7-0.7-7.4-1S255.8,224,252.7,224L252.7,224z M292.2,224l30,95.9h31.4L384,224h-29.1l-13.8,58.7c-1.1,4.4-1.8,8.1-2,11.1
	h-0.6c-0.1-2.4-0.8-5.9-1.9-10.7L322.4,224H292.2z M352,32H96c-17.7,0-32,14.3-32,32v384c0,17.7,14.3,32,32,32h320
	c17.7,0,32-14.3,32-32V128L352,32z M416,448H96V64h224v96h96V448z"/>
</svg>
