<?xml version="1.0" encoding="utf-8"?>
<!-- Generator: Adobe Illustrator 19.2.1, SVG Export Plug-In . SVG Version: 6.00 Build 0)  -->
<svg version="1.1" id="Layer_1" xmlns="http://www.w3.org/2000/svg" xmlns:xlink="http://www.w3.org/1999/xlink" x="0px" y="0px"
	 viewBox="0 0 512 512" enable-background="new 0 0 512 512" xml:space="preserve">
<path d="M352,192.7v45.2c-21,0.2-46.6-3.2-69.6,44.5c10.4,0,37.6,0,37.6,0v44.5h-47.9c0,0-37.4,90.1-111.9,89.1
	c-0.6-9.9,0-30.5,0-44.5c49.3-7.5,65.4-61.4,76.8-88.4c26.5-81.9,73.9-91,93.4-91.1C336,192,352,192.7,352,192.7z M448,128v320
	c0,17.7-14.3,32-32,32H96c-17.7,0-32-14.3-32-32V64c0-17.7,14.3-32,32-32h256L448,128z M416,160h-96V64H96v384h320V160z"/>
</svg>
