<?xml version="1.0" encoding="utf-8"?>
<!-- Generator: Adobe Illustrator 19.2.1, SVG Export Plug-In . SVG Version: 6.00 Build 0)  -->
<svg version="1.1" id="Layer_1" xmlns="http://www.w3.org/2000/svg" xmlns:xlink="http://www.w3.org/1999/xlink" x="0px" y="0px"
	 viewBox="0 0 512 512" enable-background="new 0 0 512 512" xml:space="preserve">
<path d="M478.4,96C471,59.5,438.7,32,400,32l-192,0c-38.7,0-71,27.5-78.4,64c-1.1,5.2-1.6,10.5-1.6,16v272H32v16
	c0,5.5,0.5,10.8,1.6,16c7.4,36.5,39.7,64,78.4,64h192c38.7,0,71-27.5,78.4-64c1.1-5.2,1.6-10.5,1.6-16V128h96v-16
	C480,106.5,479.5,101.2,478.4,96z M353.6,96c-1.1,5.2-1.6,10.5-1.6,16v288c0,5.6-1,11-2.8,16c-6.6,18.6-24.4,32-45.2,32
	c-20.9,0-38.7-13.4-45.2-32c-1.8-5-2.8-10.4-2.8-16v-16h-96V112c0-5.6,1-11,2.8-16c6.6-18.6,24.4-32,45.2-32h160
	C361,73.3,356,84.2,353.6,96z M320,192H192v-32h128V192z M320,256H192v-32h128V256z M320,320H192v-32h128V320z"/>
</svg>
