<?xml version="1.0" encoding="utf-8"?>
<!-- Generator: Adobe Illustrator 19.2.1, SVG Export Plug-In . SVG Version: 6.00 Build 0)  -->
<svg version="1.1" id="Layer_1" xmlns="http://www.w3.org/2000/svg" xmlns:xlink="http://www.w3.org/1999/xlink" x="0px" y="0px"
	 viewBox="0 0 512 512" enable-background="new 0 0 512 512" xml:space="preserve">
<path d="M32,160l73.2,224h76.7L256,160h-71.1l-33.7,137c-2.6,10.3-4.3,19-4.9,25.9h-1.6c-0.3-5.5-1.8-13.9-4.6-25L105.5,160L32,160z
	 M284,160v224h104.6c29.3,0,51.9-6,67.7-17.9c15.8-11.9,23.7-28.9,23.7-50.8c0-8.1-2.4-16-7-23.5c-4.7-7.6-11.4-13.9-20-18.9
	c-8.7-5-18.4-8.2-29.3-9.5v-0.6c9.4-1.8,18-5.1,25.8-10c7.8-4.9,13.7-10.6,17.5-17.1c3.8-6.5,5.8-13.7,5.8-21.5
	c0-36.1-30.5-54.2-91.4-54.2L284,160L284,160z M353.1,205.2h12.8c22.3,0,33.4,6.9,33.4,20.8c0,6.4-2.5,11.5-7.4,15.5
	c-4.9,4-11.2,6-18.9,6h-20L353.1,205.2z M353.1,292.8h27.2c7.9,0,14.3,2.1,19,6.2s7.2,9.5,7.2,15.9c0,7.3-2.7,13-8.1,17.2
	c-5.4,4.2-12.9,6.3-22.2,6.3h-23V292.8L353.1,292.8z"/>
</svg>
