<?xml version="1.0" encoding="utf-8"?>
<!-- Generator: Adobe Illustrator 19.2.1, SVG Export Plug-In . SVG Version: 6.00 Build 0)  -->
<svg version="1.1" id="Layer_1" xmlns="http://www.w3.org/2000/svg" xmlns:xlink="http://www.w3.org/1999/xlink" x="0px" y="0px"
	 viewBox="0 0 512 512" enable-background="new 0 0 512 512" xml:space="preserve">
<path d="M64,32c-17.7,0-32,14.3-32,32v384c0,17.7,14.3,32,32,32h384c17.7,0,32-14.3,32-32V64c0-17.7-14.3-32-32-32L64,32z M224,64
	c17.7,0,32,14.3,32,32s-14.3,32-32,32s-32-14.3-32-32S206.3,64,224,64z M320,64c17.7,0,32,14.3,32,32s-14.3,32-32,32s-32-14.3-32-32
	S302.3,64,320,64z M416,64c17.7,0,32,14.3,32,32s-14.3,32-32,32s-32-14.3-32-32S398.3,64,416,64z M64,160h384v288h-32H64v-32V160z
	 M96,224l51.6,160h54.1l52.3-160h-50.2l-23.8,97.9c-1.9,7.4-3,13.5-3.5,18.5h-1.1c-0.2-3.9-1.3-9.9-3.2-17.9L147.8,224L96,224
	L96,224z M279.3,224v160h73c20.4,0,36.2-4.3,47.2-12.8s16.5-20.6,16.5-36.3c0-5.8-1.6-11.4-4.9-16.8s-7.9-9.9-14-13.5
	s-12.8-5.9-20.4-6.8v-0.4c6.5-1.3,12.5-3.6,18-7.1s9.5-7.6,12.2-12.2c2.7-4.6,4-9.8,4-15.3c0-25.8-21.2-38.7-63.7-38.7H279.3
	L279.3,224z M327.5,256.3h8.9c15.6,0,23.3,5,23.3,14.8c0,4.5-1.7,8.3-5.1,11.1s-7.8,4.3-13.2,4.3h-14L327.5,256.3L327.5,256.3z
	 M327.5,318.8h19c5.5,0,9.9,1.5,13.3,4.4s5,6.8,5,11.4c0,5.2-1.9,9.3-5.7,12.3s-9,4.5-15.5,4.5h-16.1V318.8L327.5,318.8z"/>
</svg>
