<?xml version="1.0" encoding="utf-8"?>
<!-- Generator: Adobe Illustrator 21.1.0, SVG Export Plug-In . SVG Version: 6.00 Build 0)  -->
<svg version="1.1" id="Layer_1" xmlns="http://www.w3.org/2000/svg" xmlns:xlink="http://www.w3.org/1999/xlink" x="0px" y="0px"
	 width="512px" height="512px" viewBox="0 0 512 512" xml:space="preserve">
<path d="M256,128c-94.8,0-179.8,51.5-224,128c44.3,76.5,129.3,128,224,128s179.8-51.5,224-128C435.8,179.5,350.8,128,256,128z
	 M224,192c17.7,0,32,14.3,32,32s-14.3,32-32,32s-32-14.3-32-32S206.3,192,224,192z M69.8,256c18.4-26.4,44.8-48.7,72.6-65.1
	c12.2-7.2,25.1-13.2,38.4-17.9c-22.6,20.5-36.8,50.1-36.8,83s14.2,62.5,36.8,83c-13.3-4.7-26.2-10.7-38.4-17.9
	C114.6,304.7,88.2,282.4,69.8,256z M369.6,321.1c-12.2,7.2-25.1,13.2-38.4,17.9c22.6-20.5,36.8-50.1,36.8-83s-14.2-62.5-36.8-83
	c13.3,4.7,26.2,10.7,38.4,17.9c27.8,16.4,54.2,38.7,72.6,65.1C423.7,282.4,397.4,304.7,369.6,321.1z"/>
</svg>
