<?xml version="1.0" encoding="utf-8"?>
<!-- Generator: Adobe Illustrator 23.0.4, SVG Export Plug-In . SVG Version: 6.00 Build 0)  -->
<svg version="1.1" id="Layer_1" xmlns="http://www.w3.org/2000/svg" xmlns:xlink="http://www.w3.org/1999/xlink" x="0px" y="0px"
	 width="512px" height="512px" viewBox="0 0 512 512" xml:space="preserve">
<path d="M512,0v96h-32V32h-64V0H512z M480,448h-64v32h96v-96h-32V448z M64,64h128v128H64V64z M96,160h64V96H96V160z M32,32h64V0H0
	v96h32V32z M32,256h448v-32H32V256z M32,384H0v96h96v-32H32V384z M288,96h-32v32h32V96z M224,64v32h32V64H224z M448,192H320V64h128
	V192z M416,96h-64v64h64V96z M288,192v-32h-32v32H288z M256,128h-32v32h32V128z M64,288h128v128H64V288z M96,384h64v-64H96V384z
	 M288,320h-32v32h32V320z M224,288v32h32v-32H224z M256,416h32v-32h-32V416z M224,352v32h32v-32H224z M320,288h-32v32h32V288z
	 M288,352v32h32v-32H288z M352,352v-32h-32v32H352z M320,416h32v-32h-32V416z M384,288h-32v32h32V288z M352,352v32h32v-32H352z
	 M416,352v-32h-32v32H416z M416,416v-32h-32v32H416z M448,288h-32v32h32V288z M448,384v-32h-32v32H448z"/>
</svg>
