<?xml version="1.0" encoding="utf-8"?>
<!-- Generator: Adobe Illustrator 19.2.1, SVG Export Plug-In . SVG Version: 6.00 Build 0)  -->
<svg version="1.1" id="Layer_1" xmlns="http://www.w3.org/2000/svg" xmlns:xlink="http://www.w3.org/1999/xlink" x="0px" y="0px"
	 width="512px" height="512px" viewBox="0 0 512 512" xml:space="preserve">
<path d="M384,384c-47.4,0-88.7-25.8-110.8-64H384c35.4,0,64-28.6,64-64s-28.7-64-64-64H273.2c22.1-38.2,63.5-64,110.8-64
	c70.7,0,128,57.3,128,128S454.7,384,384,384L384,384L384,384z M64,256c0,35.4,28.6,64,64,64h110.8c-22.1,38.2-63.5,64-110.8,64
	C57.3,384,0,326.7,0,256s57.3-128,128-128c47.4,0,88.7,25.8,110.8,64H128C92.7,192,64,220.6,64,256L64,256z M272,97.6V0h-32v97.6
	c5.2-1,10.5-1.6,16-1.6S266.8,96.6,272,97.6z M211.9,109.3l-69-69l-22.6,22.6l69,69C195.2,122.9,202.9,115.2,211.9,109.3z
	 M322.7,131.9l69-69l-22.6-22.6l-69,69C309.1,115.2,316.8,122.9,322.7,131.9z M256,416c-5.5,0-10.8-0.6-16-1.6V512h32v-97.6
	C266.8,415.4,261.5,416,256,416z M189.3,380.1l-69,69l22.6,22.6l69-69C202.9,396.8,195.2,389.1,189.3,380.1z M300.1,402.7l69,69
	l22.6-22.6l-69-69C316.8,389.1,309.1,396.8,300.1,402.7z"/>
</svg>
