<?xml version="1.0" encoding="utf-8"?>
<!-- Generator: Adobe Illustrator 19.2.1, SVG Export Plug-In . SVG Version: 6.00 Build 0)  -->
<svg version="1.1" id="Layer_1" xmlns="http://www.w3.org/2000/svg" xmlns:xlink="http://www.w3.org/1999/xlink" x="0px" y="0px"
	 viewBox="0 0 512 512" enable-background="new 0 0 512 512" xml:space="preserve">
<path d="M69.3,69.2c49.6-49.6,130.5-49.7,180.1,0l180.1,180.1l-22.5,22.5L226.9,91.8c-37.3-37.3-97.9-37.3-135.1,0
	s-37.3,97.9,0,135.1l202.7,202.7c24.8,24.8,65.2,24.8,90.1,0c24.8-24.8,24.8-65.2,0-90.1L181.9,136.8c-12.4-12.4-32.7-12.4-45.1,0
	c-12.4,12.4-12.4,32.6,0,45.1L317,362l-22.5,22.5L114.3,204.4c-24.8-24.8-24.8-65.3,0-90.1s65.2-24.8,90.1,0L407,317
	c37.3,37.3,37.2,97.9,0,135.1s-97.9,37.3-135.1,0L69.3,249.4C19.6,199.7,19.6,119,69.3,69.2L69.3,69.2z"/>
</svg>
