<?xml version="1.0" encoding="utf-8"?>
<!-- Generator: Adobe Illustrator 19.2.1, SVG Export Plug-In . SVG Version: 6.00 Build 0)  -->
<svg version="1.1" id="Layer_1" xmlns="http://www.w3.org/2000/svg" xmlns:xlink="http://www.w3.org/1999/xlink" x="0px" y="0px"
	 width="512px" height="512px" viewBox="0 0 512 512" xml:space="preserve">
<path d="M384,128v256h-32V128c0-52.9-43.1-96-96-96s-96,43.1-96,96v288c0,35.3,28.7,64,64,64s64-28.7,64-64V128
	c0-17.6-14.4-32-32-32s-32,14.4-32,32v256h-32V128c0-35.3,28.7-64,64-64s64,28.7,64,64v288c0,52.9-43.1,96-96,96s-96-43.1-96-96V128
	C128,57.4,185.4,0,256,0C326.6,0,384,57.4,384,128z"/>
</svg>
