<?xml version="1.0" encoding="utf-8"?>
<!-- Generator: Adobe Illustrator 22.0.1, SVG Export Plug-In . SVG Version: 6.00 Build 0)  -->
<svg version="1.1" id="Layer_1" xmlns="http://www.w3.org/2000/svg" xmlns:xlink="http://www.w3.org/1999/xlink" x="0px" y="0px"
	 viewBox="0 0 512 512" style="enable-background:new 0 0 512 512;" xml:space="preserve">
<path d="M407,452.1C388.4,470.7,364,480,339.5,480s-48.9-9.3-67.6-27.9L69.3,249.4c-49.7-49.7-49.7-130.5,0-180.2
	s130.5-49.7,180.2,0l180.2,180.2L407,271.9L226.9,91.8c-37.2-37.2-97.9-37.2-135.1,0c-37.2,37.2-37.2,97.9,0,135.1l202.7,202.7
	c24.8,24.8,65.2,24.8,90.1,0c24.8-24.8,24.8-65.2,0-90.1L181.9,136.8c-12.4-12.4-32.7-12.4-45,0s-12.4,32.7,0,45L317,362l-22.5,22.5
	L114.3,204.4c-24.8-24.8-24.8-65.2,0-90.1s65.2-24.8,90.1,0L407,317C444.3,354.2,444.3,414.9,407,452.1z"/>
</svg>
