<?xml version="1.0" encoding="utf-8"?>
<!-- Generator: Adobe Illustrator 23.0.4, SVG Export Plug-In . SVG Version: 6.00 Build 0)  -->
<svg version="1.1" id="Layer_1" xmlns="http://www.w3.org/2000/svg" xmlns:xlink="http://www.w3.org/1999/xlink" x="0px" y="0px"
	 viewBox="0 0 512 512" style="enable-background:new 0 0 512 512;" xml:space="preserve">
<style type="text/css">
	.st0{display:none;}
</style>
<path class="st0" d="M960,352c0,17.7-14.3,32-32,32s-32-14.3-32-32s14.3-32,32-32S960,334.3,960,352z M1243.7,272l-96,166.3
	c-8.8,15.3-28.4,20.5-43.7,11.7l-1.9-1.1l-0.8,3.1c-4.6,17.1-22.1,27.2-39.2,22.6l-6-1.6v7c0,17.7-14.3,32-32,32H768
	c-17.7,0-32-14.3-32-32V288c0-17.7,14.3-32,32-32h54.4l19.4-72.3c4.6-17.1,22.1-27.2,39.2-22.6l49.6,13.3l36-62.4
	c8.8-15.3,28.4-20.5,43.7-11.7l221.7,128C1247.3,237.1,1252.5,256.7,1243.7,272z M1024,288.1C1023.9,288,1023.9,288,1024,288.1
	L768.1,288c-0.1,0.1-0.1,0.1-0.1,0.1V438l74.6-70l85.3,80l53.3-50l42.7,40L1024,288.1z M1120,258.3L872.7,192l-17.1,64H1024
	c17.7,0,32,14.3,32,32v151.9l14.3,3.8L1120,258.3z M1216,256L994.3,128l-31.7,55l165.7,44.4c17.1,4.6,27.2,22.1,22.6,39.2
	l-40.3,150.3l9.4,5.4L1216,256z"/>
<path d="M96,384H64V128h32V384z M192,128h-64v224h64V128z M256,128h-32v224h32V128z M320,128h-32v224h32V128z M384,128h-32v224h32
	V128z M448,128h-32v256h32V128z M512,96v320c0,17.7-14.3,32-32,32H32c-17.7,0-32-14.3-32-32V96c0-17.7,14.3-32,32-32h448
	C497.7,64,512,78.3,512,96z M480,96H32v320h448V96z"/>
</svg>
