<?xml version="1.0" encoding="utf-8"?>
<!-- Generator: Adobe Illustrator 23.0.4, SVG Export Plug-In . SVG Version: 6.00 Build 0)  -->
<svg version="1.1" id="Layer_1" xmlns="http://www.w3.org/2000/svg" xmlns:xlink="http://www.w3.org/1999/xlink" x="0px" y="0px"
	 width="512px" height="512px" viewBox="0 0 512 512" xml:space="preserve">
<path d="M96,384H64V128h32V384z M192,128h-64v224h64V128z M256,128h-32v224h32V128z M320,128h-32v224h32V128z M384,128h-32v224h32
	V128z M448,128h-32v256h32V128z M512,96v320c0,17.7-14.3,32-32,32H32c-17.7,0-32-14.3-32-32V96c0-17.7,14.3-32,32-32h448
	C497.7,64,512,78.3,512,96z M480,96H32v320h448V96z"/>
</svg>
