<?xml version="1.0" encoding="utf-8"?>
<!-- Generator: Adobe Illustrator 24.2.0, SVG Export Plug-In . SVG Version: 6.00 Build 0)  -->
<svg version="1.1" id="Layer_1" xmlns="http://www.w3.org/2000/svg" xmlns:xlink="http://www.w3.org/1999/xlink" x="0px" y="0px"
	 width="512px" height="512px" viewBox="0 0 512 512" xml:space="preserve">
<path d="M480,64H32C14.3,64,0,78.3,0,96v320c0,17.7,14.3,32,32,32h448c17.7,0,32-14.3,32-32V96C512,78.3,497.7,64,480,64z M96,384
	H64V128h32V384z M192,352h-64V128h64V352z M256,352h-32V128h32V352z M320,352h-32V128h32V352z M384,352h-32V128h32V352z M448,384
	h-32V128h32V384z"/>
</svg>
