<?xml version="1.0" encoding="utf-8"?>
<!-- Generator: Adobe Illustrator 23.0.4, SVG Export Plug-In . SVG Version: 6.00 Build 0)  -->
<svg version="1.1" id="Layer_1" xmlns="http://www.w3.org/2000/svg" xmlns:xlink="http://www.w3.org/1999/xlink" x="0px" y="0px"
	 width="512px" height="512px" viewBox="0 0 512 512" xml:space="preserve">
<path d="M256,288h32v128h-32V288z M320,416h64V288h-64V416z M448,416V288h-32v128H448z M32,32h64V0H0v96h32V32z M32,384H0v96h96v-32
	H32V384z M416,0v32h64v64h32V0H416z M480,448h-64v32h96v-96h-32V448z M480,224H32v32h448V224z M288,64h-32v128h32V64z M384,64h-64
	v128h64V64z M448,64h-32v128h32V64z M64,64h96v96H64V64z M96,128h32V96H96V128z M224,160h-32v32h32V160z M224,64h-32v64h32V64z
	 M64,320h96v96H64V320z M96,384h32v-32H96V384z M192,384v32h32v-32v-32h-32V384z M192,320h32v-32h-32V320z"/>
</svg>
