<?xml version="1.0" encoding="utf-8"?>
<!-- Generator: Adobe Illustrator 19.2.1, SVG Export Plug-In . SVG Version: 6.00 Build 0)  -->
<svg version="1.1" id="Layer_1" xmlns="http://www.w3.org/2000/svg" xmlns:xlink="http://www.w3.org/1999/xlink" x="0px" y="0px"
	 viewBox="0 0 512 512" enable-background="new 0 0 512 512" xml:space="preserve">
<path d="M256,32c-56.1,0-107.4,20.6-146.7,54.7c-8.1,7-15.6,14.6-22.6,22.6C52.6,148.6,32,199.9,32,256c0,123.7,100.3,224,224,224
	c56.1,0,107.4-20.6,146.7-54.7c8.1-7,15.6-14.6,22.6-22.6C459.4,363.4,480,312.1,480,256C480,132.3,379.7,32,256,32L256,32z
	 M256,448c-106,0-192-86-192-192c0-47.2,17.1-90.5,45.4-124L380,402.6C346.5,430.9,303.2,448,256,448z M402.6,380L132,109.4
	C165.5,81.1,208.8,64,256,64c106,0,192,86,192,192C448,303.2,430.9,346.5,402.6,380z"/>
</svg>
