<?xml version="1.0" encoding="utf-8"?>
<!-- Generator: Adobe Illustrator 20.1.0, SVG Export Plug-In . SVG Version: 6.00 Build 0)  -->
<svg version="1.1" baseProfile="tiny" id="Layer_1" xmlns="http://www.w3.org/2000/svg" xmlns:xlink="http://www.w3.org/1999/xlink"
	 x="0px" y="0px" viewBox="0 0 512 512" xml:space="preserve">
<path d="M192,368c0,26.51-21.49,48-48,48s-48-21.49-48-48s21.49-48,48-48S192,341.49,192,368z M336,320c-26.51,0-48,21.49-48,48
	s21.49,48,48,48s48-21.49,48-48S362.51,320,336,320z M128,96V64H96H32v32h64v192h32h256v-32H128V96z M160,224h256v-32H160V224z
	 M160,128v32h288v-32H160z"/>
</svg>
