<?xml version="1.0" encoding="utf-8"?>
<!-- Generator: Adobe Illustrator 19.2.1, SVG Export Plug-In . SVG Version: 6.00 Build 0)  -->
<svg version="1.1" id="Layer_1" xmlns="http://www.w3.org/2000/svg" xmlns:xlink="http://www.w3.org/1999/xlink" x="0px" y="0px"
	 viewBox="0 0 512 512" enable-background="new 0 0 512 512" xml:space="preserve">
<path d="M462.7,317.9l-41.5-31.4c1.8-9.9,2.8-20.1,2.8-30.5c0-10.4-1-20.6-2.8-30.5l41.5-31.4c6.4-4.9,8.2-13.8,4.2-20.8l-33.9-58.7
	c-4-7-12.6-9.9-20.1-6.7l-48,20.2c-15.4-13.2-33.3-23.6-52.8-30.5L305.8,46c-1-8-7.8-14-15.9-14h-67.8c-8.1,0-14.9,6-15.9,14
	l-6.5,51.6c-19.5,6.9-37.4,17.3-52.8,30.5l-48-20.2c-7.4-3.1-16-0.2-20.1,6.7l-33.9,58.7c-4,7-2.2,15.9,4.2,20.8l41.5,31.4
	C89,235.4,88,245.6,88,256c0,10.4,1,20.6,2.8,30.5l-41.5,31.4c-6.4,4.9-8.2,13.8-4.2,20.8l33.9,58.7c4,7,12.6,9.9,20.1,6.7l48-20.2
	c15.4,13.2,33.3,23.6,52.8,30.5l6.5,51.6c1,8,7.8,14,15.9,14h67.8c8.1,0,14.9-6,15.9-14l6.5-51.6c19.5-6.9,37.4-17.3,52.8-30.5
	l48,20.2c7.4,3.1,16,0.2,20.1-6.7l33.9-58.7C471,331.7,469.2,322.8,462.7,317.9z M256,340c-46.4,0-84-37.6-84-84
	c0-46.4,37.6-84,84-84s84,37.6,84,84C340,302.4,302.4,340,256,340z"/>
</svg>
