<?xml version="1.0" encoding="utf-8"?>
<!-- Generator: Adobe Illustrator 24.2.0, SVG Export Plug-In . SVG Version: 6.00 Build 0)  -->
<svg version="1.1" id="Layer_1" xmlns="http://www.w3.org/2000/svg" xmlns:xlink="http://www.w3.org/1999/xlink" x="0px" y="0px"
	 width="512px" height="512px" viewBox="0 0 512 512" xml:space="preserve">
<path d="M442.5,130.7c-15.5-6.7-33.7-0.2-41.4,15.1l0,0c-8.2,21.3-23.3,79.9-25.8,87.6c-2.1,6.5-5,12-11.3,9.7
	c-4.7-1.7-3.5-7.2-2.4-12.6l2.7-17l18.1-112.4l0,0c2.8-17.4-9-33.8-26.5-36.6c-17.4-2.8-33.8,9-36.6,26.5l0,0L304,197.9
	c0,0-2.1,14.1-3,18.7c-1,5.2-1.4,12.3-7.7,11.9c-5-0.3-5.3-3.8-5.3-7.3V64.6l0,0c0-0.2,0-0.4,0-0.6c0-17.6-14.2-31.9-31.8-32h0.1
	l0,0H256c-17.7,0-32,14.3-32,32v0.4l0,0l0,0l0,0c0,1.1,0.9,140.6,0.6,149.7c-0.2,5.4-0.7,9.5-6.8,10.3c-7.8,1.1-8.6-8-8.6-8
	l-3.1-20.9v0.7L190,90.8v0.1l0,0l0,0c-2.6-17.5-18.9-29.5-36.2-26.9c-17.5,2.6-29.5,18.9-26.9,36.2c0,0.1,0,0.2,0.1,0.3l0,0
	l24.8,165.3l2.4,15.9c0.5,3.2-0.7,6.6-3.3,8.6l-0.1,0.1c-4.1,3.1-10,2.5-13.5-1.4l-12.2-13.2l-37.3-41l-0.1-0.1
	c-11.9-13-32.1-14-45.3-2.1c-13,11.9-14,32.1-2.1,45.2l0,0l55.7,61c0,0,34.1,49,62.5,88.4c28.3,39.3,72.3,52.4,129.5,52.4
	s113.9-21.8,126.9-95.4c13.7-78.5,6.5-107.9,23.7-150.4c11.6-28.9,15.1-45.8,21.1-63.2C465.1,155,457.8,137.3,442.5,130.7z"/>
</svg>
