<?xml version="1.0" encoding="utf-8"?>
<!-- Generator: Adobe Illustrator 23.0.4, SVG Export Plug-In . SVG Version: 6.00 Build 0)  -->
<svg version="1.1" id="Layer_1" xmlns="http://www.w3.org/2000/svg" xmlns:xlink="http://www.w3.org/1999/xlink" x="0px" y="0px"
	 width="512px" height="512px" viewBox="0 0 512 512" xml:space="preserve">
<path d="M192,224v32h-32v-32H192z M128,288h32v-32h-32V288z M96,224v32h32v-32H96z M64,288h32v-32H64V288z M192,288h32v-32h-32V288z
	 M256,224h-32v32h32V224z M288,192h-32v32h32V192z M224,160v32h32v-32H224z M288,128h-32v32h32V128z M224,96v32h32V96H224z M288,64
	h-32v32h32V64z M320,256v-32h-32v32H320z M224,288v32h32v-32H224z M288,256h-32v32h32V256z M288,320h-32v32h32V320z M224,352v32h32
	v-32H224z M256,384v32h32v-32H256z M224,448h32v-32h-32V448z M288,352v32h32v-32H288z M320,320v-32h-32v32H320z M352,288v-32h-32v32
	H352z M384,224h-32v32h32V224z M416,288v-32h-32v32H416z M448,224h-32v32h32V224z M384,320v-32h-32v32H384z M352,352v-32h-32v32H352
	z M352,384h32v-32h-32V384z M384,352h32v-32h-32V352z M448,320v-32h-32v32H448z M320,384v32h32v-32H320z M288,448h32v-32h-32V448z
	 M352,448h32v-32h-32V448z M384,416h32v-32h-32V416z M448,384v-32h-32v32H448z M448,448v-32h-32v32H448z M512,0v512H0V0H512z
	 M480,32H32v448h448V32z M448,192H320l0-128h128V192z M416,160l-0.5-64H352v64H416z M192,192H64l0-128h128V192z M160,160l-0.5-64H96
	v64H160z M192,448H64l0-128h128V448z M160,416l-0.5-64H96v64H160z"/>
</svg>
