<?xml version="1.0" encoding="utf-8"?>
<!-- Generator: Adobe Illustrator 23.0.4, SVG Export Plug-In . SVG Version: 6.00 Build 0)  -->
<svg version="1.1" id="Layer_1" xmlns="http://www.w3.org/2000/svg" xmlns:xlink="http://www.w3.org/1999/xlink" x="0px" y="0px"
	 viewBox="0 0 512 512" style="enable-background:new 0 0 512 512;" xml:space="preserve">
<path d="M32,448h448v32H32V448z M448,32H288v64h160V32z M352,372.9L256,224l32-96h160l32,96l-96,148.9V416h-32V372.9z M352,313.8
	V256h32v57.8l60.8-94.3L424.9,160H311.1l-19.9,59.6L352,313.8z M78.8,377.3c8.7-10.3,23.9-25.6,37.2-17.3
	c14.9,9.3,25.1,42.1,56.9,43.8c27.2-0.6,18.9-34.6,36.7-33.2c16.6,0,19.5,47.8,46.5,47.9c25.7,0.1,37.4-14.5,37.3-28
	c0.1-29-62.5-87.7-85.4-98c-21.4-9.6-34-2.3-39.7,6c-5.3,7.9,9.3,34.5-13.7,41.2c-17.3,1.5-29.2-33.2-62.1-33.2S77,354.1,32,352
	C45.1,358,64.8,394,78.8,377.3z"/>
</svg>
