<?xml version="1.0" encoding="utf-8"?>
<!-- Generator: Adobe Illustrator 24.2.3, SVG Export Plug-In . SVG Version: 6.00 Build 0)  -->
<svg version="1.1" id="Layer_1" xmlns="http://www.w3.org/2000/svg" xmlns:xlink="http://www.w3.org/1999/xlink" x="0px" y="0px"
	 width="512px" height="512px" viewBox="0 0 512 512" enable-background="new 0 0 512 512" xml:space="preserve">
<path d="M192,96c0-17.7-14.3-32-32-32H96c-17.7,0-32,14.3-32,32v32h128V96z M320,256c0,35.3-28.7,64-64,64s-64-28.7-64-64v-96H64v96
	c0,106,86,192,192,192s192-86,192-192v-96H320V256z M416,64h-64c-17.7,0-32,14.3-32,32v32h128V96C448,78.3,433.7,64,416,64z"/>
</svg>
