<?xml version="1.0" encoding="utf-8"?>
<!-- Generator: Adobe Illustrator 19.2.1, SVG Export Plug-In . SVG Version: 6.00 Build 0)  -->
<svg version="1.1" id="Layer_1" xmlns="http://www.w3.org/2000/svg" xmlns:xlink="http://www.w3.org/1999/xlink" x="0px" y="0px"
	 viewBox="0 0 512 512" style="enable-background:new 0 0 512 512;" xml:space="preserve">
<path d="M416,224H224v-96c0-53-43-96-96-96s-96,43-96,96v128h32v-32v-96c0-35.3,28.7-64,64-64s64,28.7,64,64v96h-32
	c-17.6,0-32,14.4-32,32v96v96c0,17.6,14.4,32,32,32h256c17.6,0,32-14.4,32-32V256C448,238.4,433.6,224,416,224z M288,384
	c-17.7,0-32-14.3-32-32c0-17.7,14.3-32,32-32c17.7,0,32,14.3,32,32C320,369.7,305.7,384,288,384z"/>
</svg>
