<?xml version="1.0" encoding="utf-8"?>
<!-- Generator: Adobe Illustrator 24.2.3, SVG Export Plug-In . SVG Version: 6.00 Build 0)  -->
<svg version="1.1" id="Layer_1" xmlns="http://www.w3.org/2000/svg" xmlns:xlink="http://www.w3.org/1999/xlink" x="0px" y="0px"
	 width="512px" height="512px" viewBox="0 0 512 512" enable-background="new 0 0 512 512" xml:space="preserve">
<path d="M290.6,131.4c12.4-12.4,12.4-32.6,0-45l-45-45c-12.4-12.4-32.6-12.4-45,0L178,63.8l90.1,90L290.6,131.4z M268.1,334
	c-24.9,24.9-65.2,24.9-90.1,0s-24.9-65.2,0-90.1l67.5-67.5l-90-90.1L88,153.9C13.4,228.5,13.4,349.4,88,424s195.5,74.6,270.1,0
	l67.5-67.5l-90-90.1L268.1,334z M470.7,266.5l-45-45c-12.4-12.4-32.6-12.4-45,0L358.2,244l90,90l22.5-22.5
	C483.1,299.1,483.1,278.9,470.7,266.5C470.7,266.5,470.7,266.5,470.7,266.5L470.7,266.5z"/>
</svg>
