<?xml version="1.0" encoding="utf-8"?>
<!-- Generator: Adobe Illustrator 19.2.1, SVG Export Plug-In . SVG Version: 6.00 Build 0)  -->
<svg version="1.1" id="Layer_1" xmlns="http://www.w3.org/2000/svg" xmlns:xlink="http://www.w3.org/1999/xlink" x="0px" y="0px"
	 width="512px" height="512px" viewBox="0 0 512 512" xml:space="preserve">
<path d="M470.7,402.7L306,238.1c9-18.8,14-39.8,14-62.1c0-79.5-64.5-144-144-144c-22.2,0-43.3,5-62.1,14l76.4,76.4
	c12.4,12.4,12.4,32.8,0,45.3l-22.6,22.6c-12.4,12.4-32.8,12.4-45.3,0L46,113.9c-9,18.8-14,39.9-14,62.1c0,79.5,64.5,144,144,144
	c22.3,0,43.4-5.1,62.2-14.1l164.7,164.7c12.3,12.5,32.7,12.5,45.1,0.1l22.7-22.7C483.1,435.6,483.1,415.2,470.7,402.7z M448,425.5
	L425.4,448L265.8,288.5c8.3-6.7,15.9-14.3,22.6-22.6L448,425.5L448,425.5z"/>
</svg>
