<?xml version="1.0" encoding="utf-8"?>
<!-- Generator: Adobe Illustrator 19.2.1, SVG Export Plug-In . SVG Version: 6.00 Build 0)  -->
<svg version="1.1" id="Layer_1" xmlns="http://www.w3.org/2000/svg" xmlns:xlink="http://www.w3.org/1999/xlink" x="0px" y="0px"
	 width="512px" height="512px" viewBox="0 0 512 512" xml:space="preserve">
<path d="M288,224H96v-64h192V224z M480,434.7L434.7,480L320,365.3v-22.7l-26.7-26.7C265.7,338.5,230.4,352,192,352
	c-88.4,0-160-71.6-160-160S103.6,32,192,32s160,71.6,160,160c0,38.4-13.5,73.7-36.1,101.3l26.7,26.7h22.7L480,434.7z M192,320
	c70.7,0,128-57.3,128-128S262.7,64,192,64S64,121.3,64,192S121.3,320,192,320z"/>
</svg>
