<?xml version="1.0" encoding="utf-8"?>
<!-- Generator: Adobe Illustrator 16.0.3, SVG Export Plug-In . SVG Version: 6.00 Build 0)  -->
<!DOCTYPE svg PUBLIC "-//W3C//DTD SVG 1.1 Tiny//EN" "http://www.w3.org/Graphics/SVG/1.1/DTD/svg11-tiny.dtd">
<svg version="1.1" baseProfile="tiny" id="Layer_1" xmlns="http://www.w3.org/2000/svg" xmlns:xlink="http://www.w3.org/1999/xlink"
	 x="0px" y="0px" width="512px" height="512px" viewBox="0 0 512 512" xml:space="preserve">
<path d="M352,256c0-35.2,28.799-64,64-64c35.199,0,64,28.8,64,64c0,35.2-28.8,64-64,64C380.799,320,352,291.2,352,256z M96,320
	c35.201,0,64-28.8,64-64c0-35.2-28.799-64-64-64s-64,28.8-64,64C32,291.2,60.799,320,96,320z M256,320c35.201,0,64-28.8,64-64
	c0-35.2-28.8-64-64-64s-64,28.8-64,64C192,291.2,220.799,320,256,320z"/>
</svg>
