<?xml version="1.0" encoding="utf-8"?>
<!-- Generator: Adobe Illustrator 19.2.1, SVG Export Plug-In . SVG Version: 6.00 Build 0)  -->
<svg version="1.1" id="Layer_1" xmlns="http://www.w3.org/2000/svg" xmlns:xlink="http://www.w3.org/1999/xlink" x="0px" y="0px"
	 viewBox="0 0 512 512" enable-background="new 0 0 512 512" xml:space="preserve">
<path d="M448,32H64c-17.7,0-32,14.3-32,32v384c0,17.7,14.3,32,32,32h384c17.7,0,32-14.3,32-32V64C480,46.3,465.7,32,448,32z
	 M416,312.7c0,57.1-46.5,103.3-103.9,103.3h-112C142.6,416,96,369.8,96,312.7V199.3C96,142.2,142.6,96,200.1,96h52.4
	C310,96,356,138.9,356,196c0.7,10.7,10.4,20,21.4,20h18c11.5,0,20.7,12.1,20.7,23.5L416,312.7L416,312.7z M196,216h60
	c11,0,20-9,20-20s-9-20-20-20h-60c-11,0-20,9-20,20S185,216,196,216z M316,296H196c-11,0-20,9-20,20s9,20,20,20h120c11,0,20-9,20-20
	S327,296,316,296z"/>
</svg>
