<?xml version="1.0" encoding="utf-8"?>
<!-- Generator: Adobe Illustrator 19.2.1, SVG Export Plug-In . SVG Version: 6.00 Build 0)  -->
<svg version="1.1" id="Layer_1" xmlns="http://www.w3.org/2000/svg" xmlns:xlink="http://www.w3.org/1999/xlink" x="0px" y="0px"
	 viewBox="0 0 512 512" enable-background="new 0 0 512 512" xml:space="preserve">
<path d="M64,96c-17.7,0-32,14.3-32,32v256c0,17.7,14.3,32,32,32h384c17.7,0,32-14.3,32-32V128c0-17.7-14.3-32-32-32L64,96z
	 M87.7,128L256,296.3L424.3,128c11,2.9,19.7,11.6,22.6,22.6L342.6,254.9l104.3,104.3c-2.9,11-11.6,19.7-22.6,22.6L320,277.5l-64,64
	l-64-64L87.7,381.8c-11-2.9-19.7-11.6-22.6-22.6l104.3-104.3L65.1,150.6C68,139.6,76.7,130.9,87.7,128z"/>
</svg>
