<?xml version="1.0" encoding="utf-8"?>
<!-- Generator: Adobe Illustrator 19.2.1, SVG Export Plug-In . SVG Version: 6.00 Build 0)  -->
<svg version="1.1" id="Layer_1" xmlns="http://www.w3.org/2000/svg" xmlns:xlink="http://www.w3.org/1999/xlink" x="0px" y="0px"
	 viewBox="0 0 512 512" enable-background="new 0 0 512 512" xml:space="preserve">
<path d="M268.3,32c-16.1,0-33.4,2-52,5.9c-18.6,3.9-36.4,12.8-53.2,26.5c-12.6,11-21.9,23.4-28.3,37.3c-6.3,13.9-9.4,27.7-9.4,41.5
	c0,11.4,2.1,22.7,6.5,33.8c4.3,11.1,10.6,21.1,18.8,29.7c8.2,8.6,18.4,15.6,30.6,20.9c12.2,5.3,26.1,7.9,41.8,7.9
	c3.1,0,6.2-0.1,9.4-0.3s6.3-0.5,9.4-0.9c-1.6,3.5-2.9,7-4.1,10.3c-1.2,3.3-1.8,7.6-1.8,12.6c0,9,1.9,16.5,5.6,22.6s7.7,11.9,12,17.4
	c-6.7,0.4-14.5,1-23.5,1.8c-9,0.8-18.6,2.1-28.8,4.1c-10.2,2-20.5,4.6-30.9,7.9c-10.4,3.3-20.1,7.7-29.1,13.2
	c-17.2,10.2-29.1,22-35.6,35.6C99.2,373.4,96,385.4,96,396c0,11,2.6,21.5,7.7,31.5c5.1,10,12.9,18.9,23.5,26.7
	c10.6,7.9,23.8,14.1,39.7,18.8c15.9,4.7,34.4,7,55.5,7c25.1,0,47.3-3.2,66.7-9.7c19.4-6.5,35.6-14.9,48.5-25.3s22.7-22.3,29.4-35.6
	c6.7-13.3,10-26.9,10-40.6c0-10.2-1.4-19.3-4.2-27.1c-2.7-7.9-6.4-14.9-10.8-21.2c-4.5-6.3-9.8-12.2-15.9-17.7
	c-6.1-5.5-12.3-11-18.5-16.5l-21.1-16.5c-3.2-2.8-6.5-6-10-9.7c-3.5-3.7-5.3-8.9-5.3-15.6c0-6.7,1.8-12.2,5.3-16.5
	c3.5-4.3,7.2-8.4,11.2-12.4c6.2-4.7,12.4-9.7,18.2-15c5.9-5.3,11.2-11.2,15.9-17.6c4.7-6.5,8.4-13.8,11.2-22.1
	c2.7-8.2,4.1-17.9,4.1-28.8s-1.5-20.8-4.7-29.5c-3.1-8.6-6.8-16.2-11.2-22.7c-4.3-6.5-8.8-12-13.5-16.5s-8.8-8.1-12.4-10.9h36.4
	L384,32.1L268.3,32L268.3,32z M231.2,50.8c12.2,0,22.8,3.6,32,10.9c9.2,7.3,17,16.4,23.2,27.5c6.2,11,11,22.8,14.1,35.4
	c3.1,12.6,4.7,24.2,4.7,34.8c0,5.5-0.8,12.4-2.3,20.7c-1.5,8.3-5.7,15.7-12.4,22.4c-4.7,4.7-10.7,8.7-18,11.8
	c-7.3,3.2-14.6,4.7-22,4.7c-12.5,0-23.4-3.6-32.6-10.9c-9.2-7.3-16.9-16.3-22.9-26.8c-6.1-10.6-10.6-22-13.5-34.2
	c-2.9-12.2-4.4-23.2-4.4-33.1c0-7.9,0.9-15.5,2.7-23S185,76.6,190,70.3c4.7-5.9,10.8-10.6,18.2-14.1
	C215.7,52.6,223.3,50.8,231.2,50.8L231.2,50.8L231.2,50.8z M260,313.6h7.3c1.8,0,3.8,0.2,6.2,0.6c11,7.8,20.6,14.9,28.8,21.2
	c8.2,6.2,14.9,12.4,20,18.2c5.1,5.9,8.9,11.8,11.5,18c2.5,6,3.8,12.8,3.8,20.3c0,18.4-7.3,33.6-22,45.6
	c-14.7,11.9-36.2,17.9-64.4,17.9c-31.8,0-57-6.7-75.6-20c-18.6-13.3-27.9-30.6-27.9-51.7c0-10.6,2.1-19.4,6.2-26.5
	c4.1-7,8.9-12.9,14.4-17.6s11.1-8.3,16.8-10.8c5.7-2.6,10.1-4.4,13.2-5.6c6.3-2,12.7-3.6,19.4-5c6.7-1.4,12.9-2.4,18.8-3
	c5.9-0.6,11-1,15.3-1.2C256,313.8,258.8,313.7,260,313.6L260,313.6L260,313.6z"/>
</svg>
