<?xml version="1.0" encoding="utf-8"?>
<!-- Generator: Adobe Illustrator 19.2.1, SVG Export Plug-In . SVG Version: 6.00 Build 0)  -->
<svg version="1.1" id="Layer_1" xmlns="http://www.w3.org/2000/svg" xmlns:xlink="http://www.w3.org/1999/xlink" x="0px" y="0px"
	 viewBox="0 0 512 512" enable-background="new 0 0 512 512" xml:space="preserve">
<path d="M420.3,32.1c-7,0-14.5,1.1-22.4,3.3h-0.6c-12.7,4.9-22.4,12.6-29.4,23c-17.4-7.1-34.7-10.6-51.8-10.6
	c-6.4,0-12.9,0.6-19.5,1.9h-0.6c-8.8,2.1-16.5,5.8-23.3,11c-6.8,5.2-12.4,11.6-16.6,19.1c-5.3,8.7-8.9,31.3-10.5,41.1
	c-1.7,9.8-2.6,25-2.6,34.7c-20.9,1.5-41.8,4.5-62.8,9.1c-21,4.6-40.6,11.9-59,21.9c-1.3,0.4-2.5,0.9-3.5,1.3s-2,0.9-2.9,1.3
	c-6.2-4.5-13-8-20.5-10.6c-7.8-2.6-16.1-3.9-24.9-3.9h-5.8c-8.7,0-16.7,1.6-24.1,4.8c-7.4,3.2-14.1,7.7-20.3,13.4
	c-5.8,5.8-10.3,12.2-13.9,19.4C1.7,219.6,0,227.1,0,235c0.4,10.8,4.4,21.3,11.8,31.4c5.7,8.3,13.8,15.4,24.3,21.1
	c-0.5,2.1-0.7,4.4-1,6.8c-0.2,2.5-0.3,4.8-0.3,6.9c0,10,1.5,20,4.5,30.1s7.4,19.4,13.1,28.1C63.3,376,76.9,389.9,93.3,401
	c16.4,11,33.8,20.2,52.1,27.2c17.5,6.6,35.5,11.6,54,14.8c18.6,3.3,37.4,5,56.6,5c12.5,0,25.1-0.8,37.5-2.4
	c12.5-1.6,25-3.7,37.6-6.3c23.2-5.5,45.5-13.9,66.8-25.1s39.4-26,54.3-44.3c17.1-20.5,25.6-43.4,25.6-68.8c0-2.6-0.1-5.1-0.4-7.5
	s-0.5-4.7-0.9-6.8c10-4.9,18.3-11.9,24.9-21.1c7.1-9.6,10.6-20.3,10.6-32v-3.2c-1.2-13.4-6.8-25.1-16.3-34.9
	c-9.8-10-21.2-16.7-34.2-20.1h-0.6c-6-1.3-11.6-1.9-16.9-1.9c-14.1-0.2-26.6,3.2-37.4,10.2c-2.3,1.1-5.2,2.8-8.6,5.4
	c-0.8-0.9-1.8-1.3-2.6-1.3l-0.7-0.6c-18.2-9.6-37.5-16.9-57.7-21.8c-20.1-4.9-40.6-8-61.6-9.3c0-7.7,0.7-34.2,1.8-41.9
	s3.7-14.8,7.5-21.4c4.9-9.6,13.4-15.1,25.6-16.4h5.8c7.4,0,14.7,1.1,21.7,3c7.1,2,14.1,4.3,21.2,6.9v2c0,7.5,1.5,14.2,4.5,20.3
	c2.9,6,6.9,11.6,11.8,16.5c10.3,10.4,22.8,16.3,37.8,17.5h7.3c14.9,0,28.2-4.8,39.9-14.4c5.3-4.4,9.7-9.6,13.1-15.5
	c3.4-5.9,5.5-12.5,6.4-20c0.4-1.3,0.6-3.2,0.6-5.8c0.2-11-3.3-21.4-10.3-31c-7.1-9.2-15.8-15.7-26.2-19.5h-0.7
	C436.7,33.5,429.1,32,420.3,32.1L420.3,32.1z M421.1,60.3c7.1,0.1,13.1,2.7,18.1,7.7c6.2,4.9,9.2,11.1,9.2,18.6v1.3
	c-0.8,6.8-3.9,12.7-9.2,17.6c-5.5,4.9-11.8,7.4-18.9,7.4h-1.9c-7,0-13.3-2.5-19.2-7.4c-5.5-4.7-8.3-10.6-8.3-17.6v-1.3
	c0-6.6,2.1-12.1,6.4-16.6c3.8-4.7,8.8-7.7,15-8.9c2-0.4,4.4-0.6,7.4-0.6C420.1,60.3,420.6,60.3,421.1,60.3L421.1,60.3z M256.7,185.9
	c10,0,20.3,0.5,30.8,1.6c10.6,1.1,20.9,2.7,30.8,4.8l9.9,2.6l10.2,2.6c17.5,4.9,34.1,11.9,49.9,21.1c15.8,9.2,29,20.8,40,34.9
	c5.1,7.3,9.2,14.9,12.3,23c3.1,8.1,4.6,16.5,4.6,25.3h0v7.6c0,2.3-0.4,4.6-1.3,6.7c-2.8,12.4-8.5,24-17.3,34.9
	c-7.4,10-17,19.2-28.8,27.5c-17.5,11.7-36.4,20.7-56.9,26.9c-20.4,6.2-41.3,10.1-62.7,11.8c-3.6,0.5-7.3,0.6-10.8,0.6h-10.8
	c-21.3,0-42.4-2.2-63.1-6.6c-20.8-4.4-40.3-11.4-58.6-21l-4.5-2.6l-4.8-2.2c-13-8.3-24.4-17.5-34.5-27.5
	c-10.2-11.5-17.2-24-21.1-37.4c-1.7-5.2-2.6-11.2-2.6-18.2c0-18.1,5.6-34.2,16.9-48.3c11-14.1,24.4-25.8,40.1-35.2
	c15.7-9.4,32.2-16.5,49.7-21.4C200.3,189.7,227.8,185.8,256.7,185.9L256.7,185.9z M66.1,203.6h3.2c3.2,0,6.1,0.4,8.8,1.3
	c2.6,0.9,5.4,1.7,8.4,2.6c-8.7,7-16.5,14.6-23.5,22.7c-6.9,8.1-12.8,17-17.7,26.6c-2.8-2-5.2-4.8-7.4-8.6c-3-3.5-4.5-7.8-4.5-13.1
	V233c0.7-7.7,4-14.4,10.3-20.2C50.8,207.5,58.3,204.5,66.1,203.6L66.1,203.6z M443.3,203.6c6.4,0,12.7,1.5,18.9,4.4
	c6.1,3.5,10.8,7.8,13.7,13.2c2.1,4.5,3.2,8.6,3.2,12.5c0,5.3-1.2,10.1-3.8,14.4c-2.4,3.6-5,6.7-8,9.2c-4.7-10-10.6-19.1-17.6-27.2
	c-7-8.1-14.9-15.6-23.6-22.7C431.4,204.8,437.1,203.6,443.3,203.6L443.3,203.6z M335.3,246.7c-3.6,0-7.4,0.7-11.2,1.9
	c-6.2,2.2-11.2,5.9-15,11.2c-4,4.7-6.1,10.3-6.1,16.9c0,2.4,0.2,4.2,0.6,5.5v0.6c1.3,7.5,5.1,13.1,11.2,17c6.2,4.7,13.2,7,21.1,7
	c2.5,0,5.5-0.6,9-1.9h0.9c5.6-1.1,11-4.5,16.3-10.2c3.8-5.3,5.8-11.4,5.8-18c0-3-0.6-6.2-2-9.6c-1.6-6.2-5.6-11.3-11.8-15.3
	C348.2,248.5,341.9,246.7,335.3,246.7L335.3,246.7z M176.7,246.7c-2.6,0-4.7,0.2-6.3,0.7c-5.8,0.9-10.8,3.1-15.2,6.9
	c-4.4,3.7-7.4,8.3-9.1,13.6c-0.9,1.2-1.3,2.7-1.3,4.1v4.2c0,7,1.9,13.2,5.8,18.6c4.2,5.1,9.6,8.5,16.3,10.2c3,1.2,6.3,1.9,9.9,1.9
	c8.3,0,15.8-2.8,22.4-8.3c7.1-5.7,10.6-12.8,10.6-21.1v-2c0-7.9-3.3-14.6-9.9-20.1C192.7,249.6,185,246.7,176.7,246.7L176.7,246.7z
	 M175.5,341.1c-1.2,0-3.2,0.5-5.7,1.3H169c-2.6,0.8-5,2.7-7.3,5.7c-1.2,2.1-1.9,4.8-1.9,8c0,2.6,0.6,5.2,1.9,8
	c1.3,2.2,3.2,3.9,5.8,5.1c24.5,15.4,51.3,23.1,80.5,23.1h4.8c14.1,0,27.7-1.3,40.9-4c13.2-2.7,26-6.9,38.4-12.6
	c1.7-0.9,3.5-1.7,5.4-2.6c1.9-0.8,3.9-1.9,6-3.2c2.2-0.9,4-2.1,5.5-3.8c2.1-2.1,3.3-4.4,3.8-6.8c0.4-0.8,0.7-1.9,0.7-3.2
	c0-1.3-0.4-3.2-1.3-5.8c-1.3-3.2-3.5-5.4-6.4-6.7c-3.3-1.7-6.2-2.6-8.6-2.6c-2.5,0-5.3,0.6-8,2c-23.2,13-48.5,19.6-75.8,19.8
	c-20.4,0-39.4-3.9-56.9-11.8c-2.5-0.9-5.7-2.9-9.2-6.1c-0.9-0.4-1.8-0.8-2.8-1.3s-2.2-0.9-3.3-1.3
	C178.6,341.5,176.7,341,175.5,341.1L175.5,341.1z"/>
</svg>
