<?xml version="1.0" encoding="utf-8"?>
<!-- Generator: Adobe Illustrator 19.2.1, SVG Export Plug-In . SVG Version: 6.00 Build 0)  -->
<svg version="1.1" id="Layer_1" xmlns="http://www.w3.org/2000/svg" xmlns:xlink="http://www.w3.org/1999/xlink" x="0px" y="0px"
	 viewBox="0 0 512 512" enable-background="new 0 0 512 512" xml:space="preserve">
<path d="M111.3,244.6c-5.2,6.1-9.6,12.7-13.2,19.9c-2.1-1.5-3.9-3.6-5.5-6.5c-2.3-2.6-3.4-5.9-3.4-9.8v-1.4c0.5-5.8,3-10.8,7.7-15.1
	c5.3-4,10.9-6.3,16.8-7v0h2.4c2.4,0,4.6,0.3,6.6,1c2,0.6,4.1,1.3,6.3,1.9C122.4,232.8,116.5,238.5,111.3,244.6z M363.4,151.1
	c4.4,3.7,9.1,5.5,14.4,5.5h1.4c5.3,0,10-1.8,14.2-5.5c4-3.7,6.3-8.1,6.9-13.2v-1c0-5.6-2.3-10.2-6.9-13.9c-3.8-3.8-8.3-5.7-13.6-5.8
	l0,0c-0.4,0-0.7,0-1.1,0c-2.2,0-4.1,0.1-5.5,0.5c-4.6,0.9-8.4,3.2-11.2,6.7c-3.3,3.4-4.8,7.5-4.8,12.5v1
	C357.2,143.1,359.2,147.5,363.4,151.1z M394.4,279.3c2.3,6.1,3.5,12.4,3.5,19h0v5.7c0,1.8-0.3,3.4-1,5c-2.1,9.3-6.4,18-13,26.2
	c-5.6,7.5-12.8,14.4-21.6,20.6c-13.1,8.8-27.3,15.5-42.7,20.2s-31,7.6-47,8.9c-2.7,0.4-5.5,0.5-8.1,0.5h-8.1
	c-16,0-31.8-1.6-47.4-4.9c-15.6-3.3-30.2-8.5-44-15.7l-3.4-1.9l-3.6-1.7c-9.8-6.2-18.3-13.1-25.8-20.6c-7.7-8.6-12.9-18-15.8-28.1
	c-1.3-3.9-1.9-8.4-1.9-13.7c0-13.6,4.2-25.7,12.7-36.3c8.3-10.6,18.3-19.3,30.1-26.4c11.8-7,24.2-12.4,37.3-16.1
	c19.6-5.7,40.2-8.7,61.8-8.7l0.1,0c7.5,0,15.2,0.4,23.1,1.2c7.9,0.8,15.6,2,23.1,3.6l7.4,1.9l7.7,1.9c13.1,3.7,25.6,9,37.4,15.8
	c11.9,6.9,21.8,15.6,30,26.2C389,267.5,392.1,273.3,394.4,279.3z M189.1,300.7c2.3,0.9,4.7,1.4,7.4,1.4c6.2,0,11.9-2.1,16.8-6.2
	c5.3-4.3,7.9-9.6,7.9-15.8v-1.5c0-5.9-2.5-10.9-7.4-15.1c-5.3-4.3-11.1-6.5-17.3-6.5c0,0,0,0,0,0h0c0,0,0,0,0,0
	c-1.9,0-3.5,0.1-4.7,0.5c-4.3,0.6-8.1,2.3-11.4,5.2c-3.3,2.8-5.5,6.2-6.8,10.2c-0.7,0.9-1,2-1,3.1v3.1c0,5.3,1.4,9.9,4.3,13.9
	C180.1,296.9,184.1,299.5,189.1,300.7z M329.2,339.1c0-1-0.3-2.4-1-4.3c-1-2.4-2.6-4.1-4.8-5c-2.5-1.3-4.7-1.9-6.5-1.9
	c-1.9,0-4,0.5-6,1.5c-17.4,9.7-36.4,14.7-56.8,14.9c-15.3,0-29.6-3-42.7-8.9c-1.9-0.6-4.2-2.2-6.9-4.6c-0.6-0.3-1.3-0.6-2.1-1
	s-1.6-0.6-2.4-1c-1.9-0.6-3.4-1-4.3-1l0,0.1c-0.9,0-2.4,0.4-4.3,1h-0.5c-1.9,0.6-3.7,2-5.5,4.3c-0.9,1.6-1.4,3.6-1.4,6
	c0,1.9,0.5,3.9,1.4,6c1,1.6,2.4,2.9,4.3,3.8c18.4,11.5,38.5,17.3,60.4,17.3h3.6c10.6,0,20.8-1,30.7-3c9.9-2,19.5-5.2,28.8-9.5
	c1.2-0.6,2.6-1.3,4.1-1.9c1.4-0.6,3-1.4,4.5-2.4c1.6-0.7,3-1.6,4.1-2.9c1.6-1.6,2.5-3.3,2.9-5.1C329,340.9,329.2,340.1,329.2,339.1z
	 M339.9,279.6c0-2.2-0.5-4.6-1.5-7.2c-1.2-4.6-4.2-8.4-8.8-11.5c-4.5-2.6-9.2-3.9-14.1-3.9h0c-2.7,0-5.5,0.5-8.4,1.4
	c-4.6,1.6-8.4,4.4-11.3,8.4c-3,3.5-4.6,7.8-4.6,12.7c0,1.8,0.2,3.1,0.4,4.1v0.5c1,5.6,3.8,9.8,8.4,12.7c4.6,3.5,9.9,5.3,15.8,5.3
	c1.9,0,4.1-0.5,6.7-1.4h0.7c4.2-0.8,8.2-3.4,12.2-7.7C338.4,289.1,339.9,284.6,339.9,279.6z M480,64v384c0,17.6-14.4,32-32,32H64
	c-17.6,0-32-14.4-32-32V64c0-17.6,14.4-32,32-32h384C465.6,32,480,46.4,480,64z M448,244.8c-0.9-10.1-5.1-18.8-12.2-26.2
	c-7.3-7.5-15.9-12.5-25.6-15.1h-0.5c-4.5-1-8.7-1.4-12.7-1.4c-10.6-0.2-19.9,2.4-28.1,7.7c-1.7,0.8-3.9,2.1-6.5,4.1
	c-0.6-0.6-1.3-1-1.9-1l-0.5-0.5c-13.7-7.2-28.1-12.7-43.2-16.3c-15.1-3.7-30.5-6-46.2-7c0-5.8,0.5-25.6,1.4-31.4s2.8-11.1,5.6-16.1
	c3.6-7.2,10.1-11.3,19.2-12.3h4.3c5.6,0,11,0.8,16.3,2.3c5.3,1.5,10.6,3.2,15.9,5.2v1.5c0,5.6,1.1,10.7,3.4,15.2
	c2.2,4.5,5.2,8.7,8.8,12.4c7.7,7.8,17.1,12.2,28.3,13.2h5.5c11.2,0,21.1-3.6,30-10.8c4-3.3,7.3-7.2,9.8-11.6c2.6-4.4,4.2-9.4,4.8-15
	c0.3-1,0.5-2.4,0.5-4.3c0.2-8.3-2.4-16.1-7.7-23.3c-5.3-6.9-11.9-11.8-19.7-14.6h-0.5c-4.9-2.3-10.7-3.4-17.3-3.4l0,0.1
	c-5.3,0-10.9,0.8-16.8,2.4H362c-9.5,3.7-16.8,9.5-22.1,17.3c-13.1-5.3-26-7.9-38.8-7.9c-4.8,0-9.7,0.5-14.6,1.4H286
	c-6.6,1.6-12.4,4.4-17.5,8.3c-5.1,3.9-9.3,8.7-12.5,14.3c-4,6.5-6.6,23.5-7.9,30.9c-1.3,7.3-1.9,18.7-1.9,26
	c-15.7,1.1-31.3,3.4-47.1,6.8c-15.7,3.5-30.4,8.9-44.2,16.4c-1,0.3-1.8,0.7-2.6,1c-0.8,0.3-1.5,0.6-2.2,1c-4.7-3.4-9.7-6-15.4-7.9
	c-5.9-1.9-12.1-2.9-18.6-2.9h-4.3c-6.5,0-12.6,1.2-18.1,3.6c-5.5,2.4-10.6,5.8-15.2,10.1c-4.3,4.3-7.8,9.2-10.4,14.5
	c-2.7,5.4-3.9,11-3.9,16.9c0.3,8.1,3.3,16,8.9,23.5c4.3,6.2,10.4,11.5,18.2,15.8c-0.4,1.6-0.6,3.3-0.7,5.1c-0.1,1.8-0.2,3.6-0.2,5.2
	c0,7.5,1.1,15,3.4,22.6c2.3,7.5,5.5,14.6,9.8,21.1c8.1,12.5,18.4,22.9,30.7,31.2c12.3,8.3,25.3,15.1,39.1,20.4
	c13.1,5,26.6,8.7,40.5,11.1c13.9,2.5,28.1,3.7,42.4,3.7c9.4,0,18.8-0.6,28.1-1.8c9.4-1.2,18.8-2.8,28.2-4.7
	c17.4-4.1,34.1-10.4,50.1-18.8c16-8.4,29.5-19.5,40.8-33.2c12.8-15.4,19.2-32.6,19.2-51.6c0-1.9-0.1-3.8-0.3-5.6
	c-0.2-1.8-0.4-3.6-0.7-5.1c7.5-3.7,13.7-8.9,18.7-15.8c5.3-7.2,7.9-15.2,7.9-24V244.8z M410.6,228c-4.7-2.2-9.4-3.3-14.1-3.3
	c-4.6,0-8.9,0.9-12.9,2.9c6.5,5.3,12.5,10.9,17.7,17c5.3,6.1,9.7,12.9,13.2,20.4c2.2-1.9,4.2-4.2,6-6.9c1.9-3.2,2.9-6.8,2.9-10.8
	c0-2.9-0.9-6-2.4-9.4C418.7,233.9,415.2,230.6,410.6,228z"/>
</svg>
