<?xml version="1.0" encoding="utf-8"?>
<!-- Generator: Adobe Illustrator 20.1.0, SVG Export Plug-In . SVG Version: 6.00 Build 0)  -->
<svg version="1.1" baseProfile="tiny" id="Layer_1" xmlns="http://www.w3.org/2000/svg" xmlns:xlink="http://www.w3.org/1999/xlink"
	 x="0px" y="0px" viewBox="0 0 512 512" xml:space="preserve">
<path d="M151.417,420.018c0,32.85-26.74,59.474-59.71,59.474C58.74,479.492,32,452.867,32,420.018
	c0-32.85,26.74-59.474,59.707-59.474C124.677,360.543,151.417,387.168,151.417,420.018z M32.069,184.215v85.865
	c55.955,0,108.536,21.786,148.062,61.344c39.585,39.614,61.383,92.344,61.383,148.485h86.205
	C327.719,316.864,195.09,184.215,32.069,184.215z M32.196,32v85.865c199.386,0,361.599,162.455,361.599,362.135H480
	C480,232.971,279.116,32,32.196,32z"/>
</svg>
