<?xml version="1.0" encoding="utf-8"?>
<!-- Generator: Adobe Illustrator 19.2.1, SVG Export Plug-In . SVG Version: 6.00 Build 0)  -->
<svg version="1.1" id="Layer_1" xmlns="http://www.w3.org/2000/svg" xmlns:xlink="http://www.w3.org/1999/xlink" x="0px" y="0px"
	 viewBox="0 0 512 512" enable-background="new 0 0 512 512" xml:space="preserve">
<path d="M64,32c-17.7,0-32,14.3-32,32v384c0,17.7,14.3,32,32,32h384c17.7,0,32-14.3,32-32V64c0-17.7-14.3-32-32-32L64,32z M256,128
	c82.3,0,82.3,87.3,82.3,87.3v8.7l-31.8,8l-23.1-8v-8.7c0,0,0-29.1-27.4-29.1s-27.4,29.1-27.4,29.1v81.4c0,0,0,87.3-82.3,87.3
	S64,296.7,64,296.7V256h54.8v40.7h0.1c0.9,17.2,11,29.1,27.4,29.1c16.4,0,26.5-12,27.5-29.1h-0.1v-81.4
	C173.7,215.3,173.7,128,256,128L256,128z M283.5,256l23,7.6l31.8-7.6v40.7c0.9,17.2,11,29.1,27.4,29.1s26.5-11.9,27.4-29.1V256H448
	v40.7c0,0,0,87.3-82.3,87.3s-82.3-87.3-82.3-87.3L283.5,256z"/>
</svg>
