<?xml version="1.0" encoding="utf-8"?>
<!-- Generator: Adobe Illustrator 19.2.1, SVG Export Plug-In . SVG Version: 6.00 Build 0)  -->
<svg version="1.1" id="Layer_1" xmlns="http://www.w3.org/2000/svg" xmlns:xlink="http://www.w3.org/1999/xlink" x="0px" y="0px"
	 viewBox="0 0 512 512" enable-background="new 0 0 512 512" xml:space="preserve">
<g>
	<path d="M448,32H64c-17.7,0-32,14.3-32,32v384c0,17.7,14.3,32,32,32h384c17.7,0,32-14.3,32-32V64C480,46.3,465.7,32,448,32z
		 M144,96c26.5,0,48,21.5,48,48c0,26.5-21.5,48-48,48c-26.5,0-48-21.5-48-48C96,117.5,117.5,96,144,96z M223.6,416H64v-96
		c0-48.3,25.9-96,80-96h0c51.6,0,79.6,52.1,79.6,96V416z M447.6,416H288c0,0,0-192,80-192c0,0,0,0,0,0h0c0,0,0,0,0,0
		C448,224,447.6,416,447.6,416z M445.6,175.3c-11.1,7.9-24.3,16.7-77.9,16.7s-66.2-8.8-77.2-16.7c-1.5-1.3-2.4-3.1-2.4-5.1
		c0-4,3.6-7.2,8.2-7.5c13.6-2.3,23.8-13.8,23.8-25v-1.6C320,114,341.4,96,368,96h0.1c0.3,0,0.5,0,0.8,0
		c26.1,0.4,47.1,18.2,47.1,40.1v1.6c0,11.2,10.2,22.7,23.8,25c4.6,0.4,8.2,3.6,8.2,7.5C448,172.2,447.1,174,445.6,175.3z"/>
	<path d="M368,224C368,224,368,224,368,224C368,224,368,224,368,224L368,224z"/>
</g>
</svg>
