<?xml version="1.0" encoding="utf-8"?>
<!-- Generator: Adobe Illustrator 19.2.1, SVG Export Plug-In . SVG Version: 6.00 Build 0)  -->
<svg version="1.1" id="Layer_1" xmlns="http://www.w3.org/2000/svg" xmlns:xlink="http://www.w3.org/1999/xlink" x="0px" y="0px"
	 viewBox="0 0 512 512" enable-background="new 0 0 512 512" xml:space="preserve">
<path d="M342.2,64c-50.8,0-91.9,41.2-91.9,91.9c0,7.2,0.8,14.2,2.4,21c-76.4-3.8-144.1-40.4-189.4-96c-7.9,13.6-12.4,29.3-12.4,46.2
	c0,31.9,16.2,60,40.9,76.5c-15.1-0.5-29.2-4.6-41.6-11.5v1.2c0,44.5,31.7,81.7,73.7,90.1c-7.7,2.1-15.8,3.3-24.2,3.3
	c-5.9,0-11.7-0.6-17.3-1.6c11.7,36.5,45.6,63.1,85.9,63.8C136.6,373.4,97,388.1,54,388.1c-7.4,0-14.8-0.4-22-1.3
	c40.7,26,89,41.3,140.9,41.3c169.1,0,261.5-140.1,261.5-261.5c0-4-0.1-8-0.2-11.9c18-12.9,33.5-29.1,45.9-47.6
	c-16.5,7.3-34.2,12.3-52.8,14.5c19-11.4,33.6-29.4,40.4-50.8c-17.8,10.5-37.4,18.2-58.4,22.3C392.5,75.1,368.6,64,342.2,64z"/>
</svg>
