<?xml version="1.0" encoding="utf-8"?>
<!-- Generator: Adobe Illustrator 20.1.0, SVG Export Plug-In . SVG Version: 6.00 Build 0)  -->
<svg version="1.1" baseProfile="tiny" id="Layer_1" xmlns="http://www.w3.org/2000/svg" xmlns:xlink="http://www.w3.org/1999/xlink"
	 x="0px" y="0px" viewBox="0 0 512 512" xml:space="preserve">
<path d="M475.526,165.034c0,0-4.378-31.353-17.81-45.159c-17.036-18.121-36.131-18.211-44.888-19.272
	C350.137,96,256.097,96,256.097,96h-0.195c0,0-94.038,0-156.731,4.602c-8.758,1.061-27.846,1.151-44.888,19.272
	c-13.432,13.807-17.803,45.159-17.803,45.159S32,201.852,32,238.67v34.517c0,36.818,4.48,73.636,4.48,73.636
	s4.371,31.353,17.803,45.16c17.042,18.121,39.428,17.548,49.398,19.448C139.522,414.92,256,416,256,416s94.137-0.144,156.828-4.746
	c8.757-1.061,27.852-1.151,44.888-19.272c13.432-13.807,17.81-45.16,17.81-45.16S480,310.004,480,273.187V238.67
	C480,201.852,475.526,165.034,475.526,165.034z M192.022,336L192,176l144,80L192.022,336z"/>
</svg>
