<?xml version="1.0" encoding="utf-8"?>
<!-- Generator: Adobe Illustrator 19.2.1, SVG Export Plug-In . SVG Version: 6.00 Build 0)  -->
<svg version="1.1" id="Layer_1" xmlns="http://www.w3.org/2000/svg" xmlns:xlink="http://www.w3.org/1999/xlink" x="0px" y="0px"
	 viewBox="0 0 512 512" enable-background="new 0 0 512 512" xml:space="preserve">
<path d="M256,32C132.3,32,32,132.3,32,256s100.3,224,224,224s224-100.3,224-224S379.7,32,256,32z M362.2,346.7
	c-34.7,10-66.7,64.2-76.4,101.3c-17.9-9.4,9.8-90.2,5.4-112.4c-4.3-22.1-13-14.4-22.6-27.6c-17.8-31.5,0.9-48.3-5.6-55.9
	c-6.5-7.7-4.9-18.3-45-29.9c-40.1-11.6-75.9-81.9-87.8-104.1c-11.9-22.1,26.6-47,81.3-52.6c10.3-1,19.7-1.5,28.4-1.5
	c37.8,0.1,61.9,9,80,17.5c22.2,10.5,20.1,39.3,8.1,39.3s-35.8-16.6-47.2,23.2s-40.1,19.9-59.1,39.3s24.4,37.1,33.6,49.3
	c9.2,12.2,33.1-0.6,52.6,3.9c32.6,28.8,66.7,41,74.3,54.8C385.5,307.9,386.6,326.2,362.2,346.7z"/>
</svg>
