<?xml version="1.0" encoding="utf-8"?>
<!-- Generator: Adobe Illustrator 19.2.1, SVG Export Plug-In . SVG Version: 6.00 Build 0)  -->
<svg version="1.1" id="Layer_1" xmlns="http://www.w3.org/2000/svg" xmlns:xlink="http://www.w3.org/1999/xlink" x="0px" y="0px"
	 viewBox="0 0 512 512" enable-background="new 0 0 512 512" xml:space="preserve">
<path d="M256,32C132.3,32,32,132.3,32,256s100.3,224,224,224s224-100.3,224-224S379.7,32,256,32z M64,256
	c0-57,24.8-108.2,64.3-143.3c0.3,1.8,1,3.6,1.9,5.4c11.9,22.1,47.7,92.5,87.8,104.1c40.1,11.6,38.6,22.2,45,29.9
	c6.5,7.7-12.2,24.4,5.6,55.9c9.6,13.2,18.3,5.5,22.6,27.6c4.1,21-20.6,95-7.8,110.4c-9,1.3-18.1,2-27.4,2C150,448,64,362,64,256z
	 M286.4,445.6c10.5-37,41.8-89.2,75.8-98.9c24.4-20.5,23.3-38.8,20.1-55.4c-7.6-13.9-41.7-26-74.3-54.8c-19.5-4.4-43.4,8.3-52.6-3.9
	c-9.2-12.2-52.6-29.9-33.6-49.3s47.7,0.6,59.1-39.3s35.2-23.2,47.2-23.2s14.1-28.8-8.1-39.3c-16.7-7.9-38.6-16.1-71.7-17.4
	c2.6-0.1,5.2-0.2,7.8-0.2c106,0,192,86,192,192C448,351.7,378,431,286.4,445.6z"/>
</svg>
