<?xml version="1.0" encoding="utf-8"?>
<!-- Generator: Adobe Illustrator 20.1.0, SVG Export Plug-In . SVG Version: 6.00 Build 0)  -->
<svg version="1.1" id="Layer_1" xmlns="http://www.w3.org/2000/svg" xmlns:xlink="http://www.w3.org/1999/xlink" x="0px" y="0px"
	 width="512px" height="512px" viewBox="0 0 512 512" xml:space="preserve">
<path d="M167.543,228.938h-56.884v-56.479h50.939c11.202,0,20.423,1.329,27.663,3.988c8.376,3.844,12.576,11.718,12.576,23.652
	c0,10.735-3.197,18.249-9.511,22.482C185.958,226.8,177.714,228.938,167.543,228.938z M388.07,240.774
	c-7.313-6.494-16.367-9.727-27.217-9.727c-11.76,0-20.895,3.427-27.378,10.335c-6.483,6.881-10.555,16.249-12.242,28.021h79.079
	C399.482,256.83,395.41,247.324,388.07,240.774z M191.691,275.636c-5.575-2.774-13.369-4.219-23.409-4.335h-57.624v68.255h56.831
	c10.146,0,18.072-1.503,23.726-4.508c10.251-5.577,15.377-16.211,15.377-31.931C206.592,289.767,201.625,280.635,191.691,275.636z
	 M480,64v384c0,17.664-14.336,32-32,32H64c-17.664,0-32-14.336-32-32V64c0-17.664,14.336-32,32-32h384C465.664,32,480,46.336,480,64
	z M304,160h112v-32H304V160z M256,306.729c0-14.709-3.065-27.221-9.142-37.509c-6.078-10.316-15.087-17.829-27.056-22.597
	c7.873-4.392,13.845-9.247,17.887-14.564c7.213-9.507,10.806-22.077,10.806-37.711c0-15.171-3.593-28.175-10.727-39.055
	c-11.916-17.743-32.128-26.846-60.689-27.293H64v256h105.445c11.889,0,22.907-1.127,33.079-3.439
	c10.172-2.341,18.97-6.618,26.447-12.859c6.632-5.433,12.154-12.166,16.592-20.17C252.512,335.51,256,321.899,256,306.729z
	 M446.442,264.705c-2.117-14.204-6.804-26.667-14.01-37.444c-7.956-12.187-18.082-21.126-30.324-26.777
	c-12.242-5.665-25.985-8.484-41.254-8.484c-25.744,0-46.638,8.387-62.765,25.091c-16.127,16.746-24.163,40.788-24.163,72.18
	c0,33.437,8.894,57.644,26.762,72.456C318.555,376.594,339.155,384,362.514,384c28.288,0,50.308-8.788,66.033-26.391
	c10.072-11.081,15.778-26.86,17.011-37.609h-46.879c-1.178,6-2.512,10.667-9.429,17.327c-6.536,5.555-15.028,8.318-25.476,8.318
	c-9.858,0-18.297-2.266-25.288-6.798c-11.546-7.323-17.654-18.977-18.35-37.133h127.807
	C448.183,286.073,447.674,273.023,446.442,264.705z"/>
</svg>
