<?xml version="1.0" encoding="utf-8"?>
<!-- Generator: Adobe Illustrator 19.2.1, SVG Export Plug-In . SVG Version: 6.00 Build 0)  -->
<svg version="1.1" id="Layer_1" xmlns="http://www.w3.org/2000/svg" xmlns:xlink="http://www.w3.org/1999/xlink" x="0px" y="0px"
	 width="512px" height="512px" viewBox="0 0 512 512" xml:space="preserve">
<path d="M188.9,64C119.9,64,64,119.5,64,188v136.1C64,392.5,119.9,448,188.9,448h134.4c69,0,124.7-55.5,124.7-123.9v-87.9
	c0-13.7-11-28.2-24.8-28.2h-21.5c-13.2,0-24.7-11.2-25.6-24c0-68.5-55.2-120-124.2-120L188.9,64z M184,160h72c13.2,0,24,10.8,24,24
	s-10.8,24-24,24h-72c-13.2,0-24-10.8-24-24S170.8,160,184,160z M184,304h144c13.2,0,24,10.8,24,24s-10.8,24-24,24H184
	c-13.2,0-24-10.8-24-24S170.8,304,184,304z"/>
</svg>
