<?xml version="1.0" encoding="utf-8"?>
<!-- Generator: Adobe Illustrator 19.2.1, SVG Export Plug-In . SVG Version: 6.00 Build 0)  -->
<svg version="1.1" id="Layer_1" xmlns="http://www.w3.org/2000/svg" xmlns:xlink="http://www.w3.org/1999/xlink" x="0px" y="0px"
	 width="512px" height="512px" viewBox="0 0 512 512" xml:space="preserve">
<path d="M448,32H64c-17.7,0-32,14.3-32,32v384c0,17.7,14.3,32,32,32h384c17.7,0,32-14.3,32-32V64C480,46.3,465.7,32,448,32z
	 M276.6,327.3c-19.8,0-38.5-10.8-44.9-22.9c0,0-10.7,42.4-12.9,50.5c-8,28.9-31.4,57.8-33.2,60.2c-1.3,1.6-4.1,1.1-4.4-1.1
	c-0.5-3.7-6.5-40.1,0.5-69.9c3.5-14.9,23.6-100.2,23.6-100.2s-5.9-11.7-5.9-29.1c0-27.2,15.8-47.6,35.5-47.6
	c16.7,0,24.8,12.5,24.8,27.6c0,16.8-10.7,41.9-16.2,65.2c-4.6,19.5,9.8,35.4,29,35.4c34.8,0,58.3-44.7,58.3-97.7
	c0-40.3-27.1-70.4-76.5-70.4c-55.7,0-90.5,41.6-90.5,88c0,16,4.7,27.3,12.1,36.1c3.4,4,3.9,5.6,2.6,10.2c-0.9,3.4-2.9,11.5-3.7,14.8
	c-1.2,4.6-5,6.3-9.2,4.6C140,270.6,128,242.5,128,210.8C128,158.6,172,96,259.4,96c70.2,0,116.4,50.8,116.4,105.3
	C375.7,273.4,335.6,327.3,276.6,327.3L276.6,327.3z"/>
</svg>
