<?xml version="1.0" encoding="utf-8"?>
<!-- Generator: Adobe Illustrator 19.2.1, SVG Export Plug-In . SVG Version: 6.00 Build 0)  -->
<svg version="1.1" id="Layer_1" xmlns="http://www.w3.org/2000/svg" xmlns:xlink="http://www.w3.org/1999/xlink" x="0px" y="0px"
	 width="512px" height="512px" viewBox="0 0 512 512" xml:space="preserve">
<path d="M250.7,32C126.6,32,64,119.7,64,192.7c0,44.3,17,83.6,53.5,98.3c6,2.4,11.4,0.1,13.1-6.4c1.2-4.5,4.1-15.9,5.3-20.7
	c1.8-6.5,1.1-8.7-3.7-14.3c-10.5-12.2-17.2-28.1-17.2-50.5c0-65.1,49.4-123.3,128.6-123.3c70.2,0,108.7,42.2,108.7,98.6
	c0,74.2-33.3,136.8-82.8,136.8c-27.3,0-47.8-22.2-41.2-49.6c7.9-32.6,23.1-67.8,23.1-91.3c0-21.1-11.5-38.7-35.2-38.7
	c-27.9,0-50.4,28.5-50.4,66.6c0,24.3,8.3,40.7,8.3,40.7s-28.6,119.3-33.6,140.2c-10,41.6-1.5,92.7-0.8,97.8c0.5,3,4.4,3.7,6.2,1.5
	c2.6-3.3,35.9-43.8,47.2-84.2c3.2-11.4,18.4-70.8,18.4-70.8c9.1,17.1,35.6,32.1,63.8,32.1c84,0,141-75.4,141-176.4
	C416,103,350.3,32,250.7,32L250.7,32z"/>
</svg>
