<?xml version="1.0" encoding="utf-8"?>
<!-- Generator: Adobe Illustrator 24.2.0, SVG Export Plug-In . SVG Version: 6.00 Build 0)  -->
<svg version="1.1" id="Layer_1" xmlns="http://www.w3.org/2000/svg" xmlns:xlink="http://www.w3.org/1999/xlink" x="0px" y="0px"
	 width="512px" height="512px" viewBox="0 0 512 512" xml:space="preserve">
<path d="M448,32H64c-17.7,0-32,14.3-32,32v384c0,17.7,14.3,32,32,32h384c17.7,0,32-14.3,32-32V64C480,46.3,465.7,32,448,32z
	 M115.2,447.6c-28.3,0-51.2-22.8-51.2-51s22.9-51,51.2-51c28.3,0,51.2,22.8,51.2,51S143.4,447.6,115.2,447.6z M244,448
	c0-48.1-18.7-93.3-52.8-127.3c-34-33.9-79.2-52.6-127.2-52.6v-73.6c140.1,0,254.1,113.7,254.1,253.5L244,448L244,448z M373.9,448
	c0-171.2-139-310.4-309.9-310.4V64c211.6,0,383.8,172.3,383.8,384H373.9z"/>
</svg>
