<?xml version="1.0" encoding="utf-8"?>
<!-- Generator: Adobe Illustrator 24.2.0, SVG Export Plug-In . SVG Version: 6.00 Build 0)  -->
<svg version="1.1" id="Layer_1" xmlns="http://www.w3.org/2000/svg" xmlns:xlink="http://www.w3.org/1999/xlink" x="0px" y="0px"
	 width="512px" height="512px" viewBox="0 0 512 512" xml:space="preserve">
<path d="M64,32c-17.7,0-32,14.3-32,32v384c0,17.7,14.3,32,32,32h384c17.7,0,32-14.3,32-32V64c0-17.7-14.3-32-32-32H64z M255.5,128.3
	c82.5,0,82.5,87.3,82.5,87.3v8.4l-31.9,8l-23.1-8v-8.6c0,0,0-29.2-27.5-29.2S228,215.4,228,215.4v81.5c0,0,0,87-82,87s-82-87-82-87
	V256h55v41h-0.9c0.9,17.2,11,29.1,27.5,29.1s26.6-12,27.6-29.1H173v-81.4C173,215.6,173,128.3,255.5,128.3L255.5,128.3z M283.1,256
	l23,7.6L338,256v40.7c0.9,17.2,11,29.1,27.5,29.1s26.6-11.9,27.5-29.1V256h55v40.7c0,0,0,87.3-82.5,87.3S283,296.7,283,296.7
	L283.1,256z"/>
</svg>
