<?xml version="1.0" encoding="utf-8"?>
<!-- Generator: Adobe Illustrator 24.2.0, SVG Export Plug-In . SVG Version: 6.00 Build 0)  -->
<svg version="1.1" id="Layer_1" xmlns="http://www.w3.org/2000/svg" xmlns:xlink="http://www.w3.org/1999/xlink" x="0px" y="0px"
	 width="512px" height="512px" viewBox="0 0 512 512" xml:space="preserve">
<path d="M383.5,64c-31.7,0-57.5,24-57.5,53.5v2.1c0,14.9-12.2,30.3-28.5,33.3c-5.5,0.5-9.9,4.8-9.9,10.1c0,2.6,1.1,5,2.9,6.8
	c13.3,10.5,28.3,22.2,92.5,22.2s80.1-11.7,93.3-22.2c1.8-1.8,2.9-4.1,2.9-6.8c0-5.3-4.3-9.6-9.9-10.1c-16.3-3-28.5-18.4-28.5-33.3
	v-2.1c0-29-25-52.7-55.9-53.5c-0.2,0-0.4,0-0.5,0h0.2c-0.4,0-0.7,0-1.1,0C383.7,64,383.5,64,383.5,64z M384.1,64c0.3,0,0.6,0,0.9,0
	C384.8,64,384.5,64,384.1,64L384.1,64z M128,224c-64.9,0-96,70-96,128v96h192v-96C224,299.3,190,224,128,224z M384,224
	c-96,0-96,224-96,224h192C480,448,480,224,384,224z M192,128c0,35.3-28.7,64-64,64s-64-28.7-64-64s28.7-64,64-64S192,92.7,192,128z"
	/>
</svg>
