<?xml version="1.0" encoding="utf-8"?>
<!-- Generator: Adobe Illustrator 24.2.0, SVG Export Plug-In . SVG Version: 6.00 Build 0)  -->
<svg version="1.1" id="Layer_1" xmlns="http://www.w3.org/2000/svg" xmlns:xlink="http://www.w3.org/1999/xlink" x="0px" y="0px"
	 width="512px" height="512px" viewBox="0 0 512 512" xml:space="preserve">
<path d="M448,32H64c-17.6,0-32,14.4-32,32v384c0,17.6,14.4,32,32,32h384c17.6,0,32-14.4,32-32V64C480,46.4,465.6,32,448,32z
	 M351.9,398c-12.7,6.4-28.5,11.6-38.9,14.2c-10.4,2.6-21.6,3.9-33.7,3.9c-13.7,0-21.8-1.9-32.3-5.5c-10.5-3.7-19.9-9-27.3-15.8
	c-7.4-6.9-12.6-14.1-15.4-21.8c-2.9-7.7-4.3-18.9-4.3-33.5V224h-40v-42.2c11.7-4.1,25.3-9.9,33.6-17.6c8.4-7.6,15.1-16.8,20.2-27.5
	c5.1-10.7,8.6-24.3,10.5-40.8l0,0l0,0H267v64h53v64h-53v85.2c0,18.6-0.2,29.3,1.6,34.5c1.8,5.2,6.4,10.7,11.4,13.8
	c6.6,4.2,14.2,6.4,22.7,6.4c15.1,0,34.3-5.9,49.3-16.5V398H351.9z"/>
</svg>
