<?xml version="1.0" encoding="utf-8"?>
<!-- Generator: Adobe Illustrator 24.2.0, SVG Export Plug-In . SVG Version: 6.00 Build 0)  -->
<svg version="1.1" id="Layer_1" xmlns="http://www.w3.org/2000/svg" xmlns:xlink="http://www.w3.org/1999/xlink" x="0px" y="0px"
	 width="512px" height="512px" viewBox="0 0 512 512" xml:space="preserve">
<path d="M192.6,32c-2.8,23.1-8.1,42.1-15.7,57.1s-17.7,27.8-30.3,38.5s-33,18.9-50.6,24.6V224h61v148.7c0,20.5,2.1,36.1,6.4,46.9
	s12,21,23.1,30.6c11.1,9.5,25,16.9,40.7,22.1s27.8,7.7,48.3,7.7c18,0,34.8-1.8,50.4-5.4c15.5-3.6,39.1-10.9,58.2-19.9V384
	c-22.3,14.8-51,22.9-73.7,22.9c-12.8,0-24-3-33.9-8.9c-7.5-4.4-14.3-12-17-19.2c-2.8-7.4-2.4-22.3-2.4-48.2V224h96v-96h-96V32H192.6
	L192.6,32z"/>
</svg>
