<?xml version="1.0" encoding="utf-8"?>
<!-- Generator: Adobe Illustrator 19.2.1, SVG Export Plug-In . SVG Version: 6.00 Build 0)  -->
<svg version="1.1" id="Layer_1" xmlns="http://www.w3.org/2000/svg" xmlns:xlink="http://www.w3.org/1999/xlink" x="0px" y="0px"
	 width="512px" height="512px" viewBox="0 0 512 512" xml:space="preserve">
<path d="M448,32H64c-17.7,0-32,14.3-32,32v384c0,17.7,14.3,32,32,32h384c17.7,0,32-14.3,32-32V64C480,46.3,465.7,32,448,32z
	 M383.3,191.7c0.1,2.8,0.2,5.6,0.2,8.4c0,85.4-66,183.9-186.8,183.9c-37.1,0-71.6-10.7-100.6-29.1c5.1,0.6,10.4,0.9,15.7,0.9
	c30.8,0,59.1-10.4,81.5-27.7c-28.7-0.5-53-19.2-61.3-44.9c4,0.7,8.1,1.2,12.4,1.2c6,0,11.8-0.8,17.3-2.3c-30-5.9-52.7-32-52.7-63.3
	v-0.8c8.9,4.8,19,7.7,29.7,8.1c-17.6-11.6-29.2-31.4-29.2-53.8c0-11.8,3.2-22.9,8.9-32.5c32.4,39.1,80.8,64.8,135.3,67.5
	c-1.1-4.7-1.7-9.7-1.7-14.7c0-35.7,29.4-64.6,65.6-64.6c18.9,0,36,7.8,47.9,20.4c14.9-2.9,29-8.3,41.7-15.7
	c-4.9,15.1-15.3,27.7-28.9,35.7c13.3-1.6,26-5.1,37.7-10.2C407.1,171.3,396.1,182.7,383.3,191.7L383.3,191.7z"/>
</svg>
