<?xml version="1.0" encoding="utf-8"?>
<!-- Generator: Adobe Illustrator 20.1.0, SVG Export Plug-In . SVG Version: 6.00 Build 0)  -->
<svg version="1.1" id="Layer_1" xmlns="http://www.w3.org/2000/svg" xmlns:xlink="http://www.w3.org/1999/xlink" x="0px" y="0px"
	 width="512px" height="512px" viewBox="0 0 512 512" xml:space="preserve">
<path d="M479.783,152.805c-2,43.26-32.469,102.444-91.344,177.477C327.532,408.792,275.969,448,233.782,448
	c-26.094,0-48.188-23.873-66.25-71.742c-12.063-43.896-24.094-87.854-36.157-131.657c-13.407-47.901-27.782-71.835-43.188-71.835
	c-3.344,0-15.032,6.985-35.125,20.955L32,166.744c22.094-19.201,43.844-38.526,65.282-57.773
	c29.407-25.316,51.5-38.556,66.25-39.938c34.782-3.353,56.219,20.287,64.282,70.78c8.625,54.559,14.719,88.475,18.032,101.777
	c10.031,45.2,21.093,67.769,33.156,67.769c9.344,0,23.375-14.591,42.157-43.818c18.75-29.29,28.782-51.548,30.125-66.868
	c2.656-25.27-7.375-37.827-30.125-37.827c-10.719,0-21.782,2.251-33.157,6.969C310.126,96.647,352.283,62.08,414.533,64.082
	C460.689,65.371,482.439,95.017,479.783,152.805z"/>
</svg>
