<?xml version="1.0" encoding="utf-8"?>
<!-- Generator: Adobe Illustrator 24.2.0, SVG Export Plug-In . SVG Version: 6.00 Build 0)  -->
<svg version="1.1" id="Layer_1" xmlns="http://www.w3.org/2000/svg" xmlns:xlink="http://www.w3.org/1999/xlink" x="0px" y="0px"
	 width="512px" height="512px" viewBox="0 0 512 512" xml:space="preserve">
<path d="M448,32H64c-17.7,0-32,14.3-32,32v384c0,17.7,14.3,32,32,32h384c17.7,0,32-14.3,32-32V64C480,46.3,465.7,32,448,32z
	 M332.5,148.6c15.4-15.4,30.7,0,30.7,0s15.8,15,0.3,30.6s-61.7,31.1-61.7,31.1S317.2,164,332.5,148.6L332.5,148.6z M277.8,122.2
	c-0.1,0.3-0.2,0.5-0.3,0.8h0.1c-0.4,1.2-0.9,2.4-1.4,3.8c-3.5,8.8-75.5,223.1-75.5,223.1c-13.7,39.3-34,66.2-75.6,66.2
	c-5.5,0-11.6-0.4-17.6-1.6c-8.3-2.7-13.2-12.3-10.9-21.7c2-8.2,8.8-13.6,16.1-13.2c0.5,0.1,8.1,0.6,10.3,0.6
	c22.6,0,37.5-15.5,45.1-38.3l4.5-11.1c0,0-68.2-186.3-75.5-207c-3-10.5,1.7-22,11-25.9c9.1-3.8,19.1,0.9,23.2,10.6l0.8,2.4l0,0
	L191.3,279h0.9c0,0,46.7-149.5,52.5-168l0,0c0-0.1,0-0.2,0.1-0.3c0.2-0.6,0.3-1.1,0.4-1.3c3.2-9.8,12.7-15.1,21.6-11.9
	C275.7,100.9,280.8,111.9,277.8,122.2L277.8,122.2z M363.2,363.4c0,0-15.3,15.5-30.7,0s-30.8-61.7-30.8-61.7s46.1,15.4,61.7,31.1
	S363.2,363.4,363.2,363.4L363.2,363.4z M393.5,278.8c-23.2,0-68.9-22.8-68.9-22.8s45.7-22.8,68.6-22.8S416,256,416,256
	S416.7,278.8,393.5,278.8z"/>
</svg>
