<?xml version="1.0" encoding="utf-8"?>
<!-- Generator: Adobe Illustrator 24.2.0, SVG Export Plug-In . SVG Version: 6.00 Build 0)  -->
<svg version="1.1" id="Layer_1" xmlns="http://www.w3.org/2000/svg" xmlns:xlink="http://www.w3.org/1999/xlink" x="0px" y="0px"
	 width="512px" height="512px" viewBox="0 0 512 512" xml:space="preserve">
<path d="M475.5,165c0,0-4.4-31.4-17.8-45.2c-17-18.1-36.1-18.2-44.9-19.3C350.1,96,256.1,96,256.1,96h-0.2c0,0-94,0-156.7,4.6
	c-8.8,1.1-27.8,1.2-44.9,19.3C40.9,133.7,36.5,165,36.5,165S32,201.9,32,238.7v34.5c0,36.8,4.5,73.6,4.5,73.6s4.4,31.4,17.8,45.2
	c17,18.1,39.4,17.5,49.4,19.4C139.5,414.9,256,416,256,416s94.1-0.1,156.8-4.7c8.8-1.1,27.9-1.2,44.9-19.3
	c13.4-13.8,17.8-45.2,17.8-45.2s4.5-36.8,4.5-73.6v-34.5C480,201.9,475.5,165,475.5,165z M192,336l0-160l144,80L192,336z"/>
</svg>
