<?xml version="1.0" encoding="utf-8"?>
<!-- Generator: Adobe Illustrator 19.2.1, SVG Export Plug-In . SVG Version: 6.00 Build 0)  -->
<svg version="1.1" id="Layer_1" xmlns="http://www.w3.org/2000/svg" xmlns:xlink="http://www.w3.org/1999/xlink" x="0px" y="0px"
	 viewBox="0 0 512 512" enable-background="new 0 0 512 512" xml:space="preserve">
<path d="M480,64H32c0,0-32,0-32,32v320c0,32,32,32,32,32h448c32,0,32-32,32-32V96C512,96,512,64,480,64z M240,204.6
	c-6.1-4.1-13.5-7.4-21.9-9.7c-8.5-2.3-17.1-3.5-25.8-3.5c-18,0-32.2,5.8-42.6,17.4c-10.4,11.6-15.6,27.4-15.6,47.3
	c0,19.8,5.2,35.4,15.6,46.9c10.4,11.5,24.3,17.2,41.7,17.2c16.1,0,32.3-4.6,48.6-13.8V373c-18.2,7.4-39.2,11-63.1,11
	c-23.4,0-43.6-5-60.6-15.1c-17-10.1-29.9-24.4-38.9-43c-9-18.6-13.4-40-13.4-64.3c0-26.1,5-49.4,15-69.7
	c10-20.4,24.2-36.1,42.5-47.2c18.3-11.1,39.4-16.7,63.2-16.7c19,0,37.4,2.6,55.2,7.8V204.6z M448,204.6c-6.1-4.1-13.5-7.4-21.9-9.7
	c-8.5-2.3-17.1-3.5-25.8-3.5c-18,0-32.2,5.8-42.6,17.4c-10.4,11.6-15.6,27.4-15.6,47.3c0,19.8,5.2,35.4,15.6,46.9
	c10.4,11.5,24.3,17.2,41.7,17.2c16.1,0,32.3-4.6,48.6-13.8V373c-18.2,7.4-39.2,11-63.1,11c-23.4,0-43.6-5-60.6-15.1
	c-17-10.1-29.9-24.4-38.9-43c-9-18.6-13.4-40-13.4-64.3c0-26.1,5-49.4,15-69.7c10-20.4,24.2-36.1,42.5-47.2
	c18.3-11.1,39.4-16.7,63.2-16.7c19,0,37.4,2.6,55.2,7.8V204.6z"/>
</svg>
