<?xml version="1.0" encoding="utf-8"?>
<!-- Generator: Adobe Illustrator 19.2.1, SVG Export Plug-In . SVG Version: 6.00 Build 0)  -->
<svg version="1.1" id="Layer_1" xmlns="http://www.w3.org/2000/svg" xmlns:xlink="http://www.w3.org/1999/xlink" x="0px" y="0px"
	 viewBox="0 0 512 512" style="enable-background:new 0 0 512 512;" xml:space="preserve">
<path d="M352,192c0,45.2-23.4,65.9-40.6,81c-15.1,13.3-23.4,20.7-23.4,47h-64c0-55.2,27.1-79.2,45.1-95c13.8-12.1,18.9-16.7,18.9-33
	c0-17.6-14.4-32-32-32c-17.6,0-32,14.4-32,32h-64c0-53,43-96,96-96S352,139,352,192z M224,416h64v-64h-64V416z M480,256
	c0,123.7-100.3,224-224,224S32,379.7,32,256S132.3,32,256,32S480,132.3,480,256z M448,256c0-106-86-192-192-192S64,150,64,256
	s86,192,192,192S448,362,448,256z"/>
</svg>
