<?xml version="1.0" encoding="utf-8"?>
<!-- Generator: Adobe Illustrator 19.2.1, SVG Export Plug-In . SVG Version: 6.00 Build 0)  -->
<svg version="1.1" id="Layer_1" xmlns="http://www.w3.org/2000/svg" xmlns:xlink="http://www.w3.org/1999/xlink" x="0px" y="0px"
	 viewBox="0 0 512 512" enable-background="new 0 0 512 512" xml:space="preserve">
<path d="M78.9,192l32,32H64v-32H78.9z M64,288h110.9l-32-32H64V288z M64,352h174.9l-32-32H64V352z M64,384v32h238.9l-32-32H64z
	 M457.4,480l22.6-22.6L438.6,416h9.4v-32h-41.4l-32-32H448v-32H342.6l-32-32H448v-32H278.6l-32-32H448v-32H214.6l-32-32H448v-32
	H150.6l-32-32H448V64H86.6l-32-32L32,54.6"/>
</svg>
