<?xml version="1.0" encoding="utf-8"?>
<!-- Generator: Adobe Illustrator 19.2.1, SVG Export Plug-In . SVG Version: 6.00 Build 0)  -->
<svg version="1.1" id="Layer_1" xmlns="http://www.w3.org/2000/svg" xmlns:xlink="http://www.w3.org/1999/xlink" x="0px" y="0px"
	 viewBox="0 0 512 512" enable-background="new 0 0 512 512" xml:space="preserve">
<path d="M352,288l44.5,44.5c-22.3,40.7-61.7,70.7-108.5,80.3V151.4c19.1-11.1,32-31.8,32-55.4c0-35.3-28.7-64-64-64
	c-35.3,0-64,28.7-64,64c0,23.6,12.9,44.3,32,55.4v261.4c-46.8-9.5-86.2-39.6-108.5-80.3L160,288H32v128l36.9-36.9
	C108.9,439.9,177.8,480,256,480s147.1-40.1,187.1-100.9L480,416V288H352z M256,64c17.6,0,32,14.4,32,32s-14.4,32-32,32
	c-17.6,0-32-14.4-32-32S238.4,64,256,64z"/>
</svg>
