<?xml version="1.0" encoding="utf-8"?>
<!-- Generator: Adobe Illustrator 19.2.1, SVG Export Plug-In . SVG Version: 6.00 Build 0)  -->
<svg version="1.1" id="Layer_1" xmlns="http://www.w3.org/2000/svg" xmlns:xlink="http://www.w3.org/1999/xlink" x="0px" y="0px"
	 viewBox="0 0 512 512" enable-background="new 0 0 512 512" xml:space="preserve">
<path d="M448.1,32H384V0h-64v32H192V0h-64v32H64c-17.6,0-32,14.4-32,32v384.1c0,17.6,14.4,32,32,32h384.1c17.6,0,32-14.4,32-32V64
	C480.1,46.4,465.7,32,448.1,32z M448.1,448l-384,0.1c0,0,0,0-0.1-0.1V192h384.1V448z M448.1,160H64V64.1c0,0,0,0,0.1-0.1H128v32h64
	V64h128v32h64V64h64c0,0,0,0,0.1,0.1V160z M192,270.6c0,0-20.1,17.4-50,17.4c0-15.2,0-13.1,0-32c29.9,0,58-32,58-32h24v192h-32
	V270.6z M384,416H256v-14.2c0-9.7,1.6-18.4,4.9-26c3.3-7.7,7.4-14.6,12.3-20.7c4.9-6.1,10.3-11.5,16.1-16.2s11.4-8.9,16.6-12.7
	c5.6-3.9,10.4-7.7,14.6-11.3s7.7-7.2,10.5-10.7s5-7.1,6.4-10.8c1.4-3.6,2.1-7.5,2.1-11.7c0-8.1-2.3-14.1-6.9-18.4
	c-4.5-4.1-11.6-6.2-20.9-6.2c-16.2,0-31.8,6.4-46.6,19.4V240c16.5-10.6,35-16,55.5-16c9.6,0,18.2,1.3,25.7,3.8
	c7.6,2.5,14.1,6.1,19.3,10.7s9.3,10.3,12.1,16.9c2.7,6.6,4.1,14.1,4.1,22.2c0,8.7-1.4,16.5-4,23.2c-2.7,6.8-6.3,12.9-10.6,18.4
	c-4.5,5.6-9.5,10.6-15.3,15.2c-5.8,4.6-11.8,9.1-18,13.4c-4.2,3-8.3,5.9-12.2,8.9c-3.9,2.9-7.4,5.8-10.4,8.7s-5.3,5.7-7.1,8.4
	c-1.9,2.7-2.7,7.8-2.7,10.3H384V416z"/>
</svg>
