<?xml version="1.0" encoding="utf-8"?>
<!-- Generator: Adobe Illustrator 19.2.1, SVG Export Plug-In . SVG Version: 6.00 Build 0)  -->
<svg version="1.1" id="Layer_1" xmlns="http://www.w3.org/2000/svg" xmlns:xlink="http://www.w3.org/1999/xlink" x="0px" y="0px"
	 viewBox="0 0 512 512" enable-background="new 0 0 512 512" xml:space="preserve">
<path d="M32,448h416V32H32V448z M64,416V256h64v160H64z M224,256v64h-64v-64H224z M160,416v-64h64v64H160z M256,416V256h64v160H256z
	 M416,416h-64V256h64V416z M160,224v-64h64v64H160z M416,64v160h-64V64H416z M320,64v160h-64V64H320z M224,64v64h-64V64H224z
	 M128,64v160H64V64H128z"/>
</svg>
