<?xml version="1.0" encoding="utf-8"?>
<!-- Generator: Adobe Illustrator 19.2.1, SVG Export Plug-In . SVG Version: 6.00 Build 0)  -->
<svg version="1.1" id="Layer_1" xmlns="http://www.w3.org/2000/svg" xmlns:xlink="http://www.w3.org/1999/xlink" x="0px" y="0px"
	 viewBox="0 0 512 512" enable-background="new 0 0 512 512" xml:space="preserve">
<path d="M32,32v416h416V32H32z M64,64h160v64H64V64z M224,224h-64v-64h64V224z M64,160h64v64H64V160z M64,256h160v64H64V256z
	 M64,416v-64h160v64H64z M256,160h64v64h-64V160z M416,416H256v-64h160V416z M416,320H256v-64h160V320z M416,224h-64v-64h64V224z
	 M416,128H256V64h160V128z"/>
</svg>
