<?xml version="1.0" encoding="utf-8"?>
<!-- Generator: Adobe Illustrator 19.2.1, SVG Export Plug-In . SVG Version: 6.00 Build 0)  -->
<svg version="1.1" id="Layer_1" xmlns="http://www.w3.org/2000/svg" xmlns:xlink="http://www.w3.org/1999/xlink" x="0px" y="0px"
	 viewBox="0 0 512 512" enable-background="new 0 0 512 512" xml:space="preserve">
<path d="M416,353l32-32v159H32V32h416v64h-32V64H64v384h352V353z M224,349.3V416h66.7l169.7-168.5l-67.9-67.9L224,349.3z
	 M279.3,383.3l-22.6-22.6l135.8-135.8l22.6,22.6L279.3,383.3z M502.7,160L480,137.3c-12.4-12.4-32.8-12.4-45.3,0L412.2,160
	l67.9,67.9l22.6-22.6C515.1,192.8,515.1,172.4,502.7,160z M192,416h-25.1v-22h-0.4c-7.9,14.6-19.4,22-34.6,22
	c-11.2,0-20-3.3-26.3-9.8c-6.3-6.5-9.5-15.2-9.5-25.9c0-23.1,12.4-36.5,37.2-40.4l33.9-5.1c0-17.4-7.7-26.1-23.2-26.1
	c-13.6,0-25.8,5-36.8,15v-24.2c12-7.6,25.9-11.5,41.7-11.5c28.8,0,43.2,15.2,43.2,45.6V416z M167.1,353.1l-23.9,3.6
	c-7.4,1-13,3-16.8,5.8c-3.8,2.8-5.6,7.8-5.6,14.9c0,5.2,1.7,9.4,5.2,12.7c3.5,3.3,8.1,5,13.9,5c7.9,0,14.4-3,19.5-8.9
	c5.2-5.9,7.7-13.4,7.7-22.4V353.1z"/>
</svg>
