<?xml version="1.0" encoding="utf-8"?>
<!-- Generator: Adobe Illustrator 19.2.1, SVG Export Plug-In . SVG Version: 6.00 Build 0)  -->
<svg version="1.1" id="Layer_1" xmlns="http://www.w3.org/2000/svg" xmlns:xlink="http://www.w3.org/1999/xlink" x="0px" y="0px"
	 viewBox="0 0 512 512" enable-background="new 0 0 512 512" xml:space="preserve">
<path d="M402.784,290.235L221.765,109.216l22.627-22.627c12.445-12.445,32.81-12.445,45.255,0l22.627,22.627l67.882-67.882
	c12.445-12.445,32.81-12.445,45.255,0l45.255,45.255c12.445,12.445,12.445,32.81,0,45.255l-67.882,67.882l22.627,22.627
	c12.445,12.445,12.445,32.81,0,45.255L402.784,290.235z M380.984,313.69L199.964,132.671c-12.346-12.346-32.483-12.437-44.953-0.287
	L54.627,32L32,54.627l100.074,100.074l-91.819,89.362c0,0-21.67,23.419-40.255,4.835l221.274,221.76
	c12.467,12.467,32.81,12.445,45.255,0l91.851-89.651L457.373,480L480,457.373l-98.73-98.73
	C393.421,346.173,393.33,326.036,380.984,313.69z"/>
</svg>
