<?xml version="1.0" encoding="utf-8"?>
<!-- Generator: Adobe Illustrator 19.2.1, SVG Export Plug-In . SVG Version: 6.00 Build 0)  -->
<svg version="1.1" id="Layer_1" xmlns="http://www.w3.org/2000/svg" xmlns:xlink="http://www.w3.org/1999/xlink" x="0px" y="0px"
	 viewBox="0 0 512 512" enable-background="new 0 0 512 512" xml:space="preserve">
<path d="M416,32V0h-32v32h-32V0h-32v32h-32V0h-32v32h-32V0h-32v32h-32V0h-32v32H96V0H64v32H32v32H0v32h32v32H0v32h32v32H0v32h32v32
	H0v32h32v32H0v32h32v32H0v32h32v32h32v32h32v-32h32v32h32v-32h32v32h32v-32h32v32h32v-32h32v32h32v-32h32v32h32v-32h32v-32h32v-32
	h-32v-32h32v-32h-32v-32h32v-32h-32v-32h32v-32h-32v-32h32v-32h-32V96h32V64h-32V32H416z M416,288v128H288H64V64h352v192V288z M32,0
	v32H0V0H32z M0,448h32v32H0V448z M198.6,182.6L141.3,240l57.4,57.4L176,320l-80-80l80-80L198.6,182.6z M304,160l80,80l-80,80
	l-22.6-22.6l57.4-57.4l-57.4-57.4L304,160z M480,32h-32V0h32V32z M448,480v-32h32v32H448z"/>
</svg>
