<?xml version="1.0" encoding="utf-8"?>
<!-- Generator: Adobe Illustrator 19.2.1, SVG Export Plug-In . SVG Version: 6.00 Build 0)  -->
<svg version="1.1" id="Layer_1" xmlns="http://www.w3.org/2000/svg" xmlns:xlink="http://www.w3.org/1999/xlink" x="0px" y="0px"
	 viewBox="0 0 512 512" enable-background="new 0 0 512 512" xml:space="preserve">
<path d="M32,32v416h416V32H32z M160,64v64L96,64H160z M64,96l96,96v64l-96-96V96z M64,224l96,96v64l-96-96V224z M64,416v-64l64,64
	H64z M288,416h-96v-96h96V416z M288,288h-96v-96h96V288z M192,160L192,160L192,160V64h96v96H192z M416,416h-96v-96h96V416z M416,288
	h-96v-96h96V288z M416,160h-96V64h96V160z"/>
</svg>
