<?xml version="1.0" encoding="utf-8"?>
<!-- Generator: Adobe Illustrator 19.2.1, SVG Export Plug-In . SVG Version: 6.00 Build 0)  -->
<svg version="1.1" id="Layer_1" xmlns="http://www.w3.org/2000/svg" xmlns:xlink="http://www.w3.org/1999/xlink" x="0px" y="0px"
	 viewBox="0 0 512 512" enable-background="new 0 0 512 512" xml:space="preserve">
<path d="M114.745,352L64,402.745V64.057c0.017-0.02,0.038-0.041,0.057-0.057h383.885c0.02,0.017,0.041,0.038,0.058,0.057V256h32V64
	c0-17.6-14.4-32-32-32H64c-17.6,0-32,14.4-32,32v416l96-96h128v-32H114.745z M480,342.627L457.373,320L400,377.373L342.627,320
	L320,342.627L377.373,400L320,457.373L342.627,480L400,422.627L457.373,480L480,457.373L422.627,400L480,342.627z"/>
</svg>
