<?xml version="1.0" encoding="utf-8"?>
<!-- Generator: Adobe Illustrator 19.2.1, SVG Export Plug-In . SVG Version: 6.00 Build 0)  -->
<svg version="1.1" id="Layer_1" xmlns="http://www.w3.org/2000/svg" xmlns:xlink="http://www.w3.org/1999/xlink" x="0px" y="0px"
	 viewBox="0 0 512 512" style="enable-background:new 0 0 512 512;" xml:space="preserve">
<path d="M480,416h-43.9v-35.9h-0.8c-13.8,23.9-34,35.9-60.7,35.9c-19.7,0-35-5.3-46.2-16c-11.1-10.7-16.7-24.8-16.7-42.4
	c0-37.7,21.7-59.7,65.2-66l59.3-8.4c0-28.5-13.5-42.7-40.6-42.7c-23.8,0-45.3,8.2-64.4,24.6v-39.6c21.1-12.5,45.4-18.7,73-18.7
	c50.5,0,75.7,24.9,75.7,74.6V416H480z M436.3,313.1l-42,5.9c-13,1.7-22.8,4.9-29.4,9.5s-9.9,12.7-9.9,24.3c0,8.5,3,15.4,9.1,20.8
	s14.2,8.1,24.3,8.1c13.8,0,25.2-4.8,34.3-14.5c9-9.7,13.6-21.9,13.6-36.6V313.1z M240,416h48L184,96h-48L32,416h48l26-80h108
	L240,416z M121.6,288L160,169.8L198.4,288H121.6z"/>
</svg>
