<?xml version="1.0" encoding="utf-8"?>
<!-- Generator: Adobe Illustrator 19.2.1, SVG Export Plug-In . SVG Version: 6.00 Build 0)  -->
<svg version="1.1" id="Layer_1" xmlns="http://www.w3.org/2000/svg" xmlns:xlink="http://www.w3.org/1999/xlink" x="0px" y="0px"
	 viewBox="0 0 512 512" enable-background="new 0 0 512 512" xml:space="preserve">
<path d="M96.147,479.902h160V512h-192v-0.097v-32.001v-31.94H32v0.098H0v-0.098v-32V288.06h32v127.902h32.147v-64.059h32V479.902z
	 M128.045,447.958h96v-32h-96V447.958z M128.073,351.903v32h32v-32H128.073z M412.193,259.404L253.801,101.012
	c-12.445-12.445-32.863-12.392-45.308,0.053l-69.786,69.786c0,0-0.004-0.004-0.004-0.004c-0.053,0.054-0.102,0.111-0.156,0.164v0
	c-11.58,11.58-30.014,12.678-42.547,2.708v0l200.939,200.939c12.467,12.467,32.81,12.445,45.255,0l69.946-69.946
	C424.585,292.266,424.638,271.849,412.193,259.404z M502.666,31.961L480.039,9.334c-12.445-12.445-32.81-12.445-45.255,0
	l-67.882,67.882l-22.627-22.627c-12.445-12.445-32.81-12.445-45.255,0l-22.627,22.627l158.392,158.392l22.627-22.627
	c12.445-12.445,12.445-32.81,0-45.255l-22.627-22.627l67.882-67.882C515.111,64.771,515.111,44.406,502.666,31.961z"/>
</svg>
