<?xml version="1.0" encoding="utf-8"?>
<!-- Generator: Adobe Illustrator 19.2.1, SVG Export Plug-In . SVG Version: 6.00 Build 0)  -->
<svg version="1.1" id="Layer_1" xmlns="http://www.w3.org/2000/svg" xmlns:xlink="http://www.w3.org/1999/xlink" x="0px" y="0px"
	 viewBox="0 0 512 512" enable-background="new 0 0 512 512" xml:space="preserve">
<path d="M128,128v224H80V182.4c0,0-13.1,19.1-48,19.1c0-17.7,0-18.5,0-40.6c34.9,0,61.7-32.9,61.7-32.9L128,128L128,128z
	 M222.4,311.7H320V352H169.3v-16.6c0-11.3,1.9-21.4,5.7-30.3c3.8-9,8.6-17,14.3-24.1s12-13.4,18.8-18.9c6.8-5.5,13.3-10.4,19.4-14.8
	c6.5-4.6,12.1-9,17-13.2s9-8.4,12.3-12.5c3.3-4.1,5.8-8.3,7.5-12.6c1.6-4.2,2.5-8.8,2.5-13.6c0-9.4-2.7-16.5-8-21.4
	c-5.3-4.8-13.5-7.2-24.4-7.2c-18.9,0-37.1,7.5-54.4,22.6v-42.7c19.2-12.4,40.8-18.6,64.8-18.6c11.2,0,21.2,1.5,30,4.4
	c8.9,2.9,16.4,7.1,22.5,12.5s10.8,12,14.1,19.7c3.2,7.7,4.8,16.4,4.8,25.9c0,10.1-1.6,19.2-4.7,27c-3.1,7.9-7.3,15.1-12.4,21.5
	c-5.2,6.5-11.1,12.4-17.9,17.7c-6.8,5.4-13.8,10.6-21,15.6c-4.9,3.5-9.7,6.9-14.2,10.4c-4.6,3.4-8.6,6.8-12.1,10.1
	c-3.5,3.3-6.2,6.6-8.3,9.8C223.4,305.8,222.4,308.8,222.4,311.7z M341.6,341v-41.5c14.6,10.6,31.5,15.8,50.9,15.8
	c12.2,0,21.8-2.6,28.6-7.9c6.8-5.3,10.2-12.5,10.2-21.9c0-9.7-4.2-17.1-12.7-22.3c-8.4-5.3-20-7.9-34.8-7.9h-20.2v-36.6h18.6
	c28.3,0,42.4-9.4,42.4-28.1c0-17.6-10.9-26.4-32.6-26.4c-14.6,0-28.7,4.7-42.4,14v-38.9c15.3-7.7,33-11.5,53.4-11.5
	c22.2,0,39.5,5,51.9,14.9c12.4,10,18.6,22.9,18.6,38.8c0,28.3-14.4,46-43.2,53.2v0.8c15.4,1.9,27.5,7.5,36.4,16.7
	c8.9,9.2,13.3,20.5,13.3,33.9c0,20.2-7.4,36.3-22.3,48c-14.9,11.8-35.4,17.6-61.5,17.6C373.9,351.9,355.7,348.3,341.6,341z"/>
</svg>
