<?xml version="1.0" encoding="utf-8"?>
<!-- Generator: Adobe Illustrator 19.2.1, SVG Export Plug-In . SVG Version: 6.00 Build 0)  -->
<svg version="1.1" id="Layer_1" xmlns="http://www.w3.org/2000/svg" xmlns:xlink="http://www.w3.org/1999/xlink" x="0px" y="0px"
	 viewBox="0 0 512 512" enable-background="new 0 0 512 512" xml:space="preserve">
<path d="M64,416h224v32H64V416z M288,352H64v32h224V352z M400,0C288,0,288,96,288,96v160c0,0,0,64,80,64s80-64,80-64V96
	c0,0,0-32-48-32s-48,32-48,32v128h32V116c0-11,0.6-20,16-20s16,9,16,20v140c0,0,0,32-48,32s-48-32-48-32V96c0,0,0-64,80-64
	s80,64,80,64v128h32V96C512,96,512,0,400,0z M106.7,288L96,320H64l64-192h32l64,192h-32l-10.7-32H106.7z M117.3,256h53.3L144,176
	L117.3,256z M320,480H32V96h224V64H32C14.3,64,0,78.3,0,96v384c0,17.7,14.3,32,32,32h288c17.7,0,32-14.3,32-32V352h-32V480z"/>
</svg>
