<?xml version="1.0" encoding="utf-8"?>
<!-- Generator: Adobe Illustrator 19.2.1, SVG Export Plug-In . SVG Version: 6.00 Build 0)  -->
<svg version="1.1" id="Layer_1" xmlns="http://www.w3.org/2000/svg" xmlns:xlink="http://www.w3.org/1999/xlink" x="0px" y="0px"
	 viewBox="0 0 512 512" enable-background="new 0 0 512 512" xml:space="preserve">
<path d="M260.6,288l11.5,31.5l56.2-56.6L244.2,32H139.8L0,416h76.8l28-76.8l18.6-51.2H260.6z M243.1,240H140.9L192,99.5L243.1,240z
	 M224,413.3V480h66.7l169.7-168.5l-67.9-67.9L224,413.3z M279.3,447.3l-22.6-22.6l135.8-135.8l22.6,22.6L279.3,447.3z M502.7,269.3
	l-22.6,22.6L412.2,224l22.5-22.7c12.5-12.4,32.9-12.4,45.3,0l22.7,22.7C515.1,236.4,515.1,256.8,502.7,269.3z"/>
</svg>
