<?xml version="1.0" encoding="utf-8"?>
<!-- Generator: Adobe Illustrator 19.2.1, SVG Export Plug-In . SVG Version: 6.00 Build 0)  -->
<svg version="1.1" id="Layer_1" xmlns="http://www.w3.org/2000/svg" xmlns:xlink="http://www.w3.org/1999/xlink" x="0px" y="0px"
	 viewBox="0 0 512 512" enable-background="new 0 0 512 512" xml:space="preserve">
<path d="M224,352v160h288V352H224z M326.6,457.4L304,480l-48-48l22.6-22.6L304,384l22.6,22.6L301.3,432L326.6,457.4z M432,480
	l-22.6-22.6l25.4-25.4l-25.4-25.4L432,384l25.4,25.4L480,432L432,480z M192,160V32c0-17.6-14.4-32-32-32h-32c-17.6,0-32,14.4-32,32
	v128L0,256h288L192,160z M288,288H0v192h64V320h32v160h32V320h32v160h32V320h96V288z"/>
</svg>
