<?xml version="1.0" encoding="utf-8"?>
<!-- Generator: Adobe Illustrator 19.2.1, SVG Export Plug-In . SVG Version: 6.00 Build 0)  -->
<svg version="1.1" id="Layer_1" xmlns="http://www.w3.org/2000/svg" xmlns:xlink="http://www.w3.org/1999/xlink" x="0px" y="0px"
	 viewBox="0 0 512 512" enable-background="new 0 0 512 512" xml:space="preserve">
<path d="M144,81.6c-10.6-7.5-25.2-11.1-44.1-11.1c-40.5,0-61.7,15-63.6,45.2h26.1c0.7-16.8,12.8-25,36-25c11,0,19.2,1.6,24.4,4.8
	c2.6,1.6,4.6,3.3,6.2,5.1c1.5,1.9,2.5,4,3.2,6.6c0.7,2.6,1.2,5.6,1.4,9.4c0.1,3.6,0.1,8.2,0.1,13.6h-12.8
	c-59.4,0-89.1,17.2-89.1,51.4c0,6.4,1.3,12,3.8,17.2c2.5,5.3,6,9.7,10.4,13.4c4.4,3.8,9.7,6.6,16,8.7c6.1,2.2,12.8,3.2,20,3.2
	c20.9,0,38.2-6.2,51.7-18.6v17.9H160v-97.8C160,103.5,154.6,88.9,144,81.6z M133.9,181.8c-2.3,3.3-5.1,6.2-8.4,9
	c-3.2,2.6-6.8,4.9-10.7,6.8c-3.9,1.9-8,3.3-12.2,4.3c-4.2,1-8.6,1.4-12.8,1.4c-9.6,0-17-2-22.5-5.9c-5.5-4-8.3-9.8-8.3-17.2
	c0-20.7,18.9-30.9,56.9-30.9h18V181.8z M316,115.7c-2.7-9.3-6.6-17.2-11.8-23.8c-5-6.4-11.4-11.5-18.7-15c-7.5-3.4-16-5.2-25.5-5.2
	c-16.4,0-30.2,6.9-41.7,20.5V32H192v192h26.2v-14.8c10.9,9.7,24.3,14.8,40,14.8c8.8,0,17-1.9,24.5-5.4c7.6-3.7,14.1-8.9,19.7-15.5
	c5.5-6.7,9.8-14.9,13-24.4c3-9.6,4.6-20.4,4.6-32.1C320,135.1,318.7,124.8,316,115.7z M283.4,189.3c-6.6,9.5-15.6,14.2-26.8,14.2
	c-14.5,0-27.4-5.9-38.4-17.8v-69.1c11.9-16.6,25-24.9,39.4-24.9c11.4,0,20,4.6,26.2,13.9c6.2,9.2,9.3,22.9,9.3,41
	C293.2,165.5,289.9,179.9,283.4,189.3z M450,110c1.8,3.2,2.7,6.9,3,11.2h27c-0.9-7.3-3.1-13.8-6.4-19.6c-3.3-5.8-7.6-10.5-12.7-14.2
	c-5.2-3.9-11.2-6.8-18-8.8c-6.9-2-14.2-3-22.2-3c-10.3,0-19.5,1.6-28,4.9c-8.5,3.3-15.7,8.1-21.8,14.4c-6,6.3-10.7,14.1-14,23.3
	c-3.3,9.2-4.9,19.7-4.9,31.5c0,11.9,1.6,22.5,4.9,31.7c3.1,9.2,7.8,17,13.9,23.2c6,6.3,13.3,11.1,21.8,14.4c8.3,3.3,17.9,5,28.2,5
	c8,0,15.3-1,22.2-3c6.8-2,12.8-4.9,18-8.8c5.1-3.9,9.4-8.8,12.7-14.4c3.3-5.6,5.5-12.1,6.4-19.6h-27c-0.3,4.2-1.2,7.9-3,11.2
	c-1.8,3.2-4.2,5.9-7,8.1c-3,2.2-6.3,3.9-10.1,4.9c-3.9,1.2-7.9,1.7-12.2,1.7c-6.3,0-11.9-1.2-17-3.5c-5.2-2.3-9.7-5.8-13.4-10.4
	c-3.7-4.5-6.6-10.2-8.5-17c-2.1-6.8-3.1-14.7-3.1-23.6c0-9.1,1-17.1,3.1-23.9c2.1-6.9,5.1-12.5,8.8-17.1c3.7-4.5,8-7.8,13.3-10.1
	c5.1-2.3,10.7-3.5,16.8-3.5c4.3,0,8.3,0.6,12.2,1.7c3.9,1.2,7.2,2.7,10.1,4.9C445.9,104,448.3,106.7,450,110L450,110z M128,256h256
	v32H128V256z M128,320h256v32H128V320z M128,384h256v32H128V384z M384,416H128v-32h256V416z M384,288H128v-32h256V288z M384,352H128
	v-32h256V352z M416,256h32v192c0,17.7-14.3,32-32,32H96c-17.7,0-32-14.3-32-32V256h32v192h320V256z"/>
</svg>
