<?xml version="1.0" encoding="utf-8"?>
<!-- Generator: Adobe Illustrator 19.2.1, SVG Export Plug-In . SVG Version: 6.00 Build 0)  -->
<svg version="1.1" id="Layer_1" xmlns="http://www.w3.org/2000/svg" xmlns:xlink="http://www.w3.org/1999/xlink" x="0px" y="0px"
	 viewBox="0 0 512 512" enable-background="new 0 0 512 512" xml:space="preserve">
<path d="M128.439,288H224v-56.994c0-11.221-0.702-18.613-2.103-22.174c-1.08-2.695-3.347-5.016-6.798-6.959
	c-4.641-2.589-10.15-3.883-15.331-3.883H192V192h96v5.989h-7.768c-5.18,0-10.091,1.241-14.729,3.722
	c-3.454,1.726-5.802,4.344-7.04,7.849c-1.241,3.508-1.861,10.657-1.861,28.29V384c0,4.271,0.7,11.607,2.103,15.168
	c1.079,2.698,3.291,5.018,6.637,6.959c4.746,2.589,9.71,3.885,14.89,3.885H288V416h-96v-5.988h7.768
	c8.955,0,16.084-2.644,20.186-7.931c2.696-3.453,4.046-11.76,4.046-24.926V304h-95.561v73.155c0,11.116,0.7,18.451,2.104,22.012
	c1.077,2.698,3.342,5.018,6.798,6.959c4.638,2.589,9.549,3.885,14.728,3.885H160V416H64v-5.988h7.768
	c9.064,0,16.245-2.644,20.347-7.931C94.704,398.629,96,390.321,96,384V237.85c0-18.065-0.704-25.457-2.104-29.018
	c-1.08-2.695-3.293-5.016-6.635-6.959c-4.75-2.589-10.313-3.883-15.492-3.883H64V192h96v5.989h-7.931
	c-5.179,0-10.09,1.241-14.728,3.722c-3.346,1.726-5.665,4.344-6.959,7.849c-1.296,3.508-1.943,10.657-1.943,21.445V288z
	 M464.855,373.757L449.48,416H320v-5.988c38.089-34.744,64.902-63.121,80.439-85.133c15.538-22.012,23.306-42.135,23.306-60.37
	c0-13.919-4.262-25.356-12.786-34.312s-18.721-13.434-30.59-13.434c-10.79,0-20.474,3.156-29.052,9.468
	s-14.917,15.565-19.017,27.757h-5.988c2.698-19.961,9.63-35.283,20.798-45.965S372.224,192,388.948,192
	c17.803,0,32.667,5.719,44.59,17.156c11.923,11.437,17.884,24.925,17.884,40.462c0,11.114-2.59,22.227-7.769,33.341
	c-7.985,17.48-20.933,35.985-38.844,55.514c-26.867,29.349-43.645,47.044-50.335,53.087h57.295c11.653,0,19.827-0.432,24.52-1.295
	c4.694-0.863,8.929-2.617,12.705-5.26c3.776-2.644,7.067-6.393,9.873-11.249H464.855z M512,96H0v32h512V96z"/>
</svg>
