<?xml version="1.0" encoding="utf-8"?>
<!-- Generator: Adobe Illustrator 19.2.1, SVG Export Plug-In . SVG Version: 6.00 Build 0)  -->
<svg version="1.1" id="Layer_1" xmlns="http://www.w3.org/2000/svg" xmlns:xlink="http://www.w3.org/1999/xlink" x="0px" y="0px"
	 viewBox="0 0 512 512" enable-background="new 0 0 512 512" xml:space="preserve">
<path d="M128.439,288H224v-56.994c0-11.221-0.702-18.613-2.103-22.174c-1.08-2.695-3.347-5.016-6.798-6.959
	c-4.641-2.589-10.15-3.883-15.331-3.883H192V192h96v5.989h-7.768c-5.18,0-10.091,1.241-14.729,3.722
	c-3.454,1.726-5.802,4.344-7.04,7.849c-1.241,3.508-1.861,10.657-1.861,28.29V384c0,4.271,0.7,11.607,2.103,15.168
	c1.079,2.698,3.291,5.018,6.637,6.959c4.746,2.589,9.71,3.885,14.89,3.885H288V416h-96v-5.988h7.768
	c8.955,0,16.084-2.644,20.186-7.931c2.696-3.453,4.046-11.76,4.046-24.926V304h-95.561v73.155c0,11.116,0.7,18.451,2.104,22.012
	c1.077,2.698,3.342,5.018,6.798,6.959c4.638,2.589,9.549,3.885,14.728,3.885H160V416H64v-5.988h7.768
	c9.064,0,16.245-2.644,20.347-7.931C94.704,398.629,96,390.321,96,384V237.85c0-18.065-0.704-25.457-2.104-29.018
	c-1.08-2.695-3.293-5.016-6.635-6.959c-4.75-2.589-10.313-3.883-15.492-3.883H64V192h96v5.989h-7.931
	c-5.179,0-10.09,1.241-14.728,3.722c-3.346,1.726-5.665,4.344-6.959,7.849c-1.296,3.508-1.943,10.657-1.943,21.445V288z
	 M323.486,237.5c6.419-14.53,14.527-25.746,24.322-33.648c9.795-7.902,21.997-11.852,36.607-11.852
	c18.041,0,31.875,5.621,41.505,16.864c7.305,8.379,10.957,17.341,10.957,26.886c0,15.697-10.293,31.924-30.879,48.682
	c13.835,5.197,24.294,12.621,31.377,22.273c7.083,9.651,10.625,21,10.625,34.045c0,18.667-6.198,34.841-18.594,48.523
	C413.247,407.091,389.838,416,359.18,416c-15.163,0-25.484-1.803-30.962-5.409S320,403.114,320,398.977
	c0-3.076,1.3-5.78,3.901-8.114c2.601-2.333,5.728-3.5,9.38-3.5c2.767,0,5.589,0.424,8.467,1.273
	c1.882,0.53,6.143,2.466,12.783,5.807c6.641,3.341,11.234,5.33,13.78,5.966c4.095,1.167,8.467,1.75,13.115,1.75
	c11.289,0,21.112-4.189,29.468-12.568c8.356-8.379,12.534-18.295,12.534-29.75c0-8.379-1.937-16.545-5.811-24.5
	c-2.878-5.939-6.032-10.447-9.463-13.523c-4.759-4.242-11.289-8.087-19.59-11.534s-16.768-5.17-25.401-5.17h-5.313v-4.773
	c8.744-1.061,17.515-4.083,26.314-9.068c8.799-4.985,15.191-10.977,19.175-17.977s5.977-14.689,5.977-23.068
	c0-10.924-3.569-19.754-10.708-26.489c-7.139-6.735-16.021-10.102-26.646-10.102c-17.155,0-31.488,8.803-42.999,26.409
	L323.486,237.5z M512,96H0v32h512V96z"/>
</svg>
