<?xml version="1.0" encoding="utf-8"?>
<!-- Generator: Adobe Illustrator 19.2.1, SVG Export Plug-In . SVG Version: 6.00 Build 0)  -->
<svg version="1.1" id="Layer_1" xmlns="http://www.w3.org/2000/svg" xmlns:xlink="http://www.w3.org/1999/xlink" x="0px" y="0px"
	 viewBox="0 0 512 512" enable-background="new 0 0 512 512" xml:space="preserve">
<path d="M128.439,288H224v-56.994c0-11.221-0.702-18.613-2.103-22.174c-1.08-2.695-3.347-5.016-6.798-6.959
	c-4.641-2.589-10.15-3.883-15.331-3.883H192V192h96v5.989h-7.768c-5.18,0-10.091,1.241-14.729,3.722
	c-3.454,1.726-5.802,4.344-7.04,7.849c-1.241,3.508-1.861,10.657-1.861,28.29V384c0,4.271,0.7,11.607,2.103,15.168
	c1.079,2.698,3.291,5.018,6.637,6.959c4.746,2.589,9.71,3.885,14.89,3.885H288V416h-96v-5.988h7.768
	c8.955,0,16.084-2.644,20.186-7.931c2.696-3.453,4.046-11.76,4.046-24.926V304h-95.561v73.155c0,11.116,0.7,18.451,2.104,22.012
	c1.077,2.698,3.342,5.018,6.798,6.959c4.638,2.589,9.549,3.885,14.728,3.885H160V416H64v-5.988h7.768
	c9.064,0,16.245-2.644,20.347-7.931C94.704,398.629,96,390.321,96,384V237.85c0-18.065-0.704-25.457-2.104-29.018
	c-1.08-2.695-3.293-5.016-6.635-6.959c-4.75-2.589-10.313-3.883-15.492-3.883H64V192h96v5.989h-7.931
	c-5.179,0-10.09,1.241-14.728,3.722c-3.346,1.726-5.665,4.344-6.959,7.849c-1.296,3.508-1.943,10.657-1.943,21.445V288z M448,192
	l-12.622,27.594h-66.023l-14.402,29.542c28.588,4.22,51.243,14.881,67.965,31.977c14.348,14.718,21.522,32.032,21.522,51.942
	c0,11.58-2.343,22.293-7.036,32.139c-4.693,9.849-10.602,18.235-17.722,25.159c-7.12,6.927-15.049,12.499-23.788,16.719
	c-12.406,5.95-25.136,8.928-38.19,8.928c-13.161,0-22.733-2.247-28.72-6.736S320,399.824,320,394.412
	c0-3.028,1.241-5.707,3.722-8.035c2.481-2.325,5.61-3.49,9.386-3.49c2.805,0,5.262,0.434,7.366,1.299
	c2.104,0.867,5.688,3.084,10.758,6.655c8.091,5.629,16.29,8.441,24.597,8.441c12.622,0,23.71-4.788,33.257-14.365
	c9.547-9.577,14.318-21.235,14.318-34.98c0-13.31-4.261-25.728-12.784-37.252c-8.523-11.525-20.281-20.424-35.277-26.701
	c-11.759-4.87-27.779-7.682-48.061-8.441L369.355,192H448z M512,96H0v32h512V96z"/>
</svg>
