<?xml version="1.0" encoding="utf-8"?>
<!-- Generator: Adobe Illustrator 19.2.1, SVG Export Plug-In . SVG Version: 6.00 Build 0)  -->
<svg version="1.1" id="Layer_1" xmlns="http://www.w3.org/2000/svg" xmlns:xlink="http://www.w3.org/1999/xlink" x="0px" y="0px"
	 viewBox="0 0 512 512" enable-background="new 0 0 512 512" xml:space="preserve">
<path fill-rule="evenodd" clip-rule="evenodd" d="M224,432c0-5.1,0.8-10.1,2.3-14.7C232.5,398,250.6,384,272,384h51.3H336
	c-1.5-1.9-3-3.8-4.6-5.6C316.8,362.2,295.6,352,272,352c-12.2,0-23.8,2.7-34.1,7.6c-4.4,2.1-8.6,4.6-12.5,7.4
	c-16.4,11.8-28.2,29.7-32,50.4c-0.9,4.7-1.4,9.6-1.4,14.6c0,44.2,35.8,80,80,80c26.2,0,49.4-12.6,64-32h-64
	C245.5,480,224,458.5,224,432z M432,352c-26.2,0-49.4,12.6-64,32h64c26.5,0,48,21.5,48,48c0,26.5-21.5,48-48,48h-64
	c14.6,19.4,37.8,32,64,32c44.2,0,80-35.8,80-80C512,387.8,476.2,352,432,352z M432,416h-78.4h-3.2H272c-8.8,0-16,7.2-16,16
	s7.2,16,16,16h78.4h3.2H432c8.8,0,16-7.2,16-16S440.8,416,432,416z M32,0C14.3,0,0,14.3,0,32v256c0,17.7,14.3,32,32,32h384
	c17.7,0,32-14.3,32-32V32c0-17.7-14.3-32-32-32L32,0z M55.7,32L224,200.3L392.3,32c11,2.9,19.7,11.6,22.6,22.6L310.6,158.9
	l104.3,104.3c-2.9,11-11.6,19.7-22.6,22.6L288,181.5l-64,64l-64-64L55.7,285.8c-11-2.9-19.7-11.6-22.6-22.6l104.3-104.3L33.1,54.6
	C36,43.6,44.7,34.9,55.7,32z"/>
</svg>
