<?xml version="1.0" encoding="utf-8"?>
<!-- Generator: Adobe Illustrator 19.2.1, SVG Export Plug-In . SVG Version: 6.00 Build 0)  -->
<svg version="1.1" id="Layer_1" xmlns="http://www.w3.org/2000/svg" xmlns:xlink="http://www.w3.org/1999/xlink" x="0px" y="0px"
	 viewBox="0 0 512 512" enable-background="new 0 0 512 512" xml:space="preserve">
<path d="M304,160c26.5,0,48,21.5,48,48s-21.5,48-48,48s-48-21.5-48-48S277.5,160,304,160z M271.4,319.4L176,224L64,336V96.1
	c0,0,0,0,0.1-0.1H448c0,0,0,0,0.1,0.1l0,63.9H480V96c0-17.6-14.4-32-32-32H64c-17.6,0-32,14.4-32,32v320c0,17.6,14.4,32,32,32h0.1
	H192v-47.5L271.4,319.4z M460.4,311.5L290.7,480H224v-66.7l168.5-169.7L460.4,311.5z M415.1,311.5l-22.6-22.6L256.7,424.7l22.6,22.6
	L415.1,311.5z M480,337.1L480,337.1L480,337.1L480,337.1z M447.9,448L447.9,448c17.7,0,32.1-14.4,32.1-32v-78.9L369.1,448H447.9z
	 M502.7,224L480,201.3c-12.4-12.4-32.8-12.4-45.3,0L412.2,224l67.9,67.9l22.6-22.6C515.1,256.8,515.1,236.4,502.7,224z"/>
</svg>
