<?xml version="1.0" encoding="utf-8"?>
<!-- Generator: Adobe Illustrator 19.2.1, SVG Export Plug-In . SVG Version: 6.00 Build 0)  -->
<svg version="1.1" id="Layer_1" xmlns="http://www.w3.org/2000/svg" xmlns:xlink="http://www.w3.org/1999/xlink" x="0px" y="0px"
	 viewBox="0 0 512 512" enable-background="new 0 0 512 512" xml:space="preserve">
<path d="M192,384V128l192,128L192,384z M224,64.7V0C108.2,14.4,14.4,108.2,0,224h64.7C78.2,143.7,143.7,78.2,224,64.7z M288,447.3
	V512c115.8-14.4,209.6-108.2,224-224h-64.7C433.8,368.3,368.3,433.8,288,447.3z M64.7,288H0c14.4,115.8,108.2,209.6,224,224v-64.7
	C143.7,433.8,78.2,368.3,64.7,288z M447.3,224H512C497.6,108.2,403.8,14.4,288,0v64.7C368.3,78.2,433.8,143.7,447.3,224z"/>
</svg>
