<?xml version="1.0" encoding="utf-8"?>
<!-- Generator: Adobe Illustrator 19.2.1, SVG Export Plug-In . SVG Version: 6.00 Build 0)  -->
<svg version="1.1" id="Layer_1" xmlns="http://www.w3.org/2000/svg" xmlns:xlink="http://www.w3.org/1999/xlink" x="0px" y="0px"
	 viewBox="0 0 512 512" enable-background="new 0 0 512 512" xml:space="preserve">
<path d="M352,64h32L160,448h-32L352,64z M368,224c-44.2,0-80,50.1-80,112s35.8,112,80,112s80-50.1,80-112S412.2,224,368,224z
	 M368,416c-22.7,0-48-32.9-48-80s25.3-80,48-80s48,32.9,48,80S390.7,416,368,416z M144,64c-44.2,0-80,50.1-80,112s35.8,112,80,112
	s80-50.1,80-112S188.2,64,144,64z M144,256c-22.7,0-48-32.9-48-80s25.3-80,48-80s48,32.9,48,80S166.7,256,144,256z"/>
</svg>
