<?xml version="1.0" encoding="utf-8"?>
<!-- Generator: Adobe Illustrator 19.2.1, SVG Export Plug-In . SVG Version: 6.00 Build 0)  -->
<svg version="1.1" id="Layer_1" xmlns="http://www.w3.org/2000/svg" xmlns:xlink="http://www.w3.org/1999/xlink" x="0px" y="0px"
	 viewBox="0 0 512 512" enable-background="new 0 0 512 512" xml:space="preserve">
<path d="M32,448h416V32H32V448z M64,96l64,64H64V96z M160,64l96,96h-64L96,64H160z M288,64l96,96h-64l-96-96H288z M416,128l-64-64
	h64V128z M320,288v-96h96v96H320z M192,288v-96h96v96H192z M160,288H64v-96h96V288z M320,416v-96h96v96H320z M192,416v-96h96v96H192
	z M64,416v-96h96v96H64z"/>
</svg>
