<?xml version="1.0" encoding="utf-8"?>
<!-- Generator: Adobe Illustrator 19.2.1, SVG Export Plug-In . SVG Version: 6.00 Build 0)  -->
<svg version="1.1" id="Layer_1" xmlns="http://www.w3.org/2000/svg" xmlns:xlink="http://www.w3.org/1999/xlink" x="0px" y="0px"
	 viewBox="0 0 512 512" enable-background="new 0 0 512 512" xml:space="preserve">
<path d="M256,0L0,256l256,256l256-256L256,0z M180.2,323.6c-21.5,0-40.3-6.3-51.8-13.6V277c14.4,10.7,32.7,17.8,51.2,17.8
	c16.2,0,28.5-5,28.5-17.5c0-10.5-6.8-14.4-18.8-18.8l-23.5-7.9c-23.8-7.9-39.5-20.2-39.5-46.8c0-29.8,25.6-46,57-46
	c19.6,0,35.6,4.7,48.6,12.5v32.7c-13.8-10.2-29-16.7-47.6-16.7c-14.4,0-25.4,4.9-25.4,15.9c0,9.9,6.5,13.8,17.8,17.5l25.1,8.6
	c27,9.2,39.2,23.8,39.2,47.6C241.2,307.7,214.3,323.6,180.2,323.6z M275.7,320V160H308v128h76v32L275.7,320L275.7,320z"/>
</svg>
