<?xml version="1.0" encoding="utf-8"?>
<!-- Generator: Adobe Illustrator 19.2.1, SVG Export Plug-In . SVG Version: 6.00 Build 0)  -->
<svg version="1.1" id="Layer_1" xmlns="http://www.w3.org/2000/svg" xmlns:xlink="http://www.w3.org/1999/xlink" x="0px" y="0px"
	 viewBox="0 0 512 512" enable-background="new 0 0 512 512" xml:space="preserve">
<path fill="#020202" d="M113.2,206.2c-7.4,6.2-15.6,10.7-24.6,13.5s-19.3,4.2-31,4.2c-8.4,0-16.1-1-23.1-2.9s-13.1-4.9-18.2-8.8
	c-5.1-3.9-9.1-8.8-12-14.6C1.4,192,0,185.2,0,177.5c0-18.9,8.1-32.9,24.4-41.9s40.9-13.5,74-13.5h13.7c0-2.6,0-5.3-0.1-8.2
	c-0.1-2.9-0.3-5.4-0.7-7.6c-0.8-7.6-3.5-13.2-8-17c-4.5-3.7-11.8-5.6-21.7-5.6c-10.4,0-18.1,1.9-23.3,5.8s-7.8,9.5-7.8,16.8H7
	c2.4-32.7,27.8-49,76.3-49c6.6,0,12.6,0.2,17.9,0.6c5.3,0.4,10.2,1.1,14.6,2c4.4,1,8.6,2.2,12.5,3.7c3.9,1.5,7.6,3.4,11.4,5.7
	c3.5,2.2,6.4,4.7,9,7.4c2.5,2.8,4.6,6.1,6.4,9.9c1.7,3.9,3,8.3,3.8,13.3s1.2,10.8,1.2,17.4V224h-46.8L113.2,206.2L113.2,206.2z
	 M112.2,148.2H96.8c-16.2,0-28.4,2-36.5,5.9s-12.2,10.6-12.2,20.2c0,7.3,2.5,12.7,7.5,16.2s11.5,5.2,19.4,5.2
	c7.6,0,14.6-1.5,21.2-4.5s11.9-6.9,15.8-11.7v-31.3H112.2z M237.4,86.6c5.5-7.2,12.3-12.8,20.2-16.7C265.5,66,274,64,283.1,64
	c10.2,0,19.2,1.9,26.8,5.7c7.7,3.8,14.1,9.2,19.3,16.3c5.2,7.1,9.1,15.7,11.7,25.9s4,21.6,4,34.3s-1.2,19-4.3,29.4
	c-3,10.4-7.6,17.9-13.3,25.2c-5.7,7.3-12.6,13-20.7,17.1s-17.3,6.1-27.5,6.1c-17.5,0-31.9-5.2-43.3-15.6V224H192V0h45.4V86.6z
	 M237.4,178.3c4.4,4.1,9.1,7.2,14.1,9.4c5,2.1,10.5,3.2,16.5,3.2c9.8,0,17.4-4.3,22.7-12.8c5.3-8.6,7.9-14.7,7.9-31.8
	c0-32.7-9.6-49-28.7-49c-6.2,0-12,1.9-17.4,5.6s-10.5,9-15.1,15.8V178.3z M442.2,224c-12.4,0-23.4-1.8-33.3-5.4
	c-9.8-3.6-18.1-8.8-25-15.6c-6.8-6.8-12-15.2-15.7-25.1c-3.7-9.9-5.5-21.3-5.5-34s1.8-24,5.5-33.9s8.9-18.2,15.9-25.1
	c6.9-6.9,15.3-12.1,25.2-15.6c9.9-3.6,21.1-5.4,33.6-5.4c20,0,36,4.7,48,14.1s19,23,21,40.9h-41c-1-7-3.9-12.7-8.8-16.9
	c-4.9-4.2-11.2-6.3-19.2-6.3c-10.2,0-18.4,3.9-24.5,11.6s-9.2,19.9-9.2,36.6c0,16.5,3.1,28.7,9.2,36.5s14.3,11.7,24.5,11.7
	c7.9,0,14.4-2.1,19.3-6.3s7.8-9.8,8.7-16.9h41c-2.5,17.7-9.7,31.2-21.5,40.7C478.8,219.2,462.7,224,442.2,224z M512,224L224,512
	L64,352l64-64l96,96L512,224L512,224"/>
</svg>
