<?xml version="1.0" encoding="utf-8"?>
<!-- Generator: Adobe Illustrator 19.2.1, SVG Export Plug-In . SVG Version: 6.00 Build 0)  -->
<svg version="1.1" id="Layer_1" xmlns="http://www.w3.org/2000/svg" xmlns:xlink="http://www.w3.org/1999/xlink" x="0px" y="0px"
	 viewBox="0 0 512 512" enable-background="new 0 0 512 512" xml:space="preserve">
<path d="M0,288v224h416V288H0z M144.7,353.9c-9.7-6.2-20.7-9.3-33.1-9.3c-13.6,0-24.5,4.6-32.9,13.7c-8.3,9.1-12.5,21.5-12.5,37.1
	c0,15,3.9,26.9,11.8,35.8c7.9,8.9,18.4,13.3,31.7,13.3c12.7,0,24.3-3.3,34.9-9.9v31.8c-10.5,5.5-24.3,8.2-41.3,8.2
	c-22.2,0-39.6-7-52.3-20.9c-12.7-14-19-32.5-19-55.8c0-24.7,7.1-44.8,21.4-60.2c14.3-15.4,32.8-23.1,55.6-23.1
	c14.1,0,26,1.9,35.7,5.7V353.9z M260.6,450.2c-3.1,5.9-7.2,10.6-12.4,14.2c-5.2,3.6-11.3,6.2-18.3,7.8c-7,1.6-14.3,2.4-22,2.4
	c-7.9,0-15.5-0.7-22.6-2.2c-7.2-1.4-13.4-3.6-18.6-6.5v-34.5c5.8,5.3,12.2,9.2,19,11.8c6.9,2.6,13.8,3.9,20.8,3.9
	c4.1,0,7.7-0.4,10.7-1.2c3.1-0.8,5.6-1.9,7.7-3.3c2-1.4,3.6-3.1,4.6-5c1-1.9,1.5-4,1.5-6.2c0-3-0.8-5.7-2.4-8.1
	c-1.6-2.4-3.8-4.6-6.6-6.6c-2.8-2-6.1-4-9.9-5.8c-3.8-1.9-8-3.8-12.4-5.7c-11.3-5-19.7-11.2-25.2-18.5c-5.5-7.3-8.3-16-8.3-26.3
	c0-8.1,1.5-15,4.5-20.8c3-5.8,7.1-10.6,12.3-14.3c5.2-3.7,11.2-6.5,18.1-8.3c6.9-1.8,14.1-2.6,21.8-2.6c7.5,0,14.2,0.5,20,1.5
	c5.8,1,11.2,2.5,16.1,4.5v32.3c-2.4-1.8-5.1-3.4-7.9-4.7c-2.9-1.4-5.8-2.5-8.8-3.4c-3-0.9-6-1.6-9-2c-3-0.4-5.8-0.6-8.5-0.6
	c-3.7,0-7.1,0.4-10.1,1.1c-3,0.8-5.6,1.8-7.7,3.2c-2.1,1.4-3.7,3-4.8,4.9c-1.1,1.9-1.7,4-1.7,6.4c0,2.6,0.6,4.9,1.9,7
	c1.3,2.1,3.1,4,5.4,5.8c2.3,1.8,5.2,3.6,8.6,5.4c3.4,1.8,7.2,3.6,11.4,5.5c5.8,2.6,11,5.3,15.6,8.3c4.6,2.9,8.6,6.2,11.8,9.9
	c3.3,3.7,5.8,7.9,7.6,12.6c1.7,4.7,2.6,10.2,2.6,16.4C265.2,437.1,263.6,444.4,260.6,450.2z M379.4,450.2
	c-3.1,5.9-7.2,10.6-12.4,14.2c-5.2,3.6-11.3,6.2-18.3,7.8c-7,1.6-14.3,2.4-22,2.4c-7.9,0-15.5-0.7-22.6-2.2
	c-7.2-1.4-13.4-3.6-18.6-6.5v-34.5c5.8,5.3,12.2,9.2,19,11.8c6.9,2.6,13.8,3.9,20.8,3.9c4.1,0,7.7-0.4,10.7-1.2
	c3.1-0.8,5.6-1.9,7.7-3.3c2-1.4,3.6-3.1,4.6-5c1-1.9,1.5-4,1.5-6.2c0-3-0.8-5.7-2.4-8.1c-1.6-2.4-3.8-4.6-6.6-6.6
	c-2.8-2-6.1-4-9.9-5.8c-3.8-1.9-8-3.8-12.4-5.7c-11.3-5-19.7-11.2-25.2-18.5c-5.5-7.3-8.3-16-8.3-26.3c0-8.1,1.5-15,4.5-20.8
	c3-5.8,7.1-10.6,12.3-14.3c5.2-3.7,11.2-6.5,18.1-8.3c6.9-1.8,14.1-2.6,21.8-2.6c7.5,0,14.2,0.5,20,1.5c5.8,1,11.2,2.5,16.1,4.5
	v32.3c-2.4-1.8-5.1-3.4-7.9-4.7c-2.9-1.4-5.8-2.5-8.8-3.4c-3-0.9-6-1.6-9-2c-3-0.4-5.8-0.6-8.5-0.6c-3.7,0-7.1,0.4-10.1,1.1
	c-3,0.8-5.6,1.8-7.7,3.2c-2.1,1.4-3.7,3-4.8,4.9c-1.1,1.9-1.7,4-1.7,6.4c0,2.6,0.6,4.9,1.9,7c1.3,2.1,3.1,4,5.4,5.8
	c2.4,1.8,5.2,3.6,8.6,5.4c3.4,1.8,7.2,3.6,11.4,5.5c5.8,2.6,11,5.3,15.6,8.3c4.6,2.9,8.5,6.2,11.8,9.9c3.3,3.7,5.8,7.9,7.6,12.6
	c1.7,4.7,2.6,10.2,2.6,16.4C384,437.1,382.5,444.4,379.4,450.2z M502.7,32L480,9.3c-12.4-12.4-32.8-12.4-45.3,0l-67.9,67.9
	l-22.6-22.6c-12.4-12.4-32.8-12.4-45.3,0l-22.6,22.6l158.4,158.4l22.6-22.6c12.4-12.4,12.4-32.8,0-45.3l-22.6-22.6l67.9-67.9
	C515.1,64.8,515.1,44.4,502.7,32z M255.8,101.9c-12.4-12.4-32.8-12.4-45.3,0l-79.7,79.7c-12.4,12.4-32.8,12.4-45.3,0L160,256h249.9
	L255.8,101.9z"/>
</svg>
