<?xml version="1.0" encoding="utf-8"?>
<!-- Generator: Adobe Illustrator 19.2.1, SVG Export Plug-In . SVG Version: 6.00 Build 0)  -->
<svg version="1.1" id="Layer_1" xmlns="http://www.w3.org/2000/svg" xmlns:xlink="http://www.w3.org/1999/xlink" x="0px" y="0px"
	 viewBox="0 0 512 512" enable-background="new 0 0 512 512" xml:space="preserve">
<path d="M502.666,31.961L480.039,9.334c-12.445-12.445-32.81-12.445-45.255,0l-67.882,67.882l-22.627-22.627
	c-12.445-12.445-32.81-12.445-45.255,0l-22.627,22.627l158.392,158.392l22.627-22.627c12.445-12.445,12.445-32.81,0-45.255
	l-22.627-22.627l67.882-67.882C515.111,64.771,515.111,44.406,502.666,31.961z M255.818,101.897
	c-12.445-12.445-32.81-12.445-45.255,0l-79.706,79.706c-12.445,12.445-32.81,12.445-45.255,0L160,256h249.921L255.818,101.897z
	 M176,348.121L200.706,416h-49.412L176,348.121z M0,288v224h352V288H0z M224,480l-11.647-32h-72.706L128,480H96l58.235-160h43.53
	L256,480H224z"/>
</svg>
