<?xml version="1.0" encoding="utf-8"?>
<!-- Generator: Adobe Illustrator 19.2.1, SVG Export Plug-In . SVG Version: 6.00 Build 0)  -->
<svg version="1.1" id="Layer_1" xmlns="http://www.w3.org/2000/svg" xmlns:xlink="http://www.w3.org/1999/xlink" x="0px" y="0px"
	 viewBox="0 0 512 512" enable-background="new 0 0 512 512" xml:space="preserve">
<path d="M127.941,288.001L128,288l-0.059-160H160V80c0-8.836,7.164-16,16-16h32c8.836,0,16,7.164,16,16v48h64V80
	c0-8.836,7.164-16,16-16h32c8.836,0,16,7.164,16,16v48h31.996L384,288L127.941,288.001z M96,320v-48c0-8.836-7.164-16-16-16H48
	c-8.836,0-16,7.164-16,16v48H0v128h224V320H96z M480,320v-48c0-8.836-7.164-16-16-16h-32c-8.836,0-16,7.164-16,16v48H288v128h224
	V320H480z"/>
</svg>
