<?xml version="1.0" encoding="utf-8"?>
<!-- Generator: Adobe Illustrator 19.2.1, SVG Export Plug-In . SVG Version: 6.00 Build 0)  -->
<svg version="1.1" id="Layer_1" xmlns="http://www.w3.org/2000/svg" xmlns:xlink="http://www.w3.org/1999/xlink" x="0px" y="0px"
	 viewBox="0 0 512 512" enable-background="new 0 0 512 512" xml:space="preserve">
<path d="M198.6,304l89.4,89.4L265.4,416L176,326.6L86.6,416L64,393.4l89.4-89.4L64,214.6L86.6,192l89.4,89.4l89.4-89.4l22.6,22.6
	L198.6,304z M366.3,448h81.4v32H320v-11.9c0-8,1.7-15.3,5-21.7c3.3-6.4,7.5-12.1,12.5-17.2c5-5.1,10.5-9.6,16.4-13.5
	c5.9-3.9,11.6-7.4,16.9-10.6c5.6-3.3,10.6-6.4,14.8-9.4c4.2-3,7.8-6,10.7-8.9c2.9-3,5.1-6,6.5-9c1.4-3,2.1-6.3,2.1-9.7
	c0-6.7-2.3-11.8-7-15.3c-4.6-3.4-11.7-5.2-21.3-5.2c-16.5,0-32.3,5.4-47.4,16.1v-30.5c16.7-8.9,35.5-13.3,56.5-13.3
	c9.7,0,18.5,1,26.2,3.1c7.7,2.1,14.3,5.1,19.6,8.9c5.4,3.9,9.4,8.6,12.3,14.1c2.8,5.5,4.2,11.7,4.2,18.5c0,7.2-1.4,13.7-4.1,19.3
	c-2.7,5.6-6.3,10.8-10.8,15.4c-4.5,4.6-9.7,8.8-15.6,12.7c-5.9,3.8-12,7.6-18.3,11.1c-4.3,2.5-8.4,5-12.4,7.4
	c-4,2.5-7.5,4.9-10.5,7.2C373.2,440.2,369.2,444.2,366.3,448z"/>
</svg>
