<?xml version="1.0" encoding="utf-8"?>
<!-- Generator: Adobe Illustrator 19.2.1, SVG Export Plug-In . SVG Version: 6.00 Build 0)  -->
<svg version="1.1" id="Layer_1" xmlns="http://www.w3.org/2000/svg" xmlns:xlink="http://www.w3.org/1999/xlink" x="0px" y="0px"
	 viewBox="0 0 512 512" enable-background="new 0 0 512 512" xml:space="preserve">
<path d="M192,288v224h128V288H192z M192,0v64h128V0L192,0z M352,32h128v416H352V32z M448,320h-64v96h64V320z M448,192h-64v96h64V192
	z M448,64h-64v96h64V64z M32,32h128v416H32V32z M128,320H64v96h64V320z M128,192H64v96h64V192z M128,64H64v96h64V64z M256,153.373
	L313.373,96L336,118.627L278.627,176L336,233.373L313.373,256L256,198.627L198.627,256L176,233.373L233.373,176L176,118.627
	L198.627,96L256,153.373z"/>
</svg>
