<?xml version="1.0" encoding="utf-8"?>
<!-- Generator: Adobe Illustrator 20.1.0, SVG Export Plug-In . SVG Version: 6.00 Build 0)  -->
<svg version="1.1" id="Layer_1" xmlns="http://www.w3.org/2000/svg" xmlns:xlink="http://www.w3.org/1999/xlink" x="0px" y="0px"
	 viewBox="0 0 512 512" enable-background="new 0 0 512 512" xml:space="preserve">
<path d="M502.666,77.216l-22.627,22.627l-67.882-67.882l22.627-22.627c12.445-12.445,32.81-12.445,45.255,0l22.627,22.627
	C515.111,44.406,515.111,64.771,502.666,77.216z M384,256l32-32v288H0V96h288l-32,32h-96v96h32v96h96v32h96V256z M128,384H32v96h96
	V384z M128,256H32v96h96V256z M128,128H32v96h96V128z M256,384h-96v96h96V384z M384,384h-96v96h96V384z M392.483,51.635
	l67.882,67.882L318.777,261.105L290.66,288H224v-66.66l26.895-28.118L392.483,51.635z M415.11,119.517L392.483,96.89
	L256.719,232.654l11.314,11.314l11.314,11.314L415.11,119.517z"/>
</svg>
