<?xml version="1.0" encoding="utf-8"?>
<!-- Generator: Adobe Illustrator 19.2.1, SVG Export Plug-In . SVG Version: 6.00 Build 0)  -->
<svg version="1.1" id="Layer_1" xmlns="http://www.w3.org/2000/svg" xmlns:xlink="http://www.w3.org/1999/xlink" x="0px" y="0px"
	 viewBox="0 0 512 512" enable-background="new 0 0 512 512" xml:space="preserve">
<path d="M32,32v416h416V32H32z M416,160h-64v32h64v96h-64v32h64v96h-96v-64h-32v64h-96v-64h-32v64H64v-96h64v-32H64v-96h64v-32H64
	V64h96v64h32V64h96v64h32V64h96V160z M262.6,240l57.4,57.4L297.4,320L240,262.6L182.6,320L160,297.4l57.4-57.4L160,182.6l22.6-22.6
	l57.4,57.4l57.4-57.4l22.6,22.6L262.6,240z"/>
</svg>
