<?xml version="1.0" encoding="utf-8"?>
<!-- Generator: Adobe Illustrator 19.2.1, SVG Export Plug-In . SVG Version: 6.00 Build 0)  -->
<svg version="1.1" id="Layer_1" xmlns="http://www.w3.org/2000/svg" xmlns:xlink="http://www.w3.org/1999/xlink" x="0px" y="0px"
	 viewBox="0 0 512 512" enable-background="new 0 0 512 512" xml:space="preserve">
<path d="M376.994,292.18c-5.665,5.478-7.445,6.651-7.681,6.794c-0.157,0.087-0.368,0.173-0.926,0.159
	c-0.104-0.227-0.3-0.745-0.483-1.751c-0.182-1.004-0.487-4.376-0.487-15.671v-31.645c0-9.77-0.71-15.949-2.237-19.442
	c-2.326-5.328-6.047-9.313-11.062-11.844c-6.079-3.053-13.819-4.601-23.006-4.601c-12.118,0-21.757,2.774-28.651,8.246
	c-7.14,5.667-10.761,12.1-10.761,19.118c0,4.05,1.187,7.365,3.528,9.854c2.478,2.627,5.651,3.96,9.433,3.96
	c3.814,0,7.091-1.306,9.457-3.759c2.386-2.41,3.594-5.773,3.591-10.07l-0.224-5.755c0-1.843,0.856-3.449,2.707-5.067
	c1.818-1.618,4.359-2.405,7.768-2.405c4.6,0,7.943,1.248,10.219,3.817c1.638,1.848,3.59,6.227,3.59,16.594v0.931
	c-15.652,5.607-26.647,10.261-33.582,14.217c-7.834,4.469-13.213,9.173-16.439,14.366c-2.487,3.933-3.748,8.591-3.748,13.845
	c0,8.202,2.556,14.962,7.591,20.084c5.066,5.207,11.623,7.847,19.486,7.847c4.897,0,9.556-0.979,13.853-2.91
	c2.256-1.021,6.606-3.89,13.585-8.968c0.7,2.92,1.87,5.209,3.541,6.941c2.842,3.159,6.636,4.762,11.277,4.762
	c8.535,0,17.236-5.668,25.862-16.847l0.804-1.044v-16.529L376.994,292.18z M341.724,292.222c-8.945,6.681-14.12,8.107-16.889,8.107
	l-0.119-0.001c-2.771,0-5.113-1.128-7.381-3.56c-2.295-2.429-3.459-5.628-3.459-9.507c0-3.037,0.92-5.782,2.793-8.367
	c2.12-2.832,5.689-5.6,10.629-8.234c2.354-1.292,7.2-3.385,14.426-6.233V292.222z M244.075,304.059
	c-1.258-1.421-3.954-5.631-7.879-17.858L195.713,160h-7.795l-40.967,124.914c-4.096,12.708-7.029,17.911-8.785,20.057
	c-0.313,0.393-1.767,1.772-7.36,3.051L128,308.664V320h42.846v-11.766l-3.226-0.278c-6.652-0.573-8.389-2.034-8.67-2.322
	c-0.912-0.934-1.318-1.855-1.318-2.989c0-1.567,0.46-4.833,2.65-11.497l5.348-16.224h42.34l4.583,14.047
	c2.586,8.094,3.129,12.007,3.129,13.863c0,1.27-0.39,2.244-1.266,3.157c-0.351,0.366-1.899,1.588-7.058,1.911l-3.297,0.206v11.844
	H256v-11.781l-3.241-0.266C248.929,307.595,246.089,306.337,244.075,304.059z M172.452,254.133l14.726-44.6l14.351,44.6H172.452z
	 M352,32H96c-17.7,0-32,14.3-32,32v384c0,17.7,14.3,32,32,32h320c17.7,0,32-14.3,32-32V128L352,32z M416,448H96V64h224v96h96V448z
	 M192,416h-64v-64h64V416z M288,416h-64v-64h64V416z M384,416h-64v-64h64V416z"/>
</svg>
