<?xml version="1.0" encoding="utf-8"?>
<!-- Generator: Adobe Illustrator 19.2.1, SVG Export Plug-In . SVG Version: 6.00 Build 0)  -->
<svg version="1.1" id="Layer_1" xmlns="http://www.w3.org/2000/svg" xmlns:xlink="http://www.w3.org/1999/xlink" x="0px" y="0px"
	 viewBox="0 0 512 512" enable-background="new 0 0 512 512" xml:space="preserve">
<path d="M0,160h32v64H0V160z M0,128h32V64H0V128z M0,416h32v-64H0V416z M160,512h64v-32h-64V512z M64,512h64v-32H64V512z M352,0h-64
	v32h64V0z M256,0h-64v32h64V0z M0,512h32v-64H0V512z M448,0h-64v32h64V0z M160,0H96v32h64V0z M64,0H0v32h64V0z M0,320h32v-64H0V320z
	 M480,448h32v-64h-32V448z M480,351.9h32V288h-32V351.9z M480,256h32v-64h-32V256z M480,160h32V96h-32V160z M480,0v64h32V0H480z
	 M448,512h64v-32h-64V512z M256,512h64v-32h-64V512z M352,512h64v-32h-64V512z M346.7,346.6c-7.5,3.6-15.7,5.4-24.5,5.4
	c-15.7,0-29.1-5-40-14.8V352H256V160h26.2v60.1c11.5-13.6,25.3-20.5,41.7-20.5c9.5,0,18,1.7,25.5,5.2c7.3,3.6,13.7,8.6,18.7,15
	c5.2,6.6,9.1,14.5,11.8,23.8c2.7,9.2,4,19.5,4,31c0,11.8-1.6,22.5-4.6,32.1c-3.2,9.5-7.5,17.6-13,24.4
	C360.8,337.7,354.3,342.8,346.7,346.6z M357.2,274.6c0-18.1-3.2-31.8-9.3-41c-6.2-9.3-14.8-13.9-26.2-13.9
	c-14.4,0-27.5,8.3-39.4,24.9v69.1c11.1,11.9,23.9,17.8,38.4,17.8c11.2,0,20.2-4.7,26.8-14.2C353.9,307.9,357.2,293.5,357.2,274.6z
	 M224,253.5v97.8h-26.1v-17.9c-13.5,12.4-30.8,18.6-51.7,18.6c-7.3,0-13.9-1-20-3.2c-6.2-2-11.6-4.9-16-8.7
	c-4.5-3.8-8-8.1-10.4-13.4c-2.5-5.2-3.8-10.8-3.8-17.2c0-34.2,29.8-51.4,89.1-51.4h12.8c0-5.3,0-10-0.1-13.6
	c-0.3-3.8-0.7-6.8-1.4-9.4c-0.7-2.6-1.7-4.8-3.2-6.6c-1.6-1.7-3.6-3.5-6.2-5.1c-5.2-3.2-13.4-4.8-24.4-4.8c-23.2,0-35.3,8.2-36,25
	h-26.1c1.9-30.2,23.1-45.2,63.6-45.2c18.9,0,33.5,3.6,44.1,11.1C218.6,216.9,224,231.5,224,253.5z M197.9,277.3h-18
	c-38,0-56.9,10.3-56.9,30.9c0,7.4,2.8,13.1,8.3,17.2c5.5,3.9,12.9,5.9,22.5,5.9c4.2,0,8.6-0.4,12.8-1.4c4.2-1,8.3-2.5,12.2-4.3
	c3.9-1.9,7.5-4.2,10.7-6.8c3.3-2.7,6.1-5.6,8.4-9V277.3z M448,64h-32v384h32V64z"/>
</svg>
