<?xml version="1.0" encoding="utf-8"?>
<!-- Generator: Adobe Illustrator 19.2.1, SVG Export Plug-In . SVG Version: 6.00 Build 0)  -->
<svg version="1.1" id="Layer_1" xmlns="http://www.w3.org/2000/svg" xmlns:xlink="http://www.w3.org/1999/xlink" x="0px" y="0px"
	 viewBox="0 0 512 512" enable-background="new 0 0 512 512" xml:space="preserve">
<path d="M448,32H64c-17.6,0-32,14.4-32,32v288c0,17.6,14.4,32,32,32h384c17.6,0,32-14.4,32-32V64C480,46.4,465.6,32,448,32z
	 M448,351.942c-0.017,0.02-0.038,0.041-0.058,0.058H64.058c-0.02-0.017-0.041-0.037-0.058-0.058V64.057
	c0.017-0.02,0.038-0.041,0.057-0.057h383.885c0.02,0.017,0.041,0.038,0.058,0.057V351.942z M384,480H128c35.346,0,64-28.654,64-64
	h128C320,451.346,348.654,480,384,480z M416,320H96c58.263-113.973,183.21-192,320-192V320z"/>
</svg>
