<?xml version="1.0" encoding="utf-8"?>
<!-- Generator: Adobe Illustrator 19.2.1, SVG Export Plug-In . SVG Version: 6.00 Build 0)  -->
<svg version="1.1" id="Layer_1" xmlns="http://www.w3.org/2000/svg" xmlns:xlink="http://www.w3.org/1999/xlink" x="0px" y="0px"
	 viewBox="0 0 512 512" enable-background="new 0 0 512 512" xml:space="preserve">
<path d="M502.7,173.3L480,195.8L412.2,128l22.6-22.6c12.4-12.4,32.8-12.4,45.3,0l22.6,22.6C515.1,140.4,515.1,160.8,502.7,173.3z
	 M392.5,147.6l67.9,67.9L318.8,357.1L290.7,384H224v-66.7l26.9-28.1L392.5,147.6z M415.1,215.5l-22.6-22.6L256.7,328.7L268,340
	l11.3,11.3L415.1,215.5z M160,320h32v-15.548V288h-32V320z M160,256h96v-32h-96V256z M288,160H160v32h128V160z M160,384h32v-32h-32
	V384z M416,448H96V64h224v96l80.11-79.89L352,32H96c-17.7,0-32,14.3-32,32v384c0,17.7,14.3,32,32,32h320c17.7,0,32-14.3,32-32
	V273.155l-32,32V448z"/>
</svg>
