<?xml version="1.0" encoding="utf-8"?>
<!-- Generator: Adobe Illustrator 16.0.3, SVG Export Plug-In . SVG Version: 6.00 Build 0)  -->
<!DOCTYPE svg PUBLIC "-//W3C//DTD SVG 1.1 Tiny//EN" "http://www.w3.org/Graphics/SVG/1.1/DTD/svg11-tiny.dtd">
<svg version="1.1" baseProfile="tiny" id="Layer_1" xmlns="http://www.w3.org/2000/svg" xmlns:xlink="http://www.w3.org/1999/xlink"
	 x="0px" y="0px" width="512px" height="512px" viewBox="0 0 512 512" xml:space="preserve">
<g>
	<polygon fill="#010101" points="96,128 96,96 128,96 160,96 192,96 192,64 64,64 64,192 96,192 96,160 	"/>
	<polygon fill="#010101" points="320,384 352,384 384,384 384,352 384,320 384,288 384,128 192,128 160,128 128,128 128,160 
		128,192 128,384 288,384 	"/>
	<polygon fill="#010101" points="416,320 416,352 416,384 416,416 384,416 352,416 320,416 320,448 448,448 448,320 	"/>
</g>
</svg>
