<?xml version="1.0" encoding="utf-8"?>
<!-- Generator: Adobe Illustrator 19.2.1, SVG Export Plug-In . SVG Version: 6.00 Build 0)  -->
<svg version="1.1" id="Layer_1" xmlns="http://www.w3.org/2000/svg" xmlns:xlink="http://www.w3.org/1999/xlink" x="0px" y="0px"
	 viewBox="0 0 512 512" enable-background="new 0 0 512 512" xml:space="preserve">
<path d="M304,160c26.5,0,48,21.5,48,48s-21.5,48-48,48s-48-21.5-48-48S277.5,160,304,160z M448,64H64c-17.6,0-32,14.4-32,32v320
	c0,17.6,14.4,32,32,32h0.1h383.8h0.1c17.6,0,32-14.4,32-32V96C480,78.4,465.6,64,448,64z M448,336l-64-64l-80,80L176,224L64,336
	V96.1c0,0,0,0,0.1-0.1H448c0,0,0,0,0.1,0.1L448,336z"/>
</svg>
