<?xml version="1.0" encoding="utf-8"?>
<!-- Generator: Adobe Illustrator 20.1.0, SVG Export Plug-In . SVG Version: 6.00 Build 0)  -->
<svg version="1.1" id="Layer_1" xmlns="http://www.w3.org/2000/svg" xmlns:xlink="http://www.w3.org/1999/xlink" x="0px" y="0px"
	 viewBox="0 0 512 512" style="enable-background:new 0 0 512 512;" xml:space="preserve">
<path d="M317.9,431l23.2,23.2C316.5,470.6,287.3,480,256,480c-88.4,0-160-75.2-160-168c0-27.8,7.2-56.4,18.6-84.2l24.8,24.8
	C131.9,274,128,293.9,128,312c0,75,57.4,136,128,136C278.4,448,299.5,441.8,317.9,431z M256,416v-32c-35.3,0-64-28.7-64-64h-32
	C160,373,203,416,256,416z M480,457.4L457.4,480L32,54.6L54.6,32l108.7,108.7C207,77.7,256,32,256,32s160,149.3,160,280
	c0,24.1-4.9,47.1-13.6,67.8L480,457.4z M384,312c0-46.3-25.3-104.7-73-169c-20-27-40.3-49.8-55-65.4c-14.7,15.6-34.9,38.5-55,65.4
	c-1.4,1.9-2.7,3.7-4.1,5.6c-0.8,1.1-1.5,2.1-2.3,3.2c-0.5,0.7-1,1.4-1.5,2.1c-1,1.4-2,2.8-3,4.2c-0.2,0.3-0.4,0.5-0.6,0.8
	c-1,1.5-2.1,3-3.1,4.5c-0.1,0.1-0.1,0.2-0.2,0.3l191.2,191.2c0,0,0,0,0,0c0.5-1.6,1-3.3,1.4-4.9c0-0.2,0.1-0.4,0.1-0.5
	c0.4-1.5,0.8-2.9,1.1-4.4c0.1-0.3,0.1-0.6,0.2-0.9c0.3-1.4,0.6-2.7,0.9-4.1c0.1-0.4,0.2-0.8,0.2-1.2c0.2-1.3,0.5-2.6,0.7-3.9
	c0.1-0.5,0.2-1,0.2-1.5c0.2-1.2,0.3-2.5,0.5-3.7c0.1-0.5,0.1-1.1,0.2-1.6c0.1-1.2,0.2-2.4,0.3-3.6c0-0.6,0.1-1.1,0.1-1.7
	c0.1-1.3,0.2-2.5,0.2-3.8c0-0.5,0.1-1,0.1-1.6C384,315.6,384,313.8,384,312z"/>
</svg>
