<?xml version="1.0" encoding="utf-8"?>
<!-- Generator: Adobe Illustrator 19.2.1, SVG Export Plug-In . SVG Version: 6.00 Build 0)  -->
<svg version="1.1" id="Layer_1" xmlns="http://www.w3.org/2000/svg" xmlns:xlink="http://www.w3.org/1999/xlink" x="0px" y="0px"
	 viewBox="0 0 512 512" enable-background="new 0 0 512 512" xml:space="preserve">
<path d="M480,96v32H285.3c-6.6,18.6-24.4,32-45.3,32s-38.7-13.4-45.3-32H32V96h162.7c6.6-18.6,24.4-32,45.3-32s38.7,13.4,45.3,32
	H480z M368,192c-20.9,0-38.7,13.4-45.3,32H32v32h290.7c6.6,18.6,24.4,32,45.3,32s38.7-13.4,45.3-32H480v-32h-66.7
	C406.7,205.4,388.9,192,368,192z M176,320c-20.9,0-38.7,13.4-45.3,32H32v32h98.7c6.6,18.6,24.4,32,45.3,32c20.9,0,38.7-13.4,45.3-32
	H480v-32H221.3C214.7,333.4,196.9,320,176,320z"/>
</svg>
