<?xml version="1.0" encoding="utf-8"?>
<!-- Generator: Adobe Illustrator 19.2.1, SVG Export Plug-In . SVG Version: 6.00 Build 0)  -->
<svg version="1.1" id="Layer_1" xmlns="http://www.w3.org/2000/svg" xmlns:xlink="http://www.w3.org/1999/xlink" x="0px" y="0px"
	 viewBox="0 0 512 512" enable-background="new 0 0 512 512" xml:space="preserve">
<path d="M160,169.8v-7.6v-56.4 M160,105.8v259c-13.4-8-30-12.8-48-12.8c-44.2,0-80,28.7-80,64c0,35.3,35.8,64,80,64s80-28.7,80-64
	V162.5l256-59.1v165.4c-13.4-8-30-12.8-48-12.8c-44.2,0-80,28.7-80,64c0,35.3,35.8,64,80,64s80-28.7,80-64V96V32L160,105.8z"/>
</svg>
