<?xml version="1.0" encoding="utf-8"?>
<!-- Generator: Adobe Illustrator 19.2.1, SVG Export Plug-In . SVG Version: 6.00 Build 0)  -->
<svg version="1.1" id="Layer_1" xmlns="http://www.w3.org/2000/svg" xmlns:xlink="http://www.w3.org/1999/xlink" x="0px" y="0px"
	 viewBox="0 0 512 512" enable-background="new 0 0 512 512" xml:space="preserve">
<path d="M480,64H32C14.4,64,0,78.4,0,96v320c0,17.6,14.4,32,32,32h448c17.6,0,32-14.4,32-32V96C512,78.4,497.6,64,480,64z M256,384
	h-64v-96h-64v96H64V128h64v96h64v-96h64V384z M466.3,315.1c-5.1,16.2-11.8,29.4-19.8,39.1c-8.2,9.8-18.2,17.4-29.8,22.4
	c-11.5,4.9-26.3,7.4-43.9,7.4H288V128h82.6c20.3,0,35.4,2.2,46.1,6.8c10.7,4.6,20.6,12.2,29.5,22.8c8.7,10.5,15.7,24.1,20.6,40.6
	c4.8,16.2,7.3,36.5,7.3,60.3C474,280,471.4,299.1,466.3,315.1z M412.1,220.9c2.6,8.5,3.9,20.5,3.9,35.6c0,14.5-1.3,26.3-3.9,35.1
	c-2.5,8.4-5.5,14.4-8.9,18c-3.3,3.5-7.5,6-12.8,7.7c-3.8,1.2-11.8,2.7-28.3,2.7H336V192h12.9c21.4,0,30.6,0.9,34.5,1.7
	c6.9,1.4,12.6,4.1,17.5,8.4C405.8,206.6,409.6,212.9,412.1,220.9z"/>
</svg>
