<?xml version="1.0" encoding="utf-8"?>
<!-- Generator: Adobe Illustrator 24.2.0, SVG Export Plug-In . SVG Version: 6.00 Build 0)  -->
<svg version="1.1" id="Layer_1" xmlns="http://www.w3.org/2000/svg" xmlns:xlink="http://www.w3.org/1999/xlink" x="0px" y="0px"
	 width="512px" height="512px" viewBox="0 0 512 512" xml:space="preserve">
<path d="M480,64H32c0,0-32,0-32,32v320c0,32,32,32,32,32h448c32,0,32-32,32-32V96C512,96,512,64,480,64z M240,205
	c-6.1-4.5-13.5-7.8-21.9-10.1c-8.5-2.3-17.1-3.5-25.8-3.5c-18,0-32.2,5.8-42.6,17.4c-10.4,11.6-15.6,27.4-15.6,47.3
	c0,19.8,5.2,35.4,15.6,46.9c10.4,11.5,24.3,17.2,41.7,17.2c16.1,0,32.3-4.6,47.6-13.8V373c-17.2,7.4-38.2,11-62.1,11
	c-23.4,0-43.6-5-60.6-15.1s-29.9-24.4-38.9-43S64,285.9,64,261.6c0-26.1,5-49.4,15-69.7c10-20.4,24.2-36.1,42.5-47.2
	s39.4-16.7,63.2-16.7c19,0,37.4,2.6,55.3,7.8V205L240,205z M448,205c-6.1-4.5-13.5-7.8-21.9-10.1c-8.5-2.3-17.1-3.5-25.8-3.5
	c-18,0-32.2,5.8-42.6,17.4c-10.4,11.6-15.6,27.4-15.6,47.3c0,19.8,5.2,35.4,15.6,46.9s24.3,17.2,41.7,17.2
	c16.1,0,32.3-4.6,47.6-13.8V373c-17.2,7.4-38.2,11-62.1,11c-23.4,0-43.6-5-60.6-15.1s-29.9-24.4-38.9-43s-13.4-40-13.4-64.3
	c0-26.1,5-49.4,15-69.7c10-20.4,24.2-36.1,42.5-47.2s39.4-16.7,63.2-16.7c19,0,37.4,2.6,55.3,7.8V205L448,205z"/>
</svg>
