<?xml version="1.0" encoding="utf-8"?>
<!-- Generator: Adobe Illustrator 19.2.1, SVG Export Plug-In . SVG Version: 6.00 Build 0)  -->
<svg version="1.1" id="Layer_1" xmlns="http://www.w3.org/2000/svg" xmlns:xlink="http://www.w3.org/1999/xlink" x="0px" y="0px"
	 width="512px" height="512px" viewBox="0 0 512 512" xml:space="preserve">
<path d="M0,352h96l128,128V32L96,160H0V352z M288,380V132c55.2,14.2,96,64.3,96,124S343.2,365.8,288,380z M288,0v44.8
	c45.2,0,88.3,20.8,121.2,58.4C444.6,143.6,464,197.8,464,256s-19.4,112.4-54.8,152.8c-33,37.7-76,58.4-121.2,58.4V512
	c123.7,0,224-114.6,224-256S411.7,0,288,0z"/>
</svg>
