<?xml version="1.0" encoding="utf-8"?>
<!-- Generator: Adobe Illustrator 24.2.0, SVG Export Plug-In . SVG Version: 6.00 Build 0)  -->
<svg version="1.1" id="Layer_1" xmlns="http://www.w3.org/2000/svg" xmlns:xlink="http://www.w3.org/1999/xlink" x="0px" y="0px"
	 width="512px" height="512px" viewBox="0 0 512 512" xml:space="preserve">
<path d="M448,64v384H64V64H448 M480,32H32v448h448V32z M384,288v13.3l-64,64v37.5l13.3,13.3H416V264.6L384,288z M333.3,128l64,64
	l-32,32l18.8,23.4l32-21.3V96H288v18.8l13.3,13.3H333.3z M224,192l32,32l-23.7,23.7L352,276v-20l-32-32l32-32l-32-32h-32l-32-32V96
	h-32l-64,64l32,32H224z M224,278l-32,10l-32,32l32,32v32l-32,32h128v-64l50.4-50.4L224,278z M194.6,240.2l16.2-16.2h-32l-64-64
	l64-64H96v167.5L194.6,240.2z M114.8,320l37.6-37.6L96,296.5V416h32v-13.3l32-32v-5.5L114.8,320z"/>
</svg>
