<svg xmlns="http://www.w3.org/2000/svg" viewBox="0 0 512 512"><title>choropleth</title><g id="choropleth"><path d="M448,64V448H64V64H448m32-32H32V480H480V32ZM384,288v13.25l-64,64v37.5L333.25,416H416V264.56ZM333.25,128l64,64-32,32L384,247.44l32-21.34V96H288v18.75L301.25,128ZM224,192l32,32-23.74,23.74L352,276V256l-32-32,32-32-32-32H288l-32-32V96H224l-64,64,32,32Zm0,86-32,10-32,32,32,32v32l-32,32H288V352l50.4-50.4Zm-29.45-37.81L210.75,224h-32l-64-64,64-64H96V263.51ZM114.75,320l37.59-37.59L96,296.49V416h32V402.75l32-32v-5.5Z"/></g></svg>