<svg xmlns="http://www.w3.org/2000/svg" viewBox="0 0 512 512"><title>doughnut</title><g id="doughnut"><path d="M473.35,310.33c.52-2.09,1-4.21,1.48-6.33l.09-.45q.68-3.1,1.26-6.24a1.84,1.84,0,0,0,.05-.25c.81-4.39,1.51-8.83,2.06-13.3,0-.14,0-.28,0-.42.23-1.95.44-3.9.63-5.87l.15-1.68c.14-1.57.26-3.14.36-4.72,0-.67.09-1.35.13-2,.09-1.54.16-3.09.22-4.64,0-.64.05-1.27.07-1.91.06-2.16.1-4.32.1-6.49a223.18,223.18,0,0,0-19.79-92.18q-2.23-5-4.72-9.8a222,222,0,0,0-13.75-23.26,225.07,225.07,0,0,0-16.36-21.35q-1.77-2-3.57-4-3.62-4-7.42-7.78t-7.78-7.42q-4-3.61-8.13-7-6.21-5.13-12.81-9.82A222.74,222.74,0,0,0,317.32,40.5q-8-2.27-16.18-4-5.46-1.12-11-2T278.9,33.16q-8.46-.87-17.12-1.09c-1.92,0-3.85-.07-5.78-.07C132.29,32,32,132.29,32,256S132.29,480,256,480c105,0,193.06-72.21,217.35-169.66h0ZM320,256a64,64,0,1,1-64-64A64.07,64.07,0,0,1,320,256Zm71.76,135.76A192,192,0,1,1,120.24,120.24,190.7,190.7,0,0,1,256,64v96a96,96,0,1,0,93.15,119.29h0l93.19,23.29A190.78,190.78,0,0,1,391.76,391.76Zm-39.8-133,0,.82Zm-.13,2.81c0,.29,0,.58-.05.87C351.8,262.17,351.82,261.88,351.83,261.59Zm-.21,2.89-.06.72Zm-.33,3.23a1.23,1.23,0,0,0,0,.19A1.23,1.23,0,0,1,351.29,267.71Zm-.91,5.89a.36.36,0,0,1,0,.1A.36.36,0,0,0,350.38,273.6Zm-.56,2.78,0,.19Z"/></g></svg>