<?xml version="1.0" encoding="utf-8"?>
<!-- Generator: Adobe Illustrator 24.2.0, SVG Export Plug-In . SVG Version: 6.00 Build 0)  -->
<svg version="1.1" id="Layer_1" xmlns="http://www.w3.org/2000/svg" xmlns:xlink="http://www.w3.org/1999/xlink" x="0px" y="0px"
	 width="512px" height="512px" viewBox="0 0 512 512" xml:space="preserve">
<path d="M473,310.3c0.9-2.1,1.4-4.2,1.8-6.3l0.1-0.5c0.5-2.1,0.9-4.1,1.3-6.2c0-0.1,0-0.2,0-0.3c0.8-4.4,1.5-8.8,1.8-13.3v-0.4
	c0.5-2,0.7-3.9,0.9-5.9l0.1-1.7c0.1-1.6,0.3-3.1,0.4-4.7c0-0.7,0.1-1.4,0.1-2c0.1-1.5,0.2-3.1,0.2-4.6c0-0.6,0-1.3,0.1-1.9
	c0.1-2.2,0.1-4.3,0.1-6.5c0-31.8-6.7-63.2-19.8-92.2c-1.5-3.3-3.1-6.6-4.7-9.8c-4.1-8-8.7-15.8-13.8-23.3
	c-5-7.4-10.5-14.6-16.4-21.3c-1.2-1.3-2.4-2.7-3.6-4c-2.4-2.7-4.9-5.3-7.4-7.8s-5.1-5-7.8-7.4c-2.7-2.4-5.4-4.7-8.1-7
	c-4.1-3.4-8.4-6.7-12.8-9.8c-20.7-14.8-43.8-25.9-68.3-32.9c-5.3-1.5-10.7-2.8-16.2-4c-3.6-0.7-7.3-1.4-11-2s-7.4-1-11.2-1.3
	c-5.6-0.6-11.3-0.9-17.1-1.1c-1.9,0-3.9-0.1-5.8-0.1C132.3,32,32,132.3,32,256s100.3,224,224,224C361,480,449.1,407.8,473,310.3
	L473,310.3L473,310.3z M320,256c0,35.3-28.7,64-64,64s-64-28.7-64-64s28.7-64,64-64S320,220.7,320,256z M391.8,391.8
	c-74.4,75.6-195.9,76.6-271.5,2.2S43.7,198,118,122.4c0.7-0.7,1.5-1.5,2.2-2.2c36-36.1,84.9-56.3,135.8-56.2v96c-53,0-96,43-96,96
	s43,96,96,96c44,0,82.4-30,93.1-72.7l0,0l93.2,23.3C433.9,336.4,416.4,367.2,391.8,391.8z M352,258.8v0.8V258.8z M352,261.6
	c0,0.3,0,0.6,0,0.9C352,262.2,352,261.9,352,261.6L352,261.6z M351.6,264.5l-0.1,0.7L351.6,264.5z M351,267.7c0,0.1,0,0.1,0,0.2
	C351,267.8,351,267.8,351,267.7L351,267.7z M350,273.6v0.1V273.6L350,273.6z M350,276.4v0.2V276.4z"/>
</svg>
