<svg xmlns="http://www.w3.org/2000/svg" viewBox="0 0 512 512"><title>line-stacked-markers</title><g id="line_stacked_with_markers" data-name="line stacked with markers"><path d="M480,448v32H0V32H32V448Zm0-320a32,32,0,0,1-51.2,25.6L352,192a32,32,0,1,1-63.14-7.36l-81.08-60.81a32,32,0,0,1-35-2.23L96,160a32,32,0,1,1-12.8-25.6L160,96a32,32,0,1,1,63.14,7.36l81.08,60.81a32,32,0,0,1,35,2.23L416,128a32,32,0,0,1,64,0ZM80,160a16,16,0,1,0-16,16A16,16,0,0,0,80,160ZM208,96a16,16,0,1,0-16,16A16,16,0,0,0,208,96Zm128,96a16,16,0,1,0-16,16A16,16,0,0,0,336,192Zm128-64a16,16,0,1,0-16,16A16,16,0,0,0,464,128Zm16,128a32,32,0,0,1-47.78,27.83l-81.08,60.81A32,32,0,1,1,288,352l-76.8-38.4a32,32,0,0,1-35,2.23L95.14,376.64a32,32,0,1,1-15.36-20.47l81.08-60.81A32,32,0,1,1,224,288l76.8,38.4a32,32,0,0,1,35-2.23l81.08-60.81A32,32,0,1,1,480,256ZM80,384a16,16,0,1,0-16,16A16,16,0,0,0,80,384Zm128-96a16,16,0,1,0-16,16A16,16,0,0,0,208,288Zm128,64a16,16,0,1,0-16,16A16,16,0,0,0,336,352Zm128-96a16,16,0,1,0-16,16A16,16,0,0,0,464,256Z"/></g></svg>