<?xml version="1.0" encoding="utf-8"?>
<!-- Generator: Adobe Illustrator 24.2.0, SVG Export Plug-In . SVG Version: 6.00 Build 0)  -->
<svg version="1.1" id="Layer_1" xmlns="http://www.w3.org/2000/svg" xmlns:xlink="http://www.w3.org/1999/xlink" x="0px" y="0px"
	 width="512px" height="512px" viewBox="0 0 512 512" xml:space="preserve">
<path d="M480,448v32H0V32h32v416H480z M480,256c0,17.7-14.3,32-32,32c-5.5,0-11-1.4-15.8-4.2l-81.1,60.8
	c4.1,17.2-6.6,34.4-23.8,38.5c-17.2,4.1-34.4-6.6-38.5-23.8c-0.6-2.4-0.9-4.9-0.9-7.4l-76.8-38.4c-10.2,7.6-23.9,8.5-35,2.2
	l-81.1,60.8c4.1,17.2-6.6,34.4-23.8,38.5s-34.4-6.6-38.5-23.8s6.6-34.4,23.8-38.5c7.9-1.9,16.1-0.7,23.1,3.3l81.1-60.8
	c-4.1-17.2,6.6-34.4,23.8-38.5c17.2-4.1,34.4,6.6,38.5,23.8c0.6,2.4,0.9,4.9,0.9,7.4l76.8,38.4c10.2-7.6,23.9-8.5,35-2.2l81.1-60.8
	c-4.1-17.2,6.5-34.5,23.7-38.6c17.2-4.1,34.5,6.5,38.6,23.7C479.7,250.9,480,253.5,480,256z M80,384c0-8.8-7.2-16-16-16
	s-16,7.2-16,16s7.2,16,16,16S80,392.8,80,384z M208,288c0-8.8-7.2-16-16-16s-16,7.2-16,16s7.2,16,16,16S208,296.8,208,288z M336,352
	c0-8.8-7.2-16-16-16s-16,7.2-16,16s7.2,16,16,16S336,360.8,336,352z M464,256c0-8.8-7.2-16-16-16s-16,7.2-16,16c0,8.8,7.2,16,16,16
	S464,264.8,464,256z M480,64c0,17.7-14.3,32-32,32c-11.4,0-22-6.1-27.7-16h-72.6c-8.8,15.3-28.4,20.5-43.7,11.7
	c-4.9-2.8-8.9-6.8-11.7-11.7h-72.6c-8.8,15.3-28.4,20.5-43.7,11.7c-4.9-2.8-8.9-6.8-11.7-11.7H91.7C82.9,95.3,63.3,100.5,48,91.7
	S27.4,63.3,36.3,48S64.7,27.5,80,36.3c4.9,2.8,8.9,6.8,11.7,11.7h72.6c8.8-15.3,28.4-20.5,43.7-11.7c4.9,2.8,8.9,6.8,11.7,11.7h72.6
	c8.8-15.3,28.4-20.5,43.7-11.7c4.9,2.8,8.9,6.8,11.7,11.7h72.6c8.8-15.3,28.4-20.5,43.7-11.7C473.9,42,480,52.6,480,64z M80,64
	c0-8.8-7.2-16-16-16s-16,7.2-16,16s7.2,16,16,16S80,72.8,80,64z M208,64c0-8.8-7.2-16-16-16s-16,7.2-16,16s7.2,16,16,16
	S208,72.8,208,64z M336,64c0-8.8-7.2-16-16-16s-16,7.2-16,16s7.2,16,16,16S336,72.8,336,64z M464,64c0-8.8-7.2-16-16-16
	s-16,7.2-16,16s7.2,16,16,16S464,72.8,464,64z"/>
</svg>
