<svg xmlns="http://www.w3.org/2000/svg" viewBox="0 0 512 512"><title>line-stacked100-markers</title><g id="line_stacked_100_with_markers" data-name="line stacked 100 with markers"><path d="M480,448v32H0V32H32V448Zm0-192a32,32,0,0,1-47.78,27.83l-81.08,60.81A32,32,0,1,1,288,352l-76.8-38.4a32,32,0,0,1-35,2.23L95.14,376.64a32,32,0,1,1-15.36-20.47l81.08-60.81A32,32,0,1,1,224,288l76.8,38.4a32,32,0,0,1,35-2.23l81.08-60.81A32,32,0,1,1,480,256ZM80,384a16,16,0,1,0-16,16A16,16,0,0,0,80,384Zm128-96a16,16,0,1,0-16,16A16,16,0,0,0,208,288Zm128,64a16,16,0,1,0-16,16A16,16,0,0,0,336,352Zm128-96a16,16,0,1,0-16,16A16,16,0,0,0,464,256ZM480,64a32,32,0,0,1-59.71,16H347.71a32,32,0,0,1-55.42,0H219.71a32,32,0,0,1-55.42,0H91.71a32,32,0,1,1,0-32h72.58a32,32,0,0,1,55.42,0h72.58a32,32,0,0,1,55.42,0h72.58A32,32,0,0,1,480,64ZM80,64A16,16,0,1,0,64,80,16,16,0,0,0,80,64Zm128,0a16,16,0,1,0-16,16A16,16,0,0,0,208,64Zm128,0a16,16,0,1,0-16,16A16,16,0,0,0,336,64Zm128,0a16,16,0,1,0-16,16A16,16,0,0,0,464,64Z"/></g></svg>