<?xml version="1.0" encoding="utf-8"?>
<!-- Generator: Adobe Illustrator 24.2.0, SVG Export Plug-In . SVG Version: 6.00 Build 0)  -->
<svg version="1.1" id="Layer_1" xmlns="http://www.w3.org/2000/svg" xmlns:xlink="http://www.w3.org/1999/xlink" x="0px" y="0px"
	 width="512px" height="512px" viewBox="0 0 512 512" xml:space="preserve">
<path d="M480,448v32H0V32h32v416H480z M480,128c0,17.7-14.3,32-32,32c-6.9,0-13.7-2.2-19.2-6.4L352,192c0,17.7-14.3,32-32,32
	c-17.7,0-32-14.3-32-32c0-2.5,0.3-5,0.9-7.4l-81.1-60.8c-11.1,6.3-24.8,5.4-35-2.2L96,160c0,17.7-14.3,32-32,32s-32-14.3-32-32
	c0-17.7,14.3-32,32-32c6.9,0,13.7,2.2,19.2,6.4L160,96c0-17.7,14.3-32,32-32s32,14.3,32,32c0,2.5-0.3,5-0.9,7.4l81.1,60.8
	c11.1-6.3,24.8-5.4,35,2.2L416,128c0-17.7,14.3-32,32-32S480,110.3,480,128z M80,160c0-8.8-7.2-16-16-16s-16,7.2-16,16s7.2,16,16,16
	S80,168.8,80,160z M208,96c0-8.8-7.2-16-16-16s-16,7.2-16,16s7.2,16,16,16S208,104.8,208,96z M336,192c0-8.8-7.2-16-16-16
	s-16,7.2-16,16s7.2,16,16,16S336,200.8,336,192z M464,128c0-8.8-7.2-16-16-16s-16,7.2-16,16s7.2,16,16,16S464,136.8,464,128z
	 M480,256c0,17.7-14.3,32-32,32c-5.5,0-11-1.4-15.8-4.2l-81.1,60.8c4.1,17.2-6.6,34.4-23.8,38.5c-17.2,4.1-34.4-6.6-38.5-23.8
	c-0.6-2.4-0.9-4.9-0.9-7.4l-76.8-38.4c-10.2,7.6-23.9,8.5-35,2.2l-81.1,60.8c4.1,17.2-6.6,34.4-23.8,38.5s-34.4-6.6-38.5-23.8
	s6.6-34.4,23.8-38.5c7.9-1.9,16.1-0.7,23.1,3.3l81.1-60.8c-4.1-17.2,6.6-34.4,23.8-38.5c17.2-4.1,34.4,6.6,38.5,23.8
	c0.6,2.4,0.9,4.9,0.9,7.4l76.8,38.4c10.2-7.6,23.9-8.5,35-2.2l81.1-60.8c-4.1-17.2,6.5-34.5,23.7-38.6c17.2-4.1,34.5,6.5,38.6,23.7
	C479.7,250.9,480,253.5,480,256z M80,384c0-8.8-7.2-16-16-16s-16,7.2-16,16s7.2,16,16,16S80,392.8,80,384z M208,288
	c0-8.8-7.2-16-16-16s-16,7.2-16,16s7.2,16,16,16S208,296.8,208,288z M336,352c0-8.8-7.2-16-16-16s-16,7.2-16,16s7.2,16,16,16
	S336,360.8,336,352z M464,256c0-8.8-7.2-16-16-16s-16,7.2-16,16c0,8.8,7.2,16,16,16S464,264.8,464,256z"/>
</svg>
