<?xml version="1.0" encoding="utf-8"?>
<!-- Generator: Adobe Illustrator 24.2.0, SVG Export Plug-In . SVG Version: 6.00 Build 0)  -->
<svg version="1.1" id="Layer_1" xmlns="http://www.w3.org/2000/svg" xmlns:xlink="http://www.w3.org/1999/xlink" x="0px" y="0px"
	 width="512px" height="512px" viewBox="0 0 512 512" xml:space="preserve">
<path d="M480,448v32H0V32h32v416H480z M480,352c0.1,17.7-14.2,32-31.9,32.1c-17.7,0.1-32-14.2-32.1-31.9c0-1.3,0.1-2.7,0.2-4
	l-83.7-62.8c-8,3.4-17.1,3.4-25.2,0l-83.7,62.8c2.1,17.5-10.4,33.5-27.9,35.6s-33.5-10.4-35.6-27.9c-0.7-6.2,0.3-12.4,3.1-18
	l-49-73.6l-22.7,39.6c8.9,15.3,3.7,34.9-11.5,43.8s-34.9,3.7-43.8-11.5s-3.7-34.9,11.5-43.8c4.9-2.8,10.4-4.3,16-4.4l30.6-53.5
	l-28.4-42.6c-0.7,0-1.4,0.1-2.1,0.1c-17.7,0-32-14.3-32-32s14.3-32,32-32c17.7,0,32,14.3,32,32c0,4.9-1.1,9.8-3.3,14.2l19.5,29.3
	l52.2-91.3c-8.9-15.3-3.8-34.9,11.5-43.8s34.9-3.8,43.8,11.5c2.5,4.4,4,9.2,4.3,14.3l78.4,39.2c14.7-9.7,34.6-5.7,44.3,9
	c0.3,0.5,0.7,1.1,1,1.6h72.6c8.8-15.3,28.4-20.5,43.7-11.7c15.3,8.8,20.5,28.4,11.7,43.7s-28.4,20.5-43.7,11.7
	c-4.9-2.8-8.9-6.8-11.7-11.7h-72.6c-8.8,15.3-28.4,20.5-43.7,11.7c-9.3-5.4-15.3-15.1-15.9-25.8l-78.4-39.2
	c-5.2,3.4-11.3,5.3-17.5,5.3L132,233.2l57.9,86.9c0.7,0,1.4-0.1,2.1-0.1c4.3,0,8.6,0.9,12.6,2.6l83.7-62.8
	c-2.2-17.5,10.3-33.5,27.8-35.7c17.5-2.2,33.5,10.3,35.7,27.8c0.3,2.6,0.3,5.2,0,7.8l83.7,62.8c16.2-7,35.1,0.6,42,16.8
	C479.1,343.4,480,347.7,480,352z M432,160c0,8.8,7.2,16,16,16s16-7.2,16-16s-7.2-16-16-16S432,151.2,432,160z M304,160
	c0,8.8,7.2,16,16,16s16-7.2,16-16s-7.2-16-16-16S304,151.2,304,160z M176,96c0,8.8,7.2,16,16,16s16-7.2,16-16s-7.2-16-16-16
	S176,87.2,176,96z M80,160c0-8.8-7.2-16-16-16s-16,7.2-16,16s7.2,16,16,16S80,168.8,80,160z M80,320c0-8.8-7.2-16-16-16
	s-16,7.2-16,16s7.2,16,16,16S80,328.8,80,320z M208,352c0-8.8-7.2-16-16-16s-16,7.2-16,16s7.2,16,16,16S208,360.8,208,352z M336,256
	c0-8.8-7.2-16-16-16s-16,7.2-16,16c0,8.8,7.2,16,16,16S336,264.8,336,256z M464,352c0-8.8-7.2-16-16-16s-16,7.2-16,16s7.2,16,16,16
	S464,360.8,464,352z"/>
</svg>
