<svg xmlns="http://www.w3.org/2000/svg" viewBox="0 0 512 512"><title>line-markers</title><g id="line_with_markers" data-name="line with markers"><path d="M480,448v32H0V32H32V448Zm0-96a32,32,0,1,1-63.76-3.82l-83.66-62.75a32.07,32.07,0,0,1-25.16,0l-83.66,62.75a32,32,0,1,1-60.45-10.36l-49-73.56L91.64,303.88A32,32,0,1,1,63.86,288l30.57-53.51L66.06,191.93c-.68,0-1.37.07-2.06.07a32,32,0,1,1,28.69-17.82l19.49,29.25,52.18-91.31a32,32,0,1,1,59.58-18l78.43,39.22A32,32,0,0,1,347.71,144h72.58a32,32,0,1,1,0,32H347.71a32,32,0,0,1-59.65-14.08L209.63,122.7a31.85,31.85,0,0,1-17.49,5.3L132,233.2l57.91,86.87c.68,0,1.37-.07,2.06-.07a31.91,31.91,0,0,1,12.57,2.57l83.67-62.75a32,32,0,1,1,63.52,0l83.66,62.75A32,32,0,0,1,480,352ZM432,160a16,16,0,1,0,16-16A16,16,0,0,0,432,160Zm-128,0a16,16,0,1,0,16-16A16,16,0,0,0,304,160ZM176,96a16,16,0,1,0,16-16A16,16,0,0,0,176,96ZM80,160a16,16,0,1,0-16,16A16,16,0,0,0,80,160Zm0,160a16,16,0,1,0-16,16A16,16,0,0,0,80,320Zm128,32a16,16,0,1,0-16,16A16,16,0,0,0,208,352Zm128-96a16,16,0,1,0-16,16A16,16,0,0,0,336,256Zm128,96a16,16,0,1,0-16,16A16,16,0,0,0,464,352Z"/></g></svg>