<svg xmlns="http://www.w3.org/2000/svg" viewBox="0 0 512 512"><title>pie</title><g id="pie"><path d="M473.35,310.33c.52-2.09,1-4.21,1.48-6.33l.09-.45q.68-3.1,1.26-6.24a2,2,0,0,0,.05-.24c.81-4.4,1.51-8.83,2.06-13.31,0-.14,0-.28,0-.42.23-1.95.44-3.9.63-5.87l.15-1.68c.14-1.57.26-3.14.36-4.72,0-.67.09-1.35.13-2,.09-1.54.16-3.09.22-4.64,0-.64.05-1.27.07-1.91.06-2.16.1-4.32.1-6.49a223.18,223.18,0,0,0-19.79-92.18q-2.23-5-4.72-9.8a222,222,0,0,0-13.75-23.26,225.07,225.07,0,0,0-16.36-21.35q-1.77-2-3.57-4-3.62-4-7.42-7.78t-7.78-7.42q-4-3.61-8.13-7-6.21-5.13-12.81-9.82A222.74,222.74,0,0,0,317.32,40.5q-8-2.27-16.18-4-5.46-1.12-11-2T278.9,33.16q-8.46-.87-17.12-1.09c-1.92,0-3.85-.07-5.78-.07C132.29,32,32,132.29,32,256S132.29,480,256,480c105,0,193.06-72.21,217.35-169.66h0Zm-81.59,81.43A192,192,0,1,1,120.24,120.24,190.7,190.7,0,0,1,256,64V256l186.34,46.58A190.78,190.78,0,0,1,391.76,391.76Z"/></g></svg>