<svg xmlns="http://www.w3.org/2000/svg" viewBox="0 0 512 512"><title>radar-markers</title><g id="radar_with_markers" data-name="radar with markers"><path d="M471.87,187.72l-51.16,11.89a32,32,0,0,0-33.8-4.81L288,96a32,32,0,0,0-16.14-27.76V32h-32V68.37A32.08,32.08,0,0,0,225.28,87L96,184a31.88,31.88,0,0,0-22.75,9.5l-32.82-8-7.55,31.1,32.26,7.83a32.08,32.08,0,0,0,19.55,21.48l61,111.82a32,32,0,0,0,2.88,26.72L92.46,461.7l25.89,18.81L176.86,400a31.91,31.91,0,0,0,22.34-10l122,18.78A32,32,0,0,0,352,432a32.44,32.44,0,0,0,5.78-.53l35.63,49L419.3,461.7l-37.11-51.07A32,32,0,0,0,377,380.05l31.38-125.17A32,32,0,0,0,431.44,230l47.68-11.09Zm-111.4,25.9-88.61,20.61V125.09ZM256,80a16,16,0,1,1-16,16A16,16,0,0,1,256,80Zm-21.24,39.93a32.68,32.68,0,0,0,5.1,3.7V234L126.54,206.44a30.74,30.74,0,0,0-1.61-4.13ZM96,232a16,16,0,1,1,16-16A16,16,0,0,1,96,232Zm80,152a16,16,0,1,1,16-16A16,16,0,0,1,176,384Zm7.19-47.18A32.15,32.15,0,0,0,176,336a31.79,31.79,0,0,0-5.47.48l-52.87-96.93c.65-.6,1.28-1.23,1.88-1.88l115.35,28Zm23.58,22,49.11-67.6,61.47,84.61ZM352,416a16,16,0,1,1,16-16A16,16,0,0,1,352,416Zm-3.89-52.27L277,265.88l97.4-22.65a32.32,32.32,0,0,0,3,3.47ZM400,240a16,16,0,1,1,16-16A16,16,0,0,1,400,240Z"/></g></svg>