<?xml version="1.0" encoding="utf-8"?>
<!-- Generator: Adobe Illustrator 24.2.0, SVG Export Plug-In . SVG Version: 6.00 Build 0)  -->
<svg version="1.1" id="Layer_1" xmlns="http://www.w3.org/2000/svg" xmlns:xlink="http://www.w3.org/1999/xlink" x="0px" y="0px"
	 width="512px" height="512px" viewBox="0 0 512 512" xml:space="preserve">
<path d="M472,187.7l-51.2,11.9c-9.4-8-22.5-9.9-33.8-4.8L288.1,96c0-11.5-6.2-22.1-16.1-27.8V32h-32v36.4
	c-7.1,4.1-12.3,10.8-14.6,18.6L96.1,184c-8.6,0-16.7,3.4-22.8,9.5l-32.8-8L33,216.6l32.3,7.8c2.7,9.9,10,17.8,19.6,21.5l61,111.8
	c-3,8.9-2,18.7,2.9,26.7l-56.1,77.3l25.9,18.8L177,400c8.5-0.2,16.5-3.8,22.3-10l122,18.8c3.9,13.8,16.5,23.2,30.8,23.2
	c1.9,0,3.9-0.2,5.8-0.5l35.6,49l25.9-18.8l-37.1-51.1c3.7-10.4,1.7-22-5.2-30.6l31.4-125.2c11.8-3.2,20.8-12.9,23.1-24.9l47.7-11.1
	L472,187.7z M360.6,213.6L272,234.2V125.1L360.6,213.6z M256,80c8.8,0,16,7.2,16,16s-7.2,16-16,16c-8.8,0-16-7.2-16-16
	S247.2,80,256,80z M234.9,119.9c1.6,1.4,3.3,2.6,5.1,3.7V234l-113.3-27.6c-0.4-1.4-1-2.8-1.6-4.1L234.9,119.9z M96,232
	c-8.8,0-16-7.2-16-16s7.2-16,16-16s16,7.2,16,16S104.8,232,96,232z M176,384c-8.8,0-16-7.2-16-16s7.2-16,16-16s16,7.2,16,16
	S184.8,384,176,384z M183.2,336.8c-2.4-0.5-4.8-0.8-7.2-0.8c-1.8,0-3.7,0.2-5.5,0.5l-52.9-96.9c0.7-0.6,1.3-1.2,1.9-1.9l115.3,28
	L183.2,336.8z M206.8,358.8l49.1-67.6l61.5,84.6L206.8,358.8z M352,416c-8.8,0-16-7.2-16-16s7.2-16,16-16s16,7.2,16,16
	S360.8,416,352,416z M348.1,363.7L277,265.9l97.4-22.6c0.9,1.2,1.9,2.4,3,3.5L348.1,363.7z M400,240c-8.8,0-16-7.2-16-16
	s7.2-16,16-16s16,7.2,16,16S408.8,240,400,240z"/>
</svg>
