<?xml version="1.0" encoding="utf-8"?>
<!-- Generator: Adobe Illustrator 24.2.0, SVG Export Plug-In . SVG Version: 6.00 Build 0)  -->
<svg version="1.1" id="Layer_1" xmlns="http://www.w3.org/2000/svg" xmlns:xlink="http://www.w3.org/1999/xlink" x="0px" y="0px"
	 width="512px" height="512px" viewBox="0 0 512 512" xml:space="preserve">
<path d="M480,448v32H32V32h32v416H480z M480,64c0,17.7-14.3,32-32,32c-15.6,0-28.9-11.2-31.5-26.5c-9.2-1.3-22-1.8-39-0.8
	C342.5,71,305.1,79.4,275,92c-19.1,7.9-47.9,23-60.7,45.1c12.7,12.3,13,32.6,0.6,45.3c-0.4,0.4-0.7,0.7-1.1,1.1
	c9.1,13.1,28.9,18.6,61.1,25.1c21,4.2,42.8,8.5,60.2,18.9c12.7,7.6,21.7,17.8,27,30.3c16.8,5.6,25.8,23.7,20.2,40.5
	c-3.2,9.5-10.6,17-20.1,20.2C351,348,323,373.1,280.6,390.7c-29.7,12.1-61.2,19.2-93.2,21.1c-4,0.2-7.8,0.3-11.4,0.3
	c-9.6,0.1-19.3-0.7-28.8-2.5c-14.1,10.6-34.2,7.7-44.8-6.4c-10.6-14.1-7.7-34.2,6.4-44.8s34.2-7.7,44.8,6.4c3.2,4.2,5.2,9.1,6,14.3
	c8.7,1,17.5,1.2,26.2,0.7c28.3-1.6,56.2-7.9,82.5-18.6c19.7-8.2,49.8-24.3,62-49.6c-13-12-13.8-32.2-1.8-45.2
	c0.4-0.5,0.8-0.9,1.3-1.3c-9.1-13.2-28.8-18.7-61.1-25.2c-21-4.2-42.8-8.5-60.2-18.9c-12.8-7.7-21.9-18-27.2-30.7
	c-16.7-5.9-25.4-24.2-19.5-40.9c3.3-9.4,10.9-16.7,20.4-19.8c5-11,12-21,20.6-29.5c14.6-14.5,34.7-27.2,59.8-37.6
	C296,48.6,337,39.2,375.4,36.8c22.9-1.5,40-0.4,52.8,2.1c13.9-11,34-8.6,44.9,5.3C477.6,49.8,480,56.8,480,64z M208,160
	c0-8.8-7.2-16-16-16s-16,7.2-16,16s7.2,16,16,16S208,168.8,208,160z M144,384c0-8.8-7.2-16-16-16s-16,7.2-16,16s7.2,16,16,16
	S144,392.8,144,384z M336,288c0,8.8,7.2,16,16,16s16-7.2,16-16s-7.2-16-16-16S336,279.2,336,288z M464,64c0-8.8-7.2-16-16-16
	s-16,7.2-16,16s7.2,16,16,16S464,72.8,464,64z"/>
</svg>
