<svg xmlns="http://www.w3.org/2000/svg" viewBox="0 0 512 512"><title>scatter-smooth-lines-markers</title><g id="scatter_smooth_lines_and_markers" data-name="scatter smooth lines and markers"><path d="M480,448v32H32V32H64V448Zm0-384a32,32,0,0,1-63.53,5.45c-9.24-1.25-22-1.85-39-.75C342.48,71,305.13,79.43,275,92c-19.06,7.92-47.92,23-60.71,45.09a32,32,0,0,1-.43,46.31c9.13,13.15,28.86,18.65,61.06,25.06,21,4.18,42.77,8.51,60.16,18.94,12.7,7.61,21.73,17.75,27,30.28a32,32,0,0,1,.14,60.67C351,348,323,373.1,280.6,390.74a290.08,290.08,0,0,1-93.19,21.06c-4,.2-7.82.29-11.44.29a149.79,149.79,0,0,1-28.76-2.49,32,32,0,1,1,12.42-30.48,153.93,153.93,0,0,0,26.19.72,256.67,256.67,0,0,0,82.49-18.65c19.68-8.18,49.78-24.27,62-49.65A32,32,0,0,1,329.8,265c-9.1-13.22-28.84-18.73-61.13-25.16-21-4.18-42.77-8.51-60.16-18.94-12.84-7.69-21.93-18-27.22-30.7a32,32,0,0,1,.92-60.63,95.68,95.68,0,0,1,20.65-29.48c14.55-14.51,34.69-27.17,59.85-37.64C296,48.58,337,39.24,375.41,36.77c22.9-1.48,40-.36,52.75,2.13A32,32,0,0,1,480,64ZM208,160a16,16,0,1,0-16,16A16,16,0,0,0,208,160ZM144,384a16,16,0,1,0-16,16A16,16,0,0,0,144,384Zm192-96a16,16,0,1,0,16-16A16,16,0,0,0,336,288ZM464,64a16,16,0,1,0-16,16A16,16,0,0,0,464,64Z"/></g></svg>