<svg xmlns="http://www.w3.org/2000/svg" viewBox="0 0 512 512"><title>scatter-straight-lines-markers</title><g id="scatter_straight_lines_and_markers" data-name="scatter straight lines and markers"><path d="M480,448v32H32V32H64V448Zm0-384a32,32,0,0,1-52.33,24.71L224,165.09l116.38,93.1a32,32,0,1,1-7.53,55.43L159.77,387.79a32,32,0,1,1-12.6-29.41l173.06-74.17c0-.35.08-.69.13-1L203.64,189.81a32,32,0,1,1,8.69-54.52L416.44,58.75A32,32,0,0,1,480,64ZM208,160a16,16,0,1,0-16,16A16,16,0,0,0,208,160ZM144,384a16,16,0,1,0-16,16A16,16,0,0,0,144,384Zm192-96a16,16,0,1,0,16-16A16,16,0,0,0,336,288ZM464,64a16,16,0,1,0-16,16A16,16,0,0,0,464,64Z"/></g></svg>