<svg xmlns="http://www.w3.org/2000/svg" viewBox="0 0 512 512"><title>scatter-smooth-lines</title><g id="scatter_smooth_lines" data-name="scatter smooth lines"><path d="M480,448v32H32V32H64V448ZM336,360.18c21.12-19.87,31.8-44.46,31.76-73.1-.05-27.27-11-47.65-32.59-60.58-17.27-10.34-38.81-14.54-59.65-18.6-46.22-9-66.5-16.27-66.76-47.92-.35-41.24,71.79-65.54,114.82-76.36C385.38,68.1,448.37,64,449,64L447,32c-2.67.17-66.21,4.28-130.79,20.46-38.74,9.71-69.82,21.83-92.39,36-31.43,19.76-47.25,43.9-47,71.74.22,27.22,11.31,47.57,32.94,60.47,17.32,10.34,38.87,14.54,59.7,18.59,19,3.7,36.87,7.19,49.32,14.65,11.92,7.14,17,17.06,17,33.18,0,19.71-7.06,36-21.67,49.73C290,359.61,245.23,375,184.77,381.43A593.38,593.38,0,0,1,97,384L95,416c1.65.1,12.07.71,28,.71C174.34,416.68,282.74,410.34,336,360.18Z"/></g></svg>