<svg xmlns="http://www.w3.org/2000/svg" viewBox="0 0 512 512"><title>scatter</title><g id="scatter"><path d="M480,448v32H32V32H64V448ZM160,96a32,32,0,1,1-32-32A32,32,0,0,1,160,96Zm-16,0a16,16,0,1,0-16,16A16,16,0,0,0,144,96ZM256,288a32,32,0,1,1-32-32A32,32,0,0,1,256,288Zm-16,0a16,16,0,1,0-16,16A16,16,0,0,0,240,288ZM352,160a32,32,0,1,1-32-32A32,32,0,0,1,352,160Zm-16,0a16,16,0,1,0-16,16A16,16,0,0,0,336,160ZM448,352a32,32,0,1,1-32-32A32,32,0,0,1,448,352Zm-16,0a16,16,0,1,0-16,16A16,16,0,0,0,432,352Z"/></g></svg>