<?xml version="1.0" encoding="utf-8"?>
<!-- Generator: Adobe Illustrator 24.2.3, SVG Export Plug-In . SVG Version: 6.00 Build 0)  -->
<svg version="1.1" id="Layer_1" xmlns="http://www.w3.org/2000/svg" xmlns:xlink="http://www.w3.org/1999/xlink" x="0px" y="0px"
	 width="24px" height="24px" viewBox="0 0 24 24" enable-background="new 0 0 24 24" xml:space="preserve">
<path d="M7.5,12l-1.3,5h2.1l1.3-5h2.3l1,1.5L10,17h2.6l1.5-1.8l1.3,1.8h2.4l-2.4-3.4l2.9-3.6h-2.6l-1.6,1.9L13,10l0,0l0,0h-2.9
	l0.5-2H13l2-2H9l-1,4H6v2H7.5z M2,0v24h16l4-4l0,0V0H2z M20,19.2L17.2,22H4V2h16V19.2z"/>
</svg>
