<?xml version="1.0" encoding="utf-8"?>
<!-- Generator: Adobe Illustrator 27.1.1, SVG Export Plug-In . SVG Version: 6.00 Build 0)  -->
<svg version="1.1" id="widgets" xmlns="http://www.w3.org/2000/svg" xmlns:xlink="http://www.w3.org/1999/xlink" x="0px" y="0px"
	 width="24px" height="24px" viewBox="0 0 24 24" enable-background="new 0 0 24 24" xml:space="preserve">
<path id="animation" d="M24,12c0,3.31-2.69,6-6,6s-6-2.69-6-6s2.69-6,6-6S24,8.69,24,12z M10,11.96c0-2.53,1.34-4.73,3.35-5.96
	C10.34,6.33,8,8.87,8,11.96s2.34,5.64,5.35,5.96C11.34,16.69,10,14.49,10,11.96z M6,11.96C6,9.44,7.34,7.23,9.35,6
	C6.34,6.33,4,8.87,4,11.96s2.34,5.64,5.35,5.96C7.34,16.69,6,14.49,6,11.96z M2,11.96C2,9.44,3.34,7.23,5.35,6
	C2.34,6.33,0,8.87,0,11.96s2.34,5.64,5.35,5.96C3.34,16.69,2,14.49,2,11.96z"/>
</svg>
