<?xml version="1.0" encoding="UTF-8"?><svg id="charts" xmlns="http://www.w3.org/2000/svg" width="24" height="24" viewBox="0 0 24 24"><path id="arcgauge" d="M14.01,11l-2,2v4l2,2h2l2-2v-4l-2-2h-2Zm2,6h-2v-4h2v4ZM6.01,11h4.99v1.98s-2,6.02-2,6.02h-2s1.81-6,1.81-6h-2.8v-2Zm15.41-1.42l-1.43,1.43c-1.82-2.43-4.72-4.01-7.99-4.01-5.52,0-10,4.48-10,10,0,.49,.05,.98,.12,1.45l-1.94,.55c-.1-.64-.18-1.34-.18-2C0,10.37,5.37,5,12,5c3.82,0,7.22,1.79,9.42,4.58Zm2.58,7.42c0,.67-.08,1.36-.18,2l-1.94-.54c.07-.48,.12-.96,.12-1.46,0-1.51-.35-2.94-.95-4.23l1.5-1.5c.92,1.7,1.45,3.65,1.45,5.72Z"/></svg>