<?xml version="1.0" encoding="UTF-8"?><svg id="widgets" xmlns="http://www.w3.org/2000/svg" width="24" height="24" viewBox="0 0 24 24"><path id="avatar" d="M23,12c0-6.08-4.92-11-11-11S1,5.92,1,12s4.46,10.51,10.12,10.96c.29,.03,.58,.04,.88,.04s.59-.02,.88-.04c5.66-.45,10.12-5.18,10.12-10.96Zm-5.12,6.8c-.55-2.74-2.98-4.8-5.88-4.8s-5.33,2.06-5.88,4.8c-1.91-1.65-3.12-4.08-3.12-6.8C3,7.03,7.03,3,12,3s9,4.03,9,9c0,2.72-1.21,5.15-3.12,6.8Zm-2.88-8.8c0,1.66-1.34,3-3,3s-3-1.34-3-3,1.34-3,3-3,3,1.34,3,3Z"/></svg>