<?xml version="1.0" encoding="utf-8"?>
<!-- Generator: Adobe Illustrator 24.2.3, SVG Export Plug-In . SVG Version: 6.00 Build 0)  -->
<svg version="1.1" id="Layer_1" xmlns="http://www.w3.org/2000/svg" xmlns:xlink="http://www.w3.org/1999/xlink" x="0px" y="0px"
	 width="24px" height="24px" viewBox="0 0 24 24" enable-background="new 0 0 24 24" xml:space="preserve">
<path d="M20,8c1.1,0,2-0.9,2-2s-0.9-2-2-2s-2,0.9-2,2S18.9,8,20,8z M15,17c2.2,0,4-1.8,4-4s-1.8-4-4-4s-4,1.8-4,4S12.8,17,15,17z
	 M15,10.7c1.3,0,2.3,1,2.3,2.3s-1,2.3-2.3,2.3s-2.3-1-2.3-2.3l0,0C12.7,11.7,13.7,10.7,15,10.7z M8,11c1.7,0,3-1.3,3-3S9.7,5,8,5
	S5,6.3,5,8S6.3,11,8,11z M8,7c0.6,0,1,0.4,1,1S8.6,9,8,9S7,8.6,7,8S7.4,7,8,7z M4.5,15C5.3,15,6,14.3,6,13.5S5.3,12,4.5,12
	S3,12.7,3,13.5S3.7,15,4.5,15z M0,19v2h22l2-2H0z"/>
</svg>
