<?xml version="1.0" encoding="utf-8"?>
<!-- Generator: Adobe Illustrator 25.3.1, SVG Export Plug-In . SVG Version: 6.00 Build 0)  -->
<svg version="1.1" id="Layer_1" xmlns="http://www.w3.org/2000/svg" xmlns:xlink="http://www.w3.org/1999/xlink" x="0px" y="0px"
	 width="24px" height="24px" viewBox="0 0 24 24" enable-background="new 0 0 24 24" xml:space="preserve">
<g>
	<g>
		<path d="M2,14H0v2v6v1.2V24h22h1h1v-8v-2h-2H2z M22,22H2v-6h20V22z M14,18H4v2h8L14,18z M7,5L4,8h6L7,5z M0,0v12h20l4-4V0H0z
			 M22,7.2L19.2,10H2V2h20V7.2z M14,4l-4,4h8L14,4z"/>
	</g>
</g>
<g>
</g>
<g>
</g>
<g>
</g>
<g>
</g>
<g>
</g>
<g>
</g>
</svg>
