<?xml version="1.0" encoding="UTF-8"?><svg id="widgets" xmlns="http://www.w3.org/2000/svg" width="24" height="24" viewBox="0 0 24 24"><path id="chart" d="M0,21H24l-2,2H0v-2ZM12,12v7h4v-7h-4Zm6-5v12h4V7h-4Zm-12,2v10h4V9H6Zm-2,5H0v5H4v-5ZM20.98,2.1s.02-.07,.02-.1c0-.55-.45-1-1-1s-1,.45-1,1c0,.06,.02,.11,.03,.16l-4.69,3.91c-.11-.04-.22-.07-.34-.07-.2,0-.38,.07-.54,.18l-4.48-2.24c-.04-.52-.46-.93-.99-.93s-1,.45-1,1c0,.09,.03,.16,.05,.24L2.24,9.05c-.08-.02-.16-.05-.24-.05-.13,0-.25,.03-.37,.07l-1.63-1.26v1.27l1.02,.8s-.02,.08-.02,.12c0,.55,.45,1,1,1s1-.45,1-1c0-.09-.03-.16-.05-.24L7.76,4.95c.08,.02,.16,.05,.24,.05,.2,0,.38-.07,.53-.17l4.48,2.24c.03,.52,.46,.94,.99,.94s1-.45,1-1c0-.06-.02-.1-.03-.16l4.69-3.91c.11,.04,.22,.07,.34,.07,.14,0,.28-.03,.4-.09l3.6,2.64v-1.23l-3.02-2.22Z"/></svg>