<?xml version="1.0" encoding="UTF-8"?><svg id="widgets" xmlns="http://www.w3.org/2000/svg" width="24" height="24" viewBox="0 0 24 24"><path id="colorpalette" d="M11.97,22c-.76,0-1.52-.09-2.25-.27,.29-.95,.34-1.99,.13-3.03-.47-2.27-2.3-4.1-4.56-4.58-1.04-.22-2.08-.17-3.03,.11-.24-1.02-.31-2.06-.22-3.12C2.45,6.48,6.13,2.64,10.75,2.08c6.08-.74,11.27,4.01,11.25,9.95-.01,5.51-4.51,9.99-10.03,9.97m0,2c6.78,.02,12.26-5.6,12.02-12.44C23.77,5.38,18.67,.26,12.5,.01,5.66-.27,.02,5.19,0,11.97c0,1.85,.42,3.6,1.17,5.17,.86-.85,2.11-1.32,3.46-1.11,1.68,.26,3.05,1.64,3.31,3.32,.2,1.35-.27,2.59-1.12,3.45,1.56,.75,3.31,1.19,5.16,1.19h0Zm1.93-4.17c1.1,0,2-.89,2.01-1.99s-.89-2-1.99-2.01-2,.89-2.01,1.99,.89,2,1.99,2.01Zm3.96-4.49c1.1,0,2-.89,2.01-1.99s-.89-2-1.99-2.01-2,.89-2.01,1.99,.89,2,1.99,2.01Zm-1.75-5.66c1.1,0,2-.89,2.01-1.99s-.89-2-1.99-2.01-2,.89-2.01,1.99,.89,2,1.99,2.01Zm-5.86-1.45c1.1,0,2-.89,2.01-1.99s-.89-2-1.99-2.01-2,.89-2.01,1.99,.89,2,1.99,2.01Zm-4.2,4.21c1.1,0,2-.89,2.01-1.99s-.89-2-1.99-2.01-2,.89-2.01,1.99,.89,2,1.99,2.01Z"/></svg>