<?xml version="1.0" encoding="utf-8"?>
<!-- Generator: Adobe Illustrator 24.2.3, SVG Export Plug-In . SVG Version: 6.00 Build 0)  -->
<svg version="1.1" id="Layer_1" xmlns="http://www.w3.org/2000/svg" xmlns:xlink="http://www.w3.org/1999/xlink" x="0px" y="0px"
	 width="24px" height="24px" viewBox="0 0 24 24" enable-background="new 0 0 24 24" xml:space="preserve">
<path d="M12.1,17.1c1,0.1,2.1-0.3,2.9-0.9c0.7-0.7,1-1.7,1-2.7l0,0h-2.3c0,0.5-0.1,1-0.4,1.4c-0.3,0.3-0.7,0.5-1.2,0.4
	c-0.5,0-1-0.2-1.4-0.6c-0.4-0.5-0.5-1.1-0.5-1.8v-2c0-0.6,0.1-1.2,0.5-1.7C11,8.9,11.5,8.7,12,8.7c0.5-0.1,1,0.1,1.3,0.5
	c0.3,0.4,0.4,0.9,0.4,1.4H16l0,0c0-1-0.4-2-1.1-2.7c-0.8-0.7-1.8-1.1-2.9-1c-1.1,0-2.1,0.4-2.9,1.1C8.3,8.8,7.9,9.9,8,11v2
	c-0.1,1.1,0.4,2.2,1.2,3C10,16.8,11,17.2,12.1,17.1z M0,0v24h20l4-4V0H0z M22,19.2L19.2,22H2V2h20V19.2z"/>
</svg>
