<?xml version="1.0" encoding="UTF-8"?><svg id="widgets" xmlns="http://www.w3.org/2000/svg" width="24" height="24" viewBox="0 0 24 24"><path id="class" d="M0,0V24H20l4-4V0H0ZM22,19.17l-2.83,2.83H2V2H22V19.17Zm-12.85-3.19c-.77-.76-1.16-1.74-1.16-2.95v-2.08c0-1.2,.37-2.18,1.11-2.94,.74-.76,1.7-1.14,2.89-1.14,1.26,0,2.22,.32,2.88,.95s1.04,1.53,1.13,2.7v.04h-2.26c-.03-.65-.18-1.13-.43-1.44s-.7-.47-1.32-.47c-.52,0-.94,.21-1.24,.63-.3,.42-.45,.97-.45,1.66v2.09c0,.69,.16,1.24,.49,1.67s.78,.64,1.35,.64,.95-.15,1.18-.44,.36-.77,.4-1.42h2.25v.04c-.03,1.17-.38,2.06-1.02,2.67s-1.58,.92-2.81,.92-2.23-.38-3-1.13Z"/></svg>