<?xml version="1.0" encoding="utf-8"?>
<!-- Generator: Adobe Illustrator 27.1.1, SVG Export Plug-In . SVG Version: 6.00 Build 0)  -->
<svg version="1.1" id="widgets" xmlns="http://www.w3.org/2000/svg" xmlns:xlink="http://www.w3.org/1999/xlink" x="0px" y="0px"
	 width="24px" height="24px" viewBox="0 0 24 24" enable-background="new 0 0 24 24" xml:space="preserve">
<path id="dataquery" d="M0,22h24l-2,2H0V22z M4,0H0v20h4V0z M10,15.41c-1.7-0.69-3.12-1.95-4-3.54V20h4V15.41z M13,16
	c-0.34,0-0.67-0.03-1-0.07V20h4v-4.59C15.07,15.79,14.06,16,13,16z M24,16v3l-6.58-6.58C16.22,13.41,14.68,14,13,14
	c-3.87,0-7-3.13-7-7c0-3.87,3.13-7,7-7s7,3.13,7,7c0,1.42-0.43,2.74-1.15,3.85L24,16z M18,7c0-2.76-2.24-5-5-5S8,4.24,8,7
	s2.24,5,5,5S18,9.76,18,7z M17,7h-1.6c0-1.33-1.07-2.4-2.4-2.4V3C15.21,3,17,4.79,17,7z"/>
</svg>
