<?xml version="1.0" encoding="UTF-8"?><svg id="widgets" xmlns="http://www.w3.org/2000/svg" width="24" height="24" viewBox="0 0 24 24"><path id="datetimepicker" d="M13,8h-3v-3h3v3Zm4-3h-3v3h3v-3Zm-8,4h-3v3h3v-3Zm1,3h3v-3h-3v3Zm4,0h3v-3h-3v3Zm-8,4h3v-3h-3v3Zm0,4h3v-3h-3v3ZM4,4H2V24h7s0-2,0-2H4V4Zm17,0h-2V12h2V4ZM0,0V2H22l2-2H0ZM21,18.5c0,3.04-2.46,5.5-5.5,5.5s-5.5-2.46-5.5-5.5,2.46-5.5,5.5-5.5,5.5,2.46,5.5,5.5Zm-2,0c0-1.93-1.57-3.5-3.5-3.5s-3.5,1.57-3.5,3.5,1.57,3.5,3.5,3.5,3.5-1.57,3.5-3.5Zm-3-1.5h-1v2h2v-1h-1v-1Z"/></svg>