<?xml version="1.0" encoding="UTF-8"?><svg id="charts" xmlns="http://www.w3.org/2000/svg" width="24" height="24" viewBox="0 0 24 24"><path id="donutcharts" d="M11.02,6.05c-2.51,.42-4.5,2.4-4.92,4.92h-2.02c.45-3.62,3.32-6.49,6.94-6.94v2.03Zm-4.92,6.92h-2.02c.49,3.95,3.86,7.01,7.95,7.01,4.43,0,8.02-3.59,8.02-8.02,0-4.09-3.06-7.45-7.01-7.95v2.02c2.84,.48,5.01,2.94,5.01,5.92,0,3.32-2.69,6.01-6.01,6.01-2.98,0-5.44-2.17-5.92-5.01Zm17.9-2C23.52,5.13,18.87,.48,13.03,0V2.01c4.73,.47,8.5,4.23,8.97,8.97h2.01ZM11.02,2.01V0C4.85,.51,0,5.67,0,11.97c0,2.7,.9,5.19,2.41,7.2l1.43-1.43c-1.15-1.63-1.83-3.62-1.83-5.77C2,6.78,5.96,2.51,11.02,2.01ZM3.74,20.67c2.16,2.05,5.07,3.32,8.28,3.32,6.3,0,11.46-4.85,11.97-11.02h-2c-.5,5.06-4.77,9.02-9.97,9.02-2.66,0-5.07-1.04-6.87-2.74l-1.42,1.42Z"/></svg>