<?xml version="1.0" encoding="utf-8"?>
<!-- Generator: Adobe Illustrator 25.2.1, SVG Export Plug-In . SVG Version: 6.00 Build 0)  -->
<svg version="1.1" id="Layer_1" xmlns="http://www.w3.org/2000/svg" xmlns:xlink="http://www.w3.org/1999/xlink" x="0px" y="0px"
	 width="24px" height="24px" viewBox="0 0 24 24" enable-background="new 0 0 24 24" xml:space="preserve">
<g>
	<polygon points="20,19.2 17.2,22 4,22 4,4 2,4 2,24 18,24 22,20 22,20 22,4 20,4 	"/>
	<polygon points="0,0 0,2 22,2 24,0 	"/>
	<polygon points="6,6 6,7 17,7 18,6 	"/>
	<polygon points="8,10 8,11 17,11 18,10 	"/>
	<polygon points="14,14 14,15 17,15 18,14 	"/>
	<polygon points="18,18 10,18 10,19 17,19 	"/>
</g>
<g>
</g>
<g>
</g>
<g>
</g>
<g>
</g>
<g>
</g>
<g>
</g>
<g>
</g>
<g>
</g>
<g>
</g>
<g>
</g>
<g>
</g>
<g>
</g>
<g>
</g>
<g>
</g>
<g>
</g>
</svg>
