<?xml version="1.0" encoding="utf-8"?>
<!-- Generator: Adobe Illustrator 26.0.2, SVG Export Plug-In . SVG Version: 6.00 Build 0)  -->
<svg version="1.1" id="Layer_1" xmlns="http://www.w3.org/2000/svg" xmlns:xlink="http://www.w3.org/1999/xlink" x="0px" y="0px"
	 width="24px" height="24px" viewBox="0 0 24 24" enable-background="new 0 0 24 24" xml:space="preserve">
<path d="M20,0v4h4V0L20,0z M20,5v4h4V5H20z M9,2.8c-2.7,2.8-7,8-7,12.2c0,3.9,3.1,7,7,7s7-3.1,7-7C16,10.8,11.7,5.6,9,2.8 M9,0
	c0,0,9,8,9,15c0,5-4,9-9,9s-9-4-9-9C0,8,9,0,9,0L9,0z M13,14h-2c0,1.7-1.3,3-3,3v2C10.8,19,13,16.8,13,14z"/>
</svg>
