<?xml version="1.0" encoding="UTF-8"?><svg id="widgets" xmlns="http://www.w3.org/2000/svg" width="24" height="24" viewBox="0 0 24 24"><path id="globalization" d="M12,0C5.37,0,0,5.37,0,12s5.37,12,12,12,12-5.37,12-12S18.63,0,12,0Zm1,8.92c1.29-.06,2.52-.24,3.66-.53,.16,.82,.27,1.7,.32,2.61h-3.97v-2.08Zm0-2V2.2c1.32,.54,2.45,2.11,3.17,4.29-.98,.23-2.05,.38-3.17,.43Zm-2-4.72V6.92c-1.12-.06-2.19-.21-3.17-.44,.72-2.17,1.85-3.75,3.17-4.28Zm0,6.72v2.08h-3.97c.05-.91,.16-1.78,.32-2.61,1.14,.28,2.37,.46,3.66,.53Zm-5.97,2.08H2.05c.15-1.51,.65-2.92,1.39-4.16,.61,.36,1.28,.68,2,.96-.22,1.01-.37,2.08-.42,3.2Zm0,2c.05,1.12,.2,2.19,.42,3.2-.73,.28-1.4,.6-2,.96-.75-1.24-1.24-2.64-1.39-4.16h2.98Zm2,0h3.97v2.08c-1.29,.06-2.52,.24-3.66,.53-.16-.82-.27-1.7-.32-2.61Zm3.97,4.08v4.72c-1.32-.54-2.45-2.11-3.17-4.29,.98-.23,2.05-.38,3.17-.43Zm2,4.72v-4.72c1.12,.06,2.19,.21,3.17,.43-.72,2.17-1.85,3.75-3.17,4.29Zm0-6.72v-2.08h3.97c-.05,.91-.16,1.78-.32,2.61-1.14-.28-2.37-.46-3.66-.53Zm5.97-2.08h2.98c-.15,1.51-.65,2.92-1.39,4.16-.61-.36-1.28-.68-2-.96,.22-1.01,.37-2.08,.42-3.2Zm0-2c-.05-1.12-.2-2.19-.42-3.2,.73-.28,1.4-.6,2-.96,.75,1.24,1.24,2.65,1.39,4.16h-2.98Zm.44-5.7c-.42,.23-.89,.44-1.38,.62-.35-1.02-.78-1.93-1.28-2.73,1.01,.54,1.9,1.26,2.66,2.1ZM7.25,3.2c-.5,.8-.93,1.71-1.28,2.73-.5-.19-.96-.4-1.38-.63,.76-.84,1.65-1.56,2.66-2.1Zm-2.66,15.5c.42-.23,.88-.44,1.38-.63,.35,1.02,.78,1.93,1.28,2.73-1.01-.54-1.9-1.26-2.66-2.1Zm12.15,2.1c.5-.8,.93-1.71,1.28-2.73,.5,.19,.96,.39,1.38,.62-.76,.84-1.66,1.56-2.66,2.11Z"/></svg>