<?xml version="1.0" encoding="UTF-8"?><svg id="widgets" xmlns="http://www.w3.org/2000/svg" width="24" height="24" viewBox="0 0 24 24"><path id="languages-dropdown" d="M19,4h2V20h0l-4,4H2V4h2V22h12.17l2.83-2.83V4ZM0,0V2H22l2-2H0ZM17,9v.05c.63,1,1,2.18,1,3.45s-.37,2.45-1,3.45v.05h-.03c-1.16,1.8-3.17,3-5.47,3s-4.32-1.2-5.47-3h-.03v-.05c-.63-1-1-2.18-1-3.45s.37-2.45,1-3.45v-.05h.03c1.16-1.8,3.17-3,5.47-3s4.32,1.2,5.47,3h.03Zm-9.73,0h1.28c.2-.58,.45-1.1,.73-1.53-.79,.35-1.47,.88-2.01,1.53Zm-1.24,3h1.98c.03-.7,.12-1.38,.26-2h-1.66c-.31,.61-.51,1.28-.57,2Zm2.24,3c-.14-.62-.23-1.3-.26-2h-1.98c.07,.72,.26,1.39,.57,2h1.66Zm1.01,2.53c-.29-.43-.53-.95-.73-1.53h-1.28c.54,.65,1.23,1.19,2.01,1.53Zm1.71-1.53h-1.43c.36,.95,.86,1.63,1.43,1.89v-1.89Zm0-3h-1.99c.03,.72,.12,1.39,.26,2h1.72v-2Zm0-3h-1.72c-.14,.61-.23,1.28-.26,2h1.99v-2Zm0-2.89c-.57,.26-1.07,.94-1.43,1.89h1.43v-1.89Zm2.71,.36c.29,.43,.53,.95,.73,1.53h1.28c-.54-.65-1.23-1.19-2.01-1.53Zm-1.71,1.53h1.43c-.36-.95-.86-1.63-1.43-1.89v1.89Zm0,3h1.99c-.03-.72-.12-1.39-.26-2h-1.72v2Zm0,3h1.72c.14-.61,.23-1.28,.26-2h-1.99v2Zm1.43,1h-1.43v1.89c.57-.25,1.07-.94,1.43-1.89Zm2.3,0h-1.28c-.2,.58-.45,1.1-.73,1.53,.79-.35,1.47-.88,2.01-1.53Zm1.24-3h-1.98c-.03,.7-.12,1.38-.26,2h1.66c.31-.61,.51-1.28,.57-2Zm0-1c-.07-.72-.26-1.39-.57-2h-1.66c.14,.62,.23,1.3,.26,2h1.98Z"/></svg>