<?xml version="1.0" encoding="utf-8"?>
<!-- Generator: Adobe Illustrator 24.2.3, SVG Export Plug-In . SVG Version: 6.00 Build 0)  -->
<svg version="1.1" id="Layer_1" xmlns="http://www.w3.org/2000/svg" xmlns:xlink="http://www.w3.org/1999/xlink" x="0px" y="0px"
	 width="24px" height="24px" viewBox="0 0 24 24" enable-background="new 0 0 24 24" xml:space="preserve">
<path d="M18,12.5C18,8.9,15.1,6,11.5,6S5,8.9,5,12.5S7.9,19,11.5,19S18,16.1,18,12.5z M12,17.8v-2.6c0.6,0,1.1,0.1,1.6,0.2
	C13.2,16.6,12.7,17.5,12,17.8z M12,14.2V13h2c0,0.5-0.1,1-0.1,1.4C13.3,14.3,12.6,14.2,12,14.2z M15,13h2c-0.1,0.9-0.4,1.6-0.8,2.4
	c-0.4-0.2-0.9-0.5-1.4-0.6C14.9,14.2,15,13.6,15,13z M15,12c0-0.6-0.1-1.2-0.2-1.7c0.5-0.2,1-0.4,1.4-0.6c0.4,0.7,0.7,1.5,0.8,2.3
	H15z M14,12h-2v-1.2c0.6,0,1.3-0.1,1.8-0.2C13.9,11,14,11.5,14,12z M12,9.8V7.2c0.7,0.3,1.2,1.2,1.6,2.4C13.1,9.7,12.6,9.7,12,9.8z
	 M11,7.2v2.5c-0.6,0-1.1-0.1-1.6-0.2C9.8,8.4,10.3,7.5,11,7.2z M11,10.8V12H9c0-0.5,0.1-1,0.1-1.4C9.7,10.7,10.4,10.8,11,10.8z
	 M8,12H6c0.1-0.9,0.3-1.6,0.8-2.4c0.4,0.3,0.9,0.5,1.4,0.6C8.1,10.8,8,11.4,8,12z M8,13c0,0.6,0.1,1.2,0.2,1.7
	c-0.5,0.2-1,0.4-1.4,0.6C6.4,14.6,6.1,13.9,6,13H8z M9,13h2v1.2c-0.6,0-1.3,0.1-1.8,0.2C9.1,14,9,13.5,9,13z M11,15.3v2.5
	c-0.7-0.3-1.2-1.2-1.6-2.3C9.9,15.4,10.4,15.3,11,15.3z M13.7,17.5c0.3-0.5,0.6-1.1,0.8-1.8c0.4,0.1,0.7,0.3,1,0.5
	C15.1,16.8,14.4,17.2,13.7,17.5z M15.6,8.8c-0.3,0.2-0.7,0.3-1.1,0.5c-0.2-0.7-0.5-1.3-0.8-1.8C14.4,7.8,15.1,8.2,15.6,8.8z
	 M9.3,7.5C9,8,8.7,8.6,8.5,9.3C8.1,9.1,7.7,9,7.4,8.8C7.9,8.2,8.6,7.8,9.3,7.5z M7.4,16.2c0.3-0.2,0.7-0.3,1-0.5
	C8.7,16.4,9,17,9.3,17.5C8.6,17.2,7.9,16.8,7.4,16.2z M19,4h2v16l0,0l-4,4H4H2v-2V4h2v18h12.2l2.8-2.8V4z M24,0l-2,2H0V0H24z"/>
</svg>
