<?xml version="1.0" encoding="UTF-8"?><svg id="widgets" xmlns="http://www.w3.org/2000/svg" width="24" height="24" viewBox="0 0 24 24"><path id="listview" d="M13,13h0v11h0s6,0,6,0v-.05l.05,.05,4.95-4.95-.05-.05h.05v-6H13Zm9,5.22l-3.78,3.78h-3.22v-7h7v3.22ZM13,0h0V11h0s6,0,6,0v-.05l.05,.05,4.95-4.95-.05-.05h.05V0H13Zm9,5.22l-3.78,3.78h-3.22V2h7v3.22ZM0,13H0v11H0s6,0,6,0v-.05l.05,.05,4.95-4.95-.05-.05h.05v-6H0Zm9,5.22l-3.78,3.78H2v-7h7v3.22ZM0,0H0V11H0s6,0,6,0v-.05l.05,.05,4.95-4.95-.05-.05h.05V0H0ZM9,5.22l-3.78,3.78H2V2h7v3.22Z"/></svg>