<?xml version="1.0" encoding="UTF-8"?><svg id="widgets" xmlns="http://www.w3.org/2000/svg" width="24" height="24" viewBox="0 0 24 24"><path id="localization" d="M0,0V17H4v7l7-7h13V0H0ZM22,15H10l-4,4v-4H2V2H22V15Zm-8.14-1l.82-2.02h3.63l.82,2.02h1.86l-3.64-8.92-.03-.08h-1.67l-3.67,9h1.86Zm2.64-6.47l1.17,2.86h-2.33l1.17-2.86Zm-6.59-1.53H3V4h5v-1h2v1h4v2h-2.06c-.2,1.75-.98,2.82-2.17,3.97,.52,.45,1.11,.85,1.68,1.14l-.89,1.79c-.79-.4-1.58-.94-2.28-1.57-.75,.66-1.59,1.41-2.56,2.38l-1.41-1.41c1.02-1.02,1.92-1.82,2.66-2.47-.58-.87-.96-1.82-.96-2.82h2c0,.48,.18,.97,.47,1.45,.84-.81,1.28-1.48,1.45-2.45Z"/></svg>