<?xml version="1.0" encoding="UTF-8"?><svg id="widgets" xmlns="http://www.w3.org/2000/svg" width="24" height="24" viewBox="0 0 24 24"><path id="mvvm" d="M16,20l-1.41,1.41-2.59,2.59-1.41-1.41,2.59-2.59-2.59-2.59,1.41-1.41,2.59,2.59,1.41,1.41ZM9,4l1.41,1.41,2.59,2.59,1.41-1.41-2.59-2.59,2.59-2.59-1.41-1.41-2.59,2.59-1.41,1.41Zm3,15c-3.87,0-7-3.13-7-7,0-2.49,1.3-4.67,3.26-5.91l-.68-.68-.77-.77c-2.31,1.63-3.82,4.31-3.82,7.35,0,4.97,4.03,9,9,9,1.4,0,2.72-.33,3.9-.9l.1-.1-1.48-1.48c-.78,.3-1.63,.48-2.52,.48Zm0-16c-.8,0-1.57,.11-2.31,.31l-.69,.69,1.23,1.23c.56-.15,1.15-.23,1.77-.23,3.87,0,7,3.13,7,7,0,2.23-1.05,4.21-2.68,5.5l1.09,1.09,.34,.34c1.99-1.65,3.25-4.14,3.25-6.92,0-4.97-4.03-9-9-9Z"/></svg>