<?xml version="1.0" encoding="utf-8"?>
<!-- Generator: Adobe Illustrator 24.2.3, SVG Export Plug-In . SVG Version: 6.00 Build 0)  -->
<svg version="1.1" id="Layer_1" xmlns="http://www.w3.org/2000/svg" xmlns:xlink="http://www.w3.org/1999/xlink" x="0px" y="0px"
	 width="24px" height="24px" viewBox="0 0 24 24" enable-background="new 0 0 24 24" xml:space="preserve">
<path d="M12.8,3l1.6-1.6L13,0l-2.6,2.6L9,4l4,4l1.4-1.4l-1.5-1.5c3.8,0.5,6.5,4,6,7.8c-0.2,1.8-1.2,3.5-2.6,4.6l1.1,1.1l0.3,0.3
	c3.8-3.2,4.4-8.8,1.2-12.7C17.4,4.4,15.2,3.2,12.8,3z M14.5,18.5L12,16l-1.4,1.4l1.6,1.6H12c-3.9,0-7-3.1-7-7c0-2.4,1.2-4.6,3.2-5.9
	L7.6,5.4L6.8,4.7c-4.1,2.9-5,8.5-2.2,12.5C6.3,19.6,9.1,21,12,21h0.2l-1.6,1.6L12,24l2.6-2.6l1.3-1.3l0,0L16,20l-1.4-1.4L14.5,18.5z
	"/>
</svg>
