<?xml version="1.0" encoding="UTF-8"?><svg id="widgets" xmlns="http://www.w3.org/2000/svg" width="24" height="24" viewBox="0 0 24 24"><path id="orgchart" d="M3.97,20.01c0,1.1-.89,1.99-1.99,1.99S0,21.11,0,20.01s.89-1.99,1.99-1.99,1.99,.89,1.99,1.99ZM12,6c1.1,0,2-.9,2-2s-.9-2-2-2-2,.89-2,2,.9,2,2,2Zm10,11.97c-1.1,0-2,.9-2,2s.9,2,2,2,2-.9,2-2-.9-2-2-2Zm-10,0c-1.1,0-2,.9-2,2s.9,2,2,2,2-.9,2-2-.9-2-2-2ZM0,8v8s2-2,2-2v-3s9.01,0,9.01,0v5.01s1.99-2,1.99-2v-3.01s9.01,0,9.01,0v5.01s1.99-2,1.99-2l.02-6.01H0Z"/></svg>