<?xml version="1.0" encoding="utf-8"?>
<!-- Generator: Adobe Illustrator 24.2.3, SVG Export Plug-In . SVG Version: 6.00 Build 0)  -->
<svg version="1.1" id="Layer_1" xmlns="http://www.w3.org/2000/svg" xmlns:xlink="http://www.w3.org/1999/xlink" x="0px" y="0px"
	 width="24px" height="24px" viewBox="0 0 24 24" enable-background="new 0 0 24 24" xml:space="preserve">
<path d="M11,0C4.4,0.6-0.5,6.4,0.1,13c0.2,2.5,1.2,4.8,2.8,6.7l8.1-8.2V0z M9,10.7l-5.8,5.9C0.6,11.7,2.5,5.7,7.4,3.1
	c0.5-0.3,1-0.5,1.6-0.7V10.7z M13,0v11h11C23.5,5.1,18.9,0.5,13,0z M15,2.4c3.1,1,5.6,3.4,6.6,6.6H15V2.4z M4.3,21.1
	c5.1,4.3,12.6,3.7,16.9-1.4c1.6-1.9,2.6-4.3,2.8-6.7H12.4L4.3,21.1z M21.5,15c-1.7,5.3-7.3,8.2-12.6,6.5c-0.5-0.2-1.1-0.4-1.6-0.7
	l5.9-5.8H21.5z"/>
</svg>
