<?xml version="1.0" encoding="UTF-8"?><svg id="charts" xmlns="http://www.w3.org/2000/svg" width="24" height="24" viewBox="0 0 24 24"><path id="piecharts" d="M15.02,2.44c3.12,.97,5.57,3.42,6.54,6.54h-6.54V2.44M13.02,.03V10.97h10.95C23.49,5.15,18.85,.51,13.02,.03h0Zm-4,2.42V10.73l-5.86,5.86c-.74-1.42-1.14-3-1.14-4.62C2.02,7.57,4.96,3.73,9.02,2.45M11.02,.03C4.87,.53,.02,5.68,.02,11.97c0,2.95,1.07,5.65,2.84,7.74L11.02,11.56V.03h0Zm10.53,14.95c-1.29,4.06-5.12,7-9.53,7-1.62,0-3.2-.4-4.62-1.14l5.86-5.86h8.29m2.42-2H12.44L4.28,21.13c2.09,1.77,4.79,2.84,7.74,2.84,6.29,0,11.44-4.84,11.95-11h0Z"/></svg>