<?xml version="1.0" encoding="UTF-8"?><svg id="charts" xmlns="http://www.w3.org/2000/svg" width="24" height="24" viewBox="0 0 24 24"><path id="qrcode" d="M10,20v2h-2v-4h4v2h-2Zm4-4h6v-2H12v4h2v-2Zm2,8h2v-2h-2v2Zm-6-2v2h4v-2h-4ZM2,12H0v2H2v-2Zm20,0h2v-4h-2v4Zm-12,0v2h2v-2h-2Zm-4,2v2h4v-2H6Zm-2-2v2h2v-2h-2Zm2-3v-2h-2v2h2ZM10,2h-2v2h2V2Zm2,2h2V0h-4V2h2v2ZM2,7H0v2H2v-2Zm16,5v-2h-4v2h4Zm-8,0v-2h4v-2h-2v-2h-4v4h-2v2h4Zm4,8v2h2v-2h-2Zm4-2h-2v2h2v-2Zm6,6v-2h-4v2h4Zm-6-2h2v-2h-2v2Zm4-4h-2v2h4v-6h-2v4Zm-4-11h-2v2h2v-2Zm-12-1H0V0H6V6ZM4,2H2v2h2V2ZM0,18H6v6H0v-6Zm2,4h2v-2H2v2ZM24,0V6h-6V0h6Zm-2,2h-2v2h2V2Z"/></svg>