<?xml version="1.0" encoding="UTF-8"?><svg id="charts" xmlns="http://www.w3.org/2000/svg" width="24" height="24" viewBox="0 0 24 24"><path id="radialgauge" d="M24,6.93l-11.08,11.09h-2.83L24,4.1v2.83Zm-12-2.91c2.78,0,5.3,1.14,7.11,2.97l1.41-1.41c-2.17-2.2-5.19-3.56-8.53-3.56C5.37,2.02,0,7.39,0,14.02c0,3.06,1.15,5.84,3.04,7.96l1.41-1.41c-1.52-1.75-2.45-4.04-2.45-6.55,0-5.52,4.48-10,10-10Zm9.62,7.3c.24,.86,.38,1.76,.38,2.7,0,2.51-.93,4.79-2.45,6.55l1.41,1.41c1.88-2.12,3.04-4.9,3.04-7.96,0-1.51-.29-2.95-.8-4.29l-1.58,1.58Z"/></svg>