<?xml version="1.0" encoding="UTF-8"?><svg id="widgets" xmlns="http://www.w3.org/2000/svg" width="24" height="24" viewBox="0 0 24 24"><path id="radiogroup" d="M7.6,18.5c0-2.43,1.97-4.4,4.4-4.4s4.4,1.97,4.4,4.4-1.97,4.4-4.4,4.4-4.4-1.97-4.4-4.4m-1.1,0c0,3.04,2.46,5.5,5.5,5.5s5.5-2.46,5.5-5.5-2.46-5.5-5.5-5.5-5.5,2.46-5.5,5.5h0Zm1.1-13c0-2.43,1.97-4.4,4.4-4.4s4.4,1.97,4.4,4.4-1.97,4.4-4.4,4.4-4.4-1.97-4.4-4.4m-1.1,0c0,3.04,2.46,5.5,5.5,5.5s5.5-2.46,5.5-5.5S15.04,0,12,0,6.5,2.46,6.5,5.5h0Zm3,0c0,1.38,1.12,2.5,2.5,2.5s2.5-1.12,2.5-2.5-1.12-2.5-2.5-2.5-2.5,1.12-2.5,2.5Z"/></svg>