<?xml version="1.0" encoding="utf-8"?>
<!-- Generator: Adobe Illustrator 24.2.3, SVG Export Plug-In . SVG Version: 6.00 Build 0)  -->
<svg version="1.1" id="Layer_1" xmlns="http://www.w3.org/2000/svg" xmlns:xlink="http://www.w3.org/1999/xlink" x="0px" y="0px"
	 width="24px" height="24px" viewBox="0 0 24 24" enable-background="new 0 0 24 24" xml:space="preserve">
<path d="M17.2,15.4C18.4,13.9,19,12,19,10c0-5-4-9-9-9c-5,0-9,4-9,9s4,8.9,9,8.9c2.2,0,4.3-0.7,5.9-2.1L22,23v-2.8L17.2,15.4z
	 M10,17c-3.9,0-7-3.1-7-7s3.1-7,7-7s7,3.1,7,7S13.9,17,10,17z M15,10h-2c0-1.7-1.3-3-3-3V5C12.8,5,15,7.2,15,10z"/>
</svg>
