<?xml version="1.0" encoding="UTF-8"?><svg id="widgets" xmlns="http://www.w3.org/2000/svg" width="24" height="24" viewBox="0 0 24 24"><path id="svg" d="M12,2c4.96,0,9,4.04,9,9,0,4.25-3.02,7.96-7.18,8.82l-.59,.12-.42,.42-.81,.81-.81-.81-.42-.42-.59-.12c-4.16-.85-7.18-4.56-7.18-8.82C3,6.04,7.04,2,12,2m0-2C5.92,0,1,4.92,1,11c0,5.31,3.77,9.74,8.77,10.77l2.23,2.23,2.23-2.23c5.01-1.03,8.77-5.46,8.77-10.77C23,4.92,18.08,0,12,0h0Zm-3.42,12.66c0-.19-.06-.33-.19-.44-.13-.1-.35-.21-.68-.32-.33-.11-.59-.22-.78-.33-.52-.3-.78-.7-.78-1.21,0-.26,.07-.5,.21-.7,.14-.21,.34-.37,.6-.48,.26-.12,.56-.17,.88-.17s.62,.06,.88,.19,.46,.3,.6,.53c.14,.23,.21,.49,.21,.78h-.95c0-.22-.07-.4-.2-.52-.13-.12-.32-.19-.56-.19s-.41,.05-.54,.15c-.13,.1-.19,.24-.19,.41,0,.16,.07,.29,.23,.4s.37,.21,.67,.3c.54,.17,.93,.38,1.18,.64s.37,.57,.37,.95c0,.42-.15,.75-.45,.99s-.71,.36-1.22,.36c-.35,0-.68-.07-.97-.2-.29-.14-.51-.33-.67-.56s-.23-.51-.23-.83h.95c0,.54,.3,.81,.91,.81,.23,0,.4-.05,.53-.15,.13-.1,.19-.23,.19-.41Zm3.29,.07l1.04-3.66h1.06l-1.6,4.87h-.99l-1.6-4.87h1.05l1.04,3.66Zm6.13,.59c-.17,.22-.41,.38-.72,.5-.31,.12-.66,.18-1.04,.18-.4,0-.75-.09-1.05-.28-.3-.18-.53-.45-.7-.8s-.25-.76-.25-1.23v-.33c0-.49,.08-.91,.23-1.26,.16-.36,.38-.63,.67-.82s.63-.28,1.03-.28c.55,0,.97,.14,1.28,.41,.31,.28,.49,.68,.55,1.2h-.92c-.04-.28-.14-.48-.28-.61s-.34-.19-.6-.19c-.32,0-.57,.13-.74,.38s-.25,.64-.26,1.14v.31c0,.51,.09,.9,.27,1.16s.45,.39,.81,.39,.61-.08,.76-.24v-.84h-.86v-.74h1.81v1.94Z"/></svg>