<?xml version="1.0" encoding="utf-8"?>
<!-- Generator: Adobe Illustrator 24.3.0, SVG Export Plug-In . SVG Version: 6.00 Build 0)  -->
<svg version="1.1" id="Layer_1" xmlns="http://www.w3.org/2000/svg" xmlns:xlink="http://www.w3.org/1999/xlink" x="0px" y="0px"
	 width="24px" height="24px" viewBox="0 0 24 24" enable-background="new 0 0 24 24" xml:space="preserve">
<g>
	<g>
		<path d="M11.9,11.7l-1-3.7H9.8l1.6,4.9h1L14,8.1h-1.1L11.9,11.7z M7.8,8.8c0.2,0,0.4,0.1,0.6,0.2c0.1,0.1,0.2,0.3,0.2,0.5h0.9
			c0-0.3-0.1-0.6-0.2-0.8C9.2,8.5,9,8.3,8.7,8.2C8.5,8.1,8.2,8,7.8,8C7.5,8,7.2,8.1,7,8.2C6.7,8.3,6.5,8.5,6.4,8.7
			C6.2,8.9,6.1,9.1,6.1,9.4c0,0.5,0.3,0.9,0.8,1.2c0.2,0.1,0.5,0.2,0.8,0.3C8,11,8.3,11.1,8.4,11.2c0.1,0.1,0.2,0.2,0.2,0.4
			c0,0.2-0.1,0.3-0.2,0.4c-0.1,0.1-0.3,0.1-0.5,0.1c-0.6,0-0.9-0.3-0.9-0.8H6c0,0.3,0.1,0.6,0.2,0.8s0.4,0.4,0.7,0.6
			c0.3,0.1,0.6,0.2,1,0.2c0.5,0,0.9-0.1,1.2-0.4c0.3-0.2,0.5-0.6,0.5-1c0-0.4-0.1-0.7-0.4-0.9c-0.2-0.3-0.6-0.5-1.2-0.6
			C7.7,10,7.5,9.9,7.3,9.8C7.2,9.7,7.1,9.5,7.1,9.4c0-0.2,0.1-0.3,0.2-0.4C7.4,8.9,7.6,8.8,7.8,8.8z M15.5,9.2
			c0.2-0.3,0.4-0.4,0.7-0.4c0.3,0,0.5,0.1,0.6,0.2c0.1,0.1,0.2,0.3,0.3,0.6H18c-0.1-0.5-0.2-0.9-0.5-1.2C17.1,8.1,16.7,8,16.2,8
			c-0.4,0-0.7,0.1-1,0.3s-0.5,0.5-0.7,0.8c-0.2,0.4-0.2,0.8-0.2,1.3v0.3c0,0.5,0.1,0.9,0.3,1.2c0.2,0.3,0.4,0.6,0.7,0.8
			c0.3,0.2,0.6,0.3,1,0.3c0.4,0,0.7-0.1,1-0.2c0.3-0.1,0.6-0.3,0.7-0.5v-1.9h-1.8v0.7h0.9V12c-0.2,0.2-0.4,0.2-0.8,0.2
			c-0.4,0-0.6-0.1-0.8-0.4c-0.2-0.3-0.3-0.6-0.3-1.2v-0.3C15.2,9.8,15.3,9.4,15.5,9.2z M12,0C5.9,0,1,4.9,1,11
			c0,5.3,3.8,9.7,8.8,10.8L12,24l2.2-2.2c5-1,8.8-5.5,8.8-10.8C23,4.9,18.1,0,12,0z M13.8,19.8l-0.6,0.1L12,21.2l-1.2-1.2l-0.6-0.1
			C6,19,3,15.3,3,11c0-5,4-9,9-9s9,4,9,9C21,15.3,18,19,13.8,19.8z"/>
	</g>
</g>
<g>
</g>
<g>
</g>
<g>
</g>
<g>
</g>
<g>
</g>
<g>
</g>
</svg>
