<?xml version="1.0" encoding="utf-8"?>
<!-- Generator: Adobe Illustrator 25.2.0, SVG Export Plug-In . SVG Version: 6.00 Build 0)  -->
<svg version="1.1" id="Layer_1" xmlns="http://www.w3.org/2000/svg" xmlns:xlink="http://www.w3.org/1999/xlink" x="0px" y="0px"
	 width="24px" height="24px" viewBox="0 0 24 24" enable-background="new 0 0 24 24" xml:space="preserve">
<path d="M13,2v2v15v1v1h11v-1v-1V4V2H13z M22,19h-7V4h7V19z M4,12h1l2-2H4V12z M4,16h1l2-2H4V16z M4,8h1l2-2H4V8z M20,10h-3v2h1
	L20,10z M20,6h-3v2h1L20,6z M0,4v15v1v1h11v-1v-1V4V2H0V4z M2,4h7v15H2V4z"/>
<g>
</g>
<g>
</g>
<g>
</g>
<g>
</g>
<g>
</g>
<g>
</g>
<g>
</g>
<g>
</g>
<g>
</g>
<g>
</g>
<g>
</g>
<g>
</g>
<g>
</g>
<g>
</g>
<g>
</g>
</svg>
