<?xml version="1.0" encoding="utf-8"?>
<!-- Generator: Adobe Illustrator 24.2.3, SVG Export Plug-In . SVG Version: 6.00 Build 0)  -->
<svg version="1.1" id="Layer_1" xmlns="http://www.w3.org/2000/svg" xmlns:xlink="http://www.w3.org/1999/xlink" x="0px" y="0px"
	 width="24px" height="24px" viewBox="0 0 24 24" enable-background="new 0 0 24 24" xml:space="preserve">
<path d="M0,24h7l4-4v-5H0V24z M2,17h7v2.2L6.2,22H2V17z M13,0v9h7l4-4V0H13z M22,4.2L19.2,7H15V2h7V4.2z M0,13h7l4-4V0H0V13z M2,2h7
	v6.2L6.2,11H2V2z M13,24h7l4-4v-9H13V24z M15,13h7v6.2L19.2,22H15V13z"/>
</svg>
