<?xml version="1.0" encoding="UTF-8"?><svg id="widgets" xmlns="http://www.w3.org/2000/svg" width="24" height="24" viewBox="0 0 24 24"><path id="timeline" d="M21,5h-5V3h7l-2,2Zm-5,16h5l2-2h-7v2ZM1,13H6l2-2H1v2ZM13,6.82v2.37c1.16,.41,2,1.51,2,2.82s-.84,2.4-2,2.82v2.37c1.16,.41,2,1.51,2,2.82,0,1.66-1.34,3-3,3s-3-1.34-3-3c0-1.3,.84-2.4,2-2.82v-2.37c-1.16-.41-2-1.51-2-2.82s.84-2.4,2-2.82v-2.37c-1.16-.41-2-1.51-2-2.82,0-1.66,1.34-3,3-3s3,1.34,3,3c0,1.3-.84,2.4-2,2.82Zm0,13.18c0-.55-.45-1-1-1s-1,.45-1,1,.45,1,1,1,1-.45,1-1Zm0-16c0-.55-.45-1-1-1s-1,.45-1,1,.45,1,1,1,1-.45,1-1Z"/></svg>