<?xml version="1.0" encoding="utf-8"?>
<!-- Generator: Adobe Illustrator 26.5.0, SVG Export Plug-In . SVG Version: 6.00 Build 0)  -->
<svg version="1.1" id="Time_Duration_Picker" xmlns="http://www.w3.org/2000/svg" xmlns:xlink="http://www.w3.org/1999/xlink"
	 x="0px" y="0px" viewBox="0 0 24 24" style="enable-background:new 0 0 24 24;" xml:space="preserve">
<style type="text/css">
	.st0{fill:#010101;}
</style>
<path id="Time_Duration_Picker_00000160172049621908659560000005890442036237625480_" class="st0" d="M19,14h-9V5l2,2v5h5L19,14z
	 M12,0C5.4,0,0,5.4,0,12s5.4,12,12,12c2.6,0,5-0.8,7-2.3V24h2v-6h-6v2h3c-1.7,1.3-3.7,2-6,2C6.5,22,2,17.5,2,12C2,6.5,6.5,2,12,2
	s10,4.5,10,10c0,0.3,0,0.7,0,1h2c0-0.3,0-0.7,0-1C24,5.4,18.6,0,12,0z"/>
</svg>
