<?xml version="1.0" encoding="UTF-8"?><svg id="widgets" xmlns="http://www.w3.org/2000/svg" width="24" height="24" viewBox="0 0 24 24"><path id="toucheffects" d="M10,12l-1.41,1.41-2.59,2.59-1.41-1.41,2.59-2.59-2.59-2.59,1.41-1.41,2.59,2.59,1.41,1.41Zm4,0l1.41,1.41,2.59,2.59,1.41-1.41-2.59-2.59,2.59-2.59-1.41-1.41-2.59,2.59-1.41,1.41Zm-3.41,3.41l-2.59,2.59,1.41,1.41,2.59-2.59,2.59,2.59,1.41-1.41-2.59-2.59-1.41-1.41-1.41,1.41Zm1.41-5.41l1.41-1.41,2.59-2.59-1.41-1.41-2.59,2.59-2.59-2.59-1.41,1.41,2.59,2.59,1.41,1.41Z"/></svg>