<?xml version="1.0" encoding="UTF-8"?><svg id="widgets" xmlns="http://www.w3.org/2000/svg" width="24" height="24" viewBox="0 0 24 24"><g id="touchevents"><path d="M21,18v6s-9,0-9,0l-6-6v-4l3,3V8l2-2V15h7s3,3,3,3ZM10,2c-2.76,0-5,2.24-5,5,0,2.05,1.24,3.81,3,4.58v-2.36c-.61-.55-1-1.34-1-2.22,0-1.66,1.34-3,3-3s3,1.34,3,3c0,.89-.39,1.67-1,2.22v2.36c1.76-.77,3-2.53,3-4.58,0-2.76-2.24-5-5-5Zm0-2C6.13,0,3,3.13,3,7c0,3.17,2.11,5.85,5,6.71v-1.23c-2.23-.82-3.83-2.96-3.83-5.47,0-3.22,2.61-5.83,5.83-5.83s5.83,2.61,5.83,5.83c0,2.52-1.6,4.66-3.83,5.47v1.23c2.89-.86,5-3.54,5-6.71,0-3.87-3.13-7-7-7Z"/></g></svg>