<?xml version="1.0" encoding="utf-8"?>
<!-- Generator: Adobe Illustrator 27.1.1, SVG Export Plug-In . SVG Version: 6.00 Build 0)  -->
<svg version="1.1" id="widgets" xmlns="http://www.w3.org/2000/svg" xmlns:xlink="http://www.w3.org/1999/xlink" x="0px" y="0px"
	 width="24px" height="24px" viewBox="0 0 24 24" enable-background="new 0 0 24 24" xml:space="preserve">
<path id="typography_00000137112291635436397140000017870998297526954429_" d="M5.02,17.17h4.21l0.74,2.57h3.3L8.57,6H5.68L1,19.74
	h3.28L5.02,17.17z M7.12,9.85l1.38,4.77H5.76L7.12,9.85z M19.15,13.76c-1.26,0-2.25,0.28-2.98,0.83c-0.73,0.55-1.1,1.31-1.1,2.29
	c0,0.96,0.26,1.71,0.78,2.25c0.52,0.54,1.27,0.82,2.26,0.82c0.6,0,1.15-0.17,1.67-0.49c0.52-0.33,0.94-0.74,1.26-1.23
	c0.01,0.24,0.03,0.48,0.06,0.71c0.03,0.24,0.08,0.51,0.14,0.82H23c-0.09-0.33-0.16-0.66-0.19-1c-0.04-0.34-0.05-0.69-0.05-1.06
	v-4.92c0-1.11-0.33-1.95-0.98-2.54c-0.65-0.59-1.52-0.88-2.59-0.88c-1.09,0-1.97,0.31-2.66,0.92c-0.69,0.62-1.01,1.3-0.98,2.04
	l0.02,0.06h1.65c0-0.43,0.17-0.79,0.52-1.1c0.35-0.3,0.8-0.46,1.35-0.46c0.62,0,1.1,0.17,1.44,0.52c0.34,0.35,0.51,0.82,0.51,1.42
	v1.01H19.15z M21.03,16.67c-0.15,0.44-0.48,0.84-0.98,1.19c-0.5,0.35-1.06,0.52-1.69,0.52c-0.51,0-0.9-0.13-1.17-0.4
	c-0.26-0.26-0.39-0.62-0.39-1.07c0-0.51,0.21-0.95,0.63-1.33c0.42-0.38,0.97-0.56,1.67-0.56h1.94V16.67z"/>
</svg>
