<?xml version="1.0" encoding="UTF-8"?><svg id="widgets" xmlns="http://www.w3.org/2000/svg" width="24" height="24" viewBox="0 0 24 24"><path id="typography" d="M5.02,17.17h4.21l.74,2.57h3.3L8.57,6h-2.89L1,19.74h3.28l.74-2.57Zm2.1-7.32l1.38,4.77h-2.74l1.37-4.77Zm12.03,3.91c-1.26,0-2.25,.28-2.98,.83-.73,.55-1.1,1.31-1.1,2.29s.26,1.71,.78,2.25c.52,.54,1.27,.82,2.26,.82,.6,0,1.15-.17,1.67-.49,.52-.33,.94-.74,1.26-1.23,0,.24,.03,.48,.06,.71,.03,.24,.08,.51,.14,.82h1.78c-.09-.33-.16-.66-.19-1s-.05-.69-.05-1.06v-4.92c0-1.11-.33-1.95-.98-2.54-.65-.59-1.52-.88-2.59-.88s-1.97,.31-2.66,.92c-.69,.62-1.01,1.3-.98,2.04l.02,.06h1.65c0-.43,.17-.79,.52-1.1,.35-.3,.8-.46,1.35-.46,.62,0,1.1,.17,1.44,.52,.34,.35,.51,.82,.51,1.42v1.01h-1.87Zm1.87,2.91c-.15,.44-.48,.84-.98,1.19-.5,.35-1.06,.52-1.69,.52-.51,0-.9-.13-1.17-.4-.26-.26-.39-.62-.39-1.07,0-.51,.21-.95,.63-1.33,.42-.38,.97-.56,1.67-.56h1.94v1.66Z"/></svg>