<?xml version="1.0" encoding="UTF-8"?><svg id="widgets" xmlns="http://www.w3.org/2000/svg" width="24" height="24" viewBox="0 0 24 24"><path id="wizard" d="M7,3h-2V1h4l-2,2Zm3-1c0-1.1,.9-2,2-2s2,.9,2,2-.89,2-2,2-2-.9-2-2Zm1,0c0,.55,.45,1,1,1s1-.45,1-1-.45-1-1-1-1,.45-1,1ZM2,4c1.11,0,2-.9,2-2S3.11,0,2,0,0,.9,0,2s.9,2,2,2ZM19,1h-4V3h2l2-2Zm3,3c1.11,0,2-.9,2-2s-.89-2-2-2-2,.9-2,2,.9,2,2,2Zm2,2v14l-4,4H0V6H24Zm-2,2H2v14H19.18l2.82-2.82V8Zm-2,8v-2H4v2H20Zm-11,4h3l2-2h-5v2Zm11-10H4v2H20v-2Zm-5,10h3l2-2h-5v2Z"/></svg>