<?xml version="1.0" encoding="utf-8"?>
<!-- Generator: Adobe Illustrator 19.2.1, SVG Export Plug-In . SVG Version: 6.00 Build 0)  -->
<svg version="1.1" id="Layer_1" xmlns="http://www.w3.org/2000/svg" xmlns:xlink="http://www.w3.org/1999/xlink" x="0px" y="0px"
	 viewBox="0 0 512 512" enable-background="new 0 0 512 512" xml:space="preserve">
<path d="M288,384h32v32H192v-32h32V224h-32v-32h96V384z M288,96h-64v64h64V96z M512,256c0,141.4-114.6,256-256,256S0,397.4,0,256
	S114.6,0,256,0S512,114.6,512,256z M480,256c0-59.8-23.3-116.1-65.6-158.4C372.1,55.3,315.8,32,256,32S139.9,55.3,97.6,97.6
	C55.3,139.9,32,196.2,32,256s23.3,116.1,65.6,158.4C139.9,456.7,196.2,480,256,480s116.1-23.3,158.4-65.6
	C456.7,372.1,480,315.8,480,256z"/>
</svg>
