<?xml version="1.0" encoding="utf-8"?>
<!-- Generator: Adobe Illustrator 19.2.1, SVG Export Plug-In . SVG Version: 6.00 Build 0)  -->
<svg version="1.1" id="Layer_1" xmlns="http://www.w3.org/2000/svg" xmlns:xlink="http://www.w3.org/1999/xlink" x="0px" y="0px"
	 viewBox="0 0 512 512" enable-background="new 0 0 512 512" xml:space="preserve">
<path d="M192,416h128c0,35.3-28.7,64-64,64S192,451.3,192,416z M352,160c0-42-26.9-77.6-64.4-90.7c0.3-1.7,0.4-3.5,0.4-5.3
	c0-17.7-14.3-32-32-32s-32,14.3-32,32c0,1.8,0.2,3.6,0.4,5.3C186.9,82.4,160,118,160,160c0,88.4-43,160-96,160v64h384v-64
	C395,320,352,248.4,352,160z"/>
</svg>
