<?xml version="1.0" encoding="utf-8"?>
<!-- Generator: Adobe Illustrator 19.2.1, SVG Export Plug-In . SVG Version: 6.00 Build 0)  -->
<svg version="1.1" id="Layer_1" xmlns="http://www.w3.org/2000/svg" xmlns:xlink="http://www.w3.org/1999/xlink" x="0px" y="0px"
	 viewBox="0 0 512 512" enable-background="new 0 0 512 512" xml:space="preserve">
<path d="M288,416h-64v-64h64V416z M352,192c0,45.2-23.4,65.9-40.6,81c-15.1,13.3-23.4,20.7-23.4,47h-64c0-55.2,27.1-79.2,45.1-95
	c13.8-12.1,18.9-16.7,18.9-33c0-17.6-14.4-32-32-32s-32,14.4-32,32h-64c0-53,43-96,96-96S352,139,352,192z M256,0
	C114.6,0,0,114.6,0,256s114.6,256,256,256s256-114.6,256-256S397.4,0,256,0z M414.4,414.4C372.1,456.7,315.8,480,256,480
	s-116.1-23.3-158.4-65.6C55.3,372.1,32,315.8,32,256S55.3,139.9,97.6,97.6C139.9,55.3,196.2,32,256,32s116.1,23.3,158.4,65.6
	C456.7,139.9,480,196.2,480,256S456.7,372.1,414.4,414.4z"/>
</svg>
