<?xml version="1.0" encoding="utf-8"?>
<!-- Generator: Adobe Illustrator 19.2.1, SVG Export Plug-In . SVG Version: 6.00 Build 0)  -->
<svg version="1.1" id="Layer_1" xmlns="http://www.w3.org/2000/svg" xmlns:xlink="http://www.w3.org/1999/xlink" x="0px" y="0px"
	 viewBox="0 0 512 512" enable-background="new 0 0 512 512" xml:space="preserve">
<path d="M256,0C114.6,0,0,114.6,0,256s114.6,256,256,256s256-114.6,256-256S397.4,0,256,0z M414.4,414.4
	C372.1,456.7,315.8,480,256,480s-116.1-23.3-158.4-65.6C55.3,372.1,32,315.8,32,256S55.3,139.9,97.6,97.6
	C139.9,55.3,196.2,32,256,32s116.1,23.3,158.4,65.6C456.7,139.9,480,196.2,480,256S456.7,372.1,414.4,414.4z M288,320h-64V96h64V320
	z M288,416h-64v-64h64V416z"/>
</svg>
