<?xml version="1.0" encoding="utf-8"?>
<!-- Generator: Adobe Illustrator 24.2.0, SVG Export Plug-In . SVG Version: 6.00 Build 0)  -->
<svg version="1.1" id="Layer_1" xmlns="http://www.w3.org/2000/svg" xmlns:xlink="http://www.w3.org/1999/xlink" x="0px" y="0px"
	 width="512px" height="512px" viewBox="0 0 512 512" xml:space="preserve">
<path d="M120.1,343H52L40,377.4c-2.9,8.5-4.4,14.8-4.4,19c0,3.3,1.3,6.2,3.8,8.8s8.1,4.2,16.5,4.9v5.9H0v-6
	c7.4-1.6,12.2-3.7,14.4-6.3c4.4-5.2,9.4-15.7,14.8-31.5L91.4,192H96l61.6,182.2c5,14.6,9.5,24.1,13.5,28.5c4,4.4,9.7,6.8,16.9,7.3v6
	h-70v-5.9c7-0.4,11.7-1.9,14.2-4.3c2.5-2.5,3.7-5.5,3.7-9c0-4.7-1.7-12.2-5.2-22.3L120.1,343z M116.6,331l-30-88.5L55.8,331H116.6z
	 M344.3,354.1l4.3,1.2L333.5,416H197v-6h6.5c7.4,0,12.6-3.1,15.8-9.3c1.8-3.5,2.7-11.7,2.7-24.5V222.7c0-14-1.2-13.9-3.6-17.5
	c-3.3-4.9-8.3-7.3-14.9-7.3H196v-6h80v6.1c0,0-15.4,1-19.2,3.3c-3.8,2.3-6.4,5.2-7.8,8.8c-1.4,3.5-2.1,3.1-2,16.5v149.6
	c-0.1,9.1,0.6,15.4,2,18.8c1,2.3,2.7,4,4.8,5.1c2.2,1.1,9,1.7,20.4,1.9h12.9c13.6-0.2,23.1-1.5,28.6-4c5.5-2.5,10.5-7,15-13.5
	S339.8,367.9,344.3,354.1z M507.7,354.1l4.3,1.2L496.9,416H360v-6h6.5c7.4,0,12.6-3.1,15.8-9.3c1.8-3.5,2.7-11.7,2.7-24.5V222.7
	c0-14-1.2-13.9-3.6-17.5c-3.3-4.9-8.3-7.3-14.9-7.3H360v-6h80v6.1c0,0-16.1,1-19.9,3.3s-6.4,5.2-7.8,8.8c-1.4,3.5-2.1,3.1-2.4,16.5
	v149.6c0.3,9.1,1,15.4,2.4,18.8c1,2.3,2.7,4,4.8,5.1s9,1.7,20.4,1.9h12.9c13.6-0.2,23.1-1.5,28.6-4c5.5-2.5,10.5-7,15-13.5
	S503.2,367.9,507.7,354.1z M512,96H0v32h512V96z"/>
</svg>
