<?xml version="1.0" encoding="utf-8"?>
<!-- Generator: Adobe Illustrator 19.2.1, SVG Export Plug-In . SVG Version: 6.00 Build 0)  -->
<svg version="1.1" id="Layer_1" xmlns="http://www.w3.org/2000/svg" xmlns:xlink="http://www.w3.org/1999/xlink" x="0px" y="0px"
	 viewBox="0 0 512 512" enable-background="new 0 0 512 512" xml:space="preserve">
<path d="M120.263,342.679H51.709L39.696,377.24c-2.96,8.506-4.44,14.858-4.44,19.057c0,3.338,1.284,6.272,3.852,8.802
	c2.568,2.53,8.118,4.172,16.649,4.926V416H0v-5.975c7.399-1.615,12.187-3.714,14.364-6.298c4.44-5.168,9.358-15.665,14.755-31.492
	L91.405,192h4.57l61.633,182.172c4.962,14.643,9.467,24.144,13.515,28.505c4.048,4.361,9.685,6.81,16.91,7.348V416h-69.86v-5.975
	c7.051-0.431,11.817-1.884,14.298-4.36c2.481-2.476,3.722-5.491,3.722-9.044c0-4.737-1.741-12.22-5.223-22.448L120.263,342.679z
	 M116.607,330.728l-30.033-88.502l-30.817,88.502H116.607z M344.337,354.053l4.309,1.156L333.499,416H196.391v-6.112h6.66
	c7.487,0,12.84-3.084,16.061-9.251c1.828-3.524,2.742-11.674,2.742-24.448V222.824c0-13.986-1.219-13.919-3.656-17.443
	c-3.395-4.846-8.444-7.268-15.147-7.268h-6.66V192h80.175v6.112c-9.402-0.11-15.996,0.991-19.783,3.304
	c-3.787,2.313-6.377,5.231-7.769,8.755c-1.393,3.524-2.089,3.126-2.089,16.452v149.566c0,9.141,0.696,15.418,2.089,18.832
	c1.045,2.313,2.655,4.02,4.831,5.121c2.176,1.101,8.966,1.652,20.37,1.652h12.927c13.58,0,23.112-1.266,28.597-3.799
	c5.484-2.533,10.49-7.021,15.017-13.463S339.81,367.929,344.337,354.053z M507.691,354.053l4.309,1.156L496.853,416H359.745v-6.112
	h6.66c7.487,0,12.84-3.084,16.061-9.251c1.828-3.524,2.742-11.674,2.742-24.448V222.824c0-13.986-1.219-13.919-3.656-17.443
	c-3.395-4.846-8.444-7.268-15.147-7.268h-6.66V192h80.175v6.112c-9.402-0.11-15.996,0.991-19.783,3.304
	c-3.787,2.313-6.377,5.231-7.769,8.755c-1.393,3.524-2.089,3.126-2.089,16.452v149.566c0,9.141,0.696,15.418,2.089,18.832
	c1.045,2.313,2.655,4.02,4.831,5.121c2.176,1.101,8.966,1.652,20.37,1.652h12.927c13.58,0,23.112-1.266,28.597-3.799
	c5.484-2.533,10.49-7.021,15.017-13.463S503.164,367.929,507.691,354.053z M512,96H0v32h512V96z"/>
</svg>
