<?xml version="1.0" encoding="utf-8"?>
<!-- Generator: Adobe Illustrator 19.2.1, SVG Export Plug-In . SVG Version: 6.00 Build 0)  -->
<svg version="1.1" id="Layer_1" xmlns="http://www.w3.org/2000/svg" xmlns:xlink="http://www.w3.org/1999/xlink" x="0px" y="0px"
	 viewBox="0 0 512 512" enable-background="new 0 0 512 512" xml:space="preserve">
<path d="M380.984,313.69c12.445,12.445,12.445,32.81,0,45.255L266.529,470.658c-12.445,12.445-32.787,12.467-45.255,0L0,248.898
	c18.584,18.584,40.255-4.835,40.255-4.835L154.71,132.671c12.445-12.445,32.81-12.445,45.255,0L380.984,313.69z M470.666,86.589
	l-45.255-45.255c-12.445-12.445-32.81-12.445-45.255,0l-67.882,67.882l-22.627-22.627c-12.445-12.445-32.81-12.445-45.255,0
	l-22.627,22.627l181.019,181.019l22.627-22.627c12.445-12.445,12.445-32.81,0-45.255l-22.627-22.627l67.882-67.882
	C483.111,119.398,483.111,99.034,470.666,86.589z"/>
</svg>
