<?xml version="1.0" encoding="utf-8"?>
<!-- Generator: Adobe Illustrator 25.2.1, SVG Export Plug-In . SVG Version: 6.00 Build 0)  -->
<svg version="1.1" id="Layer_1" xmlns="http://www.w3.org/2000/svg" xmlns:xlink="http://www.w3.org/1999/xlink" x="0px" y="0px"
	 width="512px" height="512px" viewBox="0 0 512 512" enable-background="new 0 0 512 512" xml:space="preserve">
<path d="M64,32h144c17.7,0,32,14.3,32,32v170.1c0,14.4-3.1,28.7-9.2,41.8L136.9,480H32l103.1-224H64c-17.7,0-32-14.3-32-32V64
	C32,46.3,46.3,32,64,32z M272,64v160c0,17.7,14.3,32,32,32h71.1L272,480h104.9l93.9-204.1c6-13.1,9.2-27.4,9.2-41.8V64
	c0-17.7-14.3-32-32-32H304C286.3,32,272,46.3,272,64z"/>
</svg>
