<?xml version="1.0" encoding="utf-8"?>
<!-- Generator: Adobe Illustrator 19.2.1, SVG Export Plug-In . SVG Version: 6.00 Build 0)  -->
<svg version="1.1" id="Layer_1" xmlns="http://www.w3.org/2000/svg" xmlns:xlink="http://www.w3.org/1999/xlink" x="0px" y="0px"
	 width="512px" height="512px" viewBox="0 0 512 512" xml:space="preserve">
<path d="M128,256H96v-32h32V256z M192,224h-32v32h32V224z M256,224h-32v32h32V224z M256,160h-32v32h32V160z M256,96h-32v32h32V96z
	 M256,352h-32v32h32V352z M256,288h-32v32h32V288z M320,224h-32v32h32V224z M384,224h-32v32h32V224z M448,32v416H32V32H448z M416,64
	H64v352h352V64z"/>
</svg>
