<?xml version="1.0" encoding="utf-8"?>
<!-- Generator: Adobe Illustrator 19.2.1, SVG Export Plug-In . SVG Version: 6.00 Build 0)  -->
<svg version="1.1" id="Layer_1" xmlns="http://www.w3.org/2000/svg" xmlns:xlink="http://www.w3.org/1999/xlink" x="0px" y="0px"
	 viewBox="0 0 512 512" enable-background="new 0 0 512 512" xml:space="preserve">
<path d="M480,64c0-17.6-14.4-32-32-32H160c-17.6,0-32,14.4-32,32v32h32V64.057c0.017-0.02,0.038-0.041,0.057-0.057h287.885
	c0.02,0.017,0.041,0.038,0.058,0.058V256c-0.017,0.02-0.038,0.041-0.058,0.058H480V64z M377.367,400l22.627,22.627l-57.372,57.372
	l-22.627-22.627L377.367,400z M377.367,399.999l-57.372-57.372L342.622,320l57.372,57.372L377.367,399.999z M422.621,400
	l57.372,57.372l-22.627,22.627l-57.372-57.372l0,0L377.367,400l22.627-22.627l0,0l57.372-57.372l22.627,22.627L422.621,400
	L422.621,400L422.621,400z M118.311,384L64,420.207v-260.15c0.017-0.02,0.038-0.041,0.057-0.057h287.886
	c0.02,0.017,0.041,0.038,0.057,0.057V256h32v-96c0-17.6-14.4-32-32-32H64c-17.6,0-32,14.4-32,32v320l96-64h128v-32H118.311z"/>
</svg>
