<svg xmlns="http://www.w3.org/2000/svg" viewBox="0 0 512 512"><title>crosstab-wizard</title><g id="crosstab_wizard" data-name="crosstab wizard"><path d="M192,416V192H416v96l32,32V0H0V160H.53V448H320l-32-32ZM320,64h96v96H320ZM192,64h96v96H192ZM160,416H64V320h96Zm0-128H64V192h96Zm0-128H64V64h96ZM504.58,490.09l-15.49,15.49a21.91,21.91,0,0,1-31,0l-124-124a21.93,21.93,0,0,1,0-31l15.5-15.5a21.93,21.93,0,0,1,31,0l124,124A21.91,21.91,0,0,1,504.58,490.09ZM220.73,300.75a12,12,0,0,0,9.77,19.18l25.69-.33a12,12,0,0,1,9.95,5.07l14.83,21a12,12,0,0,0,21.25-3.37l7.63-24.52a12,12,0,0,1,7.9-7.9l24.52-7.63A12,12,0,0,0,345.64,281l-21-14.83a12,12,0,0,1-5.07-9.95l.33-25.69a12,12,0,0,0-19.18-9.77l-20.58,15.36a12,12,0,0,1-11,1.75l-24.32-8.25a12,12,0,0,0-15.22,15.22l8.25,24.32a12,12,0,0,1-1.75,11Z"/></g></svg>