<?xml version="1.0" encoding="utf-8"?>
<!-- Generator: Adobe Illustrator 24.2.0, SVG Export Plug-In . SVG Version: 6.00 Build 0)  -->
<svg version="1.1" id="Layer_1" xmlns="http://www.w3.org/2000/svg" xmlns:xlink="http://www.w3.org/1999/xlink" x="0px" y="0px"
	 width="512px" height="512px" viewBox="0 0 512 512" xml:space="preserve">
<path d="M192.3,32H32v160h1v288h447V32H192.3z M192,448H96v-96h96V448z M192,320H96v-96h96V320z M192,192H96V96h96V192z M320,448
	h-96v-96h96V448z M320,320h-96v-96h96V320z M320,192h-96V96h96V192z M448,448h-96v-96h96V448z M448,320h-96v-96h96V320z M448,192
	h-96V96h96V192z"/>
</svg>
