<?xml version="1.0" encoding="utf-8"?>
<!-- Generator: Adobe Illustrator 24.2.0, SVG Export Plug-In . SVG Version: 6.00 Build 0)  -->
<svg version="1.1" id="Layer_1" xmlns="http://www.w3.org/2000/svg" xmlns:xlink="http://www.w3.org/1999/xlink" x="0px" y="0px"
	 width="512px" height="512px" viewBox="0 0 512 512" xml:space="preserve">
<path d="M192,416V192h224v96l32,32V0H0v160h1v288h318.7l-31.9-32H192z M320,64h96v96h-96V64z M192,64h96v96h-96V64z M160,416H64v-96
	h96V416z M160,288H64v-96h96V288z M160,160H64V64h96V160z M504.6,490.1l-15.5,15.5c-8.6,8.6-22.4,8.6-31,0l0,0l-124-124
	c-8.6-8.6-8.6-22.4,0-31l15.5-15.5c8.6-8.6,22.4-8.6,31,0l124,124C513.2,467.6,513.2,481.5,504.6,490.1L504.6,490.1z M221.2,300.8
	c-4.3,5.8-2.6,14.2,4,17.8c1.9,1,4,1.4,6.1,1.4l25.4-0.3c3.9-0.1,7.7,1.8,10,5.1l14.8,21c4.2,5.9,12.7,6.9,18.1,1.7
	c1.5-1.5,2.6-3.3,3.2-5.3l7.5-24.3c1.2-3.8,4.1-6.7,7.9-7.9l24.5-7.6c6.3-2,9.9-8.7,7.9-15c-0.8-2.5-2.4-4.7-4.5-6.2l-21-14.8
	c-3.2-2.3-5.1-6-5.1-10l0.3-25.7c0.1-6.6-5.2-12.1-11.8-12.2c-2.6,0-5.2,0.8-7.3,2.4l-20.6,15.4c-3.2,2.4-7.3,3-11,1.8l-24.3-8.3
	c-6.8-2.3-14.3,1.9-15.7,9.3c-0.4,2.1-0.1,4.2,0.5,6.2l8.2,24.1c1.3,3.7,0.6,7.8-1.8,11L221.2,300.8z"/>
</svg>
