<?xml version="1.0" encoding="utf-8"?>
<!-- Generator: Adobe Illustrator 24.2.0, SVG Export Plug-In . SVG Version: 6.00 Build 0)  -->
<svg version="1.1" id="Layer_1" xmlns="http://www.w3.org/2000/svg" xmlns:xlink="http://www.w3.org/1999/xlink" x="0px" y="0px"
	 width="512px" height="512px" viewBox="0 0 512 512" xml:space="preserve">
<path d="M352,249H196.6c0.6,23.8,7.2,42.2,19.8,55.2s30,18.8,52,19.4c4.9,0.1-1.1,28.8-12.4,28.8c-30.9,0-51.6-9.7-69.3-29.1
	c-17.8-19.4-26.7-46.8-26.7-82c0-33.3,9.7-60.4,29.1-81.4s43.5-31.4,72.4-31.4c28.8,0,51.1,9.1,66.9,27.2S352,199,352,231.1L352,249
	L352,249z M316,219.1c-0.1-19.8-5.1-35.2-14.7-46.2c-9.7-11-23.1-16.5-40.3-16.5c-16.6,0-30.7,5.8-42.4,17.3
	c-11.6,11.6-18.8,26.7-21.5,45.3L316,219.1L316,219.1z M448,384V64c0-17.7-14.3-32-32-32H96c-17.7,0-32,14.3-32,32v384
	c0,17.7,14.3,32,32,32h256L448,384z M416,352h-96v96H96V64h320V352z"/>
</svg>
