<?xml version="1.0" encoding="utf-8"?>
<!-- Generator: Adobe Illustrator 19.2.1, SVG Export Plug-In . SVG Version: 6.00 Build 0)  -->
<svg version="1.1" id="Layer_1" xmlns="http://www.w3.org/2000/svg" xmlns:xlink="http://www.w3.org/1999/xlink" x="0px" y="0px"
	 viewBox="0 0 512 512" enable-background="new 0 0 512 512" xml:space="preserve">
<path d="M480,32h-45.3L256,210.7L210.7,256l-69.5,69.5c-9.1-3.6-18.9-5.5-29.2-5.5c-44.2,0-80,35.8-80,80c0,10.3,2,20.2,5.5,29.2
	c8.1,20.7,24.6,37.1,45.3,45.3c9.1,3.6,18.9,5.5,29.2,5.5c44.2,0,80-35.8,80-80c0-10.3-2-20.2-5.5-29.2l69.5-69.5l69.5,69.5
	c-3.6,9.1-5.5,18.9-5.5,29.2c0,44.2,35.8,80,80,80c10.3,0,20.2-2,29.2-5.5c20.7-8.1,37.1-24.6,45.3-45.3c3.6-9.1,5.5-18.9,5.5-29.2
	c0-44.2-35.8-80-80-80c-10.3,0-20.2,2-29.2,5.5L301.3,256L480,77.3V32z M160,400c0,26.5-21.5,48-48,48c-0.9,0-1.8,0-2.7-0.1
	C84.9,446.6,65.4,427,64,402.6c0-0.9-0.1-1.8-0.1-2.7c0-26.5,21.5-48,48-48c0.9,0,1.8,0,2.7,0.1c24.4,1.3,43.9,20.9,45.3,45.3
	C160,398.2,160,399.1,160,400z M397.3,352.1c0.9,0,1.8-0.1,2.7-0.1c26.5,0,48,21.5,48,48c0,0.9,0,1.8-0.1,2.7
	c-1.3,24.4-20.9,43.9-45.3,45.3c-0.9,0-1.8,0.1-2.7,0.1c-26.5,0-48-21.5-48-48c0-0.9,0-1.8,0.1-2.7
	C353.4,372.9,372.9,353.4,397.3,352.1z M240,256c0-8.8,7.2-16,16-16c8.8,0,16,7.2,16,16c0,8.8-7.2,16-16,16S240,264.8,240,256z
	 M165.5,210.7L32,77.3V32h45.3l133.5,133.5L165.5,210.7z"/>
</svg>
