<?xml version="1.0" encoding="utf-8"?>
<!-- Generator: Adobe Illustrator 19.2.1, SVG Export Plug-In . SVG Version: 6.00 Build 0)  -->
<svg version="1.1" id="Layer_1" xmlns="http://www.w3.org/2000/svg" xmlns:xlink="http://www.w3.org/1999/xlink" x="0px" y="0px"
	 viewBox="0 0 512 512" enable-background="new 0 0 512 512" xml:space="preserve">
<path d="M384,256c-35.3,0-64,28.7-64,64v64c0,35.3,28.7,64,64,64c35.4,0,64-28.7,64-64v-64C448,284.7,419.4,256,384,256z M416,374
	c0,23.6-14.3,42.7-32,42.7c-17.6,0-32-19.1-32-42.7v-42.7c0-23.5,14.4-42.6,32-42.6c17.7,0,32,19.1,32,42.6V374z M384,32
	c-35.3,0-64,28.7-64,64v64c0,35.3,28.7,64,64,64c35.4,0,64-28.7,64-64V96C448,60.7,419.4,32,384,32z M416,150
	c0,23.6-14.3,42.7-32,42.7c-17.6,0-32-19.1-32-42.7v-42.7c0-23.6,14.4-42.7,32-42.7c17.7,0,32,19.1,32,42.7V150L416,150z M224,256
	c-35.3,0-64,28.7-64,64v64c0,35.3,28.7,64,64,64s64-28.7,64-64v-64C288,284.7,259.4,256,224,256z M256,374c0,23.6-14.3,42.7-32,42.7
	s-32-19.1-32-42.7v-42.7c0-23.5,14.3-42.6,32-42.6s32,19.1,32,42.6V374z M96,416h32v32H96V416z M256,192h32v32h-32V192z M192,32v192
	L64,128L192,32z"/>
</svg>
