<?xml version="1.0" encoding="utf-8"?>
<!-- Generator: Adobe Illustrator 20.0.0, SVG Export Plug-In . SVG Version: 6.00 Build 0)  -->
<svg version="1.1" id="Layer_1" xmlns="http://www.w3.org/2000/svg" xmlns:xlink="http://www.w3.org/1999/xlink" x="0px" y="0px"
	 width="512px" height="512px" viewBox="0 0 512 512" xml:space="preserve">
<path d="M384,32c-35.3,0-64,28.7-64,64v64c0,35.3,28.7,64,64,64c35.4,0,64-28.7,64-64V96C448,60.7,419.4,32,384,32z M416,148.7
	c0,23.5-14.3,42.6-32,42.6c-17.6,0-32-19.1-32-42.6V106c0-23.6,14.4-42.7,32-42.7c17.7,0,32,19.1,32,42.7V148.7z M384,256
	c-35.3,0-64,28.7-64,64v64c0,35.3,28.7,64,64,64c35.4,0,64-28.7,64-64v-64C448,284.7,419.4,256,384,256z M416,372.7
	c0,23.6-14.3,42.7-32,42.7c-17.6,0-32-19.1-32-42.7V330c0-23.6,14.4-42.7,32-42.7c17.7,0,32,19.1,32,42.7V372.7z M224,32
	c-35.3,0-64,28.7-64,64v64c0,35.3,28.7,64,64,64c35.4,0,64-28.7,64-64V96C288,60.7,259.3,32,224,32z M256,148.7
	c0,23.5-14.3,42.6-32,42.6s-32-19.1-32-42.6V106c0-23.6,14.3-42.7,32-42.7s32,19.1,32,42.7V148.7z M128,224H96v-32h32V224z M256,416
	h32v32h-32V416z M64,256l128,96L64,448V256z"/>
</svg>
