<?xml version="1.0" encoding="utf-8"?>
<!-- Generator: Adobe Illustrator 19.2.1, SVG Export Plug-In . SVG Version: 6.00 Build 0)  -->
<svg version="1.1" id="Layer_1" xmlns="http://www.w3.org/2000/svg" xmlns:xlink="http://www.w3.org/1999/xlink" x="0px" y="0px"
	 viewBox="0 0 512 512" enable-background="new 0 0 512 512" xml:space="preserve">
<path d="M448,480V96h-32v352H128c-17.6,0-32-14.4-32-32s14.4-32,32-32h256V32H128c-35.2,0-64,28.8-64,64v320
	c0,23.6,12.9,44.2,32,55.3c9.4,5.5,20.4,8.7,32,8.7H448z M128,64h224v288H128V64z M320,128H160V96h160V128z M320,256H160v-32h160
	V256z M288,192H160v-32h128V192z"/>
</svg>
