<?xml version="1.0" encoding="utf-8"?>
<!-- Generator: Adobe Illustrator 19.2.1, SVG Export Plug-In . SVG Version: 6.00 Build 0)  -->
<svg version="1.1" id="Layer_1" xmlns="http://www.w3.org/2000/svg" xmlns:xlink="http://www.w3.org/1999/xlink" x="0px" y="0px"
	 viewBox="0 0 512 512" enable-background="new 0 0 512 512" xml:space="preserve">
<path d="M0,416v-6.112h7.168c8.058,0,13.775-3.028,17.149-9.085c2.06-3.634,3.092-11.783,3.092-24.449V231.646
	c0-13.984-1.313-22.739-3.935-26.264c-3.654-4.845-9.091-7.27-16.305-7.27H0V192h77.588c28.484,0,50.154,3.799,65.007,11.399
	c14.85,7.598,26.797,20.263,35.842,37.994c9.042,17.731,13.563,38.215,13.563,61.45c0,31.167-8.059,57.213-24.176,78.136
	C149.739,404.328,122.19,416,85.178,416H0z M54.396,399.812c11.899,3.084,21.878,4.625,29.939,4.625
	c21.737,0,39.777-8.974,54.113-26.927c14.338-17.949,21.506-42.289,21.506-73.015c0-30.944-7.168-55.338-21.506-73.18
	c-14.336-17.84-32.75-26.76-55.238-26.76c-8.434,0-18.04,1.597-28.814,4.79V399.812z M297.547,409.888V416h-83.093v-6.112h6.864
	c8.01,0,13.825-2.697,17.449-8.094c2.288-3.523,3.432-12.002,3.432-25.44V231.646c0-11.341-0.621-18.831-1.859-22.465
	c-0.954-2.752-2.909-5.121-5.863-7.103c-4.197-2.645-8.581-3.966-13.158-3.966h-6.864V192h83.093v6.112h-7.007
	c-7.916,0-13.683,2.701-17.306,8.096c-2.384,3.525-3.575,12.004-3.575,25.438v144.708c0,11.345,0.619,18.833,1.859,22.467
	c0.952,2.754,2.955,5.121,6.006,7.103c4.099,2.643,8.438,3.964,13.015,3.964H297.547z M512,192v5.975
	c-6.418,1.402-11.276,3.878-14.573,7.43c-4.726,5.276-8.915,13.351-12.568,24.224L421.615,416h-4.947l-67.922-188.793
	c-3.476-9.69-5.928-15.61-7.353-17.764c-2.229-3.336-4.971-5.948-8.222-7.832c-3.256-1.883-7.645-3.094-13.171-3.635V192h74.073
	v5.975c-8.38,0.969-13.818,2.694-16.313,5.169c-2.496,2.477-3.744,5.652-3.744,9.528c0,5.384,2.05,13.784,6.15,25.195
	l46.129,128.391l42.785-126.777c4.189-12.49,6.284-21.157,6.284-26.002c0-3.122-1.293-6.109-3.877-8.963
	c-2.586-2.852-6.952-4.871-13.102-6.058c-0.448-0.105-1.203-0.266-2.273-0.484V192H512z M512,96H0v32h512V96z"/>
</svg>
