<?xml version="1.0" encoding="utf-8"?>
<!-- Generator: Adobe Illustrator 19.2.1, SVG Export Plug-In . SVG Version: 6.00 Build 0)  -->
<svg version="1.1" id="Layer_1" xmlns="http://www.w3.org/2000/svg" xmlns:xlink="http://www.w3.org/1999/xlink" x="0px" y="0px"
	 viewBox="0 0 512 512" enable-background="new 0 0 512 512" xml:space="preserve">
<path d="M326.6,272.6c-8.3-7.3-18.4-13.6-30.4-19.1c-11.8-5.4-25.2-10.2-40.2-14.5V131.4c6.5,0.8,13,2.2,17.7,4.2
	c7.5,3.3,13.7,7.8,18.8,13.7c5.1,5.8,8.9,12.7,11.4,20.7c2.6,8,3.8,16.7,3.8,26.2H352c0-29.2-7.5-52.1-22.5-68.9
	c-15-16.8-36-26.8-62.9-30.1c0,0-5-0.4-10.6-0.8V32h-32v65.5c-11.9,1.5-22.6,4.3-32.2,8.4c-10.6,4.5-19.6,10.3-27.1,17.5
	c-7.5,7.2-13.2,15.6-17.2,25.4c-4,9.7-6,20.5-6,32.3c0,12.7,2.2,23.8,6.7,33.5c4.5,9.7,11,18.2,19.5,25.6
	c8.5,7.4,18.8,13.8,30.9,19.3c7.8,3.5,16.3,6.8,25.4,9.7v110.9c-2.7-0.4-5.4-0.9-8.1-1.5c-7.9-1.8-15.2-5.1-21.7-9.8
	c-6.5-4.7-11.8-11-15.8-19c-4-8-6-18-6-30.1H128c0,16.2,2.6,30.1,7.9,41.7c5.3,11.6,12.4,21.2,21.3,28.7
	c8.9,7.5,19.1,13.3,30.6,17.3c11.5,4,23.4,6.5,35.7,7.5c0,0,0.2,0,0.5,0.1V480h32v-64.8c1.9-0.2,3.1-0.3,3.1-0.3
	c14.1-1.3,26.9-4.1,38.4-8.3c11.5-4.3,21.3-10,29.4-17.1c8.1-7.1,14.3-15.6,18.6-25.4c4.3-9.8,6.5-20.9,6.5-33.3
	c0-12.5-2.2-23.5-6.5-33.1C341.2,288.2,334.9,279.8,326.6,272.6z M221.8,226.8c-8.8-4.1-15.9-8.4-21.2-12.9
	c-5.3-4.5-9.1-9.6-11.3-15c-2.2-5.5-3.4-11.6-3.4-18.5c0-7.4,1.2-14.1,3.6-20.3c2.4-6.1,6-11.3,10.8-15.7
	c4.8-4.3,10.9-7.7,18.3-10.1c1.7-0.6,3.5-1,5.3-1.5v94.9C223.3,227.5,222.5,227.2,221.8,226.8z M302.9,352
	c-3,6.2-7.5,11.4-13.2,15.8c-5.8,4.3-12.8,7.7-21.2,10c-3.9,1.1-8.1,1.9-12.5,2.5V279.2c5.6,2,10.7,4.1,15.3,6.2
	c8.6,4,15.6,8.3,20.9,13c5.4,4.7,9.3,9.7,11.7,15.1c2.4,5.4,3.6,11.3,3.6,17.7C307.5,338.9,306,345.9,302.9,352z"/>
</svg>
