<?xml version="1.0" encoding="utf-8"?>
<!-- Generator: Adobe Illustrator 25.0.0, SVG Export Plug-In . SVG Version: 6.00 Build 0)  -->
<svg version="1.1" id="Layer_1" xmlns="http://www.w3.org/2000/svg" xmlns:xlink="http://www.w3.org/1999/xlink" x="0px" y="0px"
	 width="512px" height="512px" viewBox="0 0 512 512" enable-background="new 0 0 512 512" xml:space="preserve">
<path d="M96,480c-4.3,0-8.5-0.8-12.5-2.5c-3.8-1.6-7.3-3.9-10.2-6.9c-2.9-2.9-5.3-6.4-6.9-10.2c-1.7-3.9-2.5-8.2-2.5-12.5V192
	c0-4.3,0.8-8.5,2.5-12.5c1.6-3.8,3.9-7.3,6.9-10.2c2.9-2.9,6.4-5.3,10.2-6.9c3.9-1.7,8.2-2.5,12.5-2.5h96.3v31.9H96.4v256.3h319.1
	V191.9h-95.9V160H416c17.7,0,32,14.3,32,31.9c0,0,0,0,0,0.1v256c0,17.7-14.3,32-31.9,32c0,0,0,0-0.1,0H96z M288,320V126h64.5L256,32
	l-96.5,94H224v194H288z"/>
</svg>
