<?xml version="1.0" encoding="utf-8"?>
<!-- Generator: Adobe Illustrator 19.2.1, SVG Export Plug-In . SVG Version: 6.00 Build 0)  -->
<svg version="1.1" id="Layer_1" xmlns="http://www.w3.org/2000/svg" xmlns:xlink="http://www.w3.org/1999/xlink" x="0px" y="0px"
	 viewBox="0 0 512 512" enable-background="new 0 0 512 512" xml:space="preserve">
<path d="M214,183.4l-24.7,110c-11.5,53.4-22.7,92.1-33.7,116.1c-11,24-23.8,41.8-38.4,53.2C102.5,474.3,85.7,480,66.7,480
	c-12,0-20.7-2.7-26.3-8c-5.6-5.3-8.4-11.5-8.4-18.7c0-6.7,2.3-12.5,7-17.4c4.7-4.9,10.8-7.3,18.3-7.3c6.3,0,11.2,1.9,14.5,5.6
	c3.4,3.7,5.1,8.5,5.1,14.2c0,5.2-1,9.1-3.2,11.6c-2.1,2.5-3.2,4.2-3.2,5l1,1.7c0.8,0.8,1.8,1.2,3,1.2c4.2,0,7.8-1.5,10.8-4.7
	c7.4-7.7,13-17,16.6-27.9c2.5-7.5,7.4-27.4,14.5-59.5l43-192.6h-29.3l7-28.7c10.5,0.2,18.2-1.4,23-4.7c4.8-3.3,9.8-10.6,15.2-22
	c15.4-33.1,31.7-60.1,48.9-74.4S260.4,32,281.5,32c13.5,0,23.3,3,29.4,9.1c6.1,6.1,9.2,13.9,9.2,23.5c0,8.5-2,15.2-6.1,20.2
	c-4.1,5.1-9.2,7.5-15.2,7.5c-5.6,0-10.3-2-13.9-6.1c-3.6-4.1-5.5-9-5.5-14.7c0-4.1,1.1-8.4,3.5-13c2.3-4.6,3.5-7.7,3.5-9.3
	c0-1.8-0.5-3.3-1.6-4.4c-1-1.1-2.4-1.7-4.1-1.7c-8.3,0-16.8,5.9-25.5,17.9c-14.3,19.1-25.9,52.5-34.5,93.8h30.5l-7.4,28.7L214,183.4
	L214,183.4z M292.7,206.1l68.9-14.1c12.5,23.3,21.3,48.9,26.5,76.9c12.9-22.7,22.7-38.6,29.3-47.6c8.8-12.2,16.1-20.1,21.8-23.8
	c5.8-3.7,11.9-5.5,18.3-5.5c7.2,0,12.8,2.4,16.7,7c3.9,4.7,5.8,11,5.8,19c0,7.5-2,13.6-5.8,18.4c-3.9,4.7-8.7,7.1-14.5,7.1
	c-4.2,0-9-0.9-14.5-2.7c-5.4-1.8-9.3-2.7-11.3-2.7c-5.6,0-10.8,2.4-15.8,7c-6.8,6.4-15.2,20.1-25.3,41
	c11.2,46.9,20.1,75.5,26.9,85.8c3.9,6.1,7.9,9.2,12.1,9.2c3.4,0,6.4-1,8.9-3c3.8-3.3,9.7-11.5,17.6-24.6l7.1,4.9
	c-11.6,22.2-22.9,37.9-34,46.9c-8.4,7-16.7,10.6-24.9,10.6c-8.4,0-15.4-2.3-21-6.7c-5.6-4.5-10.6-11.7-14.9-21.8
	c-4.4-10-9.5-26.2-15.4-48.4c-15.4,23.3-27.5,40.3-36.3,51c-8.7,10.7-16,17.7-21.8,21c-5.8,3.3-12,4.9-18.6,4.9
	c-6.8,0-12.3-2.4-16.3-7c-4-4.7-6-10.8-6-18.3c0-7.9,2.2-14.5,6.5-19.6c4.3-5.2,9.9-7.7,16.6-7.7c3.6,0,7.6,1.3,12.1,3.7
	c6.6,3.8,11.3,5.7,14.2,5.7c3.8,0,7.2-0.9,10.3-2.8c3.9-2.4,9-7.4,15-15.3c3.7-4.8,10.5-15.1,20.4-31c-12.6-55.8-22.5-89.1-29.6-100
	c-4.5-7-10.2-10.6-17-10.6c-3.6,0-7.9,0.6-13,1.9L292.7,206.1L292.7,206.1z"/>
</svg>
