<?xml version="1.0" encoding="utf-8"?>
<!-- Generator: Adobe Illustrator 19.2.1, SVG Export Plug-In . SVG Version: 6.00 Build 0)  -->
<svg version="1.1" id="Layer_1" xmlns="http://www.w3.org/2000/svg" xmlns:xlink="http://www.w3.org/1999/xlink" x="0px" y="0px"
	 viewBox="0 0 512 512" enable-background="new 0 0 512 512" xml:space="preserve">
<path d="M128.439,288H224v-56.994c0-11.221-0.702-18.613-2.103-22.174c-1.08-2.695-3.347-5.016-6.798-6.959
	c-4.641-2.589-10.15-3.883-15.331-3.883H192V192h96v5.989h-7.768c-5.18,0-10.091,1.241-14.729,3.722
	c-3.454,1.726-5.802,4.344-7.04,7.849c-1.241,3.508-1.861,10.657-1.861,28.29V384c0,4.271,0.7,11.607,2.103,15.168
	c1.079,2.698,3.291,5.018,6.637,6.959c4.746,2.589,9.71,3.885,14.89,3.885H288V416h-96v-5.988h7.768
	c8.955,0,16.084-2.644,20.186-7.931c2.696-3.453,4.046-11.76,4.046-24.926V304h-95.561v73.155c0,11.116,0.7,18.451,2.104,22.012
	c1.077,2.698,3.342,5.018,6.798,6.959c4.638,2.589,9.549,3.885,14.728,3.885H160V416H64v-5.988h7.768
	c9.064,0,16.245-2.644,20.347-7.931C94.704,398.629,96,390.321,96,384V237.85c0-18.065-0.704-25.457-2.104-29.018
	c-1.08-2.695-3.293-5.016-6.635-6.959c-4.75-2.589-10.313-3.883-15.492-3.883H64V192h96v5.989h-7.931
	c-5.179,0-10.09,1.241-14.728,3.722c-3.346,1.726-5.665,4.344-6.959,7.849c-1.296,3.508-1.943,10.657-1.943,21.445V288z
	 M319.954,218.057L382.982,192H384v185.318c0,12.301,0.511,19.962,1.537,22.982c1.024,3.022,3.157,5.342,6.394,6.959
	s14.14,2.537,24.069,2.752V416h-96v-5.988c10.359-0.215,20.884-1.106,23.908-2.672c3.019-1.562,5.123-3.666,6.312-6.312
	c1.185-2.644,1.781-10.545,1.781-23.711V258.843c0-15.967-0.541-26.22-1.619-30.751c-0.756-3.453-2.131-5.989-4.127-7.607
	c-1.998-1.619-4.398-2.428-7.203-2.428c-3.993,0-9.549,1.675-16.671,5.018L319.954,218.057z M512,96H0v32h512V96z"/>
</svg>
