<?xml version="1.0" encoding="utf-8"?>
<!-- Generator: Adobe Illustrator 24.2.0, SVG Export Plug-In . SVG Version: 6.00 Build 0)  -->
<svg version="1.1" id="Layer_1" xmlns="http://www.w3.org/2000/svg" xmlns:xlink="http://www.w3.org/1999/xlink" x="0px" y="0px"
	 width="512px" height="512px" viewBox="0 0 512 512" xml:space="preserve">
<path d="M128,288h96v-57c0-11.2-0.7-18.6-2.1-22.2c-1.1-2.7-3.3-5-6.8-7c-4.6-2.6-10.1-3.9-15.3-3.9H192v-6h96v6h-7.7
	c-5.1,0-10,1.2-14.5,3.7c-3.4,1.7-5.7,4.3-7,7.8c-1.2,3.5-1.8,10.7-1.8,28.3V384c0,4.3,0.7,11.6,2.1,15.2c1.1,2.7,3.2,5,6.6,7
	c4.7,2.6,9.6,3.9,14.7,3.9h7.7v6h-96v-6h7.7c9,0,16.2-2.6,20.3-7.9c2.7-3.5,4.1-11.8,4.1-24.9V304h-96v73.1c0,11.1,0.7,18.4,2.1,22
	c1.1,2.7,3.4,5,6.8,7c4.7,2.6,9.6,3.9,14.8,3.9h8.3v6H64v-6h7.8c9.1,0,16.2-2.6,20.3-7.9c2.6-3.5,3.9-11.8,3.9-18.1V237.9
	c0-18.1-0.7-25.5-2.1-29c-1.1-2.7-3.3-5-6.6-7c-4.8-2.6-10.3-3.9-15.5-3.9H64v-6h96v6h-8c-5.3,0-10.2,1.2-14.9,3.7
	c-3.4,1.7-5.7,4.3-7.1,7.8c-1.3,3.5-2,10.7-2,21.4L128,288L128,288z M464,374l-15.3,42H320v-5.5c38.2-34.9,65.1-63.3,80.7-85.4
	c15.6-22.1,23.4-42.3,23.4-60.6c0-14-4.3-25.4-12.8-34.4c-8.6-9-18.8-13.5-30.7-13.5c-10.8,0-20.5,3.2-29.1,9.5
	c-8.6,6.3-15,15.6-19.1,27.8h-6c2.7-20,9.7-35.4,20.9-46.1c11.2-10.7,25.2-16.1,42-16.1c17.9,0,32.8,5.7,44.7,17.2
	c12,11.5,17.9,25,17.9,40.6c0,11.1-2.6,22.3-7.8,33.4c-8,17.5-21,36.1-39,55.7c-27,29.4-43.8,47.2-50.5,53.3h56.9
	c11.8,0,20-0.4,24.8-1.3c4.7-0.9,9-2.6,12.8-5.3c3.8-2.7,7.1-6.5,10-11.4L464,374L464,374z M512,96H0v32h512V96z"/>
</svg>
