<?xml version="1.0" encoding="utf-8"?>
<!-- Generator: Adobe Illustrator 19.2.1, SVG Export Plug-In . SVG Version: 6.00 Build 0)  -->
<svg version="1.1" id="Layer_1" xmlns="http://www.w3.org/2000/svg" xmlns:xlink="http://www.w3.org/1999/xlink" x="0px" y="0px"
	 viewBox="0 0 512 512" enable-background="new 0 0 512 512" xml:space="preserve">
<path d="M128.439,288H224v-56.994c0-11.221-0.702-18.613-2.103-22.174c-1.08-2.695-3.347-5.016-6.798-6.959
	c-4.641-2.589-10.15-3.883-15.331-3.883H192V192h96v5.989h-7.768c-5.18,0-10.091,1.241-14.729,3.722
	c-3.454,1.726-5.802,4.344-7.04,7.849c-1.241,3.508-1.861,10.657-1.861,28.29V384c0,4.271,0.7,11.607,2.103,15.168
	c1.079,2.698,3.291,5.018,6.637,6.959c4.746,2.589,9.71,3.885,14.89,3.885H288V416h-96v-5.988h7.768
	c8.955,0,16.084-2.644,20.186-7.931c2.696-3.453,4.046-11.76,4.046-24.926V304h-95.561v73.155c0,11.116,0.7,18.451,2.104,22.012
	c1.077,2.698,3.342,5.018,6.798,6.959c4.638,2.589,9.549,3.885,14.728,3.885H160V416H64v-5.988h7.768
	c9.064,0,16.245-2.644,20.347-7.931C94.704,398.629,96,390.321,96,384V237.85c0-18.065-0.704-25.457-2.104-29.018
	c-1.08-2.695-3.293-5.016-6.635-6.959c-4.75-2.589-10.313-3.883-15.492-3.883H64V192h96v5.989h-7.931
	c-5.179,0-10.09,1.241-14.728,3.722c-3.346,1.726-5.665,4.344-6.959,7.849c-1.296,3.508-1.943,10.657-1.943,21.445V288z
	 M443.967,192v5.886c-13.144,1.379-23.872,4.163-32.187,8.352s-16.529,10.58-24.644,19.17c-8.115,8.591-14.836,18.163-20.163,28.716
	c-5.327,10.553-9.783,23.095-13.368,37.625c14.338-10.5,28.727-15.75,43.165-15.75c13.841,0,25.839,5.939,35.995,17.818
	C442.922,305.697,448,320.97,448,339.636c0,18.03-5.128,34.47-15.384,49.318C420.269,406.985,403.939,416,383.627,416
	c-13.841,0-25.59-4.879-35.249-14.636C329.459,382.379,320,357.773,320,327.545c0-19.303,3.634-37.651,10.903-55.045
	s17.649-32.826,31.141-46.295s26.411-22.538,38.758-27.205s23.848-7,34.502-7H443.967z M351.066,303.364
	c-1.792,14.318-2.688,25.879-2.688,34.682c0,10.182,1.767,21.239,5.302,33.17c3.535,11.932,8.787,21.398,15.757,28.398
	c5.078,4.985,11.252,7.477,18.52,7.477c8.663,0,16.405-4.348,23.225-13.045c6.821-8.697,10.231-21.106,10.231-37.227
	c0-18.136-3.385-33.833-10.156-47.091c-6.771-13.258-16.38-19.886-28.826-19.886c-3.784,0-7.841,0.848-12.173,2.545
	C365.928,294.083,359.53,297.742,351.066,303.364z M512,96H0v32h512V96z"/>
</svg>
