<?xml version="1.0" encoding="utf-8"?>
<!-- Generator: Adobe Illustrator 24.2.0, SVG Export Plug-In . SVG Version: 6.00 Build 0)  -->
<svg version="1.1" id="Layer_1" xmlns="http://www.w3.org/2000/svg" xmlns:xlink="http://www.w3.org/1999/xlink" x="0px" y="0px"
	 width="512px" height="512px" viewBox="0 0 512 512" xml:space="preserve">
<path d="M384,384L384,384L384,384L384,384L384,384z M448,416L448,416v-64h-32v64h-64v32l0,0h64v32v32h32v-32v-32h32h32v-32h-32H448z
	 M96,256c0-17.7,14.3-32,32-32h256c17.7,0,32,14.3,32,32s-14.3,32-32,32H128C110.3,288,96,273.7,96,256L96,256z M64,256
	c0,35.4,28.6,64,64,64h110.8c-22.1,38.2-63.5,64-110.8,64C57.3,384,0,326.7,0,256s57.3-128,128-128c47.4,0,88.7,25.8,110.8,64H128
	C92.6,192,64,220.6,64,256L64,256z M480,340.7c19.9-22.6,32-52.2,32-84.7c0-70.7-57.3-128-128-128c-47.3,0-88.7,25.8-110.8,64H384
	c35.3,0,64,28.6,64,64s-28.6,64-64,64h96V340.7z M384,320H273.2c22.1,38.2,63.4,64,110.8,64V320z"/>
</svg>
