<?xml version="1.0" encoding="utf-8"?>
<!-- Generator: Adobe Illustrator 19.2.1, SVG Export Plug-In . SVG Version: 6.00 Build 0)  -->
<svg version="1.1" id="Layer_1" xmlns="http://www.w3.org/2000/svg" xmlns:xlink="http://www.w3.org/1999/xlink" x="0px" y="0px"
	 viewBox="0 0 512 512" enable-background="new 0 0 512 512" xml:space="preserve">
<path d="M161.7,412.6C69.1,391.2,0,308.1,0,209C0,93.6,93.6,0,209,0c115.4,0,209,93.6,209,209c0,58.2-23.8,110.8-62.2,148.7
	C335.3,334.6,305.4,320,272,320c-3.9,0-7.8,0.2-11.6,0.6c12-15.9,26.4-28.8,41.3-33c22.6-18.6,21.6-35.2,18.6-50.2
	c-7-12.6-38.7-23.6-68.8-49.7c-18.1-4-40.2,7.5-48.7-3.5c-8.5-11.1-48.7-27.1-31.1-44.7c17.6-17.6,44.2,0.5,54.8-35.7
	C236.9,67.6,259,82.6,270,82.6c11.1,0,13.1-26.1-7.5-35.7c-20.6-9.5-49.7-19.6-100.5-14.6c-50.7,5-86.4,27.6-75.4,47.7
	c11.1,20.1,44.2,83.9,81.4,94.5c37.2,10.6,35.7,20.2,41.7,27.1c6,7-11.3,22.2,5.1,50.8c8.9,12,17,5,21,25.1
	c1.9,9.4-2.7,30.3-6.4,50.8C194.5,342.7,168.4,374.3,161.7,412.6z M224,432c0-5.1,0.8-10.1,2.3-14.7C232.5,398,250.6,384,272,384
	h51.3H336c-1.5-1.9-3-3.8-4.6-5.6C316.8,362.2,295.6,352,272,352c-12.2,0-23.8,2.7-34.1,7.6c-4.4,2.1-8.6,4.6-12.5,7.4
	c-16.4,11.8-28.2,29.7-32,50.4c-0.9,4.7-1.4,9.6-1.4,14.6c0,44.2,35.8,80,80,80c26.2,0,49.4-12.6,64-32h-64
	C245.5,480,224,458.5,224,432z M432,352c-26.2,0-49.4,12.6-64,32h64c26.5,0,48,21.5,48,48c0,26.5-21.5,48-48,48h-64
	c14.6,19.4,37.8,32,64,32c44.2,0,80-35.8,80-80C512,387.8,476.2,352,432,352z M432,416h-78.4h-3.2H272c-8.8,0-16,7.2-16,16
	s7.2,16,16,16h78.4h3.2H432c8.8,0,16-7.2,16-16S440.8,416,432,416z"/>
</svg>
