<?xml version="1.0" encoding="utf-8"?>
<!-- Generator: Adobe Illustrator 17.1.0, SVG Export Plug-In . SVG Version: 6.00 Build 0)  -->
<!DOCTYPE svg PUBLIC "-//W3C//DTD SVG 1.1//EN" "http://www.w3.org/Graphics/SVG/1.1/DTD/svg11.dtd">
<svg version="1.1" id="Layer_1" xmlns="http://www.w3.org/2000/svg" xmlns:xlink="http://www.w3.org/1999/xlink" x="0px" y="0px"
	 width="512px" height="512px" viewBox="0 0 512 512" enable-background="new 0 0 512 512" xml:space="preserve">
<path d="M416,240c0,26.5-21.5,48-48,48s-48-21.5-48-48c0-26.5,21.5-48,48-48S416,213.5,416,240z M512,160v320c0,17.7-14.3,32-32,32
	H160c-17.7,0-32-14.3-32-32V160c0-17.7,14.3-32,32-32h320C497.7,128,512,142.3,512,160z M480,186.7c0-14.7-11.9-26.7-26.7-26.7
	H186.7c-14.7,0-26.7,11.9-26.7,26.7V384l96-96l96,96l64-64l64,64V186.7z M32,0H0v512h32v-64h32v-32H32v-64h32v-32H32v-64h32v-32H32
	v-64h32v-32H32V32h96v32h32V32h64v32h32V32h64v32h32V32h64v32h32V32h64V0H32z"/>
</svg>
