<?xml version="1.0" encoding="utf-8"?>
<!-- Generator: Adobe Illustrator 25.0.0, SVG Export Plug-In . SVG Version: 6.00 Build 0)  -->
<svg version="1.1" id="Layer_1" xmlns="http://www.w3.org/2000/svg" xmlns:xlink="http://www.w3.org/1999/xlink" x="0px" y="0px"
	 width="512px" height="512px" viewBox="0 0 512 512" style="enable-background:new 0 0 512 512;" xml:space="preserve">
<style type="text/css">
	.st0{clip-path:url(#SVGID_2_);}
</style>
<g>
	<defs>
		<rect id="SVGID_1_" width="512" height="512"/>
	</defs>
	<clipPath id="SVGID_2_">
		<use xlink:href="#SVGID_1_"  style="overflow:visible;"/>
	</clipPath>
	<g id="a" class="st0">
		<path d="M96,480c-17.7,0-32-14.3-32-31.9c0,0,0,0,0-0.1V192c0-17.7,14.3-32,32-32c0,0,0,0,0,0h96.3v30.9H96.4V448h319.1V190.9
			h-95.9V160H416c17.7,0,32,14.3,32,31.9c0,0,0,0,0,0.1v256c0,17.7-14.3,32-31.9,32c0,0,0,0-0.1,0H96z M159,224h64.5V32h64v192H352
			l-96.5,94L159,224z"/>
	</g>
</g>
</svg>
