<?xml version="1.0" encoding="utf-8"?>
<!-- Generator: Adobe Illustrator 25.0.0, SVG Export Plug-In . SVG Version: 6.00 Build 0)  -->
<svg version="1.1" id="Layer_1" xmlns="http://www.w3.org/2000/svg" xmlns:xlink="http://www.w3.org/1999/xlink" x="0px" y="0px"
	 width="512px" height="512px" viewBox="0 0 512 512" enable-background="new 0 0 512 512" xml:space="preserve">
<path d="M96,480c-17.7,0-32-14.3-32-31.9c0,0,0,0,0-0.1V192c0-17.7,14.3-32,32-32c0,0,0,0,0,0h96.3v30.9H96.4V448h319.1V190.9h-95.9
	V160H416c17.7,0,32,14.3,32,31.9c0,0,0,0,0,0.1v256c0,17.7-14.3,32-31.9,32c0,0,0,0-0.1,0H96z M255.5,318l96.5-94h-64.5V32h-64v192
	H159L255.5,318z"/>
</svg>
