<?xml version="1.0" encoding="utf-8"?>
<!-- Generator: Adobe Illustrator 25.0.0, SVG Export Plug-In . SVG Version: 6.00 Build 0)  -->
<svg version="1.1" id="Layer_1" xmlns="http://www.w3.org/2000/svg" xmlns:xlink="http://www.w3.org/1999/xlink" x="0px" y="0px"
	 width="512px" height="512px" viewBox="0 0 512 512" enable-background="new 0 0 512 512" xml:space="preserve">
<path d="M32,60.5h20.5V160H32V60.5z M72.8,448h20.5v-99.5H72.8V448z M32,448h20.5v-99.5H32V448z M71.2,150.3
	c-0.5,13.8,22.9,13.8,22.4,0C94.1,136.4,70.7,136.3,71.2,150.3z M32,320h20.5v-99.5H32V320z M72.8,320h20.5v-99.5H72.8V320z
	 M160,320h320v-32H160V320z M128,128v32h352v-32H128z M192,448h288v-32H192V448z M113.6,448h20.5v-99.5h-20.5V448z M152.9,438.3
	c-0.5,13.8,22.9,13.8,22.4,0C175.7,424.4,152.3,424.3,152.9,438.3z M112,310.3c-0.5,13.8,22.9,13.8,22.4,0
	C134.9,296.4,111.5,296.3,112,310.3z"/>
</svg>
