<?xml version="1.0" encoding="utf-8"?>
<!-- Generator: Adobe Illustrator 25.0.0, SVG Export Plug-In . SVG Version: 6.00 Build 0)  -->
<svg version="1.1" id="Layer_1" xmlns="http://www.w3.org/2000/svg" xmlns:xlink="http://www.w3.org/1999/xlink" x="0px" y="0px"
	 width="512px" height="512px" viewBox="0 0 512 512" enable-background="new 0 0 512 512" xml:space="preserve">
<g>
	<path d="M32,65.7c0-2.1,0.6-3.8,1.9-5.2c1.3-1.4,3.1-2.1,5.6-2.1s4.3,0.7,5.6,2.1c1.3,1.4,1.9,3.1,1.9,5.2s-0.6,3.8-1.9,5.1
		c-1.3,1.4-3.1,2.1-5.6,2.1s-4.3-0.7-5.6-2.1C32.6,69.4,32,67.7,32,65.7z M45.7,159.2H33v-74h12.6V159.2z"/>
	<path d="M66.2,152.6c0-2.2,0.6-4,1.9-5.5c1.3-1.5,3.2-2.2,5.8-2.2s4.6,0.7,5.9,2.2c1.3,1.5,2,3.3,2,5.5c0,2.1-0.7,3.9-2,5.3
		c-1.3,1.4-3.3,2.1-5.9,2.1s-4.5-0.7-5.8-2.1S66.2,154.7,66.2,152.6z"/>
</g>
<g>
	<path d="M32,225.7c0-2.1,0.6-3.8,1.9-5.2c1.3-1.4,3.1-2.1,5.6-2.1s4.3,0.7,5.6,2.1c1.3,1.4,1.9,3.1,1.9,5.2s-0.6,3.8-1.9,5.1
		c-1.3,1.4-3.1,2.1-5.6,2.1s-4.3-0.7-5.6-2.1C32.6,229.4,32,227.7,32,225.7z M45.7,319.2H33v-74h12.6V319.2z"/>
	<path d="M66,225.7c0-2.1,0.6-3.8,1.9-5.2c1.3-1.4,3.1-2.1,5.6-2.1s4.3,0.7,5.6,2.1c1.3,1.4,1.9,3.1,1.9,5.2s-0.6,3.8-1.9,5.1
		c-1.3,1.4-3.1,2.1-5.6,2.1s-4.3-0.7-5.6-2.1C66.6,229.4,66,227.7,66,225.7z M79.6,319.2H67v-74h12.6V319.2z"/>
	<path d="M100.2,312.6c0-2.2,0.6-4,1.9-5.5c1.3-1.5,3.2-2.2,5.8-2.2s4.6,0.7,5.9,2.2c1.3,1.5,2,3.3,2,5.5c0,2.1-0.7,3.9-2,5.3
		c-1.3,1.4-3.3,2.1-5.9,2.1s-4.5-0.7-5.8-2.1S100.2,314.7,100.2,312.6z"/>
</g>
<g>
	<path d="M32,353.7c0-2.1,0.6-3.8,1.9-5.2c1.3-1.4,3.1-2.1,5.6-2.1s4.3,0.7,5.6,2.1c1.3,1.4,1.9,3.1,1.9,5.2s-0.6,3.8-1.9,5.1
		c-1.3,1.4-3.1,2.1-5.6,2.1s-4.3-0.7-5.6-2.1C32.6,357.4,32,355.7,32,353.7z M45.7,447.2H33v-74h12.6V447.2z"/>
	<path d="M66,353.7c0-2.1,0.6-3.8,1.9-5.2c1.3-1.4,3.1-2.1,5.6-2.1s4.3,0.7,5.6,2.1c1.3,1.4,1.9,3.1,1.9,5.2s-0.6,3.8-1.9,5.1
		c-1.3,1.4-3.1,2.1-5.6,2.1s-4.3-0.7-5.6-2.1C66.6,357.4,66,355.7,66,353.7z M79.6,447.2H67v-74h12.6V447.2z"/>
	<path d="M99.9,353.7c0-2.1,0.6-3.8,1.9-5.2c1.3-1.4,3.1-2.1,5.6-2.1s4.3,0.7,5.6,2.1c1.3,1.4,1.9,3.1,1.9,5.2s-0.6,3.8-1.9,5.1
		c-1.3,1.4-3.1,2.1-5.6,2.1s-4.3-0.7-5.6-2.1C100.6,357.4,99.9,355.7,99.9,353.7z M113.6,447.2H101v-74h12.6V447.2z"/>
	<path d="M134.1,440.6c0-2.2,0.6-4,1.9-5.5c1.3-1.5,3.2-2.2,5.8-2.2s4.6,0.7,5.9,2.2c1.3,1.5,2,3.3,2,5.5c0,2.1-0.7,3.9-2,5.3
		c-1.3,1.4-3.3,2.1-5.9,2.1s-4.5-0.7-5.8-2.1S134.1,442.7,134.1,440.6z"/>
</g>
<rect x="128" y="128" width="352" height="32"/>
<rect x="160" y="288" width="320" height="32"/>
<rect x="192" y="416" width="288" height="32"/>
</svg>
