<?xml version="1.0" encoding="utf-8"?>
<!-- Generator: Adobe Illustrator 25.0.0, SVG Export Plug-In . SVG Version: 6.00 Build 0)  -->
<svg version="1.1" id="Layer_1" xmlns="http://www.w3.org/2000/svg" xmlns:xlink="http://www.w3.org/1999/xlink" x="0px" y="0px"
	 width="512px" height="512px" viewBox="0 0 512 512" enable-background="new 0 0 512 512" xml:space="preserve">
<g>
	<path d="M52.5,160H32V60.5h20.5V160z"/>
	<path d="M71.2,150.3c0-3.1,1.1-5.7,3.2-7.7c2.1-2,4.8-2.9,8-2.9c3.2,0,5.9,1,8,2.9c2.1,2,3.2,4.5,3.2,7.7c0,3.1-1,5.6-3.1,7.6
		c-2.1,1.9-4.8,2.9-8.1,2.9c-3.2,0-5.9-1-8-2.9C72.3,155.9,71.2,153.4,71.2,150.3z"/>
</g>
<g>
	<path d="M52.5,320H32v-99.5h20.5V320z"/>
	<path d="M93.3,320H72.8v-99.5h20.5V320z"/>
	<path d="M112,310.3c0-3.1,1.1-5.7,3.2-7.7c2.1-2,4.8-2.9,8-2.9c3.2,0,5.9,1,8,2.9c2.1,2,3.2,4.5,3.2,7.7c0,3.1-1,5.6-3.1,7.6
		c-2.1,1.9-4.8,2.9-8.1,2.9c-3.2,0-5.9-1-8-2.9C113.1,315.9,112,313.4,112,310.3z"/>
</g>
<g>
	<path d="M52.5,448H32v-99.5h20.5V448z"/>
	<path d="M93.3,448H72.8v-99.5h20.5V448z"/>
	<path d="M134.1,448h-20.5v-99.5h20.5V448z"/>
	<path d="M152.9,438.3c0-3.1,1.1-5.7,3.2-7.7c2.1-2,4.8-2.9,8-2.9c3.2,0,5.9,1,8,2.9c2.1,2,3.2,4.5,3.2,7.7c0,3.1-1,5.6-3.1,7.6
		c-2.1,1.9-4.8,2.9-8.1,2.9c-3.2,0-5.9-1-8-2.9C153.9,443.9,152.9,441.4,152.9,438.3z"/>
</g>
<rect x="128" y="128" width="352" height="32"/>
<rect x="160" y="288" width="320" height="32"/>
<rect x="192" y="416" width="288" height="32"/>
</svg>
