<?xml version="1.0" encoding="utf-8"?>
<!-- Generator: Adobe Illustrator 25.0.0, SVG Export Plug-In . SVG Version: 6.00 Build 0)  -->
<svg version="1.1" id="Layer_1" xmlns="http://www.w3.org/2000/svg" xmlns:xlink="http://www.w3.org/1999/xlink" x="0px" y="0px"
	 width="512px" height="512px" viewBox="0 0 512 512" enable-background="new 0 0 512 512" xml:space="preserve">
<path d="M45.7,159.2H33v-74h12.6V159.2z M79.6,245.3H67v74h12.6V245.3z M73.4,346.3c-9.8-0.7-9.9,15.2,0,14.5
	C83.4,361.6,83.3,345.7,73.4,346.3z M67,447.2h12.6v-74H67V447.2z M39.5,58.3c-9.8-0.7-9.9,15.2,0,14.5
	C49.4,73.6,49.3,57.7,39.5,58.3z M33,447.2h12.6v-74H33V447.2z M39.5,346.3c-9.8-0.7-9.9,15.2,0,14.5
	C49.4,361.6,49.3,345.7,39.5,346.3z M39.5,218.3c-9.8-0.7-9.9,15.2,0,14.5C49.4,233.6,49.3,217.7,39.5,218.3z M45.7,245.3H33v74
	h12.6V245.3z M107.9,305c-10.2-0.7-10.4,15.8,0,15C118.5,320.8,118.3,304.2,107.9,305z M73.4,218.3c-9.8-0.7-9.9,15.2,0,14.5
	C83.4,233.6,83.3,217.7,73.4,218.3z M141.9,433c-10.2-0.7-10.4,15.8,0,15C152.4,448.8,152.3,432.2,141.9,433z M160,320h320v-32H160
	V320z M128,128v32h352v-32H128z M192,448h288v-32H192V448z M107.4,346.3c-9.8-0.7-9.9,15.2,0,14.5
	C117.4,361.6,117.3,345.7,107.4,346.3z M74,145c-10.2-0.7-10.4,15.8,0,15C84.5,160.8,84.4,144.2,74,145z M101,447.2h12.6v-74H101
	V447.2z"/>
</svg>
