<?xml version="1.0" encoding="utf-8"?>
<!-- Generator: Adobe Illustrator 24.2.0, SVG Export Plug-In . SVG Version: 6.00 Build 0)  -->
<svg version="1.1" id="Layer_1" xmlns="http://www.w3.org/2000/svg" xmlns:xlink="http://www.w3.org/1999/xlink" x="0px" y="0px"
	 width="512px" height="512px" viewBox="0 0 512 512" xml:space="preserve">
<path d="M480,352C480,352,480,352,480,352c0,1,0,2-0.1,2.9c0,0.3,0,0.5,0,0.8c0,0.8-0.1,1.7-0.2,2.5c0,0.2,0,0.3,0,0.5
	c-0.1,1-0.2,1.9-0.4,2.8c-0.1,0.4-0.1,0.9-0.2,1.3c-0.1,0.4-0.1,0.8-0.2,1.2c-0.1,0.4-0.2,0.7-0.2,1.1c-0.2,0.9-0.4,1.8-0.6,2.7
	c-0.1,0.4-0.2,0.7-0.3,1.1c0,0.2-0.1,0.5-0.2,0.7c-0.2,0.5-0.4,1.1-0.5,1.7c-0.3,0.9-0.6,1.8-0.9,2.6c0,0.1-0.1,0.2-0.1,0.3
	c-0.3,0.8-0.6,1.6-0.9,2.3c-0.1,0.2-0.2,0.5-0.3,0.7c-0.3,0.8-0.7,1.5-1,2.3c0,0.1-0.1,0.2-0.1,0.2c-0.4,0.8-0.8,1.6-1.3,2.4
	c-0.2,0.4-0.4,0.8-0.6,1.2c-0.2,0.4-0.4,0.7-0.6,1.1c-0.2,0.3-0.3,0.6-0.5,0.8c-0.5,0.8-1,1.5-1.5,2.3c-0.2,0.3-0.4,0.6-0.6,0.9
	c-0.2,0.4-0.5,0.7-0.7,1c-0.2,0.3-0.5,0.6-0.7,0.9c-0.5,0.7-1.1,1.4-1.7,2.1c-0.1,0.1-0.2,0.2-0.3,0.3c-0.5,0.6-1,1.2-1.5,1.8
	c-0.2,0.2-0.3,0.4-0.5,0.5c-0.6,0.7-1.2,1.3-1.9,2c0,0,0,0,0,0c-0.6,0.6-1.3,1.3-2,1.9c-0.4,0.3-0.7,0.7-1.1,1
	c-0.3,0.3-0.7,0.6-1,0.9c-0.2,0.1-0.3,0.3-0.5,0.4c-0.7,0.6-1.4,1.1-2.1,1.7c-0.3,0.3-0.7,0.5-1,0.8c-0.3,0.2-0.6,0.5-1,0.7
	c-0.3,0.2-0.6,0.4-0.9,0.6c-0.8,0.5-1.5,1-2.3,1.5c-0.2,0.1-0.5,0.3-0.7,0.4c-0.4,0.2-0.7,0.4-1.1,0.6c-0.4,0.2-0.8,0.5-1.3,0.7
	c-0.8,0.4-1.6,0.9-2.4,1.3c-0.1,0.1-0.2,0.1-0.3,0.2c-0.3,0.2-0.7,0.4-1,0.5c-0.6,0.2-1.2,0.5-1.9,0.8c-0.8,0.3-1.6,0.6-2.3,0.9
	c-0.1,0-0.2,0.1-0.3,0.1c-0.9,0.3-1.7,0.6-2.6,0.9c-0.6,0.2-1.2,0.3-1.7,0.6c-0.2,0.1-0.5,0.1-0.7,0.2c-0.4,0.1-0.7,0.2-1.1,0.3
	c-0.9,0.2-1.8,0.4-2.7,0.6c-0.3,0.1-0.5,0.1-0.8,0.2c-0.5,0.1-1.1,0.2-1.7,0.3c-0.4,0.1-0.8,0.1-1.2,0.2c-0.9,0.1-1.9,0.3-2.8,0.4
	c-0.2,0-0.5,0-0.7,0.1c-0.4,0.1-0.9,0.1-1.3,0.1c-0.6,0-1.1,0.1-1.7,0.1c-1,0-2,0.1-2.9,0.1c-1.2,0-2.3,0-3.5-0.1
	c-0.4,0-0.7-0.1-1.1-0.1c-0.8-0.1-1.6-0.1-2.3-0.2c-0.4,0-0.9-0.1-1.3-0.2c-0.7-0.1-1.4-0.2-2.1-0.3c-0.4-0.1-0.9-0.2-1.3-0.2
	c-0.7-0.1-1.4-0.3-2-0.4c-0.4-0.1-0.9-0.2-1.3-0.3c-0.7-0.2-1.4-0.3-2-0.5c-0.4-0.1-0.8-0.2-1.2-0.3c-0.7-0.2-1.4-0.4-2.1-0.7
	c-0.4-0.1-0.7-0.2-1.1-0.4c-0.8-0.3-1.5-0.6-2.3-0.9c-0.3-0.1-0.5-0.2-0.8-0.3c-1-0.4-1.9-0.8-2.8-1.2c-0.1,0-0.1-0.1-0.2-0.1
	c-3.1-1.5-6-3.2-8.8-5.1c-0.1,0-0.1-0.1-0.2-0.2c-0.8-0.6-1.7-1.2-2.5-1.8c-0.1-0.1-0.2-0.2-0.3-0.2c-0.8-0.6-1.6-1.2-2.3-1.9
	c-0.3-0.2-0.6-0.5-0.8-0.7c-0.5-0.4-1-0.8-1.4-1.3c-0.2-0.2-0.3-0.3-0.5-0.5c-0.8-0.8-1.6-1.5-2.3-2.3l-1.5-1.5
	c-0.3-0.3-0.5-0.6-0.7-0.9c-0.1-0.2-0.2-0.3-0.4-0.5c-4.9-5.7-12-8.9-19.5-8.9h-1.4c-14.3,0-25.9,11.6-25.9,25.9V480H217.9
	c-14.3,0-25.9-11.6-25.9-25.9v-1.4c0-7.5,3.3-14.6,8.9-19.5c15-12.5,24.2-31.6,23-52.9c-1.8-32.5-28.3-58.7-60.9-60.2
	c-36.7-1.7-67,27.6-67,63.9c0,19.6,8.8,37.1,22.6,48.8c5.9,5,9.4,12.2,9.4,19.9v1.4c0,14.3-11.6,25.9-25.9,25.9H32V192h70.1
	c14.3,0,25.9-11.6,25.9-25.9v-1.4c0-7.5-3.3-14.6-8.9-19.5c-0.1-0.1-0.2-0.2-0.3-0.3c-0.7-0.5-1.4-1.1-2-1.7l-0.6-0.6
	c-0.8-0.8-1.6-1.5-2.3-2.3c-0.1-0.1-0.1-0.1-0.2-0.2c-0.7-0.7-1.4-1.5-2.1-2.3c-0.1-0.1-0.2-0.2-0.2-0.3c-0.7-0.8-1.3-1.5-1.9-2.3
	c-0.1-0.1-0.2-0.2-0.2-0.3c-0.6-0.8-1.2-1.6-1.8-2.5c-0.1-0.1-0.1-0.1-0.2-0.2c-1.9-2.8-3.6-5.7-5.1-8.8c0-0.1-0.1-0.1-0.1-0.2
	c-0.4-0.9-0.9-1.9-1.2-2.8c-0.1-0.3-0.2-0.5-0.3-0.8c-0.3-0.8-0.6-1.5-0.9-2.3c-0.1-0.3-0.2-0.7-0.4-1.1c-0.2-0.7-0.5-1.4-0.7-2.1
	c-0.1-0.4-0.2-0.8-0.3-1.2c-0.2-0.7-0.4-1.4-0.5-2c-0.1-0.4-0.2-0.9-0.3-1.3c-0.1-0.7-0.3-1.4-0.4-2c-0.1-0.4-0.2-0.9-0.2-1.3
	c-0.1-0.7-0.2-1.4-0.3-2.1c-0.1-0.4-0.1-0.9-0.2-1.3c-0.1-0.8-0.1-1.6-0.2-2.3c0-0.4-0.1-0.7-0.1-1.1C96,98.3,96,97.2,96,96
	c0-1,0-2,0.1-2.9c0-0.4,0-0.9,0.1-1.3c0-0.7,0.1-1.4,0.2-2c0-0.1,0-0.2,0-0.4c0.1-0.9,0.2-1.9,0.4-2.8c0-0.2,0.1-0.4,0.1-0.7
	c0.1-0.8,0.3-1.6,0.4-2.4c0-0.2,0.1-0.4,0.1-0.5c0.2-0.9,0.4-1.8,0.6-2.7c0-0.1,0.1-0.3,0.1-0.4c0.2-0.7,0.4-1.4,0.6-2.2
	c0.1-0.3,0.2-0.6,0.3-0.9c0.3-0.9,0.6-1.8,0.9-2.6c0-0.1,0.1-0.2,0.1-0.3c0.3-0.8,0.6-1.6,0.9-2.3c0.1-0.2,0.2-0.5,0.3-0.7
	c0.3-0.8,0.7-1.5,1-2.3c0-0.1,0.1-0.2,0.1-0.3c0.4-0.8,0.8-1.6,1.3-2.4c0.1-0.2,0.2-0.4,0.3-0.6c0.4-0.7,0.7-1.3,1.1-1.9
	c0.1-0.2,0.2-0.3,0.3-0.5c0.5-0.8,1-1.5,1.5-2.3c0.1-0.1,0.2-0.3,0.3-0.4c0.4-0.6,0.9-1.2,1.3-1.8c0.1-0.2,0.3-0.4,0.4-0.6
	c0.5-0.7,1.1-1.4,1.7-2.1c0.1-0.1,0.2-0.2,0.3-0.3c0.5-0.6,1-1.2,1.5-1.8c0.2-0.2,0.3-0.4,0.5-0.5c0.6-0.7,1.2-1.3,1.9-2
	c0,0,0,0,0,0c0.6-0.6,1.3-1.3,2-1.9c0.2-0.2,0.4-0.3,0.5-0.5c0.6-0.5,1.2-1,1.8-1.5c0.1-0.1,0.2-0.2,0.3-0.3
	c0.7-0.6,1.4-1.1,2.1-1.7c0.2-0.1,0.3-0.3,0.5-0.4c0.6-0.5,1.3-0.9,1.9-1.3c0.2-0.1,0.3-0.2,0.5-0.3c0.8-0.5,1.5-1,2.3-1.5
	c0.1-0.1,0.3-0.2,0.4-0.2c0.6-0.4,1.3-0.8,1.9-1.1c0.2-0.1,0.5-0.3,0.7-0.4c0.8-0.4,1.6-0.9,2.4-1.3c0.1,0,0.2-0.1,0.2-0.1
	c0.8-0.4,1.5-0.7,2.3-1c0.2-0.1,0.5-0.2,0.7-0.3c0.8-0.3,1.5-0.6,2.3-0.9c0.1,0,0.2-0.1,0.3-0.1c0.9-0.3,1.7-0.6,2.6-0.9
	c0.3-0.1,0.6-0.2,0.8-0.3c0.7-0.2,1.4-0.4,2.2-0.6c0.2,0,0.3-0.1,0.5-0.1c0.9-0.2,1.8-0.4,2.7-0.6c0.2,0,0.4-0.1,0.6-0.1
	c0.8-0.2,1.6-0.3,2.3-0.4c0.2,0,0.5-0.1,0.7-0.1c0.9-0.1,1.9-0.3,2.8-0.4c0.2,0,0.4,0,0.5-0.1c0.8-0.1,1.6-0.1,2.5-0.2
	c0.2,0,0.5,0,0.7,0c1,0,1.9-0.1,2.9-0.1c0,0,0,0,0,0c1,0,2,0,3,0.1c0.2,0,0.5,0,0.7,0c0.9,0.1,1.8,0.1,2.7,0.2c0.1,0,0.1,0,0.2,0
	c30,3.1,53.9,26.9,57.1,57c0,0.3,0.1,0.7,0.1,1c0.1,0.7,0.1,1.4,0.2,2.1c0,0.5,0,0.9,0.1,1.4c0,0.6,0,1.2,0,1.8c0,0.5,0,1,0,1.4
	c0,0.6,0,1.2,0,1.8c0,0.5-0.1,1-0.1,1.4c0,0.6-0.1,1.2-0.1,1.7c0,0.5-0.1,1-0.2,1.5c-0.1,0.6-0.1,1.1-0.2,1.7
	c-0.1,0.5-0.1,1-0.2,1.5c-0.1,0.5-0.2,1.1-0.3,1.6c-0.1,0.5-0.2,1-0.3,1.5c-0.1,0.5-0.2,1-0.4,1.5c-0.1,0.5-0.2,1-0.4,1.5
	c-0.1,0.5-0.3,0.9-0.4,1.4c-0.2,0.5-0.3,1-0.5,1.5c-0.1,0.4-0.3,0.9-0.4,1.3c-0.2,0.5-0.4,1.1-0.6,1.6c-0.1,0.4-0.3,0.8-0.5,1.2
	c-0.2,0.6-0.4,1.1-0.7,1.7c-0.1,0.3-0.3,0.7-0.4,1c-0.3,0.6-0.5,1.2-0.8,1.8c-0.1,0.2-0.2,0.5-0.4,0.7c-0.3,0.7-0.7,1.3-1,2
	c0,0.1-0.1,0.2-0.1,0.2c-3.8,6.7-8.7,12.7-14.5,17.7c0,0,0,0-0.1,0c-5.8,5-9.4,12.2-9.4,19.9v1.4c0,14.3,11.6,25.9,25.9,25.9H320
	v116.7c0,6.3,5.1,11.3,11.3,11.3h25.7c5.2,0,9.1-4.1,10-9.2c0-0.1,0.1-0.1,0.1-0.2c5-5.8,10.9-10.8,17.7-14.5c0.1,0,0.2-0.1,0.2-0.1
	c0.7-0.4,1.3-0.7,2-1c0.2-0.1,0.5-0.2,0.7-0.4c0.6-0.3,1.2-0.6,1.8-0.8c0.3-0.1,0.7-0.3,1-0.4c0.6-0.2,1.1-0.5,1.7-0.7
	c0.4-0.2,0.8-0.3,1.2-0.5c0.5-0.2,1.1-0.4,1.6-0.6c0.4-0.2,0.9-0.3,1.3-0.4c0.5-0.2,1-0.3,1.5-0.5c0.5-0.1,0.9-0.3,1.4-0.4
	c0.5-0.1,1-0.3,1.5-0.4c0.5-0.1,1-0.2,1.5-0.4c0.5-0.1,1-0.2,1.5-0.3c0.5-0.1,1.1-0.2,1.6-0.3c0.5-0.1,1-0.2,1.5-0.2
	c0.6-0.1,1.1-0.1,1.7-0.2c0.5-0.1,1-0.1,1.5-0.2c0.6-0.1,1.1-0.1,1.7-0.1c0.5,0,1-0.1,1.4-0.1c0.6,0,1.2,0,1.8,0c0.5,0,1,0,1.4,0
	c0.6,0,1.2,0,1.8,0c0.5,0,0.9,0,1.4,0.1c0.7,0,1.4,0.1,2.1,0.2c0.3,0,0.7,0.1,1,0.1c30,3.1,53.9,27,57,57.1c0,0.1,0,0.1,0,0.2
	c0.1,0.9,0.2,1.8,0.2,2.7c0,0.2,0,0.5,0,0.7C480,350,480,351,480,352z"/>
</svg>
