<?xml version="1.0" encoding="utf-8"?>
<!-- Generator: Adobe Illustrator 19.2.1, SVG Export Plug-In . SVG Version: 6.00 Build 0)  -->
<svg version="1.1" id="Layer_1" xmlns="http://www.w3.org/2000/svg" xmlns:xlink="http://www.w3.org/1999/xlink" x="0px" y="0px"
	 viewBox="0 0 512 512" enable-background="new 0 0 512 512" xml:space="preserve">
<path d="M480,351.994c0,0.013-0.001,0.025-0.001,0.037c0,0.972-0.03,1.937-0.073,2.899c-0.012,0.263-0.026,0.526-0.041,0.788
	c-0.048,0.83-0.11,1.656-0.188,2.478c-0.015,0.151-0.024,0.304-0.04,0.455c-0.098,0.95-0.22,1.892-0.359,2.829
	c-0.035,0.238-0.075,0.475-0.113,0.712c-0.122,0.761-0.257,1.518-0.406,2.271c-0.042,0.214-0.081,0.429-0.125,0.642
	c-0.191,0.916-0.4,1.826-0.63,2.728c-0.048,0.189-0.102,0.376-0.152,0.564c-0.197,0.745-0.407,1.485-0.63,2.219
	c-0.071,0.234-0.141,0.469-0.215,0.702c-0.28,0.885-0.573,1.764-0.89,2.631c-0.034,0.094-0.073,0.186-0.107,0.28
	c-0.291,0.785-0.599,1.561-0.919,2.331c-0.096,0.232-0.194,0.463-0.293,0.694c-0.333,0.775-0.678,1.544-1.041,2.302
	c-0.037,0.078-0.072,0.158-0.109,0.235c-0.399,0.826-0.82,1.64-1.253,2.446c-0.115,0.214-0.233,0.426-0.35,0.639
	c-0.365,0.662-0.742,1.317-1.129,1.964c-0.095,0.159-0.187,0.319-0.283,0.477c-0.473,0.774-0.963,1.536-1.467,2.288
	c-0.119,0.178-0.243,0.353-0.364,0.529c-0.418,0.609-0.845,1.211-1.283,1.805c-0.135,0.183-0.269,0.368-0.406,0.55
	c-0.545,0.723-1.103,1.436-1.677,2.134c-0.096,0.117-0.196,0.23-0.292,0.345c-0.497,0.596-1.006,1.182-1.524,1.759
	c-0.164,0.183-0.328,0.365-0.494,0.545c-0.617,0.672-1.243,1.335-1.887,1.979c-0.002,0.003-0.005,0.005-0.008,0.007
	c-0.642,0.642-1.303,1.266-1.972,1.88c-0.181,0.166-0.363,0.33-0.546,0.494c-0.58,0.521-1.169,1.032-1.768,1.532
	c-0.112,0.094-0.222,0.19-0.334,0.283c-0.699,0.575-1.412,1.132-2.135,1.677c-0.183,0.138-0.369,0.273-0.554,0.409
	c-0.594,0.438-1.197,0.867-1.807,1.285c-0.175,0.12-0.348,0.242-0.524,0.36c-0.752,0.504-1.514,0.994-2.288,1.467
	c-0.16,0.098-0.324,0.191-0.485,0.288c-0.646,0.387-1.299,0.762-1.96,1.127c-0.211,0.117-0.422,0.234-0.635,0.349
	c-0.806,0.433-1.619,0.853-2.445,1.252c-0.085,0.041-0.171,0.078-0.256,0.119c-0.752,0.359-1.514,0.702-2.283,1.032
	c-0.231,0.099-0.463,0.198-0.696,0.294c-0.775,0.322-1.555,0.632-2.345,0.925c-0.088,0.033-0.175,0.069-0.263,0.101
	c-0.868,0.317-1.748,0.611-2.633,0.891c-0.234,0.074-0.469,0.144-0.703,0.215c-0.736,0.224-1.478,0.434-2.225,0.632
	c-0.185,0.049-0.369,0.102-0.555,0.149c-0.902,0.23-1.811,0.439-2.728,0.63c-0.215,0.045-0.433,0.084-0.649,0.127
	c-0.751,0.148-1.507,0.283-2.267,0.405c-0.236,0.038-0.472,0.078-0.709,0.113c-0.937,0.139-1.879,0.261-2.829,0.359
	c-0.155,0.016-0.312,0.026-0.468,0.041c-0.818,0.078-1.641,0.14-2.467,0.188c-0.262,0.015-0.523,0.03-0.786,0.042
	C417.961,415.97,416.984,416,416,416c-1.171,0-2.334-0.036-3.49-0.098c-0.374-0.02-0.743-0.058-1.115-0.085
	c-0.78-0.056-1.559-0.114-2.33-0.197c-0.433-0.047-0.862-0.109-1.293-0.164c-0.707-0.091-1.413-0.185-2.112-0.299
	c-0.441-0.072-0.878-0.154-1.316-0.235c-0.686-0.126-1.369-0.259-2.046-0.407c-0.429-0.094-0.854-0.193-1.28-0.295
	c-0.686-0.165-1.368-0.34-2.045-0.527c-0.401-0.11-0.8-0.222-1.198-0.34c-0.709-0.21-1.411-0.436-2.109-0.67
	c-0.352-0.118-0.705-0.233-1.054-0.357c-0.771-0.274-1.533-0.566-2.29-0.868c-0.264-0.105-0.531-0.204-0.793-0.313
	c-0.951-0.394-1.891-0.811-2.819-1.249c-0.06-0.028-0.122-0.054-0.183-0.083c-3.088-1.472-6.039-3.184-8.83-5.113
	c-0.073-0.05-0.144-0.104-0.217-0.154c-0.845-0.589-1.675-1.196-2.49-1.824c-0.101-0.078-0.2-0.158-0.3-0.236
	c-0.789-0.616-1.565-1.249-2.324-1.901c-0.094-0.08-0.187-0.162-0.28-0.243c-0.773-0.672-1.532-1.361-2.272-2.068
	c-0.062-0.059-0.124-0.117-0.185-0.176c-0.792-0.763-1.566-1.544-2.318-2.347c-0.002-0.002-0.003-0.004-0.005-0.005
	c-0.778-0.83-1.533-1.681-2.266-2.552c-0.076-0.09-0.157-0.174-0.234-0.263C361.9,387.262,354.768,384,347.259,384H345.9
	c-14.304,0-25.9,11.596-25.9,25.9V480H217.9c-14.304,0-25.9-11.596-25.9-25.9v-1.359c0-7.509,3.262-14.641,8.931-19.547
	C215.025,421.454,224,403.777,224,384c0-35.346-28.654-64-64-64s-64,28.654-64,64c0,19.569,8.792,37.075,22.631,48.814
	c5.86,5.007,9.369,12.225,9.369,19.935v1.351c0,14.304-11.596,25.9-25.9,25.9H32V192h70.1c14.304,0,25.9-11.596,25.9-25.9v-1.359
	c0-7.509-3.262-14.641-8.931-19.547c-0.089-0.077-0.173-0.158-0.263-0.234c-0.871-0.733-1.722-1.489-2.552-2.266
	c-0.002-0.002-0.004-0.003-0.005-0.005c-0.803-0.752-1.584-1.526-2.347-2.318c-0.059-0.061-0.117-0.123-0.176-0.185
	c-0.708-0.74-1.397-1.498-2.068-2.272c-0.081-0.093-0.162-0.186-0.243-0.28c-0.652-0.759-1.285-1.535-1.901-2.324
	c-0.078-0.1-0.158-0.199-0.236-0.3c-0.628-0.814-1.235-1.645-1.824-2.49c-0.051-0.073-0.104-0.144-0.154-0.217
	c-1.928-2.791-3.641-5.742-5.113-8.83c-0.029-0.06-0.054-0.122-0.083-0.183c-0.438-0.928-0.855-1.868-1.249-2.819
	c-0.109-0.262-0.208-0.529-0.313-0.793c-0.302-0.757-0.595-1.519-0.868-2.29c-0.124-0.349-0.239-0.702-0.357-1.054
	c-0.234-0.698-0.459-1.4-0.67-2.109c-0.118-0.397-0.23-0.797-0.34-1.198c-0.187-0.677-0.362-1.359-0.527-2.045
	c-0.102-0.425-0.202-0.851-0.295-1.28c-0.148-0.678-0.281-1.361-0.407-2.046c-0.081-0.438-0.163-0.875-0.235-1.316
	c-0.114-0.699-0.208-1.405-0.299-2.112c-0.055-0.431-0.117-0.859-0.164-1.293c-0.083-0.772-0.142-1.551-0.197-2.33
	c-0.026-0.372-0.065-0.741-0.085-1.115C96.036,98.334,96,97.171,96,96c0-0.984,0.03-1.961,0.074-2.935
	c0.012-0.262,0.027-0.524,0.042-0.786c0.047-0.827,0.109-1.649,0.188-2.467c0.015-0.156,0.025-0.312,0.041-0.468
	c0.098-0.95,0.22-1.892,0.359-2.829c0.035-0.237,0.075-0.473,0.113-0.709c0.122-0.76,0.257-1.516,0.405-2.267
	c0.043-0.216,0.082-0.433,0.127-0.649c0.191-0.917,0.4-1.826,0.63-2.728c0.047-0.186,0.1-0.37,0.149-0.555
	c0.197-0.747,0.408-1.489,0.632-2.225c0.071-0.235,0.142-0.47,0.215-0.703c0.28-0.885,0.574-1.765,0.891-2.633
	c0.032-0.088,0.068-0.175,0.101-0.263c0.292-0.79,0.602-1.571,0.925-2.345c0.097-0.233,0.195-0.465,0.294-0.696
	c0.33-0.768,0.673-1.53,1.032-2.283c0.041-0.085,0.078-0.171,0.119-0.256c0.399-0.826,0.819-1.639,1.252-2.445
	c0.114-0.213,0.232-0.424,0.349-0.635c0.365-0.66,0.74-1.314,1.127-1.96c0.097-0.161,0.19-0.325,0.288-0.485
	c0.473-0.774,0.962-1.536,1.467-2.288c0.118-0.176,0.24-0.349,0.36-0.524c0.418-0.61,0.846-1.212,1.285-1.807
	c0.136-0.185,0.271-0.371,0.409-0.554c0.545-0.723,1.103-1.436,1.677-2.135c0.093-0.113,0.19-0.222,0.283-0.334
	c0.5-0.599,1.011-1.188,1.532-1.768c0.164-0.183,0.328-0.365,0.494-0.546c0.614-0.669,1.238-1.33,1.88-1.972
	c0.003-0.003,0.005-0.005,0.007-0.008c0.645-0.645,1.308-1.27,1.979-1.887c0.181-0.166,0.363-0.33,0.545-0.494
	c0.577-0.518,1.163-1.027,1.759-1.524c0.116-0.097,0.229-0.196,0.345-0.292c0.699-0.575,1.411-1.132,2.134-1.677
	c0.182-0.137,0.367-0.271,0.55-0.406c0.594-0.438,1.195-0.866,1.805-1.283c0.177-0.121,0.351-0.245,0.529-0.364
	c0.752-0.504,1.514-0.994,2.288-1.467c0.158-0.096,0.318-0.188,0.477-0.283c0.647-0.388,1.302-0.764,1.964-1.129
	c0.213-0.117,0.425-0.235,0.639-0.35c0.806-0.433,1.62-0.854,2.446-1.253c0.078-0.038,0.157-0.072,0.235-0.109
	c0.759-0.363,1.527-0.708,2.302-1.041c0.231-0.099,0.462-0.197,0.694-0.293c0.77-0.32,1.546-0.628,2.331-0.919
	c0.094-0.035,0.186-0.073,0.28-0.107c0.868-0.317,1.746-0.61,2.631-0.89c0.233-0.074,0.468-0.144,0.702-0.215
	c0.734-0.223,1.474-0.433,2.219-0.63c0.188-0.05,0.375-0.103,0.564-0.152c0.902-0.229,1.811-0.439,2.728-0.63
	c0.213-0.044,0.428-0.083,0.642-0.125c0.752-0.148,1.509-0.284,2.271-0.406c0.237-0.038,0.474-0.078,0.712-0.113
	c0.937-0.139,1.879-0.261,2.829-0.359c0.151-0.016,0.304-0.025,0.455-0.04c0.821-0.079,1.647-0.141,2.478-0.188
	c0.262-0.015,0.525-0.03,0.788-0.041c0.961-0.043,1.927-0.073,2.899-0.073c0.013,0,0.025-0.001,0.037-0.001
	c0.99,0,1.972,0.03,2.951,0.075c0.248,0.011,0.497,0.026,0.746,0.04c0.91,0.052,1.816,0.117,2.716,0.207
	c0.055,0.005,0.111,0.009,0.166,0.015c30.045,3.071,53.933,26.924,57.064,56.951c0.034,0.338,0.056,0.673,0.085,1.01
	c0.062,0.697,0.12,1.394,0.16,2.098c0.026,0.468,0.036,0.933,0.051,1.399c0.02,0.602,0.042,1.204,0.046,1.81
	c0.003,0.48-0.009,0.957-0.016,1.435c-0.009,0.593-0.019,1.186-0.045,1.775c-0.021,0.484-0.054,0.965-0.086,1.446
	c-0.038,0.575-0.078,1.15-0.131,1.721c-0.045,0.486-0.1,0.97-0.156,1.453c-0.064,0.557-0.133,1.112-0.211,1.664
	c-0.07,0.491-0.147,0.98-0.229,1.467c-0.089,0.533-0.183,1.065-0.285,1.593c-0.096,0.497-0.197,0.993-0.304,1.486
	c-0.11,0.508-0.228,1.012-0.35,1.515c-0.123,0.505-0.249,1.009-0.384,1.51c-0.128,0.477-0.265,0.95-0.404,1.422
	c-0.152,0.517-0.307,1.034-0.472,1.545c-0.141,0.439-0.292,0.874-0.443,1.309c-0.185,0.534-0.371,1.069-0.57,1.596
	c-0.148,0.392-0.305,0.78-0.461,1.168c-0.224,0.559-0.447,1.119-0.686,1.67c-0.143,0.331-0.296,0.655-0.444,0.983
	c-0.271,0.599-0.543,1.198-0.832,1.786c-0.117,0.239-0.243,0.473-0.364,0.71c-0.338,0.667-0.678,1.332-1.038,1.985
	c-0.045,0.081-0.094,0.16-0.139,0.241c-3.753,6.733-8.683,12.721-14.518,17.679c-0.019,0.016-0.036,0.033-0.055,0.049
	c-5.86,5.007-9.369,12.225-9.369,19.935v1.351c0,14.304,11.596,25.9,25.9,25.9H320v102.1c0,14.304,11.596,25.9,25.9,25.9h1.351
	c7.71,0,14.928-3.51,19.935-9.369c0.016-0.019,0.033-0.036,0.049-0.055c4.958-5.835,10.946-10.765,17.679-14.518
	c0.081-0.045,0.16-0.094,0.241-0.139c0.653-0.36,1.318-0.7,1.985-1.038c0.237-0.12,0.471-0.246,0.71-0.364
	c0.589-0.289,1.188-0.56,1.786-0.832c0.328-0.148,0.652-0.301,0.983-0.444c0.551-0.239,1.111-0.462,1.67-0.686
	c0.389-0.155,0.776-0.313,1.168-0.461c0.528-0.199,1.062-0.385,1.596-0.57c0.435-0.151,0.87-0.301,1.309-0.443
	c0.512-0.165,1.028-0.319,1.545-0.472c0.472-0.139,0.945-0.276,1.422-0.404c0.5-0.135,1.004-0.261,1.51-0.384
	c0.503-0.122,1.008-0.239,1.515-0.35c0.493-0.107,0.989-0.208,1.486-0.304c0.529-0.102,1.06-0.196,1.593-0.285
	c0.487-0.081,0.976-0.159,1.467-0.229c0.552-0.079,1.107-0.147,1.664-0.211c0.483-0.056,0.967-0.111,1.453-0.156
	c0.571-0.053,1.146-0.093,1.721-0.131c0.481-0.032,0.962-0.065,1.446-0.086c0.589-0.026,1.182-0.035,1.775-0.045
	c0.478-0.008,0.955-0.019,1.435-0.016c0.606,0.004,1.208,0.025,1.81,0.046c0.466,0.016,0.931,0.026,1.399,0.051
	c0.703,0.039,1.401,0.098,2.098,0.16c0.337,0.029,0.672,0.051,1.01,0.085c30.027,3.13,53.881,27.019,56.951,57.064
	c0.006,0.055,0.009,0.111,0.015,0.166c0.09,0.899,0.155,1.806,0.207,2.716c0.014,0.249,0.028,0.497,0.04,0.746
	C479.97,350.022,480,351.004,480,351.994z"/>
</svg>
