<?xml version="1.0" encoding="utf-8"?>
<!-- Generator: Adobe Illustrator 19.2.1, SVG Export Plug-In . SVG Version: 6.00 Build 0)  -->
<svg version="1.1" id="Layer_1" xmlns="http://www.w3.org/2000/svg" xmlns:xlink="http://www.w3.org/1999/xlink" x="0px" y="0px"
	 viewBox="0 0 512 512" enable-background="new 0 0 512 512" xml:space="preserve">
<path d="M226,224h30v128h-31.996v-72.791l-32.173,45.61L160,278.973V352h-32V224h32l31.831,46.155L226,224z M352,288h32l-48,64
	l-48-64h32l0.167-64H352V288z M416,32H311.417C300.349,12.876,279.685,0,256,0s-44.349,12.876-55.417,32H96
	c-17.664,0-32,14.336-32,32v384c0,17.664,14.336,32,32,32h320c17.664,0,32-14.336,32-32V64C448,46.336,433.664,32,416,32z M256,32
	c17.673,0,32,14.327,32,32h-64C224,46.327,238.327,32,256,32z M416,448H96V64h64v0v64h192V64v0h64V448z"/>
</svg>
