<?xml version="1.0" encoding="utf-8"?>
<!-- Generator: Adobe Illustrator 19.2.1, SVG Export Plug-In . SVG Version: 6.00 Build 0)  -->
<svg version="1.1" id="Layer_1" xmlns="http://www.w3.org/2000/svg" xmlns:xlink="http://www.w3.org/1999/xlink" x="0px" y="0px"
	 width="512px" height="512px" viewBox="0 0 512 512" xml:space="preserve">
<path d="M214.6,361.4L192,384l-80-80l80-80l22.6,22.6L157.3,304L214.6,361.4z M448,64v384c0,17.7-14.3,32-32,32H96
	c-17.7,0-32-14.3-32-32V64c0-17.7,14.3-32,32-32h104.6C211.7,12.9,232.3,0,256,0s44.3,12.9,55.4,32H416C433.7,32,448,46.3,448,64z
	 M224,64h64c0-17.7-14.3-32-32-32S224,46.3,224,64z M416,64h-64v0v64H160V64v0H96v384h320V64z M297.4,246.6l57.4,57.4l-57.4,57.4
	L320,384l80-80l-80-80L297.4,246.6z"/>
</svg>
