<?xml version="1.0" encoding="utf-8"?>
<!-- Generator: Adobe Illustrator 25.0.1, SVG Export Plug-In . SVG Version: 6.00 Build 0)  -->
<svg version="1.1" id="Layer_1" xmlns="http://www.w3.org/2000/svg" xmlns:xlink="http://www.w3.org/1999/xlink" x="0px" y="0px"
	 width="512px" height="512px" viewBox="0 0 512 512" enable-background="new 0 0 512 512" xml:space="preserve">
<path d="M442.6,299.7L352,247.4V352h-64V247.4l-90.6,52.3l-32-55.4L256,192l-90.6-52.3l32-55.4l90.6,52.3V32h64v104.6l90.6-52.3
	l32,55.4L384,192l90.6,52.3L442.6,299.7z M80,384c-26.5,0-48,21.5-48,48c0,26.5,21.5,48,48,48s48-21.5,48-48
	C128,405.5,106.5,384,80,384z"/>
<g>
</g>
<g>
</g>
<g>
</g>
<g>
</g>
<g>
</g>
<g>
</g>
</svg>
