<?xml version="1.0" encoding="utf-8"?>
<!-- Generator: Adobe Illustrator 25.0.1, SVG Export Plug-In . SVG Version: 6.00 Build 0)  -->
<svg version="1.1" id="Layer_1" xmlns="http://www.w3.org/2000/svg" xmlns:xlink="http://www.w3.org/1999/xlink" x="0px" y="0px"
	 width="512px" height="512px" viewBox="0 0 512 512" enable-background="new 0 0 512 512" xml:space="preserve">
<path d="M288,288h192v192H288V288z M352,224H224V32h128V224z M320,64h-64v128h64V64z M160,352H96V160h96V96H96
	c-35.3,0-64,28.7-64,64v0v192v0c0,35.3,28.7,64,64,64h64v64l96-96l-96-96V352z M448,32v192h32V32H448z M416,32h-32v192h32V32z"/>
</svg>
