<?xml version="1.0" encoding="utf-8"?>
<!-- Generator: Adobe Illustrator 19.2.1, SVG Export Plug-In . SVG Version: 6.00 Build 0)  -->
<svg version="1.1" id="Layer_1" xmlns="http://www.w3.org/2000/svg" xmlns:xlink="http://www.w3.org/1999/xlink" x="0px" y="0px"
	 viewBox="0 0 512 512" enable-background="new 0 0 512 512" xml:space="preserve">
<path d="M448,448h32v32h-32V448z M448,0h32v32h-32V0z M0,448.001h32V480H0V448.001z M0,0h32v32H0V0z M448,384h32v32h-32V384z
	 M448,320h32v32h-32V320z M448,256h32v32h-32V256z M448,192h32v32h-32V192z M448,128h32v32h-32V128z M448,64h32v32h-32V64z M0,384
	h32v32H0V384z M0,320.001h32V352H0V320.001z M0,256h32v32H0V256z M0,192h32v32H0V192z M0,128h32v32H0V128z M0,64h32v32H0V64z
	 M128,448h32v32h-32V448z M64,448h32v32H64V448z M192,448h32v32h-32V448z M256,448h32v32h-32V448z M320,448h32v32h-32V448z M384,448
	h32v32h-32V448z M64,0h32v32H64V0z M128,0h32v32h-32V0z M192,0h32v32h-32V0z M256,0h32v32h-32V0z M320,0h32v32h-32V0z M384,0h31.999
	v32H384V0z M288,64l53.439,53.439L240,218.892L138.561,117.439L192,64H64v74.607V192l53.453-53.453l101.441,101.454L117.455,341.454
	L64,288v128h74.642H192l-53.438-53.438L240,261.11l101.438,101.452L288,416h128V288l-53.454,53.454l-101.44-101.453l101.441-101.454
	L416,192v-53.393V64H288z"/>
</svg>
