<?xml version="1.0" encoding="utf-8"?>
<!-- Generator: Adobe Illustrator 19.2.1, SVG Export Plug-In . SVG Version: 6.00 Build 0)  -->
<svg version="1.1" id="Layer_1" xmlns="http://www.w3.org/2000/svg" xmlns:xlink="http://www.w3.org/1999/xlink" x="0px" y="0px"
	 viewBox="0 0 512 512" enable-background="new 0 0 512 512" xml:space="preserve">
<path d="M0,288v224h352V288H0z M239.317,480h-37.683l-25.633-94.617L147.347,480h-40.874L64,320h41.833l21.716,99.402L156.509,320
	h40.016l24.908,99.402l19.158-70.698h-16.604V320H288L239.317,480z M502.667,77.217l-67.882,67.882l22.627,22.627
	c12.445,12.445,12.445,32.81,0,45.255l-22.627,22.627L276.393,77.216l22.627-22.627c12.445-12.445,32.81-12.445,45.255,0
	l22.627,22.627l67.882-67.882c12.445-12.445,32.81-12.445,45.255,0l22.627,22.627C515.111,44.406,515.111,64.771,502.667,77.217z
	 M409.921,256H160l-74.398-74.397c12.445,12.445,32.81,12.445,45.255,0l79.706-79.706c12.445-12.445,32.81-12.445,45.255,0
	L409.921,256z"/>
</svg>
