<?xml version="1.0" encoding="utf-8"?>
<!-- Generator: Adobe Illustrator 19.2.1, SVG Export Plug-In . SVG Version: 6.00 Build 0)  -->
<svg version="1.1" id="Layer_1" xmlns="http://www.w3.org/2000/svg" xmlns:xlink="http://www.w3.org/1999/xlink" x="0px" y="0px"
	 viewBox="0 0 512 512" enable-background="new 0 0 512 512" xml:space="preserve">
<path d="M32.001,479.902H256V512H32.001h-32H0v-32.098h0.001V256h32V479.902z M63.725,447.853H223v-32H63.725V447.853z M161,351.655
	H63.41v32H161V351.655z M95.725,287.77h-32v32h32V287.77z M412.193,259.404L253.801,101.012
	c-12.445-12.445-32.863-12.392-45.308,0.053l-69.786,69.786c0,0-0.004-0.004-0.004-0.004c-0.053,0.054-0.102,0.111-0.156,0.164v0
	c-11.58,11.58-30.014,12.678-42.547,2.708v0l200.939,200.939c12.467,12.467,32.81,12.445,45.255,0l69.946-69.946
	C424.585,292.266,424.638,271.849,412.193,259.404z M502.666,31.961L480.039,9.334c-12.445-12.445-32.81-12.445-45.255,0
	l-67.882,67.882l-22.627-22.627c-12.445-12.445-32.81-12.445-45.255,0l-22.627,22.627l158.392,158.392l22.627-22.627
	c12.445-12.445,12.445-32.81,0-45.255l-22.627-22.627l67.882-67.882C515.111,64.771,515.111,44.406,502.666,31.961z"/>
</svg>
