<?xml version="1.0" encoding="utf-8"?>
<!-- Generator: Adobe Illustrator 19.2.1, SVG Export Plug-In . SVG Version: 6.00 Build 0)  -->
<svg version="1.1" id="Layer_1" xmlns="http://www.w3.org/2000/svg" xmlns:xlink="http://www.w3.org/1999/xlink" x="0px" y="0px"
	 viewBox="0 0 512 512" enable-background="new 0 0 512 512" xml:space="preserve">
<path d="M96,288L0,400l96,112h256V288H96z M266.083,455.561c-3.947,5.864-9.303,10.61-16.066,14.243
	c-6.764,3.63-14.633,6.24-23.611,7.82c-8.974,1.582-18.451,2.375-28.424,2.375c-10.233,0-19.966-0.723-29.202-2.158
	c-9.236-1.438-17.235-3.596-23.999-6.475v-34.524c7.543,5.251,15.738,9.189,24.585,11.814c8.844,2.625,17.778,3.938,26.797,3.938
	c5.288,0,9.905-0.393,13.853-1.187c3.946-0.791,7.241-1.887,9.885-3.291c2.645-1.401,4.619-3.057,5.921-4.963
	c1.3-1.904,1.952-3.972,1.952-6.204c0-3.022-1.042-5.718-3.122-8.091c-2.084-2.373-4.923-4.568-8.52-6.582
	c-3.601-2.012-7.871-3.953-12.813-5.825c-4.944-1.87-10.278-3.777-16-5.718c-14.571-5.034-25.431-11.184-32.587-18.45
	c-7.153-7.263-10.731-16.04-10.731-26.326c0-8.054,1.952-14.976,5.853-20.769c3.902-5.789,9.212-10.552,15.935-14.294
	c6.72-3.738,14.503-6.489,23.35-8.252c8.844-1.763,18.211-2.644,28.097-2.644c9.713,0,18.32,0.486,25.821,1.455
	c7.499,0.972,14.416,2.466,20.748,4.48v32.258c-3.122-1.799-6.528-3.381-10.211-4.748c-3.688-1.365-7.481-2.498-11.383-3.398
	c-3.9-0.898-7.784-1.565-11.641-1.995c-3.86-0.432-7.527-0.649-10.993-0.649c-4.769,0-9.105,0.378-13.008,1.135
	c-3.903,0.754-7.2,1.816-9.886,3.181c-2.689,1.367-4.77,3.005-6.245,4.91c-1.476,1.907-2.212,4.046-2.212,6.419
	c0,2.59,0.824,4.91,2.474,6.958c1.646,2.053,3.986,3.992,7.024,5.828c3.035,1.833,6.717,3.633,11.056,5.396
	c4.336,1.763,9.237,3.577,14.7,5.449c7.458,2.588,14.157,5.339,20.098,8.252c5.939,2.912,11.036,6.203,15.285,9.87
	c4.248,3.669,7.5,7.859,9.757,12.571c2.253,4.71,3.381,10.195,3.381,16.45C272,442.454,270.025,449.702,266.083,455.561z
	 M502.666,31.961L480.039,9.334c-12.445-12.445-32.81-12.445-45.255,0l-67.882,67.882l-22.627-22.627
	c-12.445-12.445-32.81-12.445-45.255,0l-22.627,22.627l158.392,158.392l22.627-22.627c12.445-12.445,12.445-32.81,0-45.255
	l-22.627-22.627l67.882-67.882C515.111,64.771,515.111,44.406,502.666,31.961z M255.818,101.897
	c-12.445-12.445-32.81-12.445-45.255,0l-79.706,79.706c-12.445,12.445-32.81,12.445-45.255,0L160,256h249.921L255.818,101.897z"/>
</svg>
