<?xml version="1.0" encoding="utf-8"?>
<!-- Generator: Adobe Illustrator 24.2.0, SVG Export Plug-In . SVG Version: 6.00 Build 0)  -->
<svg version="1.1" id="Layer_1" xmlns="http://www.w3.org/2000/svg" xmlns:xlink="http://www.w3.org/1999/xlink" x="0px" y="0px"
	 width="512px" height="512px" viewBox="0 0 512 512" xml:space="preserve">
<path d="M0,288v224h352V288H0z M239.3,480h-37.7L176,385.4L147.4,480h-40.9L64,320h40.6l21.9,100.4L155.8,320h40.4l25.2,100.4
	l19.4-71.4H224v-29h64L239.3,480z M502.7,77.2l-67.9,67.9l22.6,22.6c12.4,12.4,12.4,32.8,0,45.3l-22.6,22.6L276.4,77.2L299,54.6
	c12.4-12.4,32.8-12.4,45.3,0l22.6,22.6l67.9-67.9c12.4-12.4,32.8-12.4,45.3,0L502.7,32C515.1,44.4,515.1,64.8,502.7,77.2z
	 M409.9,256H160l-74.4-74.4c12.4,12.4,32.8,12.4,45.3,0l79.7-79.7c12.4-12.4,32.8-12.4,45.3,0L409.9,256z"/>
</svg>
