<?xml version="1.0" encoding="utf-8"?>
<!-- Generator: Adobe Illustrator 24.2.0, SVG Export Plug-In . SVG Version: 6.00 Build 0)  -->
<svg version="1.1" id="Layer_1" xmlns="http://www.w3.org/2000/svg" xmlns:xlink="http://www.w3.org/1999/xlink" x="0px" y="0px"
	 width="512px" height="512px" viewBox="0 0 512 512" xml:space="preserve">
<path d="M127.9,289L127.9,289V128H160V80c0-8.8,7.2-16,16-16h32c8.8,0,16,7.2,16,16v48h64V80c0-8.8,7.2-16,16-16h32
	c8.8,0,16,7.2,16,16v48h32v160L127.9,289z M96,320v-48c0-8.8-7.2-16-16-16H48c-8.8,0-16,7.2-16,16v48H0v128h224V320H96z M480,320
	v-48c0-8.8-7.2-16-16-16h-32c-8.8,0-16,7.2-16,16v48H288v128h224V320H480z"/>
</svg>
