<?xml version="1.0" encoding="utf-8"?>
<!-- Generator: Adobe Illustrator 24.2.0, SVG Export Plug-In . SVG Version: 6.00 Build 0)  -->
<svg version="1.1" id="Layer_1" xmlns="http://www.w3.org/2000/svg" xmlns:xlink="http://www.w3.org/1999/xlink" x="0px" y="0px"
	 width="512px" height="512px" viewBox="0 0 512 512" xml:space="preserve">
<path id="Table_body" d="M32,32v416h416V32H32z M288,64v96h-96V64H288z M416,320v64L224,192h64L416,320z M64,64h96v96H64V64z
	 M64,192h96v96H64V192z M64,416v-96h96v96H64z M192,416v-64l64,64H192z M320,416L192,288v-64l192,192H320z M416,256l-64-64h64V256z
	 M416,160h-96V64h96V160z"/>
</svg>
