<?xml version="1.0" encoding="utf-8"?>
<!-- Generator: Adobe Illustrator 24.2.0, SVG Export Plug-In . SVG Version: 6.00 Build 0)  -->
<svg version="1.1" id="Layer_1" xmlns="http://www.w3.org/2000/svg" xmlns:xlink="http://www.w3.org/1999/xlink" x="0px" y="0px"
	 width="512px" height="512px" viewBox="0 0 512 512" xml:space="preserve">
<path d="M160,384V160h224v96l32,32V0H0v416h288l-32-32H160z M288,32h96v96h-96V32z M160,32h96v96h-96V32z M128,384H32v-96h96V384z
	 M128,256H32v-96h96V256z M128,128H32V32h96V128z M504.6,490.1l-15.5,15.5c-8.6,8.6-22.4,8.6-31,0c0,0,0,0,0,0l-124-124
	c-8.6-8.6-8.6-22.4,0-31l15.5-15.5c8.6-8.6,22.4-8.6,31,0l124,124C513.2,467.6,513.2,481.5,504.6,490.1
	C504.6,490.1,504.6,490.1,504.6,490.1z M346.1,281.1l-21-14.8c-3.2-2.3-5.1-6-5.1-10l0.3-25.7c0.1-6.6-5.2-12.1-11.8-12.2
	c-2.6,0-5.2,0.8-7.3,2.4l-20.6,15.4c-3.2,2.4-7.3,3-11,1.8l-24.3-8.3c-6.8-2.3-14.3,1.9-15.7,9.3c-0.4,2.1-0.1,4.2,0.5,6.2l8.2,24.1
	c1.3,3.7,0.6,7.8-1.8,11l-15.4,20.6c-4.3,5.8-2.6,14.2,4,17.8c1.9,1,4,1.4,6.1,1.4l25.4-0.3c3.9-0.1,7.7,1.8,10,5.1l14.8,21
	c4.2,5.9,12.7,6.9,18.1,1.7c1.5-1.5,2.6-3.3,3.2-5.3l7.5-24.3c1.2-3.8,4.1-6.7,7.9-7.9l24.5-7.6c6.3-2,9.8-8.7,7.9-15
	C349.8,284.8,348.2,282.6,346.1,281.1z"/>
</svg>
