<?xml version="1.0" encoding="utf-8"?>
<!-- Generator: Adobe Illustrator 19.2.1, SVG Export Plug-In . SVG Version: 6.00 Build 0)  -->
<svg version="1.1" id="Layer_1" xmlns="http://www.w3.org/2000/svg" xmlns:xlink="http://www.w3.org/1999/xlink" x="0px" y="0px"
	 viewBox="0 0 512 512" enable-background="new 0 0 512 512" xml:space="preserve">
<path d="M32,0v480h448V0H32z M448,448H64V177.1V32h384V448z M131.6,224l29.9,32H128v-32H131.6z M128,288h63.4l29.9,32H128V288z
	 M251.1,352l29.9,32H128v-32H251.1z M96,92l22.6-22.6L143.5,96H384v32H173.4l29.9,32H384v32H233.1l29.9,32h121v32h-91.2l29.9,32H384
	v32h-31.4l63.4,68l-22.6,22.6L96,92z"/>
</svg>
