<?xml version="1.0" encoding="utf-8"?>
<!-- Generator: Adobe Illustrator 19.2.1, SVG Export Plug-In . SVG Version: 6.00 Build 0)  -->
<svg version="1.1" id="Layer_1" xmlns="http://www.w3.org/2000/svg" xmlns:xlink="http://www.w3.org/1999/xlink" x="0px" y="0px"
	 viewBox="0 0 512 512" enable-background="new 0 0 512 512" xml:space="preserve">
<path d="M224,192H0v128h224V192z M512,192h-64v128h64V192z M480,352v128H64V352H480z M192,448v-64H96v64H192z M320,448v-64h-96v64
	H320z M448,448v-64h-96v64H448z M480,32v128H64V32H480z M192,128V64H96v64H192z M320,128V64h-96v64H320z M448,128V64h-96v64H448z
	 M358.627,256L416,313.373L393.373,336L336,278.627L278.627,336L256,313.373L313.373,256L256,198.627L278.627,176L336,233.373
	L393.373,176L416,198.627L358.627,256z"/>
</svg>
