<?xml version="1.0" encoding="utf-8"?>
<!-- Generator: Adobe Illustrator 24.2.0, SVG Export Plug-In . SVG Version: 6.00 Build 0)  -->
<svg version="1.1" id="Layer_1" xmlns="http://www.w3.org/2000/svg" xmlns:xlink="http://www.w3.org/1999/xlink" x="0px" y="0px"
	 width="512px" height="512px" viewBox="0 0 512 512" xml:space="preserve">
<path id="Table_row_groups" d="M32,32v416h416V32H32z M288,64v96h-96V64H288z M224,192h64l96,96h-64L224,192z M256,288h-64l-96-96
	h64L256,288z M64,64h96v96H64V64z M64,224l64,64H64V224z M64,416v-96h96v96H64z M192,416v-96h96v96H192z M416,416h-96v-96h96V416z
	 M416,256l-64-64h64V256z M416,160h-96V64h96V160z"/>
</svg>
