<?xml version="1.0" encoding="utf-8"?>
<!-- Generator: Adobe Illustrator 19.2.1, SVG Export Plug-In . SVG Version: 6.00 Build 0)  -->
<svg version="1.1" id="Layer_1" xmlns="http://www.w3.org/2000/svg" xmlns:xlink="http://www.w3.org/1999/xlink" x="0px" y="0px"
	 viewBox="0 0 512 512" enable-background="new 0 0 512 512" xml:space="preserve">
<path d="M208,209.6c-10.6-7.5-25.2-11.1-44.1-11.1c-40.5,0-61.7,15-63.6,45.2h26.1c0.7-16.8,12.8-25,36-25c11,0,19.2,1.6,24.4,4.8
	c2.6,1.6,4.6,3.3,6.2,5.1c1.5,1.9,2.5,4,3.2,6.6c0.7,2.6,1.2,5.6,1.4,9.4c0.1,3.6,0.1,8.2,0.1,13.6h-12.8
	c-59.4,0-89.1,17.2-89.1,51.4c0,6.4,1.3,12,3.8,17.2c2.5,5.3,6,9.7,10.4,13.4c4.4,3.8,9.7,6.6,16,8.7c6.1,2.2,12.8,3.2,20,3.2
	c20.9,0,38.2-6.2,51.7-18.6v17.9H224v-97.8C224,231.5,218.6,216.9,208,209.6z M197.9,309.8c-2.3,3.3-5.1,6.2-8.4,9
	c-3.2,2.6-6.8,4.9-10.7,6.8c-3.9,1.9-8,3.3-12.2,4.3c-4.2,1-8.6,1.4-12.8,1.4c-9.6,0-17-2-22.5-5.9c-5.5-4-8.3-9.8-8.3-17.2
	c0-20.7,18.9-30.9,56.9-30.9h18V309.8z M368.2,219.9c-5-6.4-11.4-11.5-18.7-15c-7.5-3.4-16-5.2-25.5-5.2c-16.4,0-30.2,6.9-41.7,20.5
	V160H256v192h26.2v-14.8c10.9,9.7,24.3,14.8,40,14.8c8.8,0,17-1.9,24.5-5.4c7.6-3.7,14.1-8.9,19.7-15.5c5.5-6.7,9.8-14.9,13-24.4
	c3-9.6,4.6-20.4,4.6-32.1c0-11.5-1.3-21.8-4-31C377.2,234.3,373.3,226.5,368.2,219.9z M347.4,317.3c-6.6,9.5-15.6,14.2-26.8,14.2
	c-14.5,0-27.4-5.9-38.4-17.8v-69.1c11.9-16.6,25-24.9,39.4-24.9c11.4,0,20,4.6,26.2,13.9c6.2,9.2,9.3,22.9,9.3,41
	C357.2,293.5,353.9,307.9,347.4,317.3z M448,64v384h-32V64H448z"/>
</svg>
