<?xml version="1.0" encoding="utf-8"?>
<!-- Generator: Adobe Illustrator 19.2.1, SVG Export Plug-In . SVG Version: 6.00 Build 0)  -->
<svg version="1.1" id="Layer_1" xmlns="http://www.w3.org/2000/svg" xmlns:xlink="http://www.w3.org/1999/xlink" x="0px" y="0px"
	 viewBox="0 0 512 512" enable-background="new 0 0 512 512" xml:space="preserve">
<path fill-rule="evenodd" clip-rule="evenodd" d="M64,352h416v128H64V352z M160,384H96v64h96v-64H160z M320,384h-96v64h96V384z
	 M352,384v64h96v-64H352z M63.961,131.844l90.51,90.51l45.255-45.255l-90.51-90.51L63.961,131.844z M416,320 M160,320
	 M63.961,131.844l90.51,90.51l45.255-45.255l-90.51-90.51L63.961,131.844z M222.353,199.726l67.882-67.882l-22.627-22.627
	l-22.627,22.627l-90.51-90.51c-12.445-12.445-32.81-12.445-45.255,0l-67.882,67.882c-12.445,12.445-12.445,32.81,0,45.255
	l90.51,90.51l-22.627,22.627l22.627,22.627l67.882-67.882L297.373,320L320,297.373L222.353,199.726z M154.471,222.353l-90.51-90.51
	l45.255-45.255l90.51,90.51L154.471,222.353z M480,256h-64v64h64V256z"/>
</svg>
