<?xml version="1.0" encoding="utf-8"?>
<!-- Generator: Adobe Illustrator 19.2.1, SVG Export Plug-In . SVG Version: 6.00 Build 0)  -->
<svg version="1.1" id="Layer_1" xmlns="http://www.w3.org/2000/svg" xmlns:xlink="http://www.w3.org/1999/xlink" x="0px" y="0px"
	 viewBox="0 0 512 512" enable-background="new 0 0 512 512" xml:space="preserve">
<path d="M412.2,256l22.6-22.6c12.4-12.4,32.8-12.4,45.3,0l22.6,22.6c12.4,12.4,12.4,32.8,0,45.3L480,323.8L412.2,256z M392.5,275.6
	L250.9,417.2L224,445.3V512h66.7l28.1-26.9l141.6-141.6L392.5,275.6z M279.3,479.3L268,468l-11.3-11.3l135.8-135.8l22.6,22.6
	L279.3,479.3z M288,160H160v32h128V160z M352,224H160v32h192V224z M288,288H160v32h128V288z M224,352h-64v32h64V352z M412.2,256
	l22.6-22.6c12.4-12.4,32.8-12.4,45.3,0l22.6,22.6c12.4,12.4,12.4,32.8,0,45.3L480,323.8L412.2,256z M392.5,275.6L250.9,417.2
	L224,445.3V512h66.7l28.1-26.9l141.6-141.6L392.5,275.6z M279.3,479.3L268,468l-11.3-11.3l135.8-135.8l22.6,22.6L279.3,479.3z
	 M96,416V64h224v96h96v32h32v-64l-96-96H96c-17.7,0-32,14.3-32,32v352c0,17.7,14.3,32,32,32h96v-32H96z M0,512h192v-32H0V512z"/>
</svg>
