<?xml version="1.0" encoding="utf-8"?>
<!-- Generator: Adobe Illustrator 19.2.1, SVG Export Plug-In . SVG Version: 6.00 Build 0)  -->
<svg version="1.1" id="Layer_1" xmlns="http://www.w3.org/2000/svg" xmlns:xlink="http://www.w3.org/1999/xlink" x="0px" y="0px"
	 width="512px" height="512px" viewBox="0 0 512 512" xml:space="preserve">
<path d="M128,128H96V64c0-17.7,14.3-32,32-32h224l64,64h-96V64H128V128z M250.9,321.2L224,349.3V416h66.7l28.1-26.9l141.6-141.6
	l-67.9-67.9L250.9,321.2z M279.3,383.3L268,372l-11.3-11.3l135.8-135.8l22.6,22.6L279.3,383.3z M416,337.155l32-32V448
	c0,17.7-14.3,32-32,32H128c-17.7,0-32-14.3-32-32v-96h32v96h288V337.155z M502.7,205.3L480,227.8L412.2,160l22.6-22.6
	c12.4-12.4,32.8-12.4,45.3,0l22.6,22.6C515.1,172.4,515.1,192.8,502.7,205.3z M288,144L112,320L0,208l45-45l67,67L243,99L288,144z
	 M192,416h-32v-32h32V416z"/>
</svg>
