<?xml version="1.0" encoding="utf-8"?>
<!-- Generator: Adobe Illustrator 23.0.6, SVG Export Plug-In . SVG Version: 6.00 Build 0)  -->
<svg version="1.1" id="Layer_1" xmlns="http://www.w3.org/2000/svg" xmlns:xlink="http://www.w3.org/1999/xlink" x="0px" y="0px"
	 viewBox="0 0 24 24" style="enable-background:new 0 0 24 24;" xml:space="preserve">
<style type="text/css">
	.st0{fill:#808080;}
</style>
<g>
	<g>
		<path class="st0" d="M7.5,12l-1.3,5h2.1l1.3-5l0,0h2.3l0,0l1,1.5L10,17h2.6l1.5-1.8l1.3,1.8h2.4l-2.4-3.4l2.9-3.6l-2.6,0l-1.6,1.9
			L13,10l0,0v0h-2.9l0.5-2l0,0H13l2-2H9l0,0l-1,4H6v2L7.5,12L7.5,12z M2,0v24h16v0l4-4h0V0H2z M20,19.2L17.2,22H4V2h16V19.2z"/>
	</g>
</g>
</svg>
