<svg id="Layer_1" data-name="Layer 1" xmlns="http://www.w3.org/2000/svg" viewBox="0 0 24 24">
  <defs>
    <style>
      .cls-1 {
        fill: gray;
      }
    </style>
  </defs>
  <title>arcgauge</title>
  <path class="cls-1" d="M6,13h2.8L7,19H9l2-6V11H6Zm8-2-2,2v4l2,2h2l2-2V13l-2-2Zm2,6H14V13h2ZM12,5A12,12,0,0,0,0,17a13.28,13.28,0,0,0,.18,2l1.94-.55A9.89,9.89,0,0,1,2,17a10,10,0,0,1,18-6l1.43-1.43A12,12,0,0,0,12,5Zm10.55,6.28-1.5,1.49a9.64,9.64,0,0,1,.83,5.69l1.94.54A13.16,13.16,0,0,0,24,17,12,12,0,0,0,22.55,11.28Z"/>
</svg>
