<svg id="Layer_1" data-name="Layer 1" xmlns="http://www.w3.org/2000/svg" viewBox="0 0 24 24">
  <defs>
    <style>
      .cls-1 {
        fill: gray;
      }
    </style>
  </defs>
  <title>avatar</title>
  <path class="cls-1" d="M12,7a3,3,0,1,0,3,3A3,3,0,0,0,12,7Zm0-5A10,10,0,0,0,5.05,19.19a1.07,1.07,0,0,0,.16.14,1.64,1.64,0,0,0,.25.21,9.92,9.92,0,0,0,13.08,0,1.64,1.64,0,0,0,.25-.21,1.07,1.07,0,0,0,.16-.14A10,10,0,0,0,12,2Zm5.58,15.73,0,0a7,7,0,0,0-11.1,0l0,0A8,8,0,1,1,20,12,7.93,7.93,0,0,1,17.58,17.73Z"/>
</svg>
