<?xml version="1.0" encoding="utf-8"?>
<!-- Generator: Adobe Illustrator 25.0.1, SVG Export Plug-In . SVG Version: 6.00 Build 0)  -->
<svg version="1.1" id="Layer_1" xmlns="http://www.w3.org/2000/svg" xmlns:xlink="http://www.w3.org/1999/xlink" x="0px" y="0px"
	 width="24px" height="24px" viewBox="0 0 24 24" enable-background="new 0 0 24 24" xml:space="preserve">
<path d="M11.6,8.6c-1.1,0-2,0.9-2,2s0.9,2,2,2s2-0.9,2-2l0,0C13.6,9.5,12.7,8.6,11.6,8.6L11.6,8.6z M19.6,8.6c-1.1,0-2,0.9-2,2
	s0.9,2,2,2s2-0.9,2-2l0,0C21.6,9.5,20.7,8.6,19.6,8.6L19.6,8.6z M11.6,11.6c-0.6,0-1-0.4-1-1s0.4-1,1-1s1,0.4,1,1l0,0
	C12.6,11.2,12.1,11.6,11.6,11.6L11.6,11.6z M3.6,8.6c-1.1,0-2,0.9-2,2s0.9,2,2,2s2-0.9,2-2l0,0C5.6,9.5,4.7,8.6,3.6,8.6L3.6,8.6z
	 M6.6,13.6h-6v2h4L6.6,13.6z M14.6,13.6h-6v2h4L14.6,13.6z M22.6,13.6h-6v2h4L22.6,13.6z"/>
<g>
</g>
<g>
</g>
<g>
</g>
<g>
</g>
<g>
</g>
<g>
</g>
<g>
</g>
<g>
</g>
<g>
</g>
<g>
</g>
<g>
</g>
<g>
</g>
<g>
</g>
<g>
</g>
<g>
</g>
</svg>
