<?xml version="1.0" encoding="utf-8"?>
<!-- Generator: Adobe Illustrator 24.2.3, SVG Export Plug-In . SVG Version: 6.00 Build 0)  -->
<svg version="1.1" id="Layer_1" xmlns="http://www.w3.org/2000/svg" xmlns:xlink="http://www.w3.org/1999/xlink" x="0px" y="0px"
	 width="24px" height="24px" viewBox="0 0 24 24" enable-background="new 0 0 24 24" xml:space="preserve">
<path d="M21,16v-2h-2v2H21z M15,4l-2,2v2h2V4z M16,9h-4v3h4V9z M22,11h-4v2h4V11z M15,17v-4h-2v4H15z M21,5l-2,2v3h2V5z M0,20v2h22
	l2-2H0z M3,2L1,4v4h2V2z M4,9H0v5h4V9z M3,18v-3H1v3H3z M10,8H6v2h4V8z M9,3L7,5v2h2V3z M9,15v-4H7v4H9z"/>
</svg>
