<?xml version="1.0" encoding="utf-8"?>
<!-- Generator: Adobe Illustrator 23.1.1, SVG Export Plug-In . SVG Version: 6.00 Build 0)  -->
<svg version="1.1" id="Layer_1" xmlns="http://www.w3.org/2000/svg" xmlns:xlink="http://www.w3.org/1999/xlink" x="0px" y="0px"
	 viewBox="0 0 24 24" style="enable-background:new 0 0 24 24;" xml:space="preserve">
<style type="text/css">
	.st0{fill:#808080;}
</style>
<path class="st0" d="M15,11v2h3l2-2H15z M4,11v2h3l2-2H4z M13.8,12l-1-1l-2.7-2.7V10l1,1l0.9,0.9l0.1,0.1l-2,2v1.7l1.8-1.9l0.9-0.9
	L13.8,12L13.8,12L13.8,12z M15,11v2h3l2-2H15z M12.9,11l-2.7-2.7V10l1,1l0.9,0.9l0.1,0.1l-2,2v1.7l1.8-1.9l0.9-0.9l1-1l0,0l0,0
	L12.9,11z M4,13h3l2-2H4V13z M0,5v14h24V5H0z M22,17H2V7h20V17z M20,11h-5v2h3L20,11z M12.9,13l1-1l0,0l0,0l-1-1l-2.7-2.7V10l1,1
	l0.9,0.9l0.1,0.1l-2,2v1.7l1.8-1.9L12.9,13z M9,11H4v2h3L9,11z M4,11v2h3l2-2H4z M13.8,12l-1-1l-2.7-2.7V10l1,1l0.9,0.9l0.1,0.1
	l-2,2v1.7l1.8-1.9l0.9-0.9L13.8,12L13.8,12L13.8,12z M15,11v2h3l2-2H15z M15,11v2h3l2-2H15z M12.9,11l-2.7-2.7V10l1,1l0.9,0.9
	l0.1,0.1l-2,2v1.7l1.8-1.9l0.9-0.9l1-1l0,0l0,0L12.9,11z M4,13h3l2-2H4V13z"/>
</svg>
