<svg id="Layer_1" data-name="Layer 1" xmlns="http://www.w3.org/2000/svg" viewBox="0 0 24 24">
  <defs>
    <style>
      .cls-1 {
        fill: gray;
      }
    </style>
  </defs>
  <title>bubblecharts</title>
  <path class="cls-1" d="M20,8a2,2,0,1,0-2-2A2,2,0,0,0,20,8Zm-5,9a4,4,0,1,0-4-4A4,4,0,0,0,15,17Zm0-6.33A2.33,2.33,0,1,1,12.67,13,2.33,2.33,0,0,1,15,10.67ZM8,11A3,3,0,1,0,5,8,3,3,0,0,0,8,11ZM8,7A1,1,0,1,1,7,8,1,1,0,0,1,8,7ZM4.5,15A1.5,1.5,0,1,0,3,13.5,1.5,1.5,0,0,0,4.5,15ZM0,19v2H22l2-2Z"/>
</svg>
