<?xml version="1.0" encoding="utf-8"?>
<!-- Generator: Adobe Illustrator 24.2.3, SVG Export Plug-In . SVG Version: 6.00 Build 0)  -->
<svg version="1.1" id="Layer_1" xmlns="http://www.w3.org/2000/svg" xmlns:xlink="http://www.w3.org/1999/xlink" x="0px" y="0px"
	 width="24px" height="24px" viewBox="0 0 24 24" enable-background="new 0 0 24 24" xml:space="preserve">
<path d="M6,9v10h4V9H6z M4,14H0v5h4V14z M0,23h22l2-2H0V23z M21,2.1L21,2.1C21,1.4,20.6,1,20,1s-1,0.4-1,1c0,0.1,0,0.1,0,0.2
	l-4.7,3.9C14.2,6,14.1,6,14,6c-0.2,0-0.4,0.1-0.5,0.2L9,3.9c0-0.6-0.5-1-1-1C7.4,3,7,3.4,7,4c0,0.1,0,0.2,0,0.2L2.2,9.1
	C2.2,9,2.1,9,2,9C1.9,9,1.7,9,1.6,9.1L0,7.8v1.3l1,0.8V10c0,0.6,0.4,1,1,1s1-0.4,1-1c0-0.1,0-0.2,0-0.2L7.8,5C7.8,5,7.9,5,8,5
	c0.2,0,0.4-0.1,0.5-0.2L13,7.1c0,0.6,0.5,1,1,1c0.6,0,1-0.5,1-1l0,0c0-0.1,0-0.1,0-0.2l4.7-3.9C19.8,3,19.9,3,20,3
	c0.1,0,0.3,0,0.4-0.1L24,5.6V4.3L21,2.1z M18,7v12h4V7H18z M12,12v7h4v-7H12z"/>
</svg>
