<svg id="Layer_1" data-name="Layer 1" xmlns="http://www.w3.org/2000/svg" viewBox="0 0 24 24">
  <defs>
    <style>
      .cls-1 {
        fill: gray;
      }
    </style>
  </defs>
  <path class="cls-1" d="M6,9V19h4V9ZM4,14H0v5H4ZM0,23H22l2-2H0ZM21,2.1S21,2,21,2a1,1,0,0,0-2,0,.76.76,0,0,0,0,.16L14.34,6.07A1,1,0,0,0,14,6a.94.94,0,0,0-.54.18L9,3.93A1,1,0,0,0,7,4a.93.93,0,0,0,0,.24L2.24,9.05A.93.93,0,0,0,2,9a1.16,1.16,0,0,0-.37.07L0,7.81V9.08l1,.8S1,10,1,10a1,1,0,0,0,2,0,.93.93,0,0,0,0-.24L7.76,5A.93.93,0,0,0,8,5a1,1,0,0,0,.53-.17L13,7.06A1,1,0,0,0,15,7a.9.9,0,0,0,0-.16l4.69-3.91A1,1,0,0,0,20,3a.9.9,0,0,0,.4-.09L24,5.55V4.32ZM18,7V19h4V7Zm-6,5v7h4V12Z"/>
</svg>
