<?xml version="1.0" encoding="UTF-8"?>
<svg id="widgets" xmlns="http://www.w3.org/2000/svg" width="24" height="24" viewBox="0 0 24 24">
  <path id="colorpalette" d="M12,22c-.8,0-1.5,0-2.3-.3,.3-1,.3-2,.1-3-.5-2.3-2.3-4.1-4.6-4.6s-2.1-.2-3,.1c-.2-1-.3-2.1-.2-3.1C2.4,6.5,6.1,2.6,10.7,2.1c6.1-.7,11.3,4,11.3,9.9s-4.5,10-10,10m0,2c6.8,0,12.3-5.6,12-12.4S18.7,.3,12.5,0,0,5.2,0,12s.4,3.6,1.2,5.2c.9-.9,2.1-1.3,3.5-1.1s3.1,1.6,3.3,3.3-.3,2.6-1.1,3.5c1.6,.8,3.3,1.2,5.2,1.2h0Zm1.9-4.2c1.1,0,2-.9,2-2s-.9-2-2-2-2,.9-2,2,.9,2,2,2Zm4-4.5c1.1,0,2-.9,2-2s-.9-2-2-2-2,.9-2,2,.9,2,2,2Zm-1.8-5.7c1.1,0,2-.9,2-2s-.9-2-2-2-2,.9-2,2,.9,2,2,2Zm-5.9-1.5c1.1,0,2-.9,2-2s-.9-2-2-2-2,.9-2,2,.9,2,2,2Zm-4.2,4.2c1.1,0,2-.9,2-2s-.9-2-2-2-2,.9-2,2,.9,2,2,2Z"/>
</svg>