<?xml version="1.0" encoding="utf-8"?>
<!-- Generator: Adobe Illustrator 24.2.3, SVG Export Plug-In . SVG Version: 6.00 Build 0)  -->
<svg version="1.1" id="Layer_1" xmlns="http://www.w3.org/2000/svg" xmlns:xlink="http://www.w3.org/1999/xlink" x="0px" y="0px"
	 width="24px" height="24px" viewBox="0 0 24 24" enable-background="new 0 0 24 24" xml:space="preserve">
<path d="M11,17v2c2.8,0,5-2.2,5-5h-2C14,15.7,12.7,17,11,17z M12,0c0,0-9,8-9,15c0,5,4,9,9,9s9-4,9-9C21,8,12,0,12,0z M12,22
	c-3.9,0-7-3.1-7-7c0-6,7-12.3,7-12.3S19,9,19,15C19,18.9,15.9,22,12,22z"/>
</svg>
