<?xml version="1.0" encoding="utf-8"?>
<!-- Generator: Adobe Illustrator 24.3.0, SVG Export Plug-In . SVG Version: 6.00 Build 0)  -->
<svg version="1.1" id="Layer_1" xmlns="http://www.w3.org/2000/svg" xmlns:xlink="http://www.w3.org/1999/xlink" x="0px" y="0px"
	 width="24px" height="24px" viewBox="0 0 24 24" enable-background="new 0 0 24 24" xml:space="preserve">
<path d="M12,2c0.8,0,1.5,0.1,2.3,0.3C14.1,2.8,14,3.4,14,4c0,3.3,2.7,6,6,6c0.6,0,1.2-0.1,1.7-0.3c0.2,0.7,0.3,1.5,0.3,2.3
	c0,5.5-4.5,10-10,10S2,17.5,2,12S6.5,2,12,2 M12,0C5.4,0,0,5.4,0,12c0,6.6,5.4,12,12,12s12-5.4,12-12c0-1.9-0.4-3.6-1.2-5.2
	C22.1,7.6,21.1,8,20,8c-2.2,0-4-1.8-4-4c0-1.1,0.4-2.1,1.2-2.8C15.6,0.4,13.9,0,12,0L12,0z M10.1,4.2c-1.1,0-2,0.9-2,2s0.9,2,2,2
	s2-0.9,2-2S11.2,4.2,10.1,4.2z M6.1,8.7c-1.1,0-2,0.9-2,2s0.9,2,2,2s2-0.9,2-2S7.2,8.7,6.1,8.7z M7.9,14.3c-1.1,0-2,0.9-2,2
	c0,1.1,0.9,2,2,2s2-0.9,2-2C9.9,15.2,9,14.3,7.9,14.3z M13.8,15.8c-1.1,0-2,0.9-2,2c0,1.1,0.9,2,2,2s2-0.9,2-2
	C15.8,16.7,14.9,15.8,13.8,15.8z M17.9,11.6c-1.1,0-2,0.9-2,2s0.9,2,2,2c1.1,0,2-0.9,2-2S19.1,11.6,17.9,11.6z M12,11
	c0.6,0,1,0.4,1,1s-0.4,1-1,1s-1-0.4-1-1S11.4,11,12,11 M12,10c-1.1,0-2,0.9-2,2s0.9,2,2,2s2-0.9,2-2S13.1,10,12,10L12,10z"/>
</svg>
