<svg id="Layer_1" data-name="Layer 1" xmlns="http://www.w3.org/2000/svg" viewBox="0 0 24 24">
  <defs>
    <style>
      .cls-1 {
        fill: gray;
      }
    </style>
  </defs>
  <title>component</title>
  <path class="cls-1" d="M12.15,17.12A4,4,0,0,0,15,16.2a3.75,3.75,0,0,0,1-2.68v0H13.73a2.45,2.45,0,0,1-.4,1.42,1.42,1.42,0,0,1-1.18.44,1.61,1.61,0,0,1-1.35-.63A2.66,2.66,0,0,1,10.3,13V11a2.79,2.79,0,0,1,.46-1.66A1.43,1.43,0,0,1,12,8.66a1.61,1.61,0,0,1,1.32.47,2.39,2.39,0,0,1,.43,1.44H16l0,0a4,4,0,0,0-1.13-2.7,4.06,4.06,0,0,0-2.89-1A3.88,3.88,0,0,0,9.1,8,4,4,0,0,0,8,11V13a4,4,0,0,0,1.16,3A4.12,4.12,0,0,0,12.15,17.12ZM0,0V24H20l4-4V0ZM22,19.17,19.17,22H2V2H22Z"/>
</svg>
