<svg id="Layer_1" data-name="Layer 1" xmlns="http://www.w3.org/2000/svg" viewBox="0 0 24 24">
  <defs>
    <style>
      .cls-1 {
        fill: gray;
      }
    </style>
  </defs>
  <title>datasource</title>
  <path class="cls-1" d="M16,5,14.59,3.59,13,5.17V0L11,2V5.17L9.41,3.59,8,5l4,4Zm8,8-2-2H18.83l1.58-1.59L19,8l-4,4,4,4,1.41-1.41L18.83,13ZM10,12a2,2,0,1,0,2-2A2,2,0,0,0,10,12ZM8,19l1.41,1.42L11,18.83V24l2-2V18.83l1.59,1.59L16,19l-4-4ZM5,8,3.59,9.41,5.17,11H0l2,2H5.17L3.59,14.59,5,16l4-4Z"/>
</svg>
