<svg id="Layer_1" data-name="Layer 1" xmlns="http://www.w3.org/2000/svg" viewBox="0 0 24 24">
  <defs>
    <style>
      .cls-1 {
        fill: gray;
      }
    </style>
  </defs>
  <title>datetimepicker</title>
  <path class="cls-1" d="M6,20H9V17H6ZM9,9H6v3H9Zm7,8H15v2h2V18H16ZM6,16H9V13H6ZM4,24H9V22H4ZM2,24H4V4H2ZM17,5H14V8h3Zm4-1H19v8h2ZM0,0V2H22l2-2ZM14,12h3V9H14Zm-4,0h3V9H10Zm3-7H10V8h3Zm2.5,8A5.5,5.5,0,1,0,21,18.5,5.5,5.5,0,0,0,15.5,13Zm0,9A3.5,3.5,0,1,1,19,18.5,3.5,3.5,0,0,1,15.5,22Z"/>
</svg>
