<?xml version="1.0" encoding="utf-8"?>
<!-- Generator: Adobe Illustrator 24.2.3, SVG Export Plug-In . SVG Version: 6.00 Build 0)  -->
<svg version="1.1" id="Layer_1" xmlns="http://www.w3.org/2000/svg" xmlns:xlink="http://www.w3.org/1999/xlink" x="0px" y="0px"
	 width="24px" height="24px" viewBox="0 0 24 24" enable-background="new 0 0 24 24" xml:space="preserve">
<path d="M3.9,7.7l1.4,1.4l3.9-3.9L7.7,3.9L3.9,7.7z M13,6h-2v12h2V6z M2,9c-1.1,0-2,0.9-2,2s0.9,2,2,2s2-0.9,2-2S3.1,9,2,9z M12,20
	c-1.1,0-2,0.9-2,2s0.9,2,2,2s2-0.9,2-2S13.1,20,12,20z M12,0c-1.1,0-2,0.9-2,2s0.9,2,2,2s2-0.9,2-2S13.1,0,12,0z M22,9
	c-1.1,0-2,0.9-2,2s0.9,2,2,2s2-0.9,2-2S23.1,9,22,9z M16.1,4l-1.4,1.4l3.9,3.9L20,7.9L16.1,4z"/>
</svg>
