<svg id="Layer_1" data-name="Layer 1" xmlns="http://www.w3.org/2000/svg" viewBox="0 0 24 24">
  <defs>
    <style>
      .cls-1 {
        fill: gray;
      }
    </style>
  </defs>
  <title>directive</title>
  <path class="cls-1" d="M14.68,15.83a3.93,3.93,0,0,0,1.18-2.93V11.1a3.93,3.93,0,0,0-1.18-2.93A4.08,4.08,0,0,0,11.74,7H8.14V17h3.6A4,4,0,0,0,14.68,15.83Zm-4.22-.63V8.8h1.12A1.76,1.76,0,0,1,13,9.43a2.5,2.5,0,0,1,.52,1.66V12.9A2.53,2.53,0,0,1,13,14.57a1.76,1.76,0,0,1-1.44.63ZM0,0V24H20l4-4V0ZM22,19.17,19.17,22H2V2H22Z"/>
</svg>
