<?xml version="1.0" encoding="utf-8"?>
<!-- Generator: Adobe Illustrator 24.2.3, SVG Export Plug-In . SVG Version: 6.00 Build 0)  -->
<svg version="1.1" id="Layer_1" xmlns="http://www.w3.org/2000/svg" xmlns:xlink="http://www.w3.org/1999/xlink" x="0px" y="0px"
	 width="24px" height="24px" viewBox="0 0 24 24" enable-background="new 0 0 24 24" xml:space="preserve">
<path d="M11,6.1V4c-3.6,0.5-6.5,3.4-6.9,7h2C6.5,8.5,8.5,6.5,11,6.1z M22,11h2C23.5,5.1,18.9,0.5,13,0v2C17.8,2.5,21.5,6.2,22,11z
	 M12,18c-2.9,0-5.4-2.1-5.9-5h-2c0.6,4.4,4.6,7.5,9,6.9c4.4-0.6,7.5-4.6,6.9-9c-0.5-3.6-3.3-6.4-7-6.9v2c3.3,0.3,5.8,3.2,5.5,6.5
	S15.3,18.3,12,18z M12,22c-2.6,0-5-1-6.9-2.7l-1.4,1.4c4.8,4.6,12.4,4.4,17-0.4c1.9-2,3.1-4.6,3.3-7.3h-2C21.5,18.1,17.2,22,12,22z
	 M2,12c0-5.2,3.9-9.5,9-10V0C4.4,0.6-0.5,6.4,0,13c0.2,2.3,1,4.4,2.4,6.2l1.4-1.4C2.7,16.1,2,14.1,2,12z"/>
</svg>
