<?xml version="1.0" encoding="utf-8"?>
<!-- Generator: Adobe Illustrator 24.2.3, SVG Export Plug-In . SVG Version: 6.00 Build 0)  -->
<svg version="1.1" id="Layer_1" xmlns="http://www.w3.org/2000/svg" xmlns:xlink="http://www.w3.org/1999/xlink" x="0px" y="0px"
	 width="24px" height="24px" viewBox="0 0 24 24" enable-background="new 0 0 24 24" xml:space="preserve">
<path d="M11.4,9.4l4-4L14,4l-2.6,2.6L8.8,4L7.4,5.4L10,8L11.4,9.4z M9.4,11.4L8,10L5.4,7.4L4,8.8l2.6,2.6L4,14l1.4,1.4L8,12.8
	L9.4,11.4z M18.8,8.8l-1.4-1.4l-4,4l4,4l1.4-1.4l-2.6-2.6L18.8,8.8z M10,14.8l-2.6,2.6l1.4,1.4l2.6-2.6l2.6,2.6l1.4-1.4l-4-4
	L10,14.8z"/>
</svg>
