<?xml version="1.0" encoding="utf-8"?>
<!-- Generator: Adobe Illustrator 24.3.0, SVG Export Plug-In . SVG Version: 6.00 Build 0)  -->
<svg version="1.1" id="Layer_1" xmlns="http://www.w3.org/2000/svg" xmlns:xlink="http://www.w3.org/1999/xlink" x="0px" y="0px"
	 width="24px" height="24px" viewBox="0 0 24 24" enable-background="new 0 0 24 24" xml:space="preserve">
<path d="M17,15H0l2-2h15V15z M17,7H2L0,9h17V7z M17,1H2L0,3h17V1z M21,18c-1.7,0-3,1.3-3,3s1.3,3,3,3s3-1.3,3-3S22.7,18,21,18z
	 M21,12c-1.1,0-2,0.9-2,2s0.9,2,2,2s2-0.9,2-2S22.1,12,21,12z M21,6c-1.1,0-2,0.9-2,2s0.9,2,2,2s2-0.9,2-2S22.1,6,21,6z M21,0
	c-1.1,0-2,0.9-2,2s0.9,2,2,2s2-0.9,2-2S22.1,0,21,0z"/>
<g>
</g>
<g>
</g>
<g>
</g>
<g>
</g>
<g>
</g>
<g>
</g>
<g>
</g>
<g>
</g>
<g>
</g>
<g>
</g>
<g>
</g>
<g>
</g>
<g>
</g>
<g>
</g>
<g>
</g>
</svg>
