<svg id="Layer_1" data-name="Layer 1" xmlns="http://www.w3.org/2000/svg" viewBox="0 0 24 24">
  <defs>
    <style>
      .cls-1 {
        fill: gray;
      }
    </style>
  </defs>
  <title>globalization</title>
  <path class="cls-1" d="M12,0A12,12,0,1,0,24,12,12,12,0,0,0,12,0ZM7.25,3.2A13.16,13.16,0,0,0,6,5.92,10.28,10.28,0,0,1,4.59,5.3,10,10,0,0,1,7.25,3.2ZM3.44,6.84a12.46,12.46,0,0,0,2,1A19,19,0,0,0,5,11h-3A10.06,10.06,0,0,1,3.44,6.84Zm0,10.32A10.06,10.06,0,0,1,2.05,13H5a19,19,0,0,0,.42,3.2A12.46,12.46,0,0,0,3.44,17.16ZM4.59,18.7A11.72,11.72,0,0,1,6,18.07,13,13,0,0,0,7.25,20.8,10,10,0,0,1,4.59,18.7ZM11,21.8c-1.32-.54-2.45-2.12-3.17-4.29A19.25,19.25,0,0,1,11,17.08Zm0-6.72a19.09,19.09,0,0,0-3.66.53A17.92,17.92,0,0,1,7,13h4ZM11,11H7a17.92,17.92,0,0,1,.31-2.61A19.09,19.09,0,0,0,11,8.92Zm0-4.08a19.25,19.25,0,0,1-3.17-.43C8.55,4.32,9.68,2.74,11,2.2Zm9.55-.08A9.93,9.93,0,0,1,22,11H19a19,19,0,0,0-.42-3.2A12.79,12.79,0,0,0,20.55,6.84ZM19.41,5.3A11.72,11.72,0,0,1,18,5.93,13,13,0,0,0,16.75,3.2,10,10,0,0,1,19.41,5.3ZM13,2.2c1.32.54,2.45,2.12,3.17,4.29A19.25,19.25,0,0,1,13,6.92Zm0,6.72a19.09,19.09,0,0,0,3.66-.53A17.92,17.92,0,0,1,17,11H13ZM13,21.8V17.08a19.25,19.25,0,0,1,3.17.43C15.45,19.68,14.32,21.26,13,21.8Zm0-6.72V13h4a17.92,17.92,0,0,1-.31,2.61A19.09,19.09,0,0,0,13,15.08Zm3.75,5.72A13,13,0,0,0,18,18.07a11.72,11.72,0,0,1,1.38.63A10,10,0,0,1,16.75,20.8Zm3.8-3.64a12,12,0,0,0-2-1A19,19,0,0,0,19,13h3A9.93,9.93,0,0,1,20.55,17.16Z"/>
</svg>
