<?xml version="1.0" encoding="utf-8"?>
<!-- Generator: Adobe Illustrator 24.2.3, SVG Export Plug-In . SVG Version: 6.00 Build 0)  -->
<svg version="1.1" id="Layer_1" xmlns="http://www.w3.org/2000/svg" xmlns:xlink="http://www.w3.org/1999/xlink" x="0px" y="0px"
	 width="24px" height="24px" viewBox="0 0 24 24" enable-background="new 0 0 24 24" xml:space="preserve">
<path fill="#808080" d="M11,16h2V9h-2V16z M12,0C5.9,0,1,4.9,1,11c0,5.3,3.8,9.7,8.8,10.8L12,24l2.2-2.2c5-1,8.8-5.5,8.8-10.8
	C23,4.9,18.1,0,12,0z M13.8,19.8l-0.6,0.1l-0.4,0.4L12,21.2l-0.8-0.8l-0.4-0.4l-0.6-0.1C6,19,3,15.3,3,11c0-5,4-9,9-9c5,0,9,4,9,9
	C21,15.3,18,19,13.8,19.8z M12,5c-0.6,0-1,0.4-1,1s0.4,1,1,1s1-0.4,1-1S12.6,5,12,5z"/>
</svg>
