<?xml version="1.0" encoding="utf-8"?>
<!-- Generator: Adobe Illustrator 24.3.0, SVG Export Plug-In . SVG Version: 6.00 Build 0)  -->
<svg version="1.1" id="Layer_1" xmlns="http://www.w3.org/2000/svg" xmlns:xlink="http://www.w3.org/1999/xlink" x="0px" y="0px"
	 width="24px" height="24px" viewBox="0 0 24 24" enable-background="new 0 0 24 24" xml:space="preserve">
<g>
	<g>
		<path d="M11,15h2V9h-2V15z M12,6c-0.6,0-1,0.4-1,1s0.4,1,1,1s1-0.4,1-1S12.6,6,12,6z M12,0C5.9,0,1,4.9,1,11
			c0,5.3,3.8,9.7,8.8,10.8L12,24l2.2-2.2c5-1,8.8-5.5,8.8-10.8C23,4.9,18.1,0,12,0z M13.8,19.8l-0.6,0.1L12,21.2l-1.2-1.2l-0.6-0.1
			C6,19,3,15.3,3,11c0-5,4-9,9-9s9,4,9,9C21,15.3,18,19,13.8,19.8z"/>
	</g>
</g>
</svg>
