<?xml version="1.0" encoding="utf-8"?>
<!-- Generator: Adobe Illustrator 24.1.0, SVG Export Plug-In . SVG Version: 6.00 Build 0)  -->
<svg version="1.1" id="Layer_1" xmlns="http://www.w3.org/2000/svg" xmlns:xlink="http://www.w3.org/1999/xlink" x="0px" y="0px"
	 viewBox="0 0 24 24" style="enable-background:new 0 0 24 24;" xml:space="preserve">
<style type="text/css">
	.st0{fill:#808080;}
</style>
<path class="st0" d="M18,12.5C18,8.91,15.09,6,11.5,6C7.91,6,5,8.91,5,12.5S7.91,19,11.5,19C15.09,19,18,16.09,18,12.5z M12,17.81
	v-2.56c0.56,0.03,1.1,0.09,1.6,0.2C13.24,16.64,12.67,17.51,12,17.81z M12,14.18V13h1.99c-0.02,0.5-0.07,0.98-0.15,1.43
	C13.26,14.29,12.64,14.21,12,14.18z M14.99,13h1.99c-0.08,0.86-0.35,1.65-0.78,2.35c-0.41-0.25-0.89-0.47-1.41-0.65
	C14.89,14.16,14.96,13.59,14.99,13z M14.99,12c-0.02-0.59-0.09-1.16-0.2-1.7c0.52-0.18,0.99-0.4,1.41-0.65
	c0.42,0.7,0.7,1.49,0.78,2.35H14.99z M13.99,12H12v-1.18c0.64-0.03,1.26-0.11,1.83-0.24C13.91,11.02,13.97,11.5,13.99,12z M12,9.75
	V7.19c0.67,0.29,1.24,1.16,1.6,2.36C13.1,9.66,12.56,9.72,12,9.75z M11,7.19v2.54c-0.56-0.03-1.09-0.09-1.59-0.2
	C9.77,8.35,10.34,7.48,11,7.19z M11,10.82V12H9.01c0.02-0.5,0.07-0.98,0.15-1.43C9.74,10.71,10.36,10.79,11,10.82z M8.01,12H6.03
	c0.08-0.86,0.35-1.65,0.78-2.35c0.41,0.26,0.89,0.47,1.41,0.65C8.11,10.84,8.04,11.41,8.01,12z M8.01,13
	c0.02,0.59,0.09,1.16,0.2,1.7c-0.52,0.18-0.99,0.4-1.41,0.65c-0.42-0.7-0.7-1.49-0.78-2.35H8.01z M9.01,13H11v1.18
	c-0.64,0.03-1.26,0.11-1.83,0.24C9.09,13.98,9.03,13.5,9.01,13z M11,15.27v2.54c-0.66-0.29-1.23-1.16-1.59-2.34
	C9.91,15.36,10.44,15.29,11,15.27z M13.71,17.53c0.33-0.51,0.61-1.13,0.83-1.83c0.39,0.13,0.74,0.29,1.04,0.47
	C15.07,16.75,14.43,17.22,13.71,17.53z M15.59,8.83C15.28,9,14.93,9.16,14.54,9.3c-0.21-0.7-0.49-1.32-0.83-1.83
	C14.43,7.78,15.07,8.25,15.59,8.83z M9.29,7.47c-0.33,0.5-0.61,1.12-0.82,1.81C8.08,9.14,7.73,8.99,7.43,8.81
	C7.94,8.24,8.57,7.78,9.29,7.47z M7.43,16.19c0.3-0.18,0.65-0.33,1.04-0.46c0.21,0.69,0.49,1.31,0.82,1.81
	C8.57,17.22,7.94,16.76,7.43,16.19z M19,4h2v16h0l-4,4H4H2v-2V4h2v18h12.17L19,19.17V4z M24,0l-2,2H0V0H24z"/>
</svg>
