<?xml version="1.0" encoding="utf-8"?>
<!-- Generator: Adobe Illustrator 24.3.0, SVG Export Plug-In . SVG Version: 6.00 Build 0)  -->
<svg version="1.1" id="Layer_1" xmlns="http://www.w3.org/2000/svg" xmlns:xlink="http://www.w3.org/1999/xlink" x="0px" y="0px"
	 width="24px" height="24px" viewBox="0 0 24 24" enable-background="new 0 0 24 24" xml:space="preserve">
<g>
	<g>
		<path d="M13,15h2.8L13,12.2V10l-2-2v5h0L13,15z M12,20c4.4,0,8-3.6,8-8s-3.6-8-8-8s-8,3.6-8,8S7.6,20,12,20z M12,6
			c3.3,0,6,2.7,6,6s-2.7,6-6,6s-6-2.7-6-6S8.7,6,12,6z M0,0v24h20l4-4V0H0z M22,19.2L19.2,22H2V2h20V19.2z"/>
	</g>
</g>
<g>
</g>
<g>
</g>
<g>
</g>
<g>
</g>
<g>
</g>
<g>
</g>
<g>
</g>
<g>
</g>
<g>
</g>
<g>
</g>
<g>
</g>
<g>
</g>
<g>
</g>
<g>
</g>
<g>
</g>
</svg>
