<?xml version="1.0" encoding="utf-8"?>
<!-- Generator: Adobe Illustrator 24.2.3, SVG Export Plug-In . SVG Version: 6.00 Build 0)  -->
<svg version="1.1" id="Layer_1" xmlns="http://www.w3.org/2000/svg" xmlns:xlink="http://www.w3.org/1999/xlink" x="0px" y="0px"
	 width="24px" height="24px" viewBox="0 0 24 24" enable-background="new 0 0 24 24" xml:space="preserve">
<path d="M12,1H8v2h4V1z M15,0h-2v4h2V0z M7,0H5v4h2V0z M9,9h4v2h-2l-2,2v2l2,2h2l2-2h-4v-2h2l2-2V9l-2-2h-2L9,9z M19,18.2V5h-2v12.3
	L15.3,19H3V5H1v16h15.2L19,18.2z M7,7L5,9v8h2V7z M16,1v2h6l2-2H16z M20,19l-3,3H2v2h15.8l4.2-4.2V5h-2V19z M4,1H0v2h4V1z"/>
</svg>
