<svg id="Layer_1" data-name="Layer 1" xmlns="http://www.w3.org/2000/svg" viewBox="0 0 24 24">
  <defs>
    <style>
      .cls-1 {
        fill: gray;
      }
    </style>
  </defs>
  <title>mvvm</title>
  <path class="cls-1" d="M12.79,3l1.62-1.63L13,0,10.41,2.59,9,4l4,4,1.41-1.41L12.89,5.06A7,7,0,0,1,16.32,17.5l1.09,1.09.34.33A9,9,0,0,0,12.79,3Zm1.73,15.48L12,16l-1.41,1.41L12.16,19H12A7,7,0,0,1,8.26,6.09l-.67-.68-.77-.76A9,9,0,0,0,12,21h.18l-1.59,1.6L12,24l2.59-2.59L15.9,20.1h0L16,20l-1.41-1.41Z"/>
</svg>
