<?xml version="1.0" encoding="utf-8"?>
<!-- Generator: Adobe Illustrator 25.3.1, SVG Export Plug-In . SVG Version: 6.00 Build 0)  -->
<svg version="1.1" id="Layer_1" xmlns="http://www.w3.org/2000/svg" xmlns:xlink="http://www.w3.org/1999/xlink" x="0px" y="0px"
	 width="24px" height="24px" viewBox="0 0 24 24" enable-background="new 0 0 24 24" xml:space="preserve">
<path d="M2.9,9.2H1V7.9V6.5V6.1h10.1V4.7H13v1.4h10v0.5v1.4v1.3h-1.9V7.9H13v1.4h-1.9V7.9H2.9V9.2z M17.6,19.4v-3.2h-0.9h-0.9H13
	v-1.4h-1.9v1.4H8.3h-1H6.4v3.2h1.9v-1.3h7.4v1.3H17.6z M12,4c1.1,0,2-0.9,2-2c0-1.1-0.9-2-2-2s-2,0.9-2,2C10,3.1,10.9,4,12,4z
	 M22,10c-1.1,0-2,0.9-2,2s0.9,2,2,2s2-0.9,2-2S23.1,10,22,10z M2,10c-1.1,0-2,0.9-2,2s0.9,2,2,2c1.1,0,2-0.9,2-2S3.1,10,2,10z
	 M14,12c0-1.1-0.9-2-2-2s-2,0.9-2,2s0.9,2,2,2S14,13.1,14,12z M7.4,20c-1.1,0-2,0.9-2,2c0,1.1,0.9,2,2,2s2-0.9,2-2
	C9.4,20.9,8.5,20,7.4,20z M16.7,20c-1.1,0-2,0.9-2,2c0,1.1,0.9,2,2,2c1.1,0,2-0.9,2-2C18.7,20.9,17.8,20,16.7,20z"/>
</svg>
