<?xml version="1.0" encoding="utf-8"?>
<!-- Generator: Adobe Illustrator 24.2.3, SVG Export Plug-In . SVG Version: 6.00 Build 0)  -->
<svg version="1.1" id="Layer_1" xmlns="http://www.w3.org/2000/svg" xmlns:xlink="http://www.w3.org/1999/xlink" x="0px" y="0px"
	 width="24px" height="24px" viewBox="0 0 24 24" enable-background="new 0 0 24 24" xml:space="preserve">
<path d="M1,10.9L0,12l0,0l0,0l1,1.1L2,14l2,2v-1.9l-1.1-1l-0.9-1L1.9,12L4,9.9V8l-2,2L1,10.9z M9,8.3v1.2l2-0.8V16h2V7h-0.2L9,8.3z
	 M24,12l-1-1.1L22,10l-2-2v1.9l1.1,1l0.9,0.9l0.1,0.1L20,14.1V16l2-2l1-0.9L24,12L24,12z"/>
</svg>
