<?xml version="1.0" encoding="utf-8"?>
<!-- Generator: Adobe Illustrator 24.3.0, SVG Export Plug-In . SVG Version: 6.00 Build 0)  -->
<svg version="1.1" id="Layer_1" xmlns="http://www.w3.org/2000/svg" xmlns:xlink="http://www.w3.org/1999/xlink" x="0px" y="0px"
	 width="24px" height="24px" viewBox="0 0 24 24" enable-background="new 0 0 24 24" xml:space="preserve">
<g>
	<g>
		<path d="M8.6,8.3C8.4,8.1,8.1,8.1,7.7,8.1H6v4.9h0.9v-1.7h0.8c0.5,0,0.9-0.1,1.2-0.4c0.3-0.3,0.4-0.7,0.4-1.1
			c0-0.3-0.1-0.6-0.2-0.8S8.9,8.4,8.6,8.3z M8.3,10.2c-0.1,0.1-0.3,0.2-0.6,0.2H6.9V8.9h0.8C8,8.9,8.2,9,8.3,9.1
			c0.1,0.1,0.2,0.3,0.2,0.6C8.5,9.9,8.4,10.1,8.3,10.2z M12,0C5.9,0,1,4.9,1,11c0,5.3,3.8,9.7,8.8,10.8L12,24l2.2-2.2
			c5-1,8.8-5.5,8.8-10.8C23,4.9,18.1,0,12,0z M13.8,19.8l-0.6,0.1L12,21.2l-1.2-1.2l-0.6-0.1C6,19,3,15.3,3,11c0-5,4-9,9-9s9,4,9,9
			C21,15.3,18,19,13.8,19.8z M15.5,9.2c0.2-0.3,0.4-0.4,0.7-0.4c0.2,0,0.4,0.1,0.6,0.2c0.1,0.1,0.2,0.3,0.3,0.6H18
			c-0.1-0.5-0.2-0.9-0.5-1.2C17.2,8.1,16.8,8,16.2,8c-0.4,0-0.7,0.1-1,0.3s-0.5,0.5-0.6,0.8c-0.1,0.4-0.2,0.8-0.2,1.3v0.3
			c0,0.5,0.1,0.9,0.2,1.2c0.2,0.3,0.4,0.6,0.7,0.8c0.3,0.2,0.6,0.3,1,0.3c0.4,0,0.7-0.1,1-0.2c0.3-0.1,0.5-0.3,0.7-0.5v-1.9h-1.8
			v0.7h0.8V12c-0.1,0.2-0.4,0.2-0.7,0.2c-0.3,0-0.6-0.1-0.8-0.4c-0.2-0.3-0.3-0.6-0.3-1.2v-0.3C15.3,9.8,15.4,9.4,15.5,9.2z
			 M12.8,11.3L11,8.1H10v4.9H11V9.7l1.8,3.2h0.9V8.1h-0.9V11.3z"/>
	</g>
</g>
<g>
</g>
<g>
</g>
<g>
</g>
<g>
</g>
<g>
</g>
<g>
</g>
</svg>
