<svg id="Layer_1" data-name="Layer 1" xmlns="http://www.w3.org/2000/svg" viewBox="0 0 24 24">
  <defs>
    <style>
      .cls-1 {
        fill: gray;
      }
    </style>
  </defs>
  <title>qrcode</title>
  <path class="cls-1" d="M12,4h2V0H10V2h2ZM6,6H4V8H6Zm4-2V2H8V4ZM2,14H0v4H2Zm16-2V10H14v2ZM2,6H0V8H2ZM4,2H8V0H0V4H4ZM18,0H16V2h2ZM12,8v2h2V8ZM4,14H6V12H4Zm6,2V14H6v2ZM2,10v2H4V10ZM8,6v4H6v2h4V8h2V6ZM0,24H4V20H0ZM22,12h2V8H22Zm-8,8v2h2V20Zm4-2H16v2h2Zm4,0H20v2h4V14H22Zm-4,4h2V20H18ZM18,4H16V8h4V6H18ZM6,18H4v2H6ZM20,0V6h2V4h2V0ZM6,24H8V22H6Zm10,0h2V22H16Zm8,0V22H20v2ZM14,16h6V14H12v4h2Zm-2,4V18H8v4h2V20Zm-2,4h4V22H10Z"/>
</svg>
