<svg id="Layer_1" data-name="Layer 1" xmlns="http://www.w3.org/2000/svg" viewBox="0 0 24 24">
  <defs>
    <style>
      .cls-1 {
        fill: gray;
      }
    </style>
  </defs>
  <title>radarcharts</title>
  <path class="cls-1" d="M24,10.89H15.73l5.9-3.4-1-1.73-5.9,3.4L16.56,6,14.83,5,13,8.16V0H11V8.16L8.24,3.38l-1.73,1L9.27,9.16,4.73,6.54l-1,1.73,4.54,2.62H0v2H8.27l-6.06,3.5,1,1.73,6.06-3.49L6.66,19.15l1.73,1L11,15.63V24h2V15.62l3.46,6,1.73-1-3.46-6,3.78,2.19,1-1.73-3.78-2.19H24Zm-12,3a2,2,0,1,1,2-2A2,2,0,0,1,12,13.89Z"/>
</svg>
