<?xml version="1.0" encoding="utf-8"?>
<!-- Generator: Adobe Illustrator 14.0.0, SVG Export Plug-In . SVG Version: 6.00 Build 43363)  -->
<!DOCTYPE svg PUBLIC "-//W3C//DTD SVG 1.1//EN" "http://www.w3.org/Graphics/SVG/1.1/DTD/svg11.dtd">
<svg version="1.1" id="Layer_1" xmlns="http://www.w3.org/2000/svg" xmlns:xlink="http://www.w3.org/1999/xlink" x="0px" y="0px"
	 width="24px" height="24px" viewBox="0 0 24 24" enable-background="new 0 0 24 24" xml:space="preserve">
<path fill="#818181" d="M10.086,18h2.829L24,6.914V4.085L10.086,18z M12,4c2.783,0,5.299,1.139,7.111,2.974l1.414-1.414
	C18.352,3.362,15.335,2,12,2C5.373,2,0,7.373,0,14c0,3.059,1.154,5.842,3.039,7.961l1.414-1.414C2.929,18.792,2,16.507,2,14
	C2,8.478,6.477,4,12,4z M21.615,11.299C21.857,12.159,22,13.063,22,14c0,2.507-0.93,4.792-2.453,6.547l1.414,1.414
	C22.846,19.842,24,17.059,24,14c0-1.512-0.289-2.954-0.801-4.285L21.615,11.299z"/>
</svg>
