<?xml version="1.0" encoding="utf-8"?>
<!-- Generator: Adobe Illustrator 24.1.0, SVG Export Plug-In . SVG Version: 6.00 Build 0)  -->
<svg version="1.1" id="Layer_1" xmlns="http://www.w3.org/2000/svg" xmlns:xlink="http://www.w3.org/1999/xlink" x="0px" y="0px"
	 viewBox="0 0 24 24" style="enable-background:new 0 0 24 24;" xml:space="preserve">
<style type="text/css">
	.st0{fill:#808080;}
</style>
<path class="st0" d="M24,4V2V0v0h-2v0H2v0H0v0v2v2v2v0h24v0V4z M2,2h20v2H2V2z M24,13v-2V9v0h-2v0H2v0H0v0v2v2v2v0h24v0V13z M2,11
	h20v2H2V11z M24,24v-2v-2v-2v0h-2v0H2v0H0v0v2v2v2v0L24,24L24,24z M2,20h20v2H2V20z"/>
</svg>
