<?xml version="1.0" encoding="utf-8"?>
<!-- Generator: Adobe Illustrator 24.2.3, SVG Export Plug-In . SVG Version: 6.00 Build 0)  -->
<svg version="1.1" id="Layer_1" xmlns="http://www.w3.org/2000/svg" xmlns:xlink="http://www.w3.org/1999/xlink" x="0px" y="0px"
	 width="24px" height="24px" viewBox="0 0 24 24" enable-background="new 0 0 24 24" xml:space="preserve">
<path d="M24,4V2V0l0,0h-2l0,0H2l0,0H0l0,0v2v2v2l0,0h24l0,0V4z M2,2h20v2H2V2z M24,13v-2V9l0,0h-2l0,0H2l0,0H0l0,0v2v2v2l0,0h24l0,0
	V13z M2,11h20v2H2V11z M24,24v-2v-2v-2l0,0h-2l0,0H2l0,0H0l0,0v2v2v2l0,0H24L24,24z M2,20h20v2H2V20z"/>
</svg>
