<?xml version="1.0" encoding="utf-8"?>
<!-- Generator: Adobe Illustrator 24.2.3, SVG Export Plug-In . SVG Version: 6.00 Build 0)  -->
<svg version="1.1" id="Layer_1" xmlns="http://www.w3.org/2000/svg" xmlns:xlink="http://www.w3.org/1999/xlink" x="0px" y="0px"
	 width="24px" height="24px" viewBox="0 0 24 24" enable-background="new 0 0 24 24" xml:space="preserve">
<path d="M15,13c1.1,0,2-0.9,2-2s-0.9-2-2-2s-2,0.9-2,2S13.9,13,15,13z M20,7c1.1,0,2-0.9,2-2s-0.9-2-2-2s-2,0.9-2,2S18.9,7,20,7z
	 M5,16c1.1,0,2-0.9,2-2s-0.9-2-2-2s-2,0.9-2,2S3.9,16,5,16z M0,19v2h22l2-2H0z M9,10c1.1,0,2-0.9,2-2s-0.9-2-2-2S7,6.9,7,8
	S7.9,10,9,10z"/>
</svg>
