<?xml version="1.0" encoding="utf-8"?>
<!-- Generator: Adobe Illustrator 24.1.0, SVG Export Plug-In . SVG Version: 6.00 Build 0)  -->
<svg version="1.1" id="Layer_1" xmlns="http://www.w3.org/2000/svg" xmlns:xlink="http://www.w3.org/1999/xlink" x="0px" y="0px"
	 viewBox="0 0 24 24" style="enable-background:new 0 0 24 24;" xml:space="preserve">
<style type="text/css">
	.st0{fill:#808080;}
</style>
<path class="st0" d="M17.24,15.36C18.35,13.86,19,12.01,19,10c0-4.97-4.01-9-8.98-9C5.03,1,1,5.03,1,10c0,4.97,4.03,8.89,9.01,8.89
	c2.24,0,4.29-0.72,5.87-2.07L22,23v-2.83L17.24,15.36z M10.01,17C6.14,17,3,13.87,3,10c0-3.87,3.14-7,7.01-7
	c3.87,0,7.01,3.13,7.01,7C17.02,13.87,13.88,17,10.01,17z M15.03,10h-2c0-1.66-1.34-3-3-3V5C12.79,5,15.03,7.24,15.03,10z"/>
</svg>
