<svg id="Layer_1" data-name="Layer 1" xmlns="http://www.w3.org/2000/svg" viewBox="0 0 24 24"><defs><style>.cls-1{fill:gray;}</style></defs><title>stepper</title><g id="Layer_2" data-name="Layer 2"><g id="Layer_1-2" data-name="Layer 1-2"><path class="cls-1" d="M2.06,11.94h0a2,2,0,0,1-2-2h0a2,2,0,0,1,2-2h0a2,2,0,0,1,2,2h0A2,2,0,0,1,2.06,11.94Zm10-4a2,2,0,1,0,2,2h0A2,2,0,0,0,12.06,7.94Zm0,3a1,1,0,0,1,0-2,1,1,0,0,1,1,1h0A1,1,0,0,1,12.06,10.94Zm12-1h0a2,2,0,0,0-2-2h0a2,2,0,0,0-2,2h0a2,2,0,0,0,2,2h0A2,2,0,0,0,24.06,9.94Zm-19-1h4l-2,2h-2Zm10,0h4l-2,2h-2Zm-15,7h24v-2H.06Z"/></g></g></svg>