<?xml version="1.0" encoding="utf-8"?>
<!-- Generator: Adobe Illustrator 24.2.3, SVG Export Plug-In . SVG Version: 6.00 Build 0)  -->
<svg version="1.1" id="Layer_1" xmlns="http://www.w3.org/2000/svg" xmlns:xlink="http://www.w3.org/1999/xlink" x="0px" y="0px"
	 width="24px" height="24px" viewBox="0 0 24 24" enable-background="new 0 0 24 24" xml:space="preserve">
<g id="Layer_2_1_">
	<g id="Layer_1-2">
		<path d="M2.1,11.9L2.1,11.9c-1.1,0-2-0.9-2-2l0,0c0-1.1,0.9-2,2-2l0,0c1.1,0,2,0.9,2,2l0,0C4.1,11,3.2,11.9,2.1,11.9z M12.1,7.9
			c-1.1,0-2,0.9-2,2s0.9,2,2,2s2-0.9,2-2l0,0C14.1,8.8,13.2,7.9,12.1,7.9z M12.1,10.9c-0.6,0-1-0.4-1-1s0.4-1,1-1s1,0.4,1,1l0,0
			C13.1,10.5,12.6,10.9,12.1,10.9z M24.1,9.9L24.1,9.9c0-1.1-0.9-2-2-2l0,0c-1.1,0-2,0.9-2,2l0,0c0,1.1,0.9,2,2,2l0,0
			C23.2,11.9,24.1,11,24.1,9.9z M5.1,8.9h4l-2,2h-2V8.9z M15.1,8.9h4l-2,2h-2V8.9z M0.1,15.9h24v-2h-24L0.1,15.9z"/>
	</g>
</g>
</svg>
