<?xml version="1.0" encoding="utf-8"?>
<!-- Generator: Adobe Illustrator 24.2.3, SVG Export Plug-In . SVG Version: 6.00 Build 0)  -->
<svg version="1.1" id="Layer_1" xmlns="http://www.w3.org/2000/svg" xmlns:xlink="http://www.w3.org/1999/xlink" x="0px" y="0px"
	 width="24px" height="24px" viewBox="0 0 24 24" enable-background="new 0 0 24 24" xml:space="preserve">
<path d="M0,0v2v20v1v1h22h1h1V2V0H0z M22,22H2V2h20V22z M18,18h2v2h-2V18z M6,11h2v3h2v-3V8.9V6L8,4H6L4,6v2.9V11v3h2V11z M6,6h2v3
	H6V6z M18,12v-2l-1-1l1-1V6l-2-2h-4v10h4L18,12z M14,6h2v2h-2V6z M14,10h2v2h-2V10z"/>
</svg>
