<?xml version="1.0" encoding="utf-8"?>
<!-- Generator: Adobe Illustrator 24.2.3, SVG Export Plug-In . SVG Version: 6.00 Build 0)  -->
<svg version="1.1" id="Layer_1" xmlns="http://www.w3.org/2000/svg" xmlns:xlink="http://www.w3.org/1999/xlink" x="0px" y="0px"
	 width="24px" height="24px" viewBox="0 0 24 24" enable-background="new 0 0 24 24" xml:space="preserve">
<path d="M12.8,8l2.6-2.6L14,4l-2.6,2.6L8.8,4L7.4,5.4l4,4L12.8,8z M9.4,11.4l-4-4L4,8.8l2.6,2.6L4,14l1.4,1.4L8,12.8L9.4,11.4z
	 M10,14.8l-2.6,2.6l1.4,1.4l2.6-2.6l2.6,2.6l1.4-1.4l-4-4L10,14.8z M18.8,8.8l-1.4-1.4L14.8,10l-1.4,1.4l4,4l1.4-1.4l-2.6-2.6
	L18.8,8.8z"/>
</svg>
