<?xml version="1.0" encoding="utf-8"?>
<!-- Generator: Adobe Illustrator 24.2.3, SVG Export Plug-In . SVG Version: 6.00 Build 0)  -->
<svg version="1.1" id="Layer_1" xmlns="http://www.w3.org/2000/svg" xmlns:xlink="http://www.w3.org/1999/xlink" x="0px" y="0px"
	 width="24px" height="24px" viewBox="0 0 24 24" enable-background="new 0 0 24 24" xml:space="preserve">
<path d="M14,0c-2.8,0-5,2.2-5,5v12c0,1.7,1.3,3,3,3s3-1.3,3-3V5l-2,2v10c0,0.6-0.4,1-1,1s-1-0.4-1-1V5c0-1.7,1.3-3,3-3s3,1.3,3,3v12
	c0,2.8-2.2,5-5,5s-5-2.2-5-5V5L5,7v10c0,3.9,3.1,7,7,7s7-3.1,7-7V5C19,2.2,16.8,0,14,0z"/>
</svg>
