<!-- Generated by IcoMoon.io -->
<svg version="1.1" xmlns="http://www.w3.org/2000/svg" width="24" height="24" viewBox="0 0 24 24">
<title>wizard</title>
<path fill="#808080" d="M2 4v0c-1.105 0-2-0.895-2-2v0 0c0-1.105 0.895-2 2-2v0 0c1.105 0 2 0.895 2 2v0 0c0 1.105-0.895 2-2 2v0zM12 0c-1.105 0-2 0.895-2 2s0.895 2 2 2c1.105 0 2-0.895 2-2v0c0-1.105-0.895-2-2-2v0zM12 3c-0.552 0-1-0.448-1-1s0.448-1 1-1c0.552 0 1 0.448 1 1v0c0 0.552-0.448 1-1 1v0zM24 2v0c0-1.105-0.895-2-2-2v0 0c-1.105 0-2 0.895-2 2v0 0c0 1.105 0.895 2 2 2v0 0c1.105 0 2-0.895 2-2v0zM5 1h4l-2 2h-2zM15 1h4l-2 2h-2zM20 22h-20v2h20zM0 8h24v-2h-24zM2 6h-2v18h2zM24 6h-2v14h2zM24 20l-1.41-1.41-4 4 1.41 1.41zM4 16h16v-2h-16zM4 12h16v-2h-16zM14 18h-5v2h3zM20 18h-5v2h3z"></path>
</svg>
