<?xml version="1.0" encoding="utf-8"?>
<!-- Generator: Adobe Illustrator 24.2.0, SVG Export Plug-In . SVG Version: 6.00 Build 0)  -->
<svg version="1.1" id="Layer_1" xmlns="http://www.w3.org/2000/svg" xmlns:xlink="http://www.w3.org/1999/xlink" x="0px" y="0px"
	 width="512px" height="512px" viewBox="0 0 512 512" xml:space="preserve">
<path d="M480,448v32H32V32h32v416H480z M192,256c-35.3,0-64,28.7-64,64s28.7,64,64,64s64-28.7,64-64C256,284.7,227.3,256,192,256
	 M192,224c53,0,96,43,96,96s-43,96-96,96s-96-43-96-96S139,224,192,224z M416,320c-17.7,0-32,14.3-32,32s14.3,32,32,32
	s32-14.3,32-32S433.7,320,416,320 M416,288c35.3,0,64,28.7,64,64s-28.7,64-64,64s-64-28.7-64-64S380.7,288,416,288z M368,96
	c-44.2,0-80,35.8-80,80s35.8,80,80,80s80-35.8,80-80S412.2,96,368,96z M176,64c-26.5,0-48,21.5-48,48s21.5,48,48,48s48-21.5,48-48
	S202.5,64,176,64z"/>
</svg>
