<?xml version="1.0" encoding="utf-8"?>
<!-- Generator: Adobe Illustrator 24.2.0, SVG Export Plug-In . SVG Version: 6.00 Build 0)  -->
<svg version="1.1" id="Layer_1" xmlns="http://www.w3.org/2000/svg" xmlns:xlink="http://www.w3.org/1999/xlink" x="0px" y="0px"
	 width="512px" height="512px" viewBox="0 0 512 512" xml:space="preserve">
<path d="M64,448h416v32H32V32h32V448z M216.4,257.6L96,416v-51.2l97.2-129.6l41.2-33l-27.3-34.1L96,224v-38l119.9-58.1l43.5,54.3
	l109-87.2l55.9,85.7L480,114v47l-38,46.7l38,58.3l0.5,53.3l-58.5-87l-82.5,101.3l-85.1-106.4L216.4,257.6z M279.4,207.2l60.1,75.2
	l64.3-77.1l-42.7-63.5L279.4,207.2z"/>
</svg>
