<?xml version="1.0" encoding="utf-8"?>
<!-- Generator: Adobe Illustrator 24.2.0, SVG Export Plug-In . SVG Version: 6.00 Build 0)  -->
<svg version="1.1" id="Layer_1" xmlns="http://www.w3.org/2000/svg" xmlns:xlink="http://www.w3.org/1999/xlink" x="0px" y="0px"
	 width="512px" height="512px" viewBox="0 0 512 512" xml:space="preserve">
<path d="M473,310.3c0.9-2.1,1.4-4.2,1.8-6.3l0.1-0.5c0.5-2.1,0.9-4.1,1.3-6.2c0-0.1,0-0.2,0-0.2c0.8-4.4,1.5-8.8,1.8-13.3v-0.4
	c0.5-2,0.7-3.9,0.9-5.9l0.1-1.7c0.1-1.6,0.3-3.1,0.4-4.7c0-0.7,0.1-1.4,0.1-2c0.1-1.5,0.2-3.1,0.2-4.6c0-0.6,0-1.3,0.1-1.9
	c0.1-2.2,0.1-4.3,0.1-6.5c0-31.8-6.7-63.2-19.8-92.2c-1.5-3.3-3.1-6.6-4.7-9.8c-4.1-8-8.7-15.8-13.8-23.3
	c-5-7.4-10.5-14.6-16.4-21.3c-1.2-1.3-2.4-2.7-3.6-4c-2.4-2.7-4.9-5.3-7.4-7.8s-5.1-5-7.8-7.4c-2.7-2.4-5.4-4.7-8.1-7
	c-4.1-3.4-8.4-6.7-12.8-9.8c-20.7-14.8-43.8-25.9-68.3-32.9c-5.3-1.5-10.7-2.8-16.2-4c-3.6-0.7-7.3-1.4-11-2s-7.4-1-11.2-1.3
	c-5.6-0.6-11.3-0.9-17.1-1.1c-1.9,0-3.9-0.1-5.8-0.1C132.3,32,32,132.3,32,256s100.3,224,224,224C361,480,449.1,407.8,473,310.3
	L473,310.3L473,310.3z M391.8,391.8c-74.4,75.6-195.9,76.6-271.5,2.2S43.7,198,118,122.5c0.7-0.7,1.5-1.5,2.2-2.2
	c36-36.2,84.9-56.4,135.8-56.3v192l186.3,46.6C433.9,336.4,416.4,367.2,391.8,391.8L391.8,391.8z"/>
</svg>
