<?xml version="1.0" encoding="utf-8"?>
<!-- Generator: Adobe Illustrator 24.2.0, SVG Export Plug-In . SVG Version: 6.00 Build 0)  -->
<svg version="1.1" id="Layer_1" xmlns="http://www.w3.org/2000/svg" xmlns:xlink="http://www.w3.org/1999/xlink" x="0px" y="0px"
	 width="512px" height="512px" viewBox="0 0 512 512" xml:space="preserve">
<path d="M226,251.4L44.3,329.3c-23.8-68.9-12.6-145.1,30-204.3L226,251.4z M143.9,141.9L240,222V96.8
	C203.8,100.4,169.9,116.4,143.9,141.9z M375.4,302.1L279,278l27.3,95.7C338.1,360.1,363,334.3,375.4,302.1z M96,353.4
	c37.3,69.1,115,106.1,192.2,91.4L244,290L96,353.4z M272,32v211.4l204.6,51.1c2.3-12.9,3.4-26,3.4-39.1C480,137.1,388.2,40.2,272,32
	z"/>
</svg>
