<?xml version="1.0" encoding="utf-8"?>
<!-- Generator: Adobe Illustrator 24.2.0, SVG Export Plug-In . SVG Version: 6.00 Build 0)  -->
<svg version="1.1" id="Layer_1" xmlns="http://www.w3.org/2000/svg" xmlns:xlink="http://www.w3.org/1999/xlink" x="0px" y="0px"
	 width="512px" height="512px" viewBox="0 0 512 512" xml:space="preserve">
<path d="M480,448v32H32V32h32v416H480z M160,96c0,17.7-14.3,32-32,32s-32-14.3-32-32s14.3-32,32-32S160,78.3,160,96z M144,96
	c0-8.8-7.2-16-16-16s-16,7.2-16,16s7.2,16,16,16S144,104.8,144,96z M256,288c0,17.7-14.3,32-32,32s-32-14.3-32-32s14.3-32,32-32
	S256,270.3,256,288z M240,288c0-8.8-7.2-16-16-16s-16,7.2-16,16s7.2,16,16,16S240,296.8,240,288z M352,160c0,17.7-14.3,32-32,32
	s-32-14.3-32-32s14.3-32,32-32S352,142.3,352,160z M336,160c0-8.8-7.2-16-16-16s-16,7.2-16,16s7.2,16,16,16S336,168.8,336,160z
	 M448,352c0,17.7-14.3,32-32,32s-32-14.3-32-32s14.3-32,32-32S448,334.3,448,352z M432,352c0-8.8-7.2-16-16-16s-16,7.2-16,16
	s7.2,16,16,16S432,360.8,432,352z"/>
</svg>
