<?xml version="1.0" encoding="utf-8"?>
<!-- Generator: Adobe Illustrator 24.2.0, SVG Export Plug-In . SVG Version: 6.00 Build 0)  -->
<svg version="1.1" id="Layer_1" xmlns="http://www.w3.org/2000/svg" xmlns:xlink="http://www.w3.org/1999/xlink" x="0px" y="0px"
	 width="512px" height="512px" viewBox="0 0 512 512" xml:space="preserve">
<path d="M480,448v32H32V32h32v416H480z M336,360.2c21.1-19.9,31.8-44.5,31.8-73.1c0-27.3-11-47.6-32.6-60.6
	c-17.3-10.3-38.8-14.5-59.6-18.6c-46.2-9-66.5-16.3-66.8-47.9c-0.4-41.2,71.8-65.5,114.8-76.4C385.4,68.1,448.4,64,449,64l-2-32
	c-2.7,0.2-66.2,4.3-130.8,20.5c-38.7,9.7-69.8,21.8-92.4,36c-31.4,19.8-47.3,43.9-47,71.7c0.2,27.2,11.3,47.6,32.9,60.5
	c17.3,10.3,38.9,14.5,59.7,18.6c19,3.7,36.9,7.2,49.3,14.6c11.9,7.1,17,17.1,17,33.2c0,19.7-7.1,36-21.7,49.7
	c-24.1,22.8-68.9,38.2-129.3,44.6c-29.2,3-58.5,3.9-87.8,2.6l-2,32c1.7,0.1,12.1,0.7,28,0.7C174.3,416.7,282.7,410.3,336,360.2z"/>
</svg>
