<?xml version="1.0" encoding="utf-8"?>
<!-- Generator: Adobe Illustrator 24.2.0, SVG Export Plug-In . SVG Version: 6.00 Build 0)  -->
<svg version="1.1" id="Layer_1" xmlns="http://www.w3.org/2000/svg" xmlns:xlink="http://www.w3.org/1999/xlink" x="0px" y="0px"
	 width="512px" height="512px" viewBox="0 0 512 512" xml:space="preserve">
<path d="M480,448v32H32V32h32v416H480z M480,64c0,17.7-14.3,32-32,32c-7.4,0-14.6-2.6-20.3-7.3L224,165.1l116.4,93.1
	c16.5-6.4,35,1.7,41.4,18.2s-1.7,35-18.2,41.4c-10.3,4-22,2.4-30.8-4.2l-173.1,74.2c-2.1,17.5-18,30.1-35.6,28s-30.1-18-28-35.6
	c2.1-17.5,18-30.1,35.6-28c5.6,0.7,10.9,2.8,15.4,6.2l173.1-74.2c0-0.4,0.1-0.7,0.1-1l-116.7-93.4c-16.5,6.4-35-1.7-41.4-18.2
	s1.7-35,18.2-41.4c10.8-4.2,23-2.3,32,5.1l204.1-76.5c2.9-17.4,19.4-29.2,36.8-26.3C468.7,35.1,480,48.4,480,64z M208,160
	c0-8.8-7.2-16-16-16s-16,7.2-16,16s7.2,16,16,16S208,168.8,208,160z M144,384c0-8.8-7.2-16-16-16s-16,7.2-16,16s7.2,16,16,16
	S144,392.8,144,384z M336,288c0,8.8,7.2,16,16,16s16-7.2,16-16s-7.2-16-16-16S336,279.2,336,288z M464,64c0-8.8-7.2-16-16-16
	s-16,7.2-16,16s7.2,16,16,16S464,72.8,464,64z"/>
</svg>
