<?xml version="1.0" encoding="utf-8"?>
<!-- Generator: Adobe Illustrator 22.0.1, SVG Export Plug-In . SVG Version: 6.00 Build 0)  -->
<svg version="1.1" id="Layer_1" xmlns="http://www.w3.org/2000/svg" xmlns:xlink="http://www.w3.org/1999/xlink" x="0px" y="0px"
	 width="512px" height="512px" viewBox="0 0 512 512" xml:space="preserve">
<path d="M447.2,96.8c-43.7-43.7-114.7-43.7-158.4,0L256,129.6l-32.8-32.8c-43.7-43.7-114.7-43.7-158.4,0
	c-43.7,43.7-43.7,116.3,0,160l32.8,32.8L256,448l158.4-158.4l32.8-32.8C490.9,213.1,490.9,140.5,447.2,96.8z M424.6,234.2L256,402.7
	L87.4,234.2C72.3,219.1,64,198.7,64,176.8c0-21.9,8.3-42.3,23.4-57.4C102.5,104.3,122.6,96,144,96s41.5,8.3,56.6,23.4l55.4,55.4
	l55.4-55.4C326.5,104.3,346.6,96,368,96s41.5,8.3,56.6,23.4c15.1,15.1,23.4,35.5,23.4,57.4C448,198.7,439.7,219.1,424.6,234.2z"/>
</svg>
