<?xml version="1.0" encoding="utf-8"?>
<!-- Generator: Adobe Illustrator 19.2.1, SVG Export Plug-In . SVG Version: 6.00 Build 0)  -->
<svg version="1.1" id="Layer_1" xmlns="http://www.w3.org/2000/svg" xmlns:xlink="http://www.w3.org/1999/xlink" x="0px" y="0px"
	 viewBox="0 0 512 512" enable-background="new 0 0 512 512" xml:space="preserve">
<path d="M256,32c-50.3,0-96.8,16.6-134.1,44.6c-17.2,12.8-32.4,28.1-45.3,45.3C48.6,159.2,32,205.7,32,256
	c0,123.7,100.3,224,224,224c50.3,0,96.8-16.6,134.1-44.6c17.2-12.8,32.4-28.1,45.3-45.3c28-37.4,44.6-83.8,44.6-134.1
	C480,132.3,379.7,32,256,32z M256,416c-88.2,0-160-71.8-160-160c0-32.6,9.8-62.9,26.6-88.2l221.6,221.6
	C318.9,406.2,288.6,416,256,416z M389.4,344.2L167.8,122.6C193.1,105.8,223.4,96,256,96c88.2,0,160,71.8,160,160
	C416,288.6,406.2,318.9,389.4,344.2z"/>
</svg>
