<?xml version="1.0" encoding="utf-8"?>
<!-- Generator: Adobe Illustrator 19.2.1, SVG Export Plug-In . SVG Version: 6.00 Build 0)  -->
<svg version="1.1" id="Layer_1" xmlns="http://www.w3.org/2000/svg" xmlns:xlink="http://www.w3.org/1999/xlink" x="0px" y="0px"
	 viewBox="0 0 512 512" enable-background="new 0 0 512 512" xml:space="preserve">
<path d="M169.4,214.6l128,128c-12.5,6-26.6,9.4-41.4,9.4c-52.9,0-96-43.1-96-96C160,241.2,163.4,227.2,169.4,214.6z M256,160
	c-14.8,0-28.8,3.4-41.4,9.4l128,128c6-12.5,9.4-26.6,9.4-41.4C352,203.1,308.9,160,256,160z M480,256c0,123.7-100.3,224-224,224
	S32,379.7,32,256S132.3,32,256,32S480,132.3,480,256z M416,256c0-88.2-71.8-160-160-160c-32.6,0-62.9,9.8-88.2,26.6
	c-17.9,11.9-33.4,27.3-45.3,45.3C105.8,193.1,96,223.4,96,256c0,88.2,71.8,160,160,160c32.6,0,62.9-9.8,88.2-26.6
	c17.9-11.9,33.4-27.3,45.3-45.3C406.2,318.9,416,288.6,416,256z"/>
</svg>
