<?xml version="1.0" encoding="utf-8"?>
<!-- Generator: Adobe Illustrator 20.1.0, SVG Export Plug-In . SVG Version: 6.00 Build 0)  -->
<svg version="1.1" baseProfile="tiny" id="Layer_1" xmlns="http://www.w3.org/2000/svg" xmlns:xlink="http://www.w3.org/1999/xlink"
	 x="0px" y="0px" viewBox="0 0 512 512" xml:space="preserve">
<path fill="#010101" d="M416,112c0,26.51-21.49,48-48,48c-20.898,0-38.667-13.359-45.258-32H256v256v32h-32h-66.742
	c-6.591,18.641-24.36,32-45.258,32c-26.51,0-48-21.49-48-48s21.49-48,48-48c20.898,0,38.667,13.359,45.258,32H224V128V96h32h66.742
	c6.591-18.641,24.36-32,45.258-32C394.51,64,416,85.49,416,112z"/>
</svg>
