<?xml version="1.0" encoding="utf-8"?>
<!-- Generator: Adobe Illustrator 19.2.1, SVG Export Plug-In . SVG Version: 6.00 Build 0)  -->
<svg version="1.1" id="Layer_1" xmlns="http://www.w3.org/2000/svg" xmlns:xlink="http://www.w3.org/1999/xlink" x="0px" y="0px"
	 viewBox="0 0 512 512" enable-background="new 0 0 512 512" xml:space="preserve">
<path d="M416,96h-95.9V64c0-17.6-14.4-32-32-32H192c-17.6,0-32,14.4-32,32v32H64v64h32v288c0,17.6,14.4,32,32,32h224
	c17.6,0,32-14.4,32-32V160h32V96z M191.9,64.1L288,64c0,0,0,0,0.1,0.1V96H192h-0.1C192,95.9,192,64,191.9,64.1z M352,447.9
	L128.1,448c0,0,0,0-0.1-0.1V160h32v256h32V160h32v256h32V160h32v256h32V160h32V447.9z"/>
</svg>
