<?xml version="1.0" encoding="utf-8"?>
<!-- Generator: Adobe Illustrator 19.2.1, SVG Export Plug-In . SVG Version: 6.00 Build 0)  -->
<svg version="1.1" id="Layer_1" xmlns="http://www.w3.org/2000/svg" xmlns:xlink="http://www.w3.org/1999/xlink" x="0px" y="0px"
	 viewBox="0 0 512 512" enable-background="new 0 0 512 512" xml:space="preserve">
<path d="M331.9,364.2l-29.6-22.4c1.3-7.1,2-14.3,2-21.8c0-7.4-0.7-14.7-2-21.8l29.6-22.4c4.6-3.5,5.9-9.8,3-14.8l-24.2-42
	c-2.9-5-9-7.1-14.3-4.8L262,228.7c-11-9.4-23.8-16.9-37.7-21.8l-4.6-36.9c-0.7-5.7-5.6-10-11.3-10H160c-5.8,0-10.6,4.3-11.3,10
	l-4.6,36.9c-13.9,4.9-26.7,12.4-37.7,21.8l-34.3-14.5c-5.3-2.2-11.5-0.2-14.3,4.8l-24.3,42c-2.9,5-1.6,11.3,3,14.8l29.6,22.4
	c-1.3,7.1-2,14.3-2,21.8c0,7.4,0.7,14.7,2,21.8l-29.6,22.4c-4.6,3.5-5.9,9.8-3,14.8l24.2,42c2.9,5,9,7.1,14.3,4.8l34.3-14.5
	c11,9.4,23.8,16.9,37.7,21.8l4.6,36.9c0.7,5.7,5.6,10,11.3,10h48.4c5.8,0,10.6-4.3,11.3-10l4.6-36.9c13.9-4.9,26.7-12.4,37.7-21.8
	l34.3,14.5c5.3,2.2,11.5,0.2,14.3-4.8l24.2-41.9C337.7,374.1,336.5,367.7,331.9,364.2z M184.2,380c-33.1,0-60-26.9-60-60
	s26.9-60,60-60s60,26.9,60,60S217.3,380,184.2,380z M477.3,154.5L459.4,141c0.8-4.2,1.2-8.6,1.2-13c0-4.5-0.4-8.8-1.2-13l17.8-13.4
	c2.7-2.1,3.5-5.9,1.8-8.9l-14.5-25.2c-1.8-3-5.4-4.2-8.6-2.8l-20.6,8.7c-6.7-5.7-14.3-10.1-22.7-13.1L409.9,38c-0.4-3.4-3.3-6-6.8-6
	h-29c-3.4,0-6.4,2.5-6.8,6l-2.7,22.2c-8.3,2.9-16,7.5-22.7,13.1l-20.6-8.7c-3.2-1.4-6.9-0.1-8.6,2.8l-14.5,25.2
	c-1.8,3-1,6.9,1.8,8.9l17.8,13.4c-0.8,4.2-1.2,8.6-1.2,13c0,4.5,0.4,8.8,1.2,13L300,154.5c-2.7,2.1-3.5,5.9-1.8,8.9l14.5,25.2
	c1.8,3,5.4,4.2,8.6,2.8l20.6-8.7c6.7,5.7,14.3,10.1,22.7,13.1l2.7,22.2c0.4,3.4,3.3,6,6.8,6h29c3.4,0,6.4-2.5,6.8-6l2.7-22.2
	c8.3-2.9,16-7.5,22.7-13.1l20.6,8.7c3.2,1.4,6.9,0.1,8.6-2.8l14.5-25.2C480.8,160.4,480,156.5,477.3,154.5z M388.6,164
	c-19.9,0-36.1-16.2-36.1-36.1s16.2-36.1,36.1-36.1c19.9,0,36.1,16.2,36.1,36.1C424.6,147.8,408.6,164,388.6,164z"/>
</svg>
