<?xml version="1.0" encoding="utf-8"?>
<!-- Generator: Adobe Illustrator 19.2.1, SVG Export Plug-In . SVG Version: 6.00 Build 0)  -->
<svg version="1.1" id="Layer_1" xmlns="http://www.w3.org/2000/svg" xmlns:xlink="http://www.w3.org/1999/xlink" x="0px" y="0px"
	 viewBox="0 0 512 512" enable-background="new 0 0 512 512" xml:space="preserve">
<path d="M128,384c0-47.4,25.8-88.7,64-110.8V384c0,35.4,28.6,64,64,64s64-28.7,64-64V273.2c38.2,22.1,64,63.5,64,110.8
	c0,70.7-57.3,128-128,128S128,454.7,128,384L128,384L128,384z M256,96c17.7,0,32,14.3,32,32v256c0,17.7-14.3,32-32,32
	s-32-14.3-32-32V128C224,110.3,238.3,96,256,96L256,96z M256,64c-35.4,0-64,28.6-64,64v110.8c-38.2-22.1-64-63.5-64-110.8
	C128,57.3,185.3,0,256,0c70.7,0,128,57.3,128,128c0,47.4-25.8,88.7-64,110.8V128C320,92.6,291.4,64,256,64L256,64z"/>
</svg>
