<?xml version="1.0" encoding="utf-8"?>
<!-- Generator: Adobe Illustrator 19.2.1, SVG Export Plug-In . SVG Version: 6.00 Build 0)  -->
<svg version="1.1" id="Layer_1" xmlns="http://www.w3.org/2000/svg" xmlns:xlink="http://www.w3.org/1999/xlink" x="0px" y="0px"
	 viewBox="0 0 512 512" enable-background="new 0 0 512 512" xml:space="preserve">
<path d="M384,224h-32v-96c0-53-43-96-96-96s-96,43-96,96v96h-32c-17.6,0-32,14.4-32,32v192c0,17.6,14.4,32,32,32h256
	c17.6,0,32-14.4,32-32V256C416,238.4,401.6,224,384,224z M192,128c0-35.3,28.7-64,64-64s64,28.7,64,64v96H192V128z M256,384
	c-17.7,0-32-14.3-32-32c0-17.7,14.3-32,32-32c17.7,0,32,14.3,32,32C288,369.7,273.7,384,256,384z"/>
</svg>
