<?xml version="1.0" encoding="utf-8"?>
<!-- Generator: Adobe Illustrator 19.2.1, SVG Export Plug-In . SVG Version: 6.00 Build 0)  -->
<svg version="1.1" id="Layer_1" xmlns="http://www.w3.org/2000/svg" xmlns:xlink="http://www.w3.org/1999/xlink" x="0px" y="0px"
	 viewBox="0 0 512 512" enable-background="new 0 0 512 512" xml:space="preserve">
<path d="M321,434.2l47.5,47.5C335.5,501,297,512,256,512C132.3,512,32,411.7,32,288c0-41,11-79.5,30.3-112.6l47.5,47.5
	c-8.9,19.9-13.8,41.9-13.8,65c0,88.2,71.8,160,160,160C279.1,448,301.2,443.1,321,434.2z M439.3,416.7
	c12.9-18.3,23.1-38.7,30.1-60.4c6.9-21.5,10.6-44.5,10.6-68.3c0-40.8-10.9-79.1-30-112l-55.5,32c13.6,23.5,21.5,50.9,21.5,80
	c0,4.8-0.2,9.5-0.6,14.2c-2.2,24.8-10.1,47.9-22.3,68.2L173.6,150.9c20.3-12.2,43.4-20.1,68.2-22.3c4.7-0.4,9.4-0.6,14.2-0.6v64
	l160-96L256,0v64c-23.8,0-46.7,3.7-68.3,10.6c-21.8,7-42.1,17.2-60.4,30.1L22.6,0L0,22.6L489.4,512l22.6-22.6L439.3,416.7z"/>
</svg>
