<?xml version="1.0" encoding="utf-8"?>
<!-- Generator: Adobe Illustrator 19.2.1, SVG Export Plug-In . SVG Version: 6.00 Build 0)  -->
<svg version="1.1" id="Layer_1" xmlns="http://www.w3.org/2000/svg" xmlns:xlink="http://www.w3.org/1999/xlink" x="0px" y="0px"
	 viewBox="0 0 512 512" enable-background="new 0 0 512 512" xml:space="preserve">
<path d="M384,32H64c-17.6,0-32,14.4-32,32v384c0,17.6,14.4,32,32,32h384c17.6,0,32-14.4,32-32V128L384,32z M320,64v128h-64V64H320z
	 M448.1,447.9H448L64.1,448c0,0,0,0-0.1-0.1V64.1c0,0,0,0,0.1-0.1H96v160h256V64h18.8l77.3,77.3V447.9z"/>
</svg>
