<?xml version="1.0" encoding="utf-8"?>
<!-- Generator: Adobe Illustrator 19.2.1, SVG Export Plug-In . SVG Version: 6.00 Build 0)  -->
<svg version="1.1" id="Layer_1" xmlns="http://www.w3.org/2000/svg" xmlns:xlink="http://www.w3.org/1999/xlink" x="0px" y="0px"
	 viewBox="0 0 512 512" style="enable-background:new 0 0 512 512;" xml:space="preserve">
<path d="M414.4,272H512v-32h-97.6c1,5.2,1.6,10.5,1.6,16S415.5,266.8,414.4,272z M402.8,211.9l69-69l-22.6-22.6l-69,69
	C389.1,195.2,396.8,202.9,402.8,211.9z M380.1,322.7l69,69l22.6-22.6l-69-69C396.8,309.1,389.1,316.8,380.1,322.7z M96,256
	c0-5.5,0.6-10.8,1.6-16H0v32h97.6C96.6,266.8,96,261.5,96,256z M131.9,189.2l-69-69l-22.6,22.6l69,69
	C115.2,202.9,122.9,195.2,131.9,189.2z M109.3,300.1l-69,69l22.6,22.6l69-69C122.9,316.8,115.2,309.1,109.3,300.1z M128,384
	c0-47.4,25.8-88.7,64-110.8V384c0,35.4,28.6,64,64,64s64-28.7,64-64V273.2c38.2,22.1,64,63.5,64,110.8c0,70.7-57.3,128-128,128
	S128,454.7,128,384L128,384L128,384z M256,64c-35.4,0-64,28.6-64,64v110.8c-38.2-22.1-64-63.5-64-110.8C128,57.3,185.3,0,256,0
	c70.7,0,128,57.3,128,128c0,47.4-25.8,88.7-64,110.8V128C320,92.6,291.4,64,256,64L256,64z"/>
</svg>
