<?xml version="1.0" encoding="utf-8"?>
<!-- Generator: Adobe Illustrator 19.2.1, SVG Export Plug-In . SVG Version: 6.00 Build 0)  -->
<svg version="1.1" id="Layer_1" xmlns="http://www.w3.org/2000/svg" xmlns:xlink="http://www.w3.org/1999/xlink" x="0px" y="0px"
	 viewBox="0 0 512 512" enable-background="new 0 0 512 512" xml:space="preserve">
<path d="M192,64h128v32H192V64z M416,64h-64v32h64v64h32V96V64H416z M416,320h32V192h-32V320z M416,416h-64v32h64h32v-96h-32V416z
	 M192,448h128v-32H192V448z M96,352H64v64v32h32h64v-32H96V352z M96,192H64v128h32V192z M64,64v32v64h32V96h64V64H96H64z"/>
</svg>
