<?xml version="1.0" encoding="utf-8"?>
<!-- Generator: Adobe Illustrator 25.2.1, SVG Export Plug-In . SVG Version: 6.00 Build 0)  -->
<svg version="1.1" id="Layer_1" xmlns="http://www.w3.org/2000/svg" xmlns:xlink="http://www.w3.org/1999/xlink" x="0px" y="0px"
	 viewBox="0 0 512 512" style="enable-background:new 0 0 512 512;" xml:space="preserve">
<style type="text/css">
	.st0{display:none;}
	.st1{display:inline;fill:#4F6EB1;}
	.st2{fill:none;}
	.st3{fill:#070606;}
</style>
<g class="st0">
	<path class="st1" d="M181.3,32v29.9H241v89.6h-29.9v29.9h89.6v-29.9h-29.9V61.9h59.7V32H181.3z"/>
	<path class="st1" d="M330.7,480v-29.9H271v-89.6h29.9v-29.9h-89.6v29.9h29.9v89.6h-59.7V480H330.7z"/>
	<path class="st1" d="M480,330.7h-29.9V271h-89.6v29.9h-29.9v-89.6h29.9v29.9h89.6v-59.7H480V330.7z"/>
	<path class="st1" d="M32,330.7h29.9V271h89.6v29.9h29.9v-89.6h-29.9v29.9H61.9v-59.7H32V330.7z"/>
</g>
<g>
	<path class="st2" d="M64,64v384h384V64H64z M416,320v96H96v-96H416z M416,96v96H96V96H416z"/>
	<path class="st3" d="M480,32H32v448h448V32z M64,448V64h384v384H64z"/>
	<rect x="96" y="96" class="st3" width="320" height="96"/>
	<rect x="96" y="320" class="st3" width="320" height="96"/>
</g>
</svg>
