<?xml version="1.0" encoding="utf-8"?>
<!-- Generator: Adobe Illustrator 24.0.0, SVG Export Plug-In . SVG Version: 6.00 Build 0)  -->
<svg version="1.1" id="Layer_3" xmlns="http://www.w3.org/2000/svg" xmlns:xlink="http://www.w3.org/1999/xlink" x="0px" y="0px"
	 viewBox="0 0 512 512" style="enable-background:new 0 0 512 512;" xml:space="preserve">
<style type="text/css">
	.st0{fill:#010002;}
</style>
<path class="st0" d="M480,256c0,17.7-14.3,32-32,32c-9.1,0-17.4-3.8-23.2-10l0,0l-8.8-8.7V416c0,17.7-14.3,32-32,32h-64
	c-17.7,0-32-14.3-32-32v-96h-64v96c0,17.7-14.3,32-32,32h-64c-17.7,0-32-14.3-32-32V268.6l-8.3,8.9l0,0C81.8,284,73.4,288,64,288
	c-17.7,0-32-14.3-32-32c0-8.5,3.3-16.1,8.6-21.9l0,0l0.2-0.2c0.3-0.3,0.7-0.7,1-1l191-191.3c0.3-0.3,0.6-0.6,1-1l0,0l0,0
	c5.8-5.5,13.6-8.9,22.2-8.9c9.1,0,17.3,3.8,23.1,9.9L470.3,233c0.2,0.2,0.5,0.5,0.7,0.7l0.3,0.3l0,0C476.7,239.8,480,247.5,480,256z
	"/>
</svg>
