<?xml version="1.0" encoding="utf-8"?>
<!-- Generator: Adobe Illustrator 19.2.1, SVG Export Plug-In . SVG Version: 6.00 Build 0)  -->
<svg version="1.1" id="Layer_1" xmlns="http://www.w3.org/2000/svg" xmlns:xlink="http://www.w3.org/1999/xlink" x="0px" y="0px"
	 viewBox="0 0 512 512" style="enable-background:new 0 0 512 512;" xml:space="preserve">
<g>
	<path d="M240,128c26.4,0,48-21.6,48-48s-21.6-48-48-48s-48,21.6-48,48S213.6,128,240,128z"/>
	<path d="M240,192c-26.4,0-48,21.6-48,48c0,26.4,21.6,48,48,48s48-21.6,48-48C288,213.6,266.4,192,240,192z"/>
	<path d="M240,352c-26.4,0-48,21.6-48,48c0,26.4,21.6,48,48,48s48-21.6,48-48C288,373.6,266.4,352,240,352z"/>
</g>
</svg>
