<?xml version="1.0" encoding="utf-8"?>
<!-- Generator: Adobe Illustrator 19.2.1, SVG Export Plug-In . SVG Version: 6.00 Build 0)  -->
<svg version="1.1" id="Layer_1" xmlns="http://www.w3.org/2000/svg" xmlns:xlink="http://www.w3.org/1999/xlink" x="0px" y="0px"
	 viewBox="0 0 512 512" style="enable-background:new 0 0 512 512;" xml:space="preserve">
<g>
	<path d="M128,240c0-26.4-21.6-48-48-48s-48,21.6-48,48s21.6,48,48,48S128,266.4,128,240z"/>
	<path d="M192,240c0,26.4,21.6,48,48,48c26.4,0,48-21.6,48-48s-21.6-48-48-48C213.6,192,192,213.6,192,240z"/>
	<path d="M352,240c0,26.4,21.6,48,48,48c26.4,0,48-21.6,48-48s-21.6-48-48-48C373.6,192,352,213.6,352,240z"/>
</g>
</svg>
