<?xml version="1.0" encoding="utf-8"?>
<!-- Generator: Adobe Illustrator 25.2.1, SVG Export Plug-In . SVG Version: 6.00 Build 0)  -->
<svg version="1.1" id="Layer_1" xmlns="http://www.w3.org/2000/svg" xmlns:xlink="http://www.w3.org/1999/xlink" x="0px" y="0px"
	 viewBox="0 0 512 512" style="enable-background:new 0 0 512 512;" xml:space="preserve">
<style type="text/css">
	.st0{display:none;}
	.st1{display:inline;fill:#4E84C4;}
</style>
<g class="st0">
	<path class="st1" d="M181.3,32v29.9h59.7v89.6h-29.9v29.9h89.6v-29.9h-29.9V61.9h59.7V32H181.3z"/>
	<path class="st1" d="M330.7,480v-29.9h-59.7v-89.6h29.9v-29.9h-89.6v29.9h29.9v89.6h-59.7V480H330.7z"/>
	<path class="st1" d="M480,330.7h-29.9v-59.7h-89.6v29.9h-29.9v-89.6h29.9v29.9h89.6v-59.7H480V330.7z"/>
	<path class="st1" d="M32,330.7h29.9v-59.7h89.6v29.9h29.9v-89.6h-29.9v29.9H61.9v-59.7H32V330.7z"/>
</g>
<path d="M191.8,128H224V64h-64V0h160v64h-64v64h32v64h-96.2V128z M320,448h-64v-96h32.2v-32H256h-32h-32v32h32v96h-64v32h160V448z
	 M128,256v32.2h32V256v-32v-32h-32v32H32v-64H0v160h32v-64H128z M352,224v-32.2h-32V224v32v32h32v-32h96v64h32V160h-32v64H352z"/>
</svg>
