<?xml version="1.0" encoding="utf-8"?>
<!-- Generator: Adobe Illustrator 14.0.0, SVG Export Plug-In . SVG Version: 6.00 Build 43363)  -->
<!DOCTYPE svg PUBLIC "-//W3C//DTD SVG 1.1//EN" "http://www.w3.org/Graphics/SVG/1.1/DTD/svg11.dtd">
<svg version="1.1" id="Layer_1" xmlns="http://www.w3.org/2000/svg" xmlns:xlink="http://www.w3.org/1999/xlink" x="0px" y="0px"
	 width="16px" height="16px" viewBox="0 0 16 16" enable-background="new 0 0 16 16" xml:space="preserve">
<g>
	<path d="M10,1H4v6H2v5h2v2h10V5L10,1z M3.977,9.891v1.031h-0.57V8.078h1.133c0.327,0,0.584,0.083,0.771,0.25
		s0.281,0.386,0.281,0.658S5.498,9.478,5.311,9.643S4.866,9.891,4.539,9.891H3.977z M5,13v-1h7V7H5V2h5v3h3v8H5z M6.012,10.922
		V8.078h0.977c0.348,0,0.634,0.111,0.859,0.333s0.338,0.507,0.338,0.854v0.471c0,0.349-0.112,0.634-0.338,0.854
		s-0.512,0.331-0.859,0.331H6.012z M10.395,9.301V9.74H9.203v1.182h-0.57V8.078h1.961v0.439H9.203v0.783H10.395z"/>
	<path d="M6.959,8.518H6.582v1.965h0.377c0.204,0,0.364-0.069,0.48-0.207s0.174-0.317,0.174-0.54V9.261
		c0-0.22-0.058-0.398-0.174-0.536S7.163,8.518,6.959,8.518z"/>
	<path d="M4.9,9.321C4.982,9.234,5.023,9.124,5.023,8.99c0-0.137-0.041-0.25-0.122-0.339S4.699,8.518,4.539,8.518H3.977v0.934h0.563
		C4.698,9.451,4.818,9.408,4.9,9.321z"/>
</g>
</svg>
