<?xml version="1.0" encoding="utf-8"?>
<!-- Generator: Adobe Illustrator 14.0.0, SVG Export Plug-In . SVG Version: 6.00 Build 43363)  -->
<!DOCTYPE svg PUBLIC "-//W3C//DTD SVG 1.1//EN" "http://www.w3.org/Graphics/SVG/1.1/DTD/svg11.dtd">
<svg version="1.1" id="Layer_1" xmlns="http://www.w3.org/2000/svg" xmlns:xlink="http://www.w3.org/1999/xlink" x="0px" y="0px"
	 width="16px" height="16px" viewBox="0 0 16 16" enable-background="new 0 0 16 16" xml:space="preserve">
<path d="M10,1H4v6H2v5h2v2h10V5L10,1z M3.512,8.078h0.66l0.525,1.008L5.23,8.078h0.664l-0.844,1.41l0.893,1.434H5.254L4.705,9.896
	l-0.549,1.025H3.49l0.865-1.434L3.512,8.078z M5,13v-1h7V7H5V2h5v3h3v8H5z M8.076,10.482v0.439H6.24V8.078h0.57v2.404H8.076z
	 M9.823,9.916C9.746,9.85,9.61,9.787,9.416,9.729C9.077,9.631,8.821,9.516,8.648,9.381s-0.26-0.318-0.26-0.551
	c0-0.233,0.1-0.423,0.298-0.571s0.452-0.222,0.761-0.222c0.313,0,0.567,0.083,0.764,0.249s0.292,0.371,0.285,0.614l-0.004,0.012
	H9.939c0-0.131-0.044-0.238-0.132-0.319s-0.211-0.122-0.37-0.122c-0.152,0-0.271,0.034-0.354,0.102s-0.125,0.154-0.125,0.26
	c0,0.096,0.045,0.176,0.134,0.237s0.243,0.128,0.462,0.196c0.313,0.088,0.552,0.203,0.713,0.346s0.242,0.332,0.242,0.564
	c0,0.244-0.096,0.436-0.288,0.576s-0.445,0.211-0.761,0.211c-0.31,0-0.58-0.08-0.811-0.239s-0.343-0.384-0.336-0.671l0.004-0.012
	h0.555c0,0.17,0.052,0.293,0.155,0.372s0.248,0.118,0.433,0.118c0.155,0,0.273-0.031,0.355-0.096s0.123-0.148,0.123-0.256
	C9.939,10.07,9.9,9.982,9.823,9.916z"/>
</svg>
