<?xml version="1.0" encoding="utf-8"?>
<!-- Generator: Adobe Illustrator 24.2.0, SVG Export Plug-In . SVG Version: 6.00 Build 0)  -->
<svg version="1.1" id="Layer_1" xmlns="http://www.w3.org/2000/svg" xmlns:xlink="http://www.w3.org/1999/xlink" x="0px" y="0px"
	 width="512px" height="512px" viewBox="0 0 512 512" xml:space="preserve">
<path d="M448,125.6c0,0.1,0,0.2,0,0.3c-0.5,33.9-86.3,61.3-192,61.3S64.5,159.8,64,125.9c0-0.1,0-0.2,0-0.3c0-34,86-61.6,192-61.6
	S448,91.6,448,125.6z M448,172c0,0,0,0.2,0,0.3c-0.5,33.9-86.3,61.3-192,61.3S64.5,206.2,64,172.3V172l1,86.8c0,0,0,0.4,0,0.5
	c0.5,33.7,85.8,61,191,61s190.5-27.3,191-61c0-0.1,0-0.5,0-0.5L448,172z M448,300c0,0,0,0.2,0,0.3c-0.5,33.9-86.3,61.3-192,61.3
	S64.5,334.2,64,300.3V300l1,86.8c0,0,0,0.4,0,0.5c0.5,33.7,85.8,61,191,61s190.5-27.3,191-61c0-0.1,0-0.5,0-0.5L448,300z"/>
</svg>
