<?xml version="1.0" encoding="utf-8"?>
<!-- Generator: Adobe Illustrator 24.2.0, SVG Export Plug-In . SVG Version: 6.00 Build 0)  -->
<svg version="1.1" id="Layer_1" xmlns="http://www.w3.org/2000/svg" xmlns:xlink="http://www.w3.org/1999/xlink" x="0px" y="0px"
	 width="512px" height="512px" viewBox="0 0 512 512" xml:space="preserve">
<path id="data_JSON" d="M415.9,93.6c0,0.1,0,0.2,0,0.3c-0.5,33.9-86.3,61.3-191.9,61.3S32.6,127.8,32.1,93.9c0-0.1,0-0.2,0-0.3
	C32.1,59.6,118,32,224,32S415.9,59.6,415.9,93.6z M415.9,140c0,0.1,0,0.2,0,0.3c-0.5,33.9-86.3,61.3-191.9,61.3S32.5,174.2,32,140.3
	V140l0.1,86.8c0,0.1,0,0.2,0,0.3c0.5,33.9,86.3,61.3,191.9,61.3s191.4-27.4,192-61.3c0-0.1,0-0.2,0-0.3L415.9,140z M416,320l-0.1-52
	c0,0.1,0,0.2,0,0.3c-0.3,21.7-35.7,40.8-88.9,51.7H416z M164.7,341.1h-23.6v62.4c0,16-5.4,24-16.2,24c-4.9,0.1-9.7-1.5-13.6-4.5
	v22.2c4.9,1.9,10.1,2.9,15.3,2.8c12.4,0,21.8-3.7,28.3-11.2s9.8-18.2,9.8-32.3V341.1z M196.4,446.5c5.4,1,10.9,1.5,16.4,1.5
	c5.4,0,10.7-0.5,16-1.6c4.7-0.9,9.2-2.7,13.3-5.3c3.8-2.4,6.8-5.8,9-9.7c2.2-4,3.3-8.9,3.3-14.8c0.1-3.8-0.6-7.6-1.9-11.2
	c-1.3-3.2-3.1-6.1-5.5-8.5c-2.6-2.6-5.4-4.9-8.6-6.7c-3.6-2.1-7.4-4-11.3-5.6c-3.1-1.3-5.8-2.5-8.3-3.7c-2.2-1-4.3-2.3-6.2-3.7
	c-1.6-1.1-2.9-2.4-4-4c-0.9-1.4-1.4-3-1.4-4.7c0-1.5,0.4-3.1,1.2-4.4c0.9-1.4,2.1-2.5,3.5-3.3c1.7-1,3.6-1.7,5.6-2.2
	c2.4-0.5,4.9-0.8,7.4-0.7c2.1,0,4.1,0.1,6.2,0.4c2.2,0.3,4.4,0.8,6.6,1.4c2.2,0.6,4.3,1.4,6.4,2.3c2,0.9,3.9,2,5.8,3.2v-21.9
	c-3.8-1.4-7.7-2.4-11.7-3c-4.8-0.7-9.7-1-14.5-1c-5.3,0-10.6,0.6-15.8,1.8c-4.7,1.1-9.1,3-13.1,5.6c-3.7,2.5-6.8,5.8-9,9.7
	c-2.3,4.3-3.4,9.2-3.3,14.1c-0.2,6.5,1.9,12.8,6,17.9c4,4.9,10.1,9.1,18.4,12.5c3.2,1.3,6.2,2.6,9,3.9c2.5,1.1,4.9,2.5,7.2,4
	c1.8,1.2,3.5,2.7,4.8,4.5c1.2,1.6,1.8,3.5,1.8,5.5c0,1.5-0.4,2.9-1.1,4.2c-0.8,1.4-2,2.5-3.3,3.4c-1.7,1-3.6,1.8-5.6,2.2
	c-2.6,0.6-5.2,0.8-7.8,0.8c-5.1,0-10.3-0.9-15.1-2.7c-5.1-1.8-9.7-4.5-13.8-8v23.4C187.1,444.3,191.7,445.8,196.4,446.5z
	 M353.7,432.8c9.6-10.1,14.4-23.4,14.4-39.9c0-16.1-4.6-29-13.9-38.8c-9.3-9.8-21.4-14.7-36.4-14.7c-15.9,0-28.6,5.1-38.2,15.4
	c-9.6,10.3-14.4,23.7-14.4,40.3c0,15.7,4.7,28.5,14.2,38.3s21.7,14.7,36.8,14.7C331.6,448,344.1,442.9,353.7,432.8z M336.2,368.8
	c4.6,6,6.9,14.5,7,25.4c0,10.4-2.4,18.6-7.2,24.5s-11.3,8.8-19.4,8.8c-7.5,0.2-14.6-3.2-19.2-9.1c-4.9-6.1-7.3-14.3-7.3-24.7
	c0-10.2,2.4-18.5,7.3-24.7s11.5-9.3,19.8-9.3C325.2,359.7,331.6,362.8,336.2,368.8L336.2,368.8z M480,341.1h-22.3v58.1
	c-0.1,4.8,0.1,9.6,0.6,14.4H458c-1.6-2.8-3.4-5.7-5.3-8.6L411,341.1h-25.5v105h22.3v-57.7c0-7.6-0.2-13.3-0.6-17h0.3
	c1.6,3,3.4,5.9,5.3,8.7l43.3,66H480V341.1z M96,313.9c-39-11.2-63.7-27.5-64-45.6c0-0.1,0-0.2,0-0.3l0.1,86.8c0,0.1,0,0.2,0,0.3
	c0.3,18.1,24.9,34.3,63.9,45.6L96,313.9z"/>
</svg>
