<?xml version="1.0" encoding="utf-8"?>
<!-- Generator: Adobe Illustrator 24.2.0, SVG Export Plug-In . SVG Version: 6.00 Build 0)  -->
<svg version="1.1" id="Layer_1" xmlns="http://www.w3.org/2000/svg" xmlns:xlink="http://www.w3.org/1999/xlink" x="0px" y="0px"
	 width="512px" height="512px" viewBox="0 0 512 512" xml:space="preserve">
<path id="data_WEB" d="M415.9,93.6c0,0.1,0,0.2,0,0.3c-0.5,33.9-86.3,61.3-191.9,61.3S32.6,127.8,32.1,93.9c0-0.1,0-0.2,0-0.3
	C32.1,59.6,118,32,224,32S415.9,59.6,415.9,93.6z M415.9,140c0,0.1,0,0.2,0,0.3c-0.5,33.9-86.3,61.3-191.9,61.3S32.5,174.2,32,140.3
	V140l0.1,86.8c0,0.1,0,0.2,0,0.3c0.5,33.9,86.3,61.3,191.9,61.3s191.4-27.4,192-61.3c0-0.1,0-0.2,0-0.3L415.9,140z M416,320l-0.1-52
	c0,0.1,0,0.2,0,0.3c-0.3,21.7-35.7,40.8-88.9,51.7H416z M264.9,343l-14.5,70.1c-0.8,3.9-1.3,7.8-1.5,11.7h-0.3
	c-0.3-3.8-0.9-7.6-1.7-11.3L229.6,343h-25.3l-19.1,69.6c-1.1,4-1.9,8.1-2.1,12.3h-0.4c-0.2-4-0.6-8-1.4-12l-14.8-70h-25.8l27.6,105
	h27.3l17.9-67.4c1-3.9,1.6-7.8,1.9-11.8h0.3c0.1,4,0.7,7.9,1.7,11.8l17.4,67.4H261l27.8-105H264.9z M374.7,428.8h-39.3v-24h34.4
	v-19.2h-34.4v-23.4h36.9V343h-60.6v105h63L374.7,428.8z M441.5,448c11.9,0,21.3-2.8,28.2-8.5c6.9-5.6,10.3-13.3,10.3-22.9
	c0.1-6.3-2.3-12.3-6.7-16.8c-4.5-4.6-10.4-7.3-17.9-8.3v-0.3c5.6-1.5,10.8-4.5,14.7-8.9c3.8-4,5.8-9.4,5.8-14.9
	c0-7.8-3.2-13.9-9.5-18.2c-6.3-4.3-15.3-6.5-27-6.5h-38.3v105H441.5z M433.6,360.4c11.5,0,17.3,3.9,17.3,11.6
	c0.2,3.7-1.4,7.3-4.2,9.8c-2.8,2.4-6.6,3.6-11.5,3.5h-10.4v-24.9H433.6z M437.7,402.9c5.5,0,9.7,1.2,12.8,3.6c3,2.4,4.7,6,4.6,9.9
	c0.2,4-1.5,7.9-4.6,10.4c-3.1,2.5-7.4,3.8-12.9,3.8h-12.8v-27.7H437.7z M96,313.9c-39-11.2-63.7-27.5-64-45.6V268l0.1,86.8
	c0,0.1,0,0.2,0,0.3c0.3,18.1,24.9,34.3,63.9,45.6L96,313.9z"/>
</svg>
