<?xml version="1.0" encoding="utf-8"?>
<!-- Generator: Adobe Illustrator 24.2.0, SVG Export Plug-In . SVG Version: 6.00 Build 0)  -->
<svg version="1.1" id="Layer_1" xmlns="http://www.w3.org/2000/svg" xmlns:xlink="http://www.w3.org/1999/xlink" x="0px" y="0px"
	 width="512px" height="512px" viewBox="0 0 512 512" xml:space="preserve">
<path d="M352,191.3V237c-21,0.2-46.6-3.2-69.6,45c10.4,0,37.6,0,37.6,0v45h-47.9c0,0-37.4,91.1-111.9,90.1c-0.6-10,0-30.8,0-45
	c49.3-7.6,65.4-62.1,76.8-89.4c26.5-82.8,73.9-92,93.4-92.1C336,190.6,352,191.3,352,191.3z M448,128v320c0,17.7-14.3,32-32,32H96
	c-17.7,0-32-14.3-32-32V64c0-17.7,14.3-32,32-32h256L448,128z M416,160h-96V64H96v384h320V160z"/>
</svg>
