<?xml version="1.0" encoding="utf-8"?>
<!-- Generator: Adobe Illustrator 24.2.0, SVG Export Plug-In . SVG Version: 6.00 Build 0)  -->
<svg version="1.1" id="Layer_1" xmlns="http://www.w3.org/2000/svg" xmlns:xlink="http://www.w3.org/1999/xlink" x="0px" y="0px"
	 width="512px" height="512px" viewBox="0 0 512 512" xml:space="preserve">
<path d="M298.7,385.2c0,0-26.5-97.2-85.6-97.2s-85,128-85,128h256c0,0-11.9-78.7-42.7-78.7S298.7,385.2,298.7,385.2z M352,32H96
	c-17.7,0-32,14.3-32,32v384c0,17.7,14.3,32,32,32h320c17.7,0,32-14.3,32-32V128L352,32z M416,448H96V64h224v96h96V448z M288,256
	c0,17.7,14.3,32,32,32s32-14.3,32-32s-14.3-32-32-32S288,238.3,288,256z"/>
</svg>
