<?xml version="1.0" encoding="utf-8"?>
<!-- Generator: Adobe Illustrator 24.2.0, SVG Export Plug-In . SVG Version: 6.00 Build 0)  -->
<svg version="1.1" id="Layer_1" xmlns="http://www.w3.org/2000/svg" xmlns:xlink="http://www.w3.org/1999/xlink" x="0px" y="0px"
	 width="512px" height="512px" viewBox="0 0 512 512" xml:space="preserve">
<path d="M192,192l-32,32h32v192h49v-80h25.6c16.4,0,29.1-1.5,38.2-4.4c14.4-4.5,25.9-12.9,34.4-25.4s12.8-26.6,12.8-42.6
	c0-15.8-4-29.5-12-41.1s-18.8-20.1-32.4-25.4c-10.3-3.7-24.4-5.5-42-5.5 M241,225h20.1c11.2,0.3,20.2,2.1,26.9,5.6
	c12.1,6.4,23.3,17.6,23.3,33.5c0,17.3-11.9,29-25.2,35c-6.7,2.9-15.1,4.4-25.2,3.9H241v-77.7V225z M352,32H96c-17.7,0-32,14.3-32,32
	v384c0,17.7,14.3,32,32,32h320c17.7,0,32-14.3,32-32V128L352,32z M416,448H96V64h224v96h96V448z"/>
</svg>
