<?xml version="1.0" encoding="utf-8"?>
<!-- Generator: Adobe Illustrator 24.2.0, SVG Export Plug-In . SVG Version: 6.00 Build 0)  -->
<svg version="1.1" id="Layer_1" xmlns="http://www.w3.org/2000/svg" xmlns:xlink="http://www.w3.org/1999/xlink" x="0px" y="0px"
	 width="512px" height="512px" viewBox="0 0 512 512" xml:space="preserve">
<path d="M256.1,322.7c3.7,0,7.2-1.1,10.1-3s5.2-4.5,6.7-7.6c1.2-2.5,1.9-5.2,1.9-8.1c0-10.3-8.4-18.7-18.7-18.7
	c-2.8,0-5.4,0.6-7.7,1.7c-3.4,1.6-6.3,4.1-8.3,7.3c-1.7,2.8-2.7,6.1-2.7,9.7C237.4,314.4,245.7,322.7,256.1,322.7z M203.6,204.9
	c-19.1,10.1-34.9,25.5-45.4,44.4c-9,16.1-14.1,34.7-14.1,54.4c0,61.7,50,111.7,111.7,111.7c20,0,38.8-5.3,55.1-14.5
	c18.6-10.6,33.9-26.4,43.9-45.4c8.1-15.5,12.7-33.1,12.7-51.8c0-61.7-50-111.7-111.7-111.7C236.9,192,219.1,196.7,203.6,204.9z
	 M293.4,304.1c0,6.1-1.4,11.8-4,16.9l48.7,25.8c-8.3,15.8-20.9,28.9-36.3,37.7l-26.6-48.3c-5.6,3.3-12.1,5.3-19.1,5.3
	c-20.6,0-37.4-16.7-37.4-37.4c0-6.8,1.8-13.2,5-18.7l-49.2-27.1c8.8-15.7,22-28.6,38-37l26.8,49.3c5-2.5,10.7-3.9,16.7-3.9
	C276.7,266.7,293.4,283.4,293.4,304.1z M352,32H96c-17.7,0-32,14.3-32,32v384c0,17.7,14.3,32,32,32h320c17.7,0,32-14.3,32-32V128
	L352,32z M416,448H96V64h224v96h96V448z"/>
</svg>
