<?xml version="1.0" encoding="utf-8"?>
<!-- Generator: Adobe Illustrator 24.2.0, SVG Export Plug-In . SVG Version: 6.00 Build 0)  -->
<svg version="1.1" id="Layer_1" xmlns="http://www.w3.org/2000/svg" xmlns:xlink="http://www.w3.org/1999/xlink" x="0px" y="0px"
	 width="512px" height="512px" viewBox="0 0 512 512" xml:space="preserve">
<path d="M352,32H96c-17.7,0-32,14.3-32,32v384c0,17.7,14.3,32,32,32h320c17.7,0,32-14.3,32-32V128L352,32z M416,448H96V64h224v96h96
	V448z M383.6,192l-6.9,32l-41.6,192h-46.7l-32.8-132.5L222.9,416h-46.7l-48.6-224l0,0h47.8l24.8,139.2L233.3,192h44.5l33.1,139.2
	L330.1,224H311v-32H383.6L383.6,192z"/>
</svg>
