<?xml version="1.0" encoding="utf-8"?>
<!-- Generator: Adobe Illustrator 19.2.1, SVG Export Plug-In . SVG Version: 6.00 Build 0)  -->
<svg version="1.1" id="Layer_1" xmlns="http://www.w3.org/2000/svg" xmlns:xlink="http://www.w3.org/1999/xlink" x="0px" y="0px"
	 width="512px" height="512px" viewBox="0 0 512 512" xml:space="preserve">
<path d="M240.9,160c-7.6,0-13.8,4-15.4,9.9c-4.9,18.6,0.2,46.3,9.4,82.3l-2.4,5.9c-6.6,16.4-14.8,33-22.1,47.6l-1,1.9
	c-7.7,15.3-14.6,28.4-21,39.4l-6.5,3.5c-0.5,0.3-11.6,6.3-14.3,7.9c-22.2,13.6-36.9,28.9-39.4,41.2c-0.8,3.9-0.2,8.9,3.7,11.2
	l6.3,3.2c2.7,1.4,5.6,2.1,8.6,2.1c15.8,0,34.2-20.2,59.5-65.3c29.2-9.7,62.5-17.8,91.6-22.3c22.2,12.8,49.5,21.7,66.8,21.7
	c3.1,0,5.7-0.3,7.8-0.9c3.3-0.9,6.1-2.8,7.8-5.4c3.4-5.2,4-12.2,3.1-19.5c-0.3-2.1-2-4.8-3.8-6.6c-5.1-5.2-16.5-7.9-33.7-8.1
	c-11.7-0.1-25.8,0.9-40.6,3c-6.6-3.9-13.5-8.2-18.8-13.3c-14.4-13.8-26.5-32.9-34-53.9c0.5-2,0.9-3.7,1.3-5.4c0,0,8.1-47.1,6-63.1
	c-0.3-2.2-0.5-2.8-1.1-4.5l-0.7-1.9c-2.2-5.2-6.5-10.7-13.3-10.4L240.9,160z M243.6,168.4c5.1,0,8,13.1,8.2,25.4
	c0.3,12.3-2.6,20.9-6,27.3c-2.9-9.4-4.3-24.3-4.3-34C241.4,187,241.2,168.4,243.6,168.4L243.6,168.4z M244,272.5
	c8.6,16,19.3,29.5,31.9,40.4c1.6,1.3,3.2,2.7,5,4.1c-25.6,5.2-47.7,11.5-67.1,19.1c3.6-6.5,7.2-13.3,11-20.6
	C233.9,297.8,239.7,283.9,244,272.5z M346.2,324.1c9.3,0,12,0,21.1,2.3c9.1,2.4,9.2,7.2,7.6,8.2c-1.6,1-6,1.6-8.9,1.6
	c-9.2,0-20.7-4.3-36.8-11.4C335.5,324.4,341.1,324.1,346.2,324.1L346.2,324.1z M180.8,359.9c-17.7,28.8-29.5,40.3-37.3,43.8
	c2.9-8.1,14.3-24,31.2-38.1C175.8,364.7,178.4,362.2,180.8,359.9z M352,32H96c-17.7,0-32,14.3-32,32v384c0,17.7,14.3,32,32,32h320
	c17.7,0,32-14.3,32-32V128L352,32z M416,448H96V64h224v96h96V448z"/>
</svg>
