<?xml version="1.0" encoding="utf-8"?>
<!-- Generator: Adobe Illustrator 24.2.0, SVG Export Plug-In . SVG Version: 6.00 Build 0)  -->
<svg version="1.1" id="Layer_1" xmlns="http://www.w3.org/2000/svg" xmlns:xlink="http://www.w3.org/1999/xlink" x="0px" y="0px"
	 width="512px" height="512px" viewBox="0 0 512 512" xml:space="preserve">
<path d="M64,96c-17.7,0-32,14.3-32,32v256c0,17.7,14.3,32,32,32h384c17.7,0,32-14.3,32-32V128c0-17.7-14.3-32-32-32H64z M448,384H64
	V128h384V384z M207,212h-39v114h-32V212H96v-26h111V212z M303.8,175l-68.1,163h-27.5l67.9-163H303.8z M416,212h-49v34h45v26h-45v54
	h-32V186h81V212z"/>
</svg>
