<?xml version="1.0" encoding="utf-8"?>
<!-- Generator: Adobe Illustrator 24.2.0, SVG Export Plug-In . SVG Version: 6.00 Build 0)  -->
<svg version="1.1" id="Layer_1" xmlns="http://www.w3.org/2000/svg" xmlns:xlink="http://www.w3.org/1999/xlink" x="0px" y="0px"
	 width="512px" height="512px" viewBox="0 0 512 512" xml:space="preserve">
<path d="M64,96c-17.7,0-32,14.3-32,32v256c0,17.7,14.3,32,32,32h384c17.7,0,32-14.3,32-32V128c0-17.7-14.3-32-32-32H64z M448,384H64
	V128h384V384z M185.4,326H96.8v-24.4h29v-87.2L96,220.8v-25l60.6-12.2v118h28.8V326z M244.6,299.8v0.6h56.8V326h-92.2v-24l40.1-38.4
	c8.1-7.7,13.7-14.2,17-19.5c3.2-4.9,4.9-10.7,4.9-16.6c0-12.9-6.9-19.3-20.8-19.3c-12,0-23.6,4.8-34.6,14.4v-27.2
	c12.2-7.9,25.9-11.8,41.2-11.8c14.3,0,25.5,3.6,33.5,10.8c8,7.2,12.1,16.9,12.1,29.1c0,16.3-9.8,33.2-29.4,50.7L244.6,299.8z
	 M326.7,321.4v-26.9c9.4,6.8,20.3,10.3,32.8,10.3c7.9,0,14-1.7,18.4-5.1c4.4-3.4,6.6-8.1,6.6-14.2c0-6.2-2.7-11.1-8.1-14.5
	c-5.4-3.4-12.9-5.1-22.4-5.1h-12.6v-23.6H353c18.2,0,27.4-6.1,27.4-18.2c0-11.4-7-17.1-21-17.1c-9.4,0-18.5,3-27.3,9.1V191
	c9.8-4.9,21.3-7.4,34.4-7.4c14.3,0,25.5,3.2,33.5,9.7c7.8,6,12.2,15.3,12,25.1c0,18.3-9.3,29.8-27.8,34.4v0.5
	c9.9,1.2,17.7,4.8,23.4,10.8c5.7,5.9,8.8,13.8,8.6,21.9c0,13.1-4.8,23.4-14.4,31.1s-22.8,11.4-39.6,11.4
	C347.5,328.4,335.8,326.1,326.7,321.4L326.7,321.4z"/>
</svg>
