<?xml version="1.0" encoding="utf-8"?>
<!-- Generator: Adobe Illustrator 24.2.0, SVG Export Plug-In . SVG Version: 6.00 Build 0)  -->
<svg version="1.1" id="Layer_1" xmlns="http://www.w3.org/2000/svg" xmlns:xlink="http://www.w3.org/1999/xlink" x="0px" y="0px"
	 width="512px" height="512px" viewBox="0 0 512 512" xml:space="preserve">
<path d="M127.3,328.9c13.2,0,23.1-5.6,29.8-16.8h0.4v14.4h29.2v-59.8c0-28.5-14.3-42.7-42.8-42.7c-6.9,0.1-13.7,0.9-20.4,2.5
	c-7.4,1.7-13.3,3.6-17.6,5.9v23.2c10.8-7.1,22.1-10.6,34-10.6s17.8,5.5,17.8,16.4l-27.2,3.6c-23,3-34.5,14.2-34.5,33.6
	c0,9.2,2.8,16.5,8.3,22S117.5,328.9,127.3,328.9z M139.5,281.4l18.2-2.3v6.7c0,6.1-1.8,11.2-5.5,15.2c-3.6,4-8.8,6.2-14.2,6
	c-4.2,0-7.5-1.1-9.9-3.4c-2.4-2.2-3.8-5.4-3.7-8.6C124.4,287.3,129.4,282.7,139.5,281.4z M348.5,314.9c-9.5-9.3-14.3-21.3-14.3-36
	c0-17,5.1-30.4,15.3-40.2c10.2-9.8,23.8-14.7,40.9-14.7c11.8,0,20.3,1.6,25.6,4.7v26.2c-6.2-4.7-13.8-7.3-21.6-7.2
	c-8.9,0-15.9,2.6-21,7.8c-5.2,5.2-7.8,12.3-7.8,21.4c0,8.9,2.5,15.8,7.4,20.9c4.9,5,11.8,7.6,20.4,7.6c7.7,0,15.2-2.4,22.6-7.3v24.8
	c-7,4-17,6-30.2,6C370.5,328.9,358,324.2,348.5,314.9L348.5,314.9z M244.5,315.4h0.4c6.3,9.4,15.6,14.1,27.9,14.1
	c13.6,0,24.5-5,32.6-15.1c8.1-10.1,12.2-23.5,12.2-40.1c0-15.3-3.5-27.4-10.5-36.3s-16.9-13.3-29.8-13.3c-14.1,0-24.9,5.8-32.5,17.5
	h-0.4V179h-30.9v148h30.9L244.5,315.4z M244,273.2c0-7.4,2-13.4,6.1-18.1c3.8-4.5,9.5-7.1,15.4-6.9c6.6,0,11.6,2.3,15.2,7
	c3.5,4.7,5.3,11.1,5.3,19.4c0,10-1.9,17.7-5.8,23.1c-3.9,5.4-9.3,8.2-16.4,8.2c-5.5,0.1-10.7-2.2-14.3-6.4c-3.7-4.2-5.6-9.6-5.6-16
	L244,273.2z M448,96H64c-17.7,0-32,14.3-32,32v256c0,17.7,14.3,32,32,32h384c17.7,0,32-14.3,32-32V128C480,110.3,465.7,96,448,96z
	 M448,384H64V128h384V384z"/>
</svg>
