<?xml version="1.0" encoding="utf-8"?>
<!-- Generator: Adobe Illustrator 24.2.0, SVG Export Plug-In . SVG Version: 6.00 Build 0)  -->
<svg version="1.1" id="Layer_1" xmlns="http://www.w3.org/2000/svg" xmlns:xlink="http://www.w3.org/1999/xlink" x="0px" y="0px"
	 width="512px" height="512px" viewBox="0 0 512 512" xml:space="preserve">
<path d="M448,480c0,17.7-14.3,32-32,32H128c-17.7,0-32-14.3-32-32v-96h32v96h288V96H128v64H96V96c0-17.7,14.3-32,32-32h288
	c17.7,0,32,14.3,32,32V480z M63.9,32l254.3-0.2L286.4,0L63.8,0.2C46.2,0.2,32,14.4,32,32l0,0l0.1,128H64L63.9,32z M64,383H32v32
	c0,17.7,14.3,32,32,32l0,0V383z M32,320.1c0,0,32-32.1,63-32.1v32l65-48.1L96,224v32C63.9,256,32,288.1,32,320.1z M352,384l-160,0.1
	V416l160-0.1V384z M256,192c-35.3,0-64,28.7-64,64s28.7,64,64,64s64-28.7,64-64h-64V192z M288,160v64h64
	C352,188.7,323.3,160,288,160z"/>
</svg>
