<?xml version="1.0" encoding="utf-8"?>
<!-- Generator: Adobe Illustrator 26.0.2, SVG Export Plug-In . SVG Version: 6.00 Build 0)  -->
<svg version="1.1" id="Layer_1" xmlns="http://www.w3.org/2000/svg" xmlns:xlink="http://www.w3.org/1999/xlink" x="0px" y="0px"
	 width="512px" height="512px" viewBox="0 0 512 512" enable-background="new 0 0 512 512" xml:space="preserve">
<g>
	<path d="M136,100.2c-57.4,0-104,46.6-104,104c0,57.4,46.6,104,104,104c20.1,0,38.9-5.7,54.8-15.6c-14.2,30.5-37.4,55.2-69.2,73.7
		c-44,25.6-89.1,29.6-89.6,29.6l1.3,15.9l1.3,15.9c2.1-0.2,51.8-4.4,102-33.2c47.1-27,103.3-81.3,103.3-186.1h0
		c0.1-1.4,0.1-2.8,0.1-4.3C240,146.8,193.4,100.2,136,100.2z"/>
	<path d="M480,204.2c0-57.4-46.6-104-104-104s-104,46.6-104,104c0,57.4,46.6,104,104,104c20.1,0,38.9-5.7,54.8-15.6
		c-14.2,30.5-37.4,55.2-69.2,73.7c-44,25.6-89.1,29.6-89.6,29.6l2.6,31.9c2.1-0.2,51.8-4.4,102-33.2c47.1-27,103.3-81.3,103.3-186.1
		h0C480,207.1,480,205.7,480,204.2z"/>
</g>
</svg>
