<?xml version="1.0" encoding="utf-8"?>
<!-- Generator: Adobe Illustrator 24.2.0, SVG Export Plug-In . SVG Version: 6.00 Build 0)  -->
<svg version="1.1" id="Layer_1" xmlns="http://www.w3.org/2000/svg" xmlns:xlink="http://www.w3.org/1999/xlink" x="0px" y="0px"
	 width="512px" height="512px" viewBox="0 0 512 512" xml:space="preserve">
<path d="M128,96h115.8c25.3,0,44.2,1.1,56.6,3.2c12.4,2.1,23.6,6.5,33.4,13.2c9.8,6.7,18,15.6,24.6,26.7c6.6,11.1,9.8,23.6,9.8,37.4
	c0,15-4.1,28.7-12.1,41.2c-8.1,12.5-19.1,21.9-32.9,28.2c19.5,5.7,34.5,15.4,45,29c10.5,13.6,15.7,29.8,15.7,48.2
	c0,14.6-3.4,28.7-10.2,42.4c-6.7,13.8-16,24.8-27.7,33c-11.7,8.2-26.1,13.3-43.3,15.2c-10.8,1.2-36.7,1.9-78,2.2H128V96L128,96z
	 M192,149v74h30.9c25.2,0,40.8-0.4,46.9-1.1c11.1-1.3,19.7-5.2,26.1-11.5c6.3-6.3,9.5-14.7,9.5-25c0-9.9-2.7-18-8.2-24.1
	c-5.5-6.2-13.6-10-24.4-11.2c-6.4-0.7-24.8-1.1-55.2-1.1L192,149z M192,276.1V362h48.6c23.4,0,38.1-0.7,44.5-2
	c9.6-1.8,17.5-6,23.6-12.8c6.1-6.8,9-15.9,9-27.3c0-9.6-2.3-17.9-7-24.6c-4.7-6.7-11.4-11.6-20.3-14.7c-8.8-3.1-28-4.6-57.5-4.6
	L192,276.1z"/>
</svg>
