<?xml version="1.0" encoding="utf-8"?>
<!-- Generator: Adobe Illustrator 19.2.1, SVG Export Plug-In . SVG Version: 6.00 Build 0)  -->
<svg version="1.1" id="Layer_1" xmlns="http://www.w3.org/2000/svg" xmlns:xlink="http://www.w3.org/1999/xlink" x="0px" y="0px"
	 width="512px" height="512px" viewBox="0 0 512 512" xml:space="preserve">
<path d="M256,448h-32V32h32V448z M448,64V32h-32v32H448z M352,64V32h32v32H352z M288,64V32h32v32H288z M160,64V32h32v32H160z M96,64
	V32h32v32H96z M352,448v-32h32v32H352z M288,448v-32h32v32H288z M160,448v-32h32v32H160z M96,448v-32h32v32H96z M416,128V96h32v32
	H416z M416,192v-32h32v32H416z M416,256v-32h32v32H416z M352,256v-32h32v32H352z M288,256v-32h32v32H288z M160,256v-32h32v32H160z
	 M96,256v-32h32v32H96z M32,256v-32h32v32H32z M64,64V32H32v32H64z M32,128V96h32v32H32z M32,192v-32h32v32H32z M64,320v-32H32v32
	H64z M32,384v-32h32v32H32z M32,448v-32h32v32H32z M448,320v-32h-32v32H448z M416,384v-32h32v32H416z M416,448v-32h32v32H416z"/>
</svg>
