<?xml version="1.0" encoding="utf-8"?>
<!-- Generator: Adobe Illustrator 19.2.1, SVG Export Plug-In . SVG Version: 6.00 Build 0)  -->
<svg version="1.1" id="Layer_1" xmlns="http://www.w3.org/2000/svg" xmlns:xlink="http://www.w3.org/1999/xlink" x="0px" y="0px"
	 width="512px" height="512px" viewBox="0 0 512 512" xml:space="preserve">
<path d="M64,448h128v32H64H32v-32V64V32h32h384h32v32v96h-32V64H64V448z M448,448h-64v32h64h32v-32v-64h-32V448z M160,288v-64H96v64
	H160z M224,288h64v-64h-64V288z M384,256v-32h-32v32H384z M288,96h-64v64h64V96z M288,480L160,352l45-45l83,83l147-147l45,45
	L288,480z"/>
</svg>
