<?xml version="1.0" encoding="utf-8"?>
<!-- Generator: Adobe Illustrator 24.2.0, SVG Export Plug-In . SVG Version: 6.00 Build 0)  -->
<svg version="1.1" id="Layer_1" xmlns="http://www.w3.org/2000/svg" xmlns:xlink="http://www.w3.org/1999/xlink" x="0px" y="0px"
	 width="512px" height="512px" viewBox="0 0 512 512" xml:space="preserve">
<path d="M200.1,416H156v-36h-0.7c-13.8,24-34.1,36-60.8,36c-19.7,0-35.1-5.3-46.3-16c-11.1-10.7-16.7-24.9-16.7-42.5
	c0-37.8,21.7-59.9,65.3-66.2l59.4-8.4c0-28.6-13.5-42.8-40.7-42.8c-23.8,0-45.4,8.2-64.5,24.7V225c21.1-12.5,45.5-18.8,73.1-18.8
	c50.6,0,75.9,25,75.9,74.8v135H200.1z M157,313.1l-42,5.9c-13,1.7-22.8,4.9-29.4,9.5s-9.9,12.7-9.9,24.3c0,8.5,3,15.4,9.1,20.8
	s14.2,8.1,24.3,8.1c13.8,0,25.2-4.8,34.3-14.5c9-9.7,13.6-21.9,13.6-36.6V313.1z M432,416h48L376,96h-48L224,416h48l26-80h108
	L432,416z M313.6,288L352,169.8L390.4,288H313.6z"/>
</svg>
