<?xml version="1.0" encoding="utf-8"?>
<!-- Generator: Adobe Illustrator 24.2.0, SVG Export Plug-In . SVG Version: 6.00 Build 0)  -->
<svg version="1.1" id="Layer_1" xmlns="http://www.w3.org/2000/svg" xmlns:xlink="http://www.w3.org/1999/xlink" x="0px" y="0px"
	 width="512px" height="512px" viewBox="0 0 512 512" xml:space="preserve">
<path d="M96,480h160v32H64v-0.1v-32V448H32l0,0H0v-0.1v-32V288h32v128h32v-64h32V480z M128,448h96v-32h-96V448z M128,352v32h32v-32
	H128z M412.2,259.4L253.8,101c-12.4-12.4-32.9-12.4-45.3,0.1l-69.8,69.8l0,0c-0.1,0.1-0.1,0.1-0.2,0.2l0,0
	c-11.6,11.6-30,12.7-42.5,2.7l0,0l200.9,200.9c12.5,12.5,32.8,12.4,45.3,0l69.9-69.9C424.6,292.3,424.6,271.8,412.2,259.4z
	 M502.7,32L480,9.3c-12.4-12.4-32.8-12.4-45.3,0l-67.9,67.9l-22.6-22.6c-12.4-12.4-32.8-12.4-45.3,0l-22.6,22.6l158.4,158.4
	l22.6-22.6c12.4-12.4,12.4-32.8,0-45.3l-22.6-22.6l67.9-67.9C515.1,64.8,515.1,44.4,502.7,32z"/>
</svg>
