<?xml version="1.0" encoding="utf-8"?>
<!-- Generator: Adobe Illustrator 24.2.0, SVG Export Plug-In . SVG Version: 6.00 Build 0)  -->
<svg version="1.1" id="Layer_1" xmlns="http://www.w3.org/2000/svg" xmlns:xlink="http://www.w3.org/1999/xlink" x="0px" y="0px"
	 width="512px" height="512px" viewBox="0 0 512 512" xml:space="preserve">
<path d="M128,128v224H80V182.4c0,0-13.1,19.1-48,19.1c0-17.7,0-18.5,0-40.6c34.9,0,61.7-32.9,61.7-32.9L128,128L128,128z M222.4,312
	H320v40H169v-16.6c0.3-11.3,2.2-21.4,6-30.3c3.8-9,8.6-17,14.3-24.1s12-13.4,18.8-18.9s13.3-10.4,19.4-14.8c6.5-4.6,12.1-9,17-13.2
	s9-8.4,12.3-12.5s5.8-8.3,7.5-12.6c1.6-4.2,2.5-8.8,2.5-13.6c0-9.4-2.7-16.5-8-21.4c-5.3-4.8-13.5-7.2-24.4-7.2
	c-18.9,0-37.1,7.5-54.4,22.6v-42.7c19.2-12.4,40.8-18.6,64.8-18.6c11.2,0,21.2,1.5,30,4.4c8.9,2.9,16.4,7.1,22.5,12.5
	s10.8,12,14.1,19.7c3.2,7.7,4.8,16.4,4.8,25.9c0,10.1-1.6,19.2-4.7,27c-3.1,7.9-7.3,15.1-12.4,21.5c-5.2,6.5-11.1,12.4-17.9,17.7
	c-6.8,5.4-13.8,10.6-21,15.6c-4.9,3.5-9.7,6.9-14.2,10.4c-4.6,3.4-8.6,6.8-12.1,10.1c-3.5,3.3-6.2,6.6-8.3,9.8
	C223.4,305.8,222.4,312,222.4,312z M341,341.2v-41.7c0,0,32.1,15.8,51.5,15.8c12.2,0,21.8-2.6,28.6-7.9c6.8-5.3,10.2-12.5,10.2-21.9
	c0-9.7-4.2-17.1-12.7-22.3c-8.4-5.3-20-7.9-34.8-7.2H364v-37h17.7c28.4,0,42.6-9.4,42.6-28.1c0-17.6-10.9-26.4-32.7-26.4
	c-14.7,0-28.8,4.7-42.6,14v-38.9c15.4-7.7,33.1-11.5,53.6-11.5c22.3,0,39.6,5,52.1,14.9c12.4,10,18.7,22.9,18.7,38.8
	c0,28.3-14.5,46-43.4,53.2v0.3c15.5,1.9,27.6,7.5,36.5,16.8c8.9,9.2,13.3,20.6,13.3,34c0,20.3-7.4,36.4-22.4,48.2
	c-15,11.8-35.5,17.7-61.7,17.7C373.4,352.1,355.1,348.5,341,341.2z"/>
</svg>
