<?xml version="1.0" encoding="utf-8"?>
<!-- Generator: Adobe Illustrator 24.2.0, SVG Export Plug-In . SVG Version: 6.00 Build 0)  -->
<svg version="1.1" id="Layer_1" xmlns="http://www.w3.org/2000/svg" xmlns:xlink="http://www.w3.org/1999/xlink" x="0px" y="0px"
	 width="512px" height="512px" viewBox="0 0 512 512" xml:space="preserve">
<path d="M0,416v-6h7.1c7.9,0,13.6-3,16.9-9.1c2-3.6,3-11.8,3-24.5V231.6c0-14-1.3-22.8-3.9-26.3c-3.6-4.9-9-7.3-16.1-7.3H0v-6h77.6
	c28.5,0,50.2,3.8,65,11.4c14.9,7.6,26.8,20.3,35.8,38c9,17.7,13.6,38.2,13.6,61.5c0,31.2-8.1,57.2-24.2,78.1
	c-18.1,23.3-45.6,35-82.6,35H0z M54,399.8c11.9,3.1,21.9,4.6,29.9,4.6c21.7,0,39.8-9,54.1-26.9c14.3-17.9,21.5-42.3,21.5-73
	c0-30.9-7.2-55.3-21.5-73.2c-14.3-17.8-32.8-26.8-55.2-26.8c-8.4,0-18,1.6-28.8,4.8V399.8z M298,410v6h-83v-6h6.7
	c7.8,0,13.5-2.7,17-8.1c2.2-3.5,3.3-12,3.3-25.5V231.6c0-11.4-0.6-18.9-1.8-22.5c-0.9-2.8-2.8-5.1-5.7-7.1c-4.1-2.6-8.4-4-12.8-4
	H215v-6h83v6h-7c-7.9,0-13.7,2.7-17.4,8.1c-2.4,3.5-3.6,12-3.6,25.5v144.9c0,11.4,0.6,18.9,1.9,22.5c1,2.8,3,5.1,6,7.1
	c4.1,2.6,8.5,4,13.1,4H298z M512,192v6c-6.4,1.4-11.3,3.9-14.6,7.4c-4.7,5.3-8.9,13.4-12.6,24.2L421.6,416h-4.9l-67.9-188.8
	c-3.5-9.7-5.9-15.6-7.4-17.8c-2.2-3.3-5-5.9-8.2-7.8c-3.3-1.9-7.6-3.1-13.2-3.6v-6h74v6c-8.4,1-13.8,2.7-16.3,5.2
	c-2.5,2.5-3.7,5.7-3.7,9.5c0,5.4,2,13.8,6.1,25.2l46.1,128.4L469,239.5c4.2-12.5,6.3-21.2,6.3-26c0-3.1-1.3-6.1-3.9-9
	c-2.6-2.9-6.9-4.9-13.1-6.1c-0.4-0.1-1.2-0.3-2.3-0.5v-6H512z M512,96H0v32h512V96z"/>
</svg>
