<?xml version="1.0" encoding="utf-8"?>
<!-- Generator: Adobe Illustrator 24.2.0, SVG Export Plug-In . SVG Version: 6.00 Build 0)  -->
<svg version="1.1" id="Layer_1" xmlns="http://www.w3.org/2000/svg" xmlns:xlink="http://www.w3.org/1999/xlink" x="0px" y="0px"
	 width="512px" height="512px" viewBox="0 0 512 512" xml:space="preserve">
<path d="M326.6,273c-8.3-7.3-18.4-13.6-30.4-19.1c-11.8-5.4-25.2-10.2-40.2-14.5V131.3c6.5,0.8,13,2.2,17.7,4.2
	c7.5,3.3,13.7,7.8,18.8,13.7c5.1,5.8,8.9,12.7,11.4,20.7c2.6,8,3.8,16.7,3.8,26.2H352c0-29.2-7.5-52-22.5-68.8s-36-26.8-62.9-30.1
	c0,0-5-0.4-10.6-0.8V32h-32v66.2c-11.9,1.5-22.6,4.3-32.2,8.4c-10.6,4.5-19.6,10.3-27.1,17.5c-7.5,7.2-13.2,15.6-17.2,25.4
	c-4,9.7-6,20.5-6,32.2c0,12.7,2.2,23.8,6.7,33.4s11,18.2,19.5,25.6s18.8,13.8,30.9,19.3c7.8,3.5,16.3,6.8,25.4,9.7v110.7
	c-2.7-0.4-5.4-0.9-8.1-1.5c-7.9-1.8-15.2-5.1-21.7-9.8c-6.5-4.7-11.8-11-15.8-19c-4-8-6-18-6-30H128c0,16.2,2.6,30,7.9,41.6
	c5.3,11.6,12.4,21.2,21.3,28.6c8.9,7.5,19.1,13.3,30.6,17.3s23.4,6.5,35.7,7.5c0,0,0.2,0,0.5,0.1V480h32v-64.7
	c1.9-0.2,3.1-0.3,3.1-0.3c14.1-1.3,26.9-4.1,38.4-8.3c11.5-4.3,21.3-10,29.4-17.1c8.1-7.1,14.3-15.6,18.6-25.4
	c4.3-9.8,6.5-20.9,6.5-33.2c0-12.5-2.2-23.5-6.5-33C341.2,288.6,334.9,280.2,326.6,273z M221.9,226.8c-8.8-4.1-15.9-8.4-21.2-12.9
	s-9.1-9.6-11.3-15c-2.2-5.5-3.4-11.6-3.4-18.5c0-7.4,1.2-14.1,3.6-20.3c2.4-6.1,6-11.3,10.8-15.7c4.8-4.3,10.9-7.7,18.3-10.1
	c1.7-0.6,3.5-1,5.3-1.5v94.9C223.4,227.5,222.6,227.2,221.9,226.8z M302.9,352c-3,6.2-7.5,11.4-13.2,15.8c-5.8,4.3-12.8,7.7-21.2,10
	c-3.9,1.1-8.1,1.9-12.5,2.5V279.2c5.6,2,10.7,4.1,15.3,6.2c8.6,4,15.6,8.3,20.9,13c5.4,4.7,9.3,9.7,11.7,15.1
	c2.4,5.4,3.6,11.3,3.6,17.7C307.5,338.9,306,345.9,302.9,352z"/>
</svg>
