<?xml version="1.0" encoding="utf-8"?>
<!-- Generator: Adobe Illustrator 19.2.1, SVG Export Plug-In . SVG Version: 6.00 Build 0)  -->
<svg version="1.1" id="Layer_1" xmlns="http://www.w3.org/2000/svg" xmlns:xlink="http://www.w3.org/1999/xlink" x="0px" y="0px"
	 width="512px" height="512px" viewBox="0 0 512 512" xml:space="preserve">
<path d="M255.9,0C114.6,0,0,114.6,0,256.1C0,397.4,114.6,512,255.9,512C397.4,512,512,397.4,512,256.1C512,114.6,397.4,0,255.9,0z
	 M384,160c-30.1,0.3-48.4-4.6-81.2,64c14.9,0,49.2,0,49.2,0v64h-64c0,0-53.5,129.4-160,128c-0.8-14.2,0-43.9,0-64
	c70.5-10.7,93.6-88.3,109.9-126.9C286.3,74.5,384,95.1,384,95.1S384,144.5,384,160z"/>
</svg>
