<?xml version="1.0" encoding="utf-8"?>
<!-- Generator: Adobe Illustrator 24.2.0, SVG Export Plug-In . SVG Version: 6.00 Build 0)  -->
<svg version="1.1" id="Layer_1" xmlns="http://www.w3.org/2000/svg" xmlns:xlink="http://www.w3.org/1999/xlink" x="0px" y="0px"
	 width="512px" height="512px" viewBox="0 0 512 512" xml:space="preserve">
<path d="M128,288h96v-57c0-11.2-0.7-18.6-2.1-22.2c-1.1-2.7-3.3-5-6.8-7c-4.6-2.6-10.1-3.9-15.3-3.9H192v-6h96v6h-7.7
	c-5.1,0-10,1.2-14.5,3.7c-3.4,1.7-5.7,4.3-7,7.8c-1.2,3.5-1.8,10.7-1.8,28.3V384c0,4.3,0.7,11.6,2.1,15.2c1.1,2.7,3.2,5,6.6,7
	c4.7,2.6,9.6,3.9,14.7,3.9h7.7v6h-96v-6h7.7c9,0,16.2-2.6,20.3-7.9c2.7-3.5,4.1-11.8,4.1-24.9V304h-96v73.1c0,11.1,0.7,18.4,2.1,22
	c1.1,2.7,3.4,5,6.8,7c4.7,2.6,9.6,3.9,14.8,3.9h8.3v6H64v-6h7.8c9.1,0,16.2-2.6,20.3-7.9c2.6-3.5,3.9-11.8,3.9-18.1V237.9
	c0-18.1-0.7-25.5-2.1-29c-1.1-2.7-3.3-5-6.6-7c-4.8-2.6-10.3-3.9-15.5-3.9H64v-6h96v6h-8c-5.3,0-10.2,1.2-14.9,3.7
	c-3.4,1.7-5.7,4.3-7.1,7.8c-1.3,3.5-2,10.7-2,21.4L128,288L128,288z M323.6,237.4c6.4-14.5,14.5-25.7,24.3-33.6
	c9.8-7.9,22-11.9,36.6-11.9c18,0,31.9,5.6,41.5,16.9c7.3,8.4,11,17.3,11,26.9c0,15.7-10.3,31.9-30.9,48.7
	c13.8,5.2,24.3,12.6,31.4,22.3c7.1,9.7,10.6,21,10.6,34c0,18.7-6.2,34.8-18.6,48.5c-16.2,17.8-39.6,26.7-70.2,26.7
	c-15.2,0-25.5-1.8-31-5.4s-8.2-7.5-8.2-11.6c0-3.1,1.3-5.8,3.9-8.1c2.6-2.3,5.7-3.5,9.4-3.5c2.8,0,5.6,0.4,8.5,1.3
	c1.9,0.5,6.1,2.5,12.8,5.8c6.6,3.3,11.2,5.3,13.8,6c4.1,1.2,8.5,1.8,13.1,1.8c11.3,0,21.1-4.2,29.5-12.6s12.5-18.3,12.5-29.8
	c0-8.4-1.9-16.5-5.8-24.5c-2.9-5.9-6-10.4-9.5-13.5c-4.8-4.2-11.3-8.1-19.6-11.5s-16.8-5.2-25.4-5.2H358v-4.8
	c8.7-1.1,17.5-4.1,26.3-9.1c8.8-5,15.2-11,19.2-18s6-14.7,6-23.1c0-10.9-3.6-19.8-10.7-26.5s-16-10.1-26.6-10.1
	c-17.2,0-31.5,8.8-43,26.4L323.6,237.4z M512,96H0v32h512V96z"/>
</svg>
