<?xml version="1.0" encoding="utf-8"?>
<!-- Generator: Adobe Illustrator 24.2.0, SVG Export Plug-In . SVG Version: 6.00 Build 0)  -->
<svg version="1.1" id="Layer_1" xmlns="http://www.w3.org/2000/svg" xmlns:xlink="http://www.w3.org/1999/xlink" x="0px" y="0px"
	 width="512px" height="512px" viewBox="0 0 512 512" xml:space="preserve">
<path d="M128,288h96v-57c0-11.2-0.7-18.6-2.1-22.2c-1.1-2.7-3.3-5-6.8-7c-4.6-2.6-10.1-3.9-15.3-3.9H192v-6h96v6h-7.7
	c-5.1,0-10,1.2-14.5,3.7c-3.4,1.7-5.7,4.3-7,7.8c-1.2,3.5-1.8,10.7-1.8,28.3V384c0,4.3,0.7,11.6,2.1,15.2c1.1,2.7,3.2,5,6.6,7
	c4.7,2.6,9.6,3.9,14.7,3.9h7.7v6h-96v-6h7.7c9,0,16.2-2.6,20.3-7.9c2.7-3.5,4.1-11.8,4.1-24.9V304h-96v73.1c0,11.1,0.7,18.4,2.1,22
	c1.1,2.7,3.4,5,6.8,7c4.7,2.6,9.6,3.9,14.8,3.9h8.3v6H64v-6h7.8c9.1,0,16.2-2.6,20.3-7.9c2.6-3.5,3.9-11.8,3.9-18.1V237.9
	c0-18.1-0.7-25.5-2.1-29c-1.1-2.7-3.3-5-6.6-7c-4.8-2.6-10.3-3.9-15.5-3.9H64v-6h96v6h-8c-5.3,0-10.2,1.2-14.9,3.7
	c-3.4,1.7-5.7,4.3-7.1,7.8c-1.3,3.5-2,10.7-2,21.4L128,288L128,288z M448,192l-12.6,28h-66L355,249.1c28.6,4.2,51.2,14.9,68,32
	c14.3,14.7,21.5,32,21.5,51.9c0,11.6-2.3,22.3-7,32.1c-4.7,9.8-10.6,18.2-17.7,25.2c-7.1,6.9-15,12.5-23.8,16.7
	c-12.4,6-25.1,8.9-38.2,8.9c-13.2,0-22.7-2.2-28.7-6.7s-9-9.4-9-14.9c0-3,1.2-5.7,3.7-8c2.5-2.3,5.6-3.5,9.4-3.5
	c2.8,0,5.3,0.4,7.4,1.3c2.1,0.9,5.7,3.1,10.8,6.7c8.1,5.6,16.3,8.4,24.6,8.4c12.6,0,23.7-4.8,33.3-14.4s14.3-21.2,14.3-35
	c0-13.3-4.3-25.7-12.8-37.3c-8.5-11.5-20.3-20.4-35.3-26.7c-11.8-4.9-27.8-7.7-48.1-8.4l42.1-85.5H448z M512,96H0v32h512V96z"/>
</svg>
