<?xml version="1.0" encoding="utf-8"?>
<!-- Generator: Adobe Illustrator 24.2.0, SVG Export Plug-In . SVG Version: 6.00 Build 0)  -->
<svg version="1.1" id="Layer_1" xmlns="http://www.w3.org/2000/svg" xmlns:xlink="http://www.w3.org/1999/xlink" x="0px" y="0px"
	 width="512px" height="512px" viewBox="0 0 512 512" xml:space="preserve">
<path d="M128,288h96v-57c0-11.2-0.7-18.6-2.1-22.2c-1.1-2.7-3.3-5-6.8-7c-4.6-2.6-10.1-3.9-15.3-3.9H192v-6h96v6h-7.7
	c-5.1,0-10,1.2-14.5,3.7c-3.4,1.7-5.7,4.3-7,7.8c-1.2,3.5-1.8,10.7-1.8,28.3V384c0,4.3,0.7,11.6,2.1,15.2c1.1,2.7,3.2,5,6.6,7
	c4.7,2.6,9.6,3.9,14.7,3.9h7.7v6h-96v-6h7.7c9,0,16.2-2.6,20.3-7.9c2.7-3.5,4.1-11.8,4.1-24.9V304h-96v73.1c0,11.1,0.7,18.4,2.1,22
	c1.1,2.7,3.4,5,6.8,7c4.7,2.6,9.6,3.9,14.8,3.9h8.3v6H64v-6h7.8c9.1,0,16.2-2.6,20.3-7.9c2.6-3.5,3.9-11.8,3.9-18.1V237.9
	c0-18.1-0.7-25.5-2.1-29c-1.1-2.7-3.3-5-6.6-7c-4.8-2.6-10.3-3.9-15.5-3.9H64v-6h96v6h-8c-5.3,0-10.2,1.2-14.9,3.7
	c-3.4,1.7-5.7,4.3-7.1,7.8c-1.3,3.5-2,10.7-2,21.4L128,288L128,288z M444,192v5.9c-13.1,1.4-23.9,4.2-32.2,8.4s-16.5,10.6-24.6,19.2
	c-8.1,8.6-14.8,18.2-20.2,28.7c-5.3,10.6-9.8,23.1-13.4,37.6c14.3-10.5,28.7-15.8,43.2-15.8c13.8,0,25.8,5.9,36,17.8
	C443,305.7,448,321,448,339.6c0,18-5.1,34.5-15.4,49.3c-12.3,18-28.7,27-49,27c-13.8,0-25.6-4.9-35.2-14.6
	c-18.9-19-28.4-43.6-28.4-73.8c0-19.3,3.6-37.7,10.9-55s17.6-32.8,31.1-46.3s26.4-22.5,38.8-27.2s23.8-7,34.5-7H444z M351.1,303.4
	c-1.8,14.3-2.7,25.9-2.7,34.7c0,10.2,1.8,21.2,5.3,33.2c3.5,11.9,8.8,21.4,15.8,28.4c5.1,5,11.3,7.5,18.5,7.5
	c8.7,0,16.4-4.3,23.2-13c6.8-8.7,10.2-21.1,10.2-37.2c0-18.1-3.4-33.8-10.2-47.1s-16.4-19.9-28.8-19.9c-3.8,0-7.8,0.8-12.2,2.5
	C365.9,294.1,359.5,297.7,351.1,303.4z M512,96H0v32h512V96z"/>
</svg>
