<?xml version="1.0" encoding="utf-8"?>
<!-- Generator: Adobe Illustrator 24.2.0, SVG Export Plug-In . SVG Version: 6.00 Build 0)  -->
<svg version="1.1" id="Layer_1" xmlns="http://www.w3.org/2000/svg" xmlns:xlink="http://www.w3.org/1999/xlink" x="0px" y="0px"
	 width="512px" height="512px" viewBox="0 0 512 512" xml:space="preserve">
<path d="M448,64H64c-17.6,0-32,14.4-32,32v224v96c0,17.6,14.4,32,32,32h0.1H288h128h31.9h0.1c17.6,0,32-14.4,32-32v-96V96
	C480,78.4,465.6,64,448,64z M96,384H64v-32h32V384z M192,384h-64v-32h64V384z M288,384h-64v-32h64V384z M384,384h-64v-32h64V384z
	 M448,384h-32v-32h32V384z M447.9,336l-64-64l-80,80L176,224L64,336V192h32v-32H64V96.1c0,0,0,0,0.1-0.1H128v32h32V96h287.9
	c0,0,0,0,0.1,0.1L447.9,336z M352,208c0,26.5-21.5,48-48,48s-48-21.5-48-48s21.5-48,48-48S352,181.5,352,208z M128,160h32v32h-32
	V160z"/>
</svg>
