<?xml version="1.0" encoding="utf-8"?>
<!-- Generator: Adobe Illustrator 25.0.0, SVG Export Plug-In . SVG Version: 6.00 Build 0)  -->
<svg version="1.1" id="Layer_1" xmlns="http://www.w3.org/2000/svg" xmlns:xlink="http://www.w3.org/1999/xlink" x="0px" y="0px"
	 width="512px" height="512px" viewBox="0 0 512 512" enable-background="new 0 0 512 512" xml:space="preserve">
<path d="M32,32h32v128H32V32z M32,320h32V192H32V320z M96,320h32V192H96V320z M32,480h32V352H32V480z M96,480h32V352H96V480z
	 M160,480h32V352h-32V480z M128,96h352v32H128V96z M192,256h288v32H192V256z M256,416h224v32H256V416z M96,152c0,4.4-3.6,8-8,8
	s-8-3.6-8-8s3.6-8,8-8S96,147.6,96,152z M160,312c0,4.4-3.6,8-8,8s-8-3.6-8-8s3.6-8,8-8S160,307.6,160,312z M224,472
	c0,4.4-3.6,8-8,8s-8-3.6-8-8s3.6-8,8-8S224,467.6,224,472z"/>
</svg>
