<?xml version="1.0" encoding="utf-8"?>
<!-- Generator: Adobe Illustrator 26.0.1, SVG Export Plug-In . SVG Version: 6.00 Build 0)  -->
<svg version="1.1" id="Layer_1" xmlns="http://www.w3.org/2000/svg" xmlns:xlink="http://www.w3.org/1999/xlink" x="0px" y="0px"
	 viewBox="0 0 512 512" enable-background="new 0 0 512 512" xml:space="preserve">
<path d="M94.5,152c-1.1-1.9-2-4.8-2.8-8.6c-5.5,6.9-13.1,10.3-22.9,10.3c-9,0-16.7-2.7-22.9-8.2c-6.3-5.4-9.4-12.3-9.4-20.5
	c0-10.4,3.8-18.2,11.5-23.5c7.6-5.3,18.8-7.9,33.4-7.9h9.2v-5.1c0-8.8-3.8-13.2-11.4-13.2c-7.1,0-10.6,3.5-10.6,10.5H38.7
	c0-9.2,3.9-16.7,11.8-22.5s17.9-8.6,30.1-8.6s21.8,3,28.9,8.9c7.1,5.9,10.7,14.1,10.9,24.4v42.3c0.1,8.8,1.5,15.5,4.1,20.1v1.5
	L94.5,152L94.5,152z M75.9,132.6c3.7,0,6.8-0.8,9.2-2.4c2.4-1.6,4.2-3.4,5.3-5.4v-15.3h-8.6c-10.4,0-15.5,4.6-15.5,13.9
	c0,2.7,0.9,4.9,2.7,6.6C70.8,131.7,73.1,132.6,75.9,132.6z M129.4,280c0,15.7-3.2,27.7-9.7,36.1s-15.6,12.6-27.4,12.6
	c-9.7,0-17.5-3.9-23.5-11.6l-1.2,9.8H41V191.4h29.7v47.7c5.5-6.3,12.7-9.4,21.4-9.4c11.9,0,21.1,4.3,27.5,12.8
	c6.5,8.5,9.7,20.5,9.7,36L129.4,280L129.4,280z M99.6,278.1c0-9.2-1.2-15.7-3.7-19.6c-2.4-3.9-6.2-5.9-11.3-5.9
	c-6.7,0-11.4,2.6-13.9,7.7v37.9c2.5,5.1,7.2,7.6,14.1,7.6c7,0,11.4-3.4,13.3-10.2C99.1,292.2,99.6,286.4,99.6,278.1z M81.1,452.8
	c4.2,0,7.4-1.1,9.7-3.4s3.4-5.4,3.4-9.5h27.9c0,10.5-3.8,19.1-11.3,25.8c-7.5,6.7-17.2,10.1-29,10.1c-13.9,0-24.8-4.4-32.8-13.1
	s-12-20.8-12-36.2v-1.2c0-9.6,1.8-18.2,5.3-25.6c3.6-7.4,8.7-13.1,15.4-17c6.7-4,14.7-6,23.8-6c12.4,0,22.3,3.4,29.6,10.3
	c7.3,6.9,10.9,16.2,10.9,28H94.2c0-4.9-1.2-8.7-3.6-11.4c-2.4-2.6-5.6-4-9.7-4c-7.7,0-12.2,4.9-13.5,14.7c-0.4,3.1-0.6,7.4-0.6,12.9
	c0,9.6,1.1,16.2,3.4,19.9S76.1,452.8,81.1,452.8z M192,96h288v32H192V96z M192,256h288v32H192V256z M192,416h288v32H192V416z"/>
</svg>
