<?xml version="1.0" encoding="utf-8"?>
<!-- Generator: Adobe Illustrator 25.0.0, SVG Export Plug-In . SVG Version: 6.00 Build 0)  -->
<svg version="1.1" id="Layer_1" xmlns="http://www.w3.org/2000/svg" xmlns:xlink="http://www.w3.org/1999/xlink" x="0px" y="0px"
	 width="512px" height="512px" viewBox="0 0 512 512" enable-background="new 0 0 512 512" xml:space="preserve">
<path d="M32,64h16v96H32V64z M32,320h16v-96H32V320z M64,320h16v-96H64V320z M32,480h16v-96H32V480z M64,480h16v-96H64V480z M96,480
	h16v-96H96V480z M48,40c0,4.4-3.6,8-8,8s-8-3.6-8-8s3.6-8,8-8S48,35.6,48,40z M80,152c0,4.4-3.6,8-8,8s-8-3.6-8-8s3.6-8,8-8
	S80,147.6,80,152z M112,312c0,4.4-3.6,8-8,8s-8-3.6-8-8s3.6-8,8-8S112,307.6,112,312z M48,200c0,4.4-3.6,8-8,8s-8-3.6-8-8s3.6-8,8-8
	S48,195.6,48,200z M80,200c0,4.4-3.6,8-8,8s-8-3.6-8-8s3.6-8,8-8S80,195.6,80,200z M48,360c0,4.4-3.6,8-8,8s-8-3.6-8-8s3.6-8,8-8
	S48,355.6,48,360z M80,360c0,4.4-3.6,8-8,8s-8-3.6-8-8s3.6-8,8-8S80,355.6,80,360z M112,360c0,4.4-3.6,8-8,8s-8-3.6-8-8s3.6-8,8-8
	S112,355.6,112,360z M144,472c0,4.4-3.6,8-8,8s-8-3.6-8-8s3.6-8,8-8S144,467.6,144,472z M128,96h352v32H128V96z M160,256h320v32H160
	V256z M192,416h288v32H192V416z"/>
</svg>
