<?xml version="1.0" encoding="utf-8"?>
<!-- Generator: Adobe Illustrator 25.0.0, SVG Export Plug-In . SVG Version: 6.00 Build 0)  -->
<svg version="1.1" id="Layer_1" xmlns="http://www.w3.org/2000/svg" xmlns:xlink="http://www.w3.org/1999/xlink" x="0px" y="0px"
	 width="512px" height="512px" viewBox="0 0 512 512" enable-background="new 0 0 512 512" xml:space="preserve">
<path d="M192,96h288v32H192V96z M192,256h288v32H192V256z M192,416h288v32H192V416z M80,64c-26.5,0-48,21.5-48,48s21.5,48,48,48
	s48-21.5,48-48S106.5,64,80,64z M80,224c-26.5,0-48,21.5-48,48s21.5,48,48,48s48-21.5,48-48S106.5,224,80,224z M80,384
	c-26.5,0-48,21.5-48,48s21.5,48,48,48s48-21.5,48-48S106.5,384,80,384z"/>
</svg>
