<?xml version="1.0" encoding="utf-8"?>
<!-- Generator: Adobe Illustrator 25.0.0, SVG Export Plug-In . SVG Version: 6.00 Build 0)  -->
<svg version="1.1" id="Layer_1" xmlns="http://www.w3.org/2000/svg" xmlns:xlink="http://www.w3.org/1999/xlink" x="0px" y="0px"
	 width="512px" height="512px" viewBox="0 0 512 512" enable-background="new 0 0 512 512" xml:space="preserve">
<path d="M192,96h288v32H192V96z M192,256h288v32H192V256z M192,416h288v32H192V416z M96,32v128H64V64c-1.5,1.3-14.9,7.8-22.1,10
	V50.8c7.2-2.1,13.9-4.8,20.3-8c6.3-3.3,12.1-6.8,17.2-10.7L96,32L96,32z M66.7,297h61.1v23H32v-9.5c0-6.4,1.2-12.2,3.7-17.3
	c2.5-5.1,5.6-9.7,9.3-13.8c3.7-4.1,7.8-7.7,12.3-10.8c4.5-3.1,8.7-6,12.7-8.5c4.2-2.6,7.9-5.1,11.1-7.6c3.2-2.4,5.9-4.8,8-7.2
	c2.2-2.4,3.8-4.8,4.9-7.2s1.6-5,1.6-7.8c0-5.4-1.7-9.5-5.2-12.2c-3.5-2.8-8.8-4.1-16-4.1c-12.4,0-24.2,4.3-35.5,12.9v-24.4
	c12.5-7.1,26.6-10.6,42.4-10.6c7.3,0,13.8,0.8,19.6,2.5c5.8,1.7,10.7,4.1,14.7,7.2c4,3.1,7.1,6.9,9.2,11.3c2.1,4.4,3.2,9.3,3.2,14.8
	c0,5.8-1,10.9-3.1,15.5c-2,4.5-4.8,8.6-8.1,12.3c-3.4,3.7-7.3,7.1-11.7,10.1c-4.4,3.1-9,6-13.8,8.9c-3.2,2-6.3,4-9.3,5.9
	c-3,2-5.6,3.9-7.9,5.8s-4.1,3.8-5.4,5.6C67.4,293.6,66.7,295.4,66.7,297z M32,473.8V450c10.1,6,21.8,9.1,35.3,9.1
	c8.5,0,15.1-1.5,19.8-4.5c4.7-3,7.1-7.2,7.1-12.5c0-5.5-2.9-9.8-8.8-12.8c-5.8-3-13.9-4.5-24.1-4.5h-14V404h12.9
	c19.6,0,29.4-5.4,29.4-16.1c0-10.1-7.5-15.1-22.6-15.1c-10.1,0-19.9,2.7-29.4,8v-22.3c10.6-4.4,22.9-6.6,37-6.6
	c15.4,0,27.4,2.8,36,8.5s12.9,13.1,12.9,22.2c0,16.2-10,26.3-29.9,30.4v0.4c10.6,1.1,19,4.3,25.2,9.5c6.2,5.3,9.2,11.7,9.2,19.4
	c0,11.6-5.1,20.7-15.4,27.4S88.1,480,69.9,480C54.4,480,41.7,477.9,32,473.8z"/>
</svg>
