<?xml version="1.0" encoding="utf-8"?>
<!-- Generator: Adobe Illustrator 25.0.1, SVG Export Plug-In . SVG Version: 6.00 Build 0)  -->
<svg version="1.1" id="Layer_1" xmlns="http://www.w3.org/2000/svg" xmlns:xlink="http://www.w3.org/1999/xlink" x="0px" y="0px"
	 width="512px" height="512px" viewBox="0 0 512 512" enable-background="new 0 0 512 512" xml:space="preserve">
<path d="M379,243.6c-2.7-9.3-6.5-17.2-11.7-23.8c-5-6.4-11.4-11.4-18.6-15c-7.4-3.5-15.9-5.2-25.3-5.2c-16.3,0-30,6.9-41.4,20.5V160
	h-26v192h26v-14.8c10.8,9.8,24.1,14.8,39.7,14.8c8.7,0,16.9-1.8,24.3-5.4c7.5-3.8,14-8.9,19.5-15.5c5.5-6.8,9.7-14.9,12.9-24.4
	c3-9.6,4.6-20.3,4.6-32.1C383,263.1,381.7,252.8,379,243.6z M347.2,317.3c-6.6,9.5-15.6,14.2-26.8,14.2c-14.5,0-27.3-5.9-38.4-17.8
	v-69.1c11.9-16.6,25-24.9,39.4-24.9c11.4,0,20,4.6,26.2,13.9c6.1,9.2,9.3,22.9,9.3,41C356.9,293.5,353.6,307.9,347.2,317.3z
	 M208.2,209.5c-10.6-7.5-25.2-11.1-44.1-11.1c-40.5,0-61.7,15-63.6,44.6h26.1c0.7-16.2,12.8-24.4,36-24.4c11,0,19.2,1.6,24.4,4.8
	c2.6,1.6,4.6,3.4,6.2,5.1c1.5,1.8,2.5,4,3.2,6.6s1.1,5.6,1.4,9.4c0.1,3.6,0.1,8.3,0.1,13.5h-12.8c-59.3,0.1-89.1,17.3-89.1,51.5
	c0,6.4,1.3,12,3.8,17.2c2.4,5.3,5.9,9.6,10.4,13.4c4.4,3.8,9.8,6.7,16,8.7c6.1,2.2,12.7,3.2,20,3.2c20.9,0,51.8-18.6,51.8-18.6V351
	h26v-97.5C224,231.5,218.6,216.9,208.2,209.5z M198,309.5c-2.3,3.4-5.1,6.3-8.4,9c-3.2,2.6-6.8,4.9-10.7,6.8
	c-3.9,1.8-8,3.3-12.2,4.3s-8.6,1.4-12.8,1.4c-9.6,0-17-2-22.5-5.9c-5.5-4.1-8.3-9.8-8.3-17.2c0-20.6,18.9-30.9,56.9-30.9h18V309.5z
	 M448,96h-32v320h32V96z M448,64H64V32h384V64z M448,479.6H64v-32h384V479.6z"/>
</svg>
