<?xml version="1.0" encoding="utf-8"?>
<!-- Generator: Adobe Illustrator 24.2.0, SVG Export Plug-In . SVG Version: 6.00 Build 0)  -->
<svg version="1.1" id="Layer_1" xmlns="http://www.w3.org/2000/svg" xmlns:xlink="http://www.w3.org/1999/xlink" x="0px" y="0px"
	 width="512px" height="512px" viewBox="0 0 512 512" xml:space="preserve">
<path d="M470.7,480L448,502.7c-12.4,12.4-32.8,12.4-45.1-0.1l-93.1-93.1c-11.8,4.2-24.5,6.5-37.8,6.5c-61.9,0-112-50.1-112-112
	c0-13.2,2.3-25.9,6.5-37.6l48.9,48.9c12.4,12.4,32.8,12.4,45.3,0l22.6-22.6c12.4-12.4,12.4-32.8,0-45.3l-48.9-48.9
	c11.8-4.2,24.4-6.5,37.6-6.5c61.9,0,112,50.1,112,112c0,13.2-2.3,25.9-6.5,37.6l93.2,93.1C483.1,447.2,483.1,467.6,470.7,480z
	 M447.9,457l-86.3-86.3c-6.4,8.6-14,16.2-22.6,22.6l86.4,86.3l22.6-22.5V457H447.9z M96,64h224v96h96v128h32V128l-96-96H96
	c-17.7,0-32,14.3-32,32v384c0,17.7,14.3,32,32,32h160v-32H96V64z"/>
</svg>
