<?xml version="1.0" encoding="utf-8"?>
<!-- Generator: Adobe Illustrator 19.2.1, SVG Export Plug-In . SVG Version: 6.00 Build 0)  -->
<svg version="1.1" id="Layer_1" xmlns="http://www.w3.org/2000/svg" xmlns:xlink="http://www.w3.org/1999/xlink" x="0px" y="0px"
	 width="512px" height="512px" viewBox="0 0 512 512" xml:space="preserve">
<path d="M480,64v384h-32V64H480z M174.2,221.1l-11.3-11.3L128,244.7V192H96v52.7l-34.9-34.9l-11.3,11.3L84.7,256H32v32h52.7
	l-34.9,34.9l11.3,11.3L96,299.3V352h32v-52.7l34.9,34.9l11.3-11.3L139.3,288H192v-32h-52.7L174.2,221.1z M398.2,221.1l-11.3-11.3
	L352,244.7V192h-32v52.7l-34.9-34.9l-11.3,11.3l34.9,34.9H256v32h52.7l-34.9,34.9l11.3,11.3l34.9-34.9V352h32v-52.7l34.9,34.9
	l11.3-11.3L363.3,288H416v-32h-52.7L398.2,221.1z"/>
</svg>
