<?xml version="1.0" encoding="utf-8"?>
<!-- Generator: Adobe Illustrator 24.2.0, SVG Export Plug-In . SVG Version: 6.00 Build 0)  -->
<svg version="1.1" id="Layer_1" xmlns="http://www.w3.org/2000/svg" xmlns:xlink="http://www.w3.org/1999/xlink" x="0px" y="0px"
	 width="512px" height="512px" viewBox="0 0 512 512" xml:space="preserve">
<path d="M226,224h30v128h-32v-72.8l-32.2,45.6L160,279v73h-32V224h32l31.8,46.2L226,224z M352,288h32l-48,64l-48-64h32l0.2-64H352
	V288z M416,32H311.4C300.3,12.9,279.7,0,256,0s-44.3,12.9-55.4,32H96c-17.7,0-32,14.3-32,32v384c0,17.7,14.3,32,32,32h320
	c17.7,0,32-14.3,32-32V64C448,46.3,433.7,32,416,32z M256,32c17.7,0,32,14.3,32,32h-64C224,46.3,238.3,32,256,32z M416,448H96V64h64
	l0,0v64h192V64l0,0h64V448z"/>
</svg>
