<?xml version="1.0" encoding="utf-8"?>
<!-- Generator: Adobe Illustrator 24.2.0, SVG Export Plug-In . SVG Version: 6.00 Build 0)  -->
<svg version="1.1" id="Layer_1" xmlns="http://www.w3.org/2000/svg" xmlns:xlink="http://www.w3.org/1999/xlink" x="0px" y="0px"
	 width="512px" height="512px" viewBox="0 0 512 512" xml:space="preserve">
<path d="M128,160l48.5,192h46.7L256,238.4L285.3,352h43.1L384,160h-73v35h19.3l-22.2,86l-28.8-121h-45.4l-33.1,119.3L175.8,160H128
	L128,160z M416,32H311.4C300.3,12.9,279.7,0,256,0s-44.3,12.9-55.4,32H96c-17.7,0-32,14.3-32,32v384c0,17.7,14.3,32,32,32h320
	c17.7,0,32-14.3,32-32V64C448,46.3,433.7,32,416,32z M256,32c17.7,0,32,14.3,32,32h-64C224,46.3,238.3,32,256,32z M416,448H96V64h64
	l0,0v64h192V64l0,0h64V448z"/>
</svg>
