<?xml version="1.0" encoding="utf-8"?>
<!-- Generator: Adobe Illustrator 24.2.0, SVG Export Plug-In . SVG Version: 6.00 Build 0)  -->
<svg version="1.1" id="Layer_1" xmlns="http://www.w3.org/2000/svg" xmlns:xlink="http://www.w3.org/1999/xlink" x="0px" y="0px"
	 width="512px" height="512px" viewBox="0 0 512 512" xml:space="preserve">
<path d="M256,0L0,256l256,256l256-256L256,0z M180.1,324c-21.6,0-40.5-6.3-52.1-13.7v-33.2c14.5,10.8,32.9,17.9,51.4,17.9
	c16.3,0,28.6-5,28.6-17.6c0-10.6-6.8-14.5-18.9-18.9l-23.6-7.9c-23.9-7.9-39.7-20.3-39.7-47c0-29.9,25.7-46.2,57.3-46.2
	c19.7,0,35.8,4.7,48.8,12.6v32.9c-13.9-10.2-29.1-16.8-47.8-16.8c-14.5,0-25.5,4.9-25.5,16c0,9.9,6.5,13.9,17.9,17.6l25.2,8.6
	c27.1,9.2,39.4,23.9,39.4,47.8C241.3,308,214.3,324,180.1,324z M276,320V160h32v128h76v32H276L276,320z"/>
</svg>
