<?xml version="1.0" encoding="utf-8"?>
<!-- Generator: Adobe Illustrator 19.2.1, SVG Export Plug-In . SVG Version: 6.00 Build 0)  -->
<svg version="1.1" id="Layer_1" xmlns="http://www.w3.org/2000/svg" xmlns:xlink="http://www.w3.org/1999/xlink" x="0px" y="0px"
	 width="512px" height="512px" viewBox="0 0 512 512" xml:space="preserve">
<path d="M393.9,320c0.1-23.9,4.5-41.4,13.5-52.5c9.1-11.1,20.8-16.7,35.3-16.7c9.6,0,17.7,3.1,24.5,9.3c6.8,6.2,11.4,15.4,14.1,27.7
	l27.9-4.7c-3.3-18.4-10.8-32.7-22.5-42.7c-11.7-10-26.8-15-45.2-15c-14.5,0-28.1,3.6-40.4,11.1c-12.4,7.4-21.6,18.5-27.7,33.2
	c-5.9,14.4-8.9,31.2-9.1,50.4h-25.5c0-0.7,0-1.4,0-2.2c0-13.2-1.7-25.6-5.1-37.1c-3.4-11.5-8.1-21.4-14.2-29.6
	c-6-8.1-13.7-14.5-23-19s-19.2-6.8-29.6-6.8c-18.9,0-34.3,8.2-46.4,24.6V160H192v160h-45v-25.8c0-13.7-0.5-23.3-1.4-28.5
	c-1.7-8.5-4.7-15.5-9-21.1c-4.3-5.5-10.9-10.2-19.9-13.8c-9-3.6-20.8-5.5-35.3-5.5c-14.6,0-27.4,2.1-38.5,6.4
	c-11.1,4.3-19.5,10.4-25.4,18.4c-5.8,8-10,18.4-12.6,31.4l28.1,4.1c3.1-13,7.8-22,14.3-27.1s16.4-7.7,29.9-7.7
	c14.5,0,25.4,3.5,32.7,10.5c5.4,5.1,8.1,14,8.1,26.6c0,1.1,0,3.8-0.2,8.1c-11,4.1-28,7.7-51.2,10.7c-11.4,1.5-19.9,3-25.5,4.7
	c-6.7,2-12.9,4.9-18.5,8.6H0v32h1.2c-0.8,3.8-1.2,7.7-1.2,11.8c0,15.2,5,27.8,15,37.6S39.3,416,57.9,416c11.3,0,21.8-1.9,31.6-6
	s20.1-10.9,30.7-20.6l0.1,0c0.8,8.6,2.7,20.3,5.7,26.7h30c-3.6-7-6-18.4-7.3-26.1c-1-6-1.6-18.7-1.8-37.9h45v64h26.6v-0.1v-27
	c11.4,18,27.1,27,47.1,27c20.1,0,37.3-8.5,51.7-25.6c8.6-10.2,14.6-23,18-38.3h31.8c3.3,16,9.4,29.2,18.3,39.5
	c14.1,16.3,32.7,24.5,55.9,24.5c18.5,0,34.1-6,46.8-17.8c12.1-11.3,19.8-26.7,23.2-46.2h0.5v-32H393.9z M113.2,362.6
	c-4.1,9-10.4,16.1-19,21.4c-8.6,5.2-18.4,7.8-29.5,7.8c-11.2,0-19.6-2.8-25.4-8.2c-5.8-5.6-8.7-12.4-8.7-20.7
	c0-3.9,0.7-7.5,2.1-10.9h83.6C115.6,356.1,114.5,359.7,113.2,362.6z M218.3,319.3c0-22.2,4.6-39.2,13.7-50.9
	c9.1-11.8,20-17.6,32.5-17.6c12.5,0,23.1,5.6,31.8,17c8.8,11.3,13.1,28.7,13.2,52.3h-91.3C218.3,319.8,218.3,319.5,218.3,319.3z
	 M295.9,372.9c-9.1,11.8-20,17.7-32.5,17.7c-15.5,0-27.7-8-36.7-23.9c-2.2-3.9-4-8.8-5.3-14.7h84.6
	C303.6,360.3,300.3,367.3,295.9,372.9z M469.4,379.5c-7.5,7.5-16.9,11.2-28.2,11.2c-14,0-25.4-5.6-34.1-16.7
	c-4.4-5.6-7.7-12.9-9.9-21.9h85.5C480.1,364,475.7,373.2,469.4,379.5z"/>
</svg>
