<?xml version="1.0" encoding="utf-8"?>
<!-- Generator: Adobe Illustrator 24.2.0, SVG Export Plug-In . SVG Version: 6.00 Build 0)  -->
<svg version="1.1" id="Layer_1" xmlns="http://www.w3.org/2000/svg" xmlns:xlink="http://www.w3.org/1999/xlink" x="0px" y="0px"
	 width="512px" height="512px" viewBox="0 0 512 512" xml:space="preserve">
<path d="M96,288L0,400l96,112h256V288H96z M266.3,455.5c-3.9,5.9-9.3,10.6-16.1,14.2c-6.8,3.6-14.6,6.2-23.6,7.8
	c-9,1.6-18.4,2.4-28.4,2.4c-10.2,0-20-0.7-29.2-2.2c-9.2-1.4-17.2-3.6-24-6.5v-34.5c7.5,5.2,15.7,9.2,24.6,11.8
	c8.8,2.6,17.8,3.9,26.8,3.9c5.3,0,9.9-0.4,13.9-1.2c3.9-0.8,7.2-1.9,9.9-3.3c2.6-1.4,4.6-3.1,5.9-5c1.3-1.9,2-4,2-6.2
	c0-3-1-5.7-3.1-8.1c-2.1-2.4-4.9-4.6-8.5-6.6c-3.6-2-7.9-4-12.8-5.8c-4.9-1.9-10.3-3.8-16-5.7c-14.6-5-25.4-11.2-32.6-18.4
	c-7.2-7.3-10.7-16-10.7-26.3c0-8.1,2-15,5.9-20.8c3.9-5.8,9.2-10.5,15.9-14.3c6.7-3.7,14.5-6.5,23.3-8.3c8.8-1.8,18.2-2.6,28.1-2.6
	c9.7,0,18.3,0.5,25.8,1.5c7.5,1,14.4,2.5,20.7,4.5v32.3c-3.1-1.8-6.5-3.4-10.2-4.7c-3.7-1.4-7.5-2.5-11.4-3.4
	c-3.9-0.9-7.8-1.6-11.6-2c-3.9-0.4-7.5-0.6-11-0.6c-4.8,0-9.1,0.4-13,1.1c-3.9,0.8-7.2,1.8-9.9,3.2c-2.7,1.4-4.8,3-6.2,4.9
	c-1.5,1.9-2.2,4-2.2,6.4c0,2.6,0.8,4.9,2.5,7c1.6,2.1,4,4,7,5.8c3,1.8,6.7,3.6,11.1,5.4c4.3,1.8,9.2,3.6,14.7,5.4
	c7.5,2.6,14.2,5.3,20.1,8.3c5.9,2.9,11,6.2,15.3,9.9c4.2,3.7,7.5,7.9,9.8,12.6c2.3,4.7,3.4,10.2,3.4,16.4
	C272.2,442.4,270.2,449.7,266.3,455.5z M502.7,32L480,9.3c-12.4-12.4-32.8-12.4-45.3,0l-67.9,67.9l-22.6-22.6
	c-12.4-12.4-32.8-12.4-45.3,0l-22.6,22.6l158.4,158.4l22.6-22.6c12.4-12.4,12.4-32.8,0-45.3l-22.6-22.6l67.9-67.9
	C515.1,64.8,515.1,44.4,502.7,32z M255.8,101.9c-12.4-12.4-32.8-12.4-45.3,0l-79.7,79.7c-12.4,12.4-32.8,12.4-45.3,0L160,256h249.9
	L255.8,101.9z"/>
</svg>
