<?xml version="1.0" encoding="utf-8"?>
<!-- Generator: Adobe Illustrator 19.2.1, SVG Export Plug-In . SVG Version: 6.00 Build 0)  -->
<svg version="1.1" id="Layer_1" xmlns="http://www.w3.org/2000/svg" xmlns:xlink="http://www.w3.org/1999/xlink" x="0px" y="0px"
	 width="512px" height="512px" viewBox="0 0 512 512" xml:space="preserve">
<path d="M448,416l32-32v96H352h-32v-64v-8v-32.2c11.4-5.1,22.2-11.5,32-19c38.9-29.7,64-76.9,64-130.1C416,136.8,344.4,64,256,64
	S96,136.8,96,226.7c0,53.2,25.1,100.5,64,130.1c9.8,7.5,20.6,13.9,32,19V408v72h-32H32v-96l32,32h96v-18.5
	C84.3,366.7,32,300.6,32,224C32,118,132.3,32,256,32s224,86,224,192c0,76.6-52.3,142.7-128,173.5V416H448z"/>
</svg>
