<?xml version="1.0" encoding="utf-8"?>
<!-- Generator: Adobe Illustrator 19.2.1, SVG Export Plug-In . SVG Version: 6.00 Build 0)  -->
<svg version="1.1" id="Layer_1" xmlns="http://www.w3.org/2000/svg" xmlns:xlink="http://www.w3.org/1999/xlink" x="0px" y="0px"
	 width="512px" height="512px" viewBox="0 0 512 512" xml:space="preserve">
<path d="M96,192h160v128H96V192z M32,352h160v128H32v-32v-64V352z M64,384v64h96v-64H64z M192,160H32v-32V64V32h160V160z M160,64H64
	v64h96V64z M422.627,256L480,313.373L457.373,336L400,278.627L342.627,336L320,313.373L377.373,256L320,198.627L342.627,176
	L400,233.373L457.373,176L480,198.627L422.627,256z"/>
</svg>
