<?xml version="1.0" encoding="utf-8"?>
<!-- Generator: Adobe Illustrator 24.2.0, SVG Export Plug-In . SVG Version: 6.00 Build 0)  -->
<svg version="1.1" id="Layer_1" xmlns="http://www.w3.org/2000/svg" xmlns:xlink="http://www.w3.org/1999/xlink" x="0px" y="0px"
	 width="512px" height="512px" viewBox="0 0 512 512" xml:space="preserve">
<path d="M377.2,292.1c-5.5,5.3-7.2,6.4-7.4,6.6c-0.2,0.1-0.4,0.2-0.9,0.2c-0.1-0.2-0.3-0.7-0.5-1.7c-0.2-1-0.5-4.2-0.5-15.1v-31.7
	c0-9.9-0.7-16.2-2.3-19.7c-2.4-5.4-6.1-9.4-11.2-12c-6.2-3.1-14-4.7-23.3-4.7c-12.3,0-22.1,2.8-29,8.4c-7.2,5.7-10.9,12.3-10.9,19.4
	c0,4.1,1.2,7.5,3.6,10c2.5,2.7,5.7,4,9.6,4c3.9,0,7.2-1.3,9.6-3.8c2.4-2.4,3.6-5.9,3.6-10.2l-0.2-5.8c0-1.9,0.9-3.5,2.7-5.1
	c1.8-1.6,4.4-2.4,7.9-2.4c4.7,0,8.1,1.3,10.4,3.9c1.7,1.9,3.6,6.3,3.6,16.8v0.9c-15.6,5.6-26.5,10.2-33.4,14.1
	c-7.8,4.4-13.1,9.1-16.3,14.3c-2.5,3.9-3.7,8.5-3.7,13.8c0,8.2,2.5,14.9,7.5,20c5,5.2,11.6,7.8,19.4,7.8c4.9,0,9.5-1,13.8-2.9
	c2.2-1,6.6-3.9,13.5-8.9c0.7,2.9,1.9,5.2,3.5,6.9c2.8,3.1,6.6,4.7,11.2,4.7c8.5,0,17.1-5.6,25.7-16.8l0.8-1v-16.3L377.2,292.1z
	 M342,291.9c-8.9,6.7-14.1,8.1-16.9,8.1l-0.1,0c-2.8,0-5.1-1.1-7.4-3.6c-2.3-2.4-3.5-5.6-3.5-9.5c0-3,0.9-5.8,2.8-8.4
	c2.1-2.8,5.7-5.6,10.6-8.2c2.4-1.3,7.2-3.4,14.4-6.2L342,291.9L342,291.9z M244.1,304.1c-1.3-1.4-4-5.6-7.9-17.9L195.6,160h-7.7
	l-41,124.9c-4.1,12.7-7,17.9-8.8,20.1c-0.3,0.4-1.8,1.8-7.4,3.1l-2.8,0.6V320h43v-11.7l-3.2-0.3c-6.6-0.6-8.3-2-8.6-2.3
	c-0.9-0.9-1.3-1.9-1.3-3c0-1.6,0.5-4.8,2.6-11.5l5.3-16.2h42.1l4.6,14c2.6,8.1,3.1,12,3.1,13.8c0,1.3-0.4,2.2-1.3,3.2
	c-0.3,0.4-1.9,1.6-7,1.9l-3.3,0.2V320h52v-11.8l-3.2-0.3C248.9,307.6,246.1,306.4,244.1,304.1z M172.5,254l14.7-44.6l14.4,44.6
	H172.5z M352,32H96c-17.7,0-32,14.3-32,32v384c0,17.7,14.3,32,32,32h320c17.7,0,32-14.3,32-32V128L352,32z M416,448H96V64h224v96h96
	V448z M192,416h-64v-64h64V416z M288,416h-64v-64h64V416z M384,416h-64v-64h64V416z"/>
</svg>
