<?xml version="1.0" encoding="utf-8"?>
<!-- Generator: Adobe Illustrator 19.2.1, SVG Export Plug-In . SVG Version: 6.00 Build 0)  -->
<svg version="1.1" id="Layer_1" xmlns="http://www.w3.org/2000/svg" xmlns:xlink="http://www.w3.org/1999/xlink" x="0px" y="0px"
	 width="512px" height="512px" viewBox="0 0 512 512" xml:space="preserve">
<path d="M128,160H96V96c0-17.7,14.3-32,32-32h224l64,64h-96V96H128V160z M392.5,211.6l67.9,67.9L318.8,421.1L290.7,448H224v-66.7
	l26.9-28.1L392.5,211.6z M415.1,279.5l-22.6-22.6L256.7,392.7L268,404l11.3,11.3L415.1,279.5z M416,480H128v-96H96v96
	c0,17.7,14.3,32,32,32h288c17.7,0,32-14.3,32-32V337.155l-32,32V480z M502.7,192l-22.6-22.6c-12.5-12.4-32.9-12.4-45.3,0L412.2,192
	l67.8,67.8l22.7-22.5C515.1,224.8,515.1,204.4,502.7,192z M160,448h32v-32h-32V448z M64,32h256L288,0H64C46.3,0,32,14.3,32,32v128
	h32V32z M64,384H32v32c0,17.7,14.3,32,32,32l0,0V384z M243,131L112,262l-67-67L0,240l112,112l176-176L243,131z"/>
</svg>
