<?xml version="1.0" encoding="utf-8"?>
<!-- Generator: Adobe Illustrator 19.2.1, SVG Export Plug-In . SVG Version: 6.00 Build 0)  -->
<svg version="1.1" id="Layer_1" xmlns="http://www.w3.org/2000/svg" xmlns:xlink="http://www.w3.org/1999/xlink" x="0px" y="0px"
	 width="512px" height="512px" viewBox="0 0 512 512" xml:space="preserve">
<path d="M102.627,272L160,329.373L137.373,352L80,294.627L22.627,352L0,329.373L57.373,272L0,214.627L22.627,192L80,249.373
	L137.373,192L160,214.627L102.627,272z M192,384v-32h-32v32H192z M502.7,128l-22.6-22.6c-12.5-12.4-32.9-12.4-45.3,0L412.2,128
	l67.8,67.8l22.7-22.5C515.1,160.8,515.1,140.4,502.7,128z M96,64h224v96l80.11-79.89L352,32H96c-17.7,0-32,14.3-32,32v96h32V64z
	 M392.5,147.6l67.9,67.9L318.8,357.1L290.7,384H224v-66.7l26.9-28.1L392.5,147.6z M415.1,215.5l-22.6-22.6L256.7,328.7L268,340
	l11.3,11.3L415.1,215.5z M416,448H96v-64H64v64c0,17.7,14.3,32,32,32h320c17.7,0,32-14.3,32-32V273.155l-32,32V448z"/>
</svg>
